<svg width="470" height="524" viewBox="0 0 470 524" fill="none" xmlns="http://www.w3.org/2000/svg">
<path d="M2.6582 33.9968C2.6582 18.5346 15.1928 6 30.655 6H438.498C453.96 6 466.495 18.5346 466.495 33.9968V493.377C466.495 508.84 453.96 521.374 438.498 521.374H30.655C15.1928 521.374 2.6582 508.84 2.6582 493.377V33.9968Z" fill="#522A00"/>
<path d="M48.8513 0.457587C59.5565 0.311708 73.5892 0.467688 84.2539 0.681779C87.5962 0.748179 85.9037 1.04499 88.2109 1.10419C92.7234 1.21959 96.9274 1.07403 101.387 1.2115C102.865 1.25851 101.025 1.72866 102.575 1.7672C111.066 1.97498 119.1 1.85522 127.702 1.95516C170.073 2.44824 211.723 2.62473 254.613 2.83895C268.755 2.90918 285.946 3.33586 300.553 3.14926C302.259 3.12706 301.242 2.71438 301.566 2.68037C306.655 2.15968 304.963 2.99278 308.285 3.10347C321.472 3.5405 336.135 3.57851 348.826 3.41925C354.225 3.35028 348.811 2.53061 354.247 2.99069C354.625 3.02177 353.255 3.46 354.736 3.50674C358.093 3.61186 364.464 3.53353 367.066 3.56826C372.081 3.63739 372.911 3.63298 377.655 3.63797C384.14 3.64861 391.853 3.86645 398.81 3.76716C400.295 3.74466 398.329 3.29543 400.698 3.21898C403.068 3.14266 409.34 3.18075 411.454 3.28665C413.569 3.3926 412.668 3.74569 413.043 3.82662C416.122 4.50973 423.376 3.56363 424.309 3.54023C429.21 3.42544 433.909 3.38838 438.498 3.39378C450.988 3.36485 462.166 11.35 466.683 22.8061C468.078 26.3039 468.836 30.1397 468.852 33.9968C468.904 42.8591 468.989 51.818 468.972 60.0501C468.941 73.7978 468.698 85.4494 468.739 98.8049C468.743 100.214 469.272 98.5627 469.277 100.284C469.339 118.574 469.281 136.737 468.925 154.948C468.888 156.774 468.425 154.42 468.361 156.245C467.98 167.416 467.064 185.092 469.083 191.728C469.004 199.295 468.923 208.482 468.516 215.251C468.254 219.616 467.749 215.377 467.964 220.739C468.012 221.948 468.455 220.376 468.493 222.189C468.655 229.825 468.512 238.167 468.74 245.72C468.788 247.257 469.184 246.837 469.255 247.273C469.834 250.931 468.878 257.022 468.808 258.35C468.291 268.46 468.494 275.844 468.482 285.262C468.479 287.448 469.011 284.864 469.027 286.967C469.104 297.876 469.058 309.175 468.821 319.856C468.768 322.232 468.314 320.047 468.265 321.182C468.055 326.188 468.912 327.298 468.726 332.099C468.689 333.111 468.3 332.541 468.258 332.726C467.588 335.615 468.537 338.126 468.558 338.869C468.844 348.27 467.853 354.28 467.994 363.362C468.011 364.449 468.503 361.999 468.523 365.053C468.658 385.401 468.523 406.921 468.13 427.062C468.07 430.193 467.701 427.958 467.655 428.155C466.944 431.367 467.897 433.445 467.933 434.466C468.191 442.521 467.392 450.046 468.527 455.519C468.381 468.16 468.377 480.779 468.377 493.377C468.781 509.326 454.305 523.667 438.498 523.063C431.803 522.97 425.112 522.834 418.427 522.633C417.997 522.621 418.768 522.152 417.91 522.131C407.576 521.867 409.56 522.596 402.723 523.488C401 523.712 395.76 522.635 395.297 522.556C393.607 522.266 395.359 521.568 394.794 521.511C390.113 521.069 390.876 523.377 384.562 523.378C384.365 523.374 385.194 522.949 384.664 522.907C383.018 522.774 381.385 522.943 379.774 522.797C376.087 522.459 374.774 521.337 369.142 521.99C368.429 522.075 369.518 523.384 363.88 523.322C361.633 523.296 351.685 523.319 348.897 523.234C346.113 523.149 348.025 522.727 347.826 522.709C340.323 522.151 343.168 521.92 339.409 521.094C335.65 520.271 336.693 522.233 335.16 522.453C333.625 522.671 328.124 522.211 326.772 522.051C325.421 521.891 327.107 521.622 325.905 521.532C317.939 520.94 322.409 522.506 319.784 522.818C313.595 523.555 308.775 522.1 303.11 521.957C301.577 521.918 302.828 522.25 301.463 522.281C296.057 522.399 292.805 521.945 286.655 522.362C285.649 522.43 280.677 523.305 277.458 522.662C277.002 522.57 278.298 522.207 275.993 522.126C272.552 522.004 266.35 521.925 262.65 522.046C259.918 522.136 263.049 522.733 259.611 522.548C258.083 522.465 260.915 522.115 258.044 521.988C255.189 521.862 247.887 521.877 245.109 521.889C242.336 521.902 243.854 522.355 243.63 522.386C242.273 522.56 236.951 522.779 236.481 522.779C212.757 522.834 190.88 522.07 167.782 522.323C165.969 522.342 167.176 522.82 166.9 522.828C160.694 523.028 165.587 521.757 161.252 521.332C161.879 522.302 159.32 522.126 154.948 522.232C152.842 522.284 153.989 522.66 153.797 522.699C150.673 523.269 148.498 522.532 147.938 522.381C145.869 521.827 143.618 522.482 142.21 522.111C140.803 521.744 144.041 521.198 139.849 521.205C138.673 521.552 141.786 522.46 138.603 522.607C126.594 523.163 104.177 522.451 94.5207 522.377C84.8841 522.303 81.7716 522.367 76.1562 522.242C66.0132 522.015 69.7304 522.688 63.4323 522.997C57.1158 523.305 60.1864 521.648 59.2785 521.292C58.3872 520.936 57.4139 521.302 56.3052 521.107C55.2001 520.911 57.5925 520.669 54.9934 520.595C52.3929 520.522 45.2827 521.155 44.361 521.528C42.4123 522.317 45.6162 523.145 38.7351 522.854C38.3393 522.836 39.6237 522.401 38.1083 522.357C35.6408 522.288 33.1536 522.233 30.655 522.185C20.6414 522.131 10.8616 516.272 6.22719 507.728C5.43679 506.256 6.58999 507.317 6.15376 506.463C4.04286 501.963 3.84517 500.344 3.28392 499.409C2.81408 498.438 2.20777 498.075 1.52874 495.258C2.24215 495.908 2.65608 495.242 2.97798 493.377C3.26313 491.782 3.41998 489.257 3.42325 485.774C3.42796 481.203 2.90037 481.99 2.52853 479.033C2.41644 478.146 2.7787 474.911 2.53058 474.325C1.71952 472.392 0.811597 475.439 1.17312 467.599C1.19031 467.255 1.63427 468.35 1.66115 467.162C1.83714 459.479 0.988786 458.56 0.886049 450.255C0.805434 443.745 1.32275 432.168 1.40689 424.756C2.76501 424.912 2.45402 417.911 1.51761 415.071C1.55595 410.261 1.50301 405.065 1.63244 400.416C1.67657 398.816 2.06978 399.867 2.11227 399.665C2.77876 396.571 1.86775 394.48 1.83203 393.442C1.48485 382.188 2.17532 373.02 1.50053 362.28C1.47622 361.899 0.53283 361.282 1.22165 358.411C1.26914 358.225 1.69836 361.772 1.73155 356.72C1.76482 351.667 2.27055 342.142 1.8334 335.127C1.72816 333.43 0.962312 329.136 1.56068 325.69C1.64193 325.231 1.9125 325.733 2.06306 325.071C2.54281 322.928 1.58927 321.759 2.39935 319.241C3.20939 316.723 3.81605 311.485 3.25716 304.411C3.24091 304.185 2.48514 302.511 2.49709 300.286C2.51681 296.734 2.67426 291.693 2.66933 287.985C2.66671 286.209 2.19741 287.345 2.18882 287.037C1.92585 275.099 2.34422 266.603 2.5258 253.814C2.56001 251.469 1.92006 244.732 2.426 240.193C2.97986 235.21 5.28381 240.331 4.73491 228.876C4.51536 224.256 1.59238 218.406 3.10678 210.103C2.73152 194 3.50659 179.109 2.97076 162.961C2.94702 162.235 2.13124 159.938 2.14235 158.231C2.16041 155.697 2.54169 154.306 2.56681 152.496C2.68166 144.913 2.35544 137.974 2.40618 130.663C2.42462 127.887 2.81886 128.857 2.8409 125.547C2.86256 122.238 2.34342 120.032 2.59415 115.548C2.78526 112.162 3.84638 108.777 3.97006 104.282C2.92339 104.111 2.94495 101.024 2.66865 95.537C2.61504 94.4823 2.25075 95.6132 2.2066 95.1143C2.01884 93.084 2.32076 91.205 2.11637 89.277C2.06728 88.808 1.70984 88.786 1.64953 88.4025C1.12313 85.1423 1.92716 79.7712 2.06716 78.8487C2.59883 75.3131 2.13393 73.6609 2.3433 70.949C2.55264 68.2416 2.81434 72.2898 2.94137 69.1272C3.20413 62.5717 3.1464 54.1485 3.16283 47.4907C3.16718 44.8342 2.69004 46.6465 2.67959 46.2664C2.57984 41.7386 2.90713 37.1688 2.49301 33.9968C2.40481 33.3112 2.30679 32.6966 2.17532 32.1372C5.13671 28.6628 1.71843 28.5978 5.35356 21.3372C5.68889 20.7876 7.01334 20.6686 6.1776 22.7921C5.36385 24.9041 3.95781 28.155 3.94246 31.3625C3.93575 31.7128 4.09466 32.8578 4.36791 33.9968C4.6732 35.3678 4.99718 36.782 5.03224 37.106C5.54777 41.8825 3.81117 42.5593 3.71579 42.8121C2.68646 45.6778 3.85961 51.1392 3.94067 52.5773C4.3121 59.1567 4.06788 64.7465 4.33301 70.2495C4.50436 73.8485 5.6419 74.2007 5.60707 77.0268C5.49199 86.4216 3.90512 89.701 5.28104 98.554C5.57449 100.452 6.81779 98.5658 5.84015 105.368C5.77852 105.795 4.88416 110.845 5.44987 113.763C5.52119 114.129 5.88353 114.118 5.91397 114.601C6.11086 117.84 5.8222 120 5.96045 123.528C6.0987 127.056 6.30481 131.298 6.18191 135.327C6.10842 137.754 5.43333 140.869 5.26805 142.031C4.79193 145.312 5.57257 148.831 4.99601 150.863C4.41655 152.913 3.53655 148.906 3.16215 154.281C4.10353 154.48 5.06977 154.938 6.0165 155.258C5.98335 167.038 5.67895 178.629 5.72054 190.449C5.72663 191.914 6.23273 190.416 6.25231 191.987C6.33271 198.614 5.97193 204.403 6.11561 211.277C6.22876 216.597 6.7646 222.431 6.8996 227.994C5.82239 231.392 6.18807 239.647 6.08963 245.644C6.05562 247.745 5.76792 247.605 5.67406 249.099C5.32693 254.735 6.27885 252.094 6.42866 253.639C7.06801 260.268 4.91339 260.835 4.96662 268.651C4.96871 269.065 6.11722 274.126 6.18874 274.823C6.65512 279.253 5.78899 275.557 5.70413 278.329C5.54906 283.39 5.27478 286.907 5.61118 292.845C5.71082 294.577 6.42667 298.73 5.87296 302.093C5.80046 302.535 5.42083 302.291 5.3986 302.647C5.02802 309.092 6.22084 309.261 6.62483 312.944C7.02872 316.628 6.20529 322.317 5.96797 323.475C5.35403 326.504 5.7056 321.154 5.64535 320.99C4.92837 319.063 5.05181 323.212 4.99123 326.382C3.82165 326.841 3.89185 331.275 4.93313 329.669C5.04687 329.486 4.9378 327.019 4.99123 326.382C6.13875 329.165 6.28571 334.038 5.21337 339.42C4.71078 341.939 4.12478 339.557 4.33916 347.21C4.43593 350.683 5.24124 349.341 5.4608 352.406C5.96174 359.408 5.21052 368.507 5.32888 375.726C5.37186 378.346 5.81268 375.794 5.85724 377.584C5.97687 382.336 5.64611 386.527 5.81555 391.299C5.83146 391.731 6.29291 390.675 6.29879 392.159C6.35238 403.41 6.05682 413.206 6.04862 424.953C6.04487 430.628 6.29938 440.775 6.24821 446.655C6.16225 456.845 5.49123 469.38 5.65424 478.086C5.75858 483.763 6.22013 482.518 6.5346 484.95C6.84028 487.305 6.7181 490.568 6.49899 493.377C6.2712 495.797 6.37237 497.889 6.38942 498.387C6.31437 498.442 5.68889 494.134 5.72035 496.472C5.40487 497.9 6.38466 498.349 6.38942 498.387C6.39736 498.715 6.82145 501.02 7.79725 503.293C8.73252 505.583 10.2285 507.746 10.794 508.394C11.4049 509.107 11.4273 508.421 11.7404 508.785C16.4788 514.238 23.5032 517.427 30.655 517.375C35.4784 517.367 40.3167 517.399 45.1772 517.475C45.4102 517.483 45.0592 517.972 45.6072 517.987C53.27 518.205 58.1764 517.606 64.4963 517.251C70.8151 516.896 75.8263 517.015 79.5668 517.855C84.3345 517.749 91.1747 518.12 95.111 518.345C99.0469 518.571 99.5963 517.618 99.9426 517.6C110.745 516.997 116.989 517.542 128.196 517.627C133.524 517.669 144.093 517.531 149.862 517.427C154.421 517.343 157.168 517.566 161.369 517.423C161.937 517.404 161.363 516.98 161.536 516.964C166.225 516.457 163.972 517.493 164.94 517.678C168.449 518.351 170.617 518.71 176.621 518.393C178.006 518.321 182.04 516.828 184.565 516.741C187.847 516.63 186.608 517.165 190.045 517.036C190.339 517.025 190.278 516.695 192.399 516.71C202.244 516.773 212.979 516.965 223.21 516.932C224.608 516.929 222.816 516.405 224.835 516.392C234.31 516.33 244.696 516.349 253.927 516.594C256.199 516.656 254.775 517.023 255.268 517.131C258.296 517.79 262.59 516.833 263.299 516.815C280.2 516.355 293.135 517.221 310.361 516.809C311.299 516.785 318.517 515.759 321.737 516.639C321.957 516.697 325.143 517.597 327.96 516.982C328.135 516.943 326.15 516.48 329.615 516.527C333.079 516.574 338.655 516.265 343.417 516.774C344.925 516.934 348.488 517.832 352.986 517.116C353.279 517.066 360.221 515.448 362.7 516.565C363.101 516.749 362.681 517.93 368.049 517.324C369.074 517.207 367.212 516.943 369.914 516.779C374.054 516.525 379.539 516.841 384.628 516.315C385.515 516.222 389.293 515.42 392.323 516.029C392.798 516.124 391.896 516.519 393.497 516.563C401.107 516.774 409.075 516.511 416.802 516.783C419.539 516.879 418.139 517.517 420.992 517.688C423.846 517.859 429.594 518.023 432.579 517.732C435.565 517.44 432.303 516.424 436.777 516.343C437.351 516.332 437.925 516.323 438.498 516.314C450.667 516.369 461.732 505.75 461.682 493.377C461.733 489.238 461.775 485.095 461.794 480.945C461.807 478.065 461.443 480.453 461.436 476.209C461.409 460.56 461.068 433.543 461.841 419.964C462.46 409.084 462.931 422.776 463.182 414.462C463.303 410.45 462.121 406.11 462.084 405.141C461.706 395.68 462.23 389.105 462.069 380.59C462.036 378.831 461.557 380.556 461.534 379.059C461.451 373.947 461.665 368.575 461.625 363.69C461.607 361.499 461.241 361.902 461.269 359.886C461.333 355.061 461.486 350.794 461.829 346.091C461.86 345.662 462.315 348.553 462.332 344.983C462.358 339.206 462.696 332.034 462.347 325.387C462.242 323.415 461.406 323.337 461.984 319.098C462.104 318.209 463.108 319.343 462.241 314.405C462.096 313.574 460.927 305.278 461.681 301.207C461.879 300.133 462.7 297.392 462.571 295.02C462.551 294.698 462.102 295.987 462.058 294.022C461.912 287.095 461.959 279.836 461.819 272.72C461.78 270.82 461.316 273.651 461.273 270.818C461.156 263.03 461.274 253.307 461.42 245.691C461.474 242.884 461.859 244.824 461.901 244.62C462.582 241.335 461.663 239.392 461.609 238.302C461.288 231.52 461.72 226.356 461.606 220.105C461.575 218.38 461.137 219.603 461.098 219.26C460.716 215.698 461.503 218.351 461.59 216.097C461.836 209.782 461.8 202.742 461.744 196.355C461.723 194.009 461.215 196.646 461.202 194.54C461.114 182.08 461.163 169.127 461.443 156.966C461.497 154.677 461.888 156.117 461.977 155.64C462.603 152.351 461.75 147.531 461.668 146.421C461.297 141.378 461.644 139.419 461.579 134.965C461.257 113.208 461.487 86.3445 461.628 65.8072C461.706 54.3909 461.818 44.0656 461.914 33.9968C462.221 22.6607 453.272 11.6251 440.809 10.5203C439.449 10.4147 440.775 11.0335 439.618 10.9734C439.247 10.9589 438.874 10.9529 438.498 10.9556C420.911 11.0623 403.576 10.8726 385.941 11.0192C384.456 11.0307 386.596 11.5243 384.214 11.5592C379.327 11.6343 373.137 11.6075 368.196 11.4498C365.786 11.3739 369.018 10.9503 366.592 10.8825C360.944 10.7237 354.89 10.6886 349.088 10.7677C346.619 10.8025 350.344 11.3073 347.135 11.3131C325.275 11.3632 303.806 11.4502 281.715 10.7964C280.201 10.7515 278.872 9.72542 275.652 9.92219C275.409 10.207 275.423 10.5419 275.317 10.8463C243.494 11.0103 211.996 10.6546 180.084 10.5996C178.739 10.5974 181.064 11.141 178.459 11.1395C163.382 11.1315 148.742 11.2821 133.32 10.7417C131.79 10.6889 132.575 9.73243 128.066 9.87708C127.271 9.90348 120.479 10.031 118.724 10.2387C118.485 10.27 119.724 10.7164 117.536 10.7294C104.818 10.7972 91.491 10.6953 78.7955 10.4225C76.7466 10.3776 78.9286 9.90223 77.4692 9.86615C67.1173 9.61378 55.8573 9.97518 45.9655 9.54353C39.3442 9.25289 41.7956 8.43109 38.2772 7.62217C37.7795 7.50804 33.6795 7.48996 33.4675 7.01931C32.9231 5.83583 34.9091 4.53992 34.0942 3.27845C33.922 3.00673 28.431 3.29938 31.682 2.64278C31.9091 2.59883 35.8902 2.38091 36.8707 2.15817C37.5534 2.00417 36.3232 1.52552 37.716 1.32838C39.1088 1.13143 40.6393 1.53266 42.9485 1.30104C45.2566 1.06656 44.2417 0.522044 48.8513 0.457587ZM112.834 519.352C116.479 519.809 117.017 518.135 113.075 518.535C112.884 518.557 112.646 519.33 112.834 519.352ZM4.41571 178.563C3.67703 183.328 4.76318 186.589 5.33367 183.227C5.90354 179.866 4.63963 177.111 4.41571 178.563ZM3.87642 129.154C3.29401 134.723 5.66885 135.6 5.18876 129.635C5.16163 129.288 3.91024 128.829 3.87642 129.154ZM54.5938 7.39183C54.5435 7.36959 51.5962 7.34791 51.5258 7.36996C49.9564 7.90185 55.8498 7.94482 54.5938 7.39183ZM3.28928 80.124C2.96803 81.8624 3.33888 86.8679 3.73835 84.7078C4.05971 82.969 3.6889 77.9589 3.28928 80.124ZM302.957 521.14C303.014 521.164 305.127 521.187 305.085 521.046C304.941 520.591 302.001 520.72 302.957 521.14ZM24.0888 7.39559C18.2056 8.77322 13.978 11.4961 12.3393 12.2593C10.7836 13.1941 11.2158 11.2518 17.4314 7.93031C18.5806 7.39016 17.4016 8.1091 16.3917 8.88738C15.3791 9.6671 14.5233 10.4689 15.8961 9.70434C20.9101 7.15193 24.5333 4.82565 30.546 5.32714C31.5406 5.2975 24.6503 7.02188 24.0687 7.40336C24.0754 7.40077 24.0821 7.39818 24.0888 7.39559ZM114.933 521.364C115.006 521.386 117.931 521.407 118.001 521.385C119.585 520.853 113.692 520.811 114.933 521.364ZM426.254 522.175C426.415 522.222 433.203 522.266 433.425 522.223C436.966 521.353 423.242 521.262 426.254 522.175ZM1.44311 424.639C0.908236 421.448 0.84526 417.63 1.51693 415.085C1.48128 418.257 1.47602 421.45 1.44311 424.639Z" fill="#B69F7C"/>
<path d="M141.089 176.87C171.657 176.87 201.846 176.995 232.996 176.995C246.371 176.995 258.523 176.87 271.946 176.87C280.652 176.87 289.359 176.331 298.065 176.331C307.448 176.331 318.69 176.754 327.927 176.08" stroke="#995000" stroke-width="1.39984" stroke-linecap="round" stroke-linejoin="round"/>
<path d="M139.911 176.87C140.889 191.496 141.29 204.525 141.29 218.986C141.29 233.331 141.713 246.738 141.713 262.306C141.713 289.132 143.446 319.82 143.446 346.576" stroke="#995000" stroke-width="1.39984" stroke-linecap="round" stroke-linejoin="round"/>
<path d="M143.446 346.413C161.289 346.413 178.453 346.294 197.648 346.538C213.697 347.449 228.689 346.538 245.053 346.538C252.712 346.538 261.276 346.561 268.935 346.561C276.347 346.561 288.081 346.294 296.626 346.294C311.083 346.561 323.699 346.294 331.109 346.294" stroke="#995000" stroke-width="1.39984" stroke-linecap="round" stroke-linejoin="round"/>
<path d="M327.839 176.08C327.839 190.749 329.618 202.787 329.618 217.181C329.618 232.824 329.618 248.467 329.618 264.111C329.618 292.713 330.796 318.366 330.796 346.561" stroke="#995000" stroke-width="1.39984" stroke-linecap="round" stroke-linejoin="round"/>
<path d="M332.084 307.645C329.392 264.36 330.33 219.162 330.33 176.08" stroke="#995000" stroke-width="0.69992" stroke-linecap="round" stroke-linejoin="round"/>
<path d="M140.831 307.645C138.139 264.36 139.077 219.162 139.077 176.08" stroke="#995000" stroke-width="0.34996" stroke-linecap="round" stroke-linejoin="round"/>
<path d="M142.761 350.36C140.068 307.076 141.007 261.877 141.007 218.796" stroke="#995000" stroke-width="0.69992" stroke-linecap="round" stroke-linejoin="round"/>
<path d="M146.842 183.923C156.456 193.953 171.674 204.263 182.118 213.55C187.385 218.235 198.875 224.965 203.675 230.107C221.313 244.05 217.394 242.307 236.012 257.992C240.403 262.97 255.481 274.435 260.509 278.906C264.428 282.391 274.227 291.977 278.147 297.205C285.006 302.433 290.885 310.276 298.725 317.247C304.604 322.476 308.734 327.02 313.423 331.19C314.928 332.528 320.282 337.289 323.222 339.904" stroke="#995000" stroke-width="0.69992" stroke-linecap="round" stroke-linejoin="round"/>
<path d="M150.762 340.774C155.162 336.038 162.931 328.418 171.339 321.604C182.269 312.745 187.922 307.103 200.485 295.819C209.279 288.923 214.932 283.281 222.469 275.758C228.751 269.489 233.148 263.847 238.173 260.085C245.742 252.589 250.787 250.067 257.997 242.306C263.582 236.294 273.381 229.515 279.127 223.624C282.476 220.192 286.246 217.606 289.906 214.421C293.055 211.681 296.431 208.586 299.428 205.707C301.427 203.788 304.711 200.764 306.564 198.736C308.148 197.002 312.082 192.793 313.423 190.894C315.362 188.147 319.303 185.665 322.242 181.308" stroke="#995000" stroke-width="0.69992" stroke-linecap="round" stroke-linejoin="round"/>
</svg>
