<svg width="31" height="48" viewBox="0 0 31 48" fill="none" xmlns="http://www.w3.org/2000/svg">
<path d="M25.5163 25.066C22.1596 27.9429 19.0074 30.907 15.5836 33.5145C10.9729 37.0261 6.16149 40.2755 1.41708 43.6103C0.111118 44.5285 -0.369682 45.8228 0.305696 46.9434C0.999199 48.0951 2.50042 48.3704 3.73765 47.4444C9.79041 42.9134 15.8661 38.4067 21.8374 33.7683C24.4384 31.7476 26.8034 29.4253 29.2885 27.2528C31.1693 25.6114 31.1583 24.0147 29.2437 22.4311C22.7115 17.0281 16.1835 11.62 9.65978 6.20694C7.51908 4.42155 5.4878 2.50655 3.34847 0.718075C2.84815 0.283512 2.21582 0.0305405 1.55383 0C0.579576 0.0341949 0.2024 1.1808 0.872992 2.10171C1.54382 3.02158 2.30394 3.87283 3.14226 4.64314C10.1005 11.031 17.0733 17.403 24.0605 23.759C24.476 24.1386 24.8967 24.5113 25.5163 25.066Z" fill="#522A00"/>
</svg>
