<svg width="13" height="13" viewBox="0 0 13 13" fill="none" xmlns="http://www.w3.org/2000/svg">
<path d="M5.69349 7.37364C4.25223 8.79179 2.81031 10.2092 1.36773 11.6259C1.07956 11.9077 0.771853 12.1707 0.460158 12.4266C0.408161 12.4685 0.34474 12.4937 0.278187 12.499C0.211634 12.5042 0.145037 12.4893 0.0871062 12.4561C-0.00919704 12.4065 -0.0316874 12.2218 0.0502366 12.1095C0.129285 12.0009 0.199848 11.8847 0.288556 11.7846C0.854577 11.1458 1.40512 10.4917 1.99725 9.8779C3.21394 8.61696 4.4473 7.3721 5.68494 6.13195C6.85908 4.95508 8.0493 3.79443 9.22765 2.62139C9.41679 2.43314 9.58161 2.22047 9.75349 2.01518C9.76291 1.9996 9.76827 1.9819 9.76906 1.96371C9.76986 1.94552 9.76609 1.92741 9.75806 1.91106C9.73233 1.87854 9.6751 1.83798 9.64486 1.84691C9.08718 2.01179 8.52404 2.16199 7.97704 2.35821C6.70526 2.81473 5.39469 3.1251 4.08302 3.43392C3.86748 3.48458 3.64421 3.54032 3.42675 3.43045C3.38723 3.41047 3.32102 3.37471 3.32352 3.35229C3.32653 3.26643 3.35073 3.18266 3.394 3.10844C3.44919 3.03847 3.52271 2.9852 3.60638 2.95454C3.90053 2.84393 4.1971 2.73856 4.49692 2.64484C6.63933 1.97212 8.78381 1.30618 10.9253 0.630582C11.7331 0.375666 12.2534 0.391078 12.2231 1.63638C12.2145 1.99527 12.2035 2.35608 12.1596 2.71172C11.9559 4.36141 11.7445 6.01009 11.5254 7.65776C11.4891 7.87814 11.4357 8.09535 11.3656 8.30741C11.3235 8.44943 11.2017 8.51188 11.0624 8.53142C10.909 8.55296 10.6629 8.41551 10.6088 8.30099C10.4886 8.04681 10.4847 7.77604 10.5037 7.5083C10.5768 6.47764 10.6593 5.44766 10.7423 4.41782C10.7965 3.74679 10.859 3.0768 10.9119 2.40593C10.9145 2.37274 10.8677 2.32445 10.8324 2.30336C10.8153 2.29584 10.7966 2.29258 10.778 2.29386C10.7593 2.29514 10.7413 2.30094 10.7254 2.31073C10.5238 2.4877 10.3185 2.66121 10.1301 2.85153C8.64474 4.35261 7.16133 5.85568 5.67991 7.36075L5.69349 7.37364Z" fill="#B07010"/>
</svg>
