<svg width="31" height="48" viewBox="0 0 31 48" fill="none" xmlns="http://www.w3.org/2000/svg">
<path d="M5.48564 25.066C8.84236 27.9429 11.9946 30.907 15.4183 33.5145C20.029 37.0261 24.8405 40.2755 29.5849 43.6103C30.8908 44.5285 31.3716 45.8228 30.6963 46.9434C30.0028 48.0951 28.5015 48.3704 27.2643 47.4444C21.2115 42.9134 15.1359 38.4067 9.16451 33.7683C6.56353 31.7476 4.19853 29.4253 1.71348 27.2528C-0.167324 25.6114 -0.156387 24.0147 1.75827 22.4311C8.29046 17.0281 14.8184 11.62 21.3422 6.20694C23.4829 4.42155 25.5142 2.50655 27.6535 0.718075C28.1538 0.283512 28.7861 0.0305405 29.4481 0C30.4224 0.0341949 30.7996 1.1808 30.129 2.10171C29.4581 3.02158 28.698 3.87283 27.8597 4.64314C20.9014 11.031 13.9286 17.403 6.94141 23.759C6.52592 24.1386 6.10528 24.5113 5.48564 25.066Z" fill="#522A00"/>
</svg>
