<svg width="32" height="33" viewBox="0 0 32 33" fill="none" xmlns="http://www.w3.org/2000/svg">
<g clip-path="url(#clip0_355_2950)">
<path d="M31.5074 17.6736C30.3474 14.2736 26.8407 17.0469 24.014 19.0869C24.014 16.6336 24.3074 14.9403 20.134 14.4736C23.7607 12.3403 22.1074 7.47359 18.8007 6.82026C15.8807 6.32692 13.0674 8.35359 13.5874 11.4336C13.6894 12.0364 13.9354 12.6057 14.3045 13.0932C14.6736 13.5807 15.1548 13.9719 15.7074 14.2336C13.4674 14.2336 11.254 14.3269 9.04069 14.5003C10.1415 14.1777 11.1329 13.5598 11.9074 12.7136C14.574 9.16692 11.9074 3.86026 7.90736 3.07359C6.90508 2.8869 5.87506 2.90895 4.88169 3.13837C3.88832 3.36779 2.95294 3.79964 2.13403 4.40692C1.33513 5.05168 0.721228 5.89649 0.354736 6.85545C-0.0117565 7.81442 -0.117763 8.85334 0.0474956 9.86656C0.212754 10.8798 0.643383 11.8312 1.29559 12.624C1.9478 13.4168 2.79833 14.0228 3.76069 14.3803C3.8567 14.4178 3.96325 14.418 4.05945 14.381C4.15565 14.344 4.23456 14.2724 4.28069 14.1803C4.05403 14.9936 5.80069 14.7936 4.90736 14.8869C4.78831 14.9004 4.67899 14.9591 4.60204 15.0509C4.5251 15.1428 4.48642 15.2607 4.49403 15.3803C4.58736 16.2736 5.56069 15.3803 12.9874 15.3803C15.7205 15.3099 18.4539 15.5109 21.1474 15.9803C22.0407 16.2336 22.4807 16.5003 22.5607 17.3136V22.8336C22.5607 24.2736 22.5607 26.5669 21.734 27.7003C21.1074 28.5136 18.614 28.3136 17.5474 28.3669C13.7541 28.7812 9.92373 28.714 6.14736 28.1669C2.66736 27.3936 2.66736 27.7536 2.46736 24.5003C2.37403 23.1669 1.62736 17.1803 2.90736 16.1803C3.30918 16.0065 3.72373 15.8639 4.14736 15.7536C4.21944 15.701 4.27259 15.6266 4.29885 15.5413C4.32512 15.4561 4.3231 15.3646 4.2931 15.2806C4.26309 15.1966 4.20672 15.1245 4.13239 15.0752C4.05805 15.0259 3.96976 15.0019 3.88069 15.0069C3.4074 15.0031 2.94425 15.1441 2.55339 15.411C2.16253 15.6779 1.86266 16.058 1.69403 16.5003C1.33668 17.8486 1.16179 19.2388 1.17403 20.6336C1.17403 21.0603 1.40069 25.9669 1.48069 26.4603C1.52781 26.9557 1.71262 27.4281 2.01423 27.8239C2.31584 28.2198 2.7222 28.5233 3.18736 28.7003C5.58286 29.4754 8.07197 29.9239 10.5874 30.0336C12.934 30.1269 15.2807 29.9536 17.614 29.8469C20.934 29.6869 23.4807 30.2736 23.9607 25.5669C25.4807 26.5536 28.534 28.2336 30.334 28.1003C31.7874 27.9669 31.6674 26.2469 31.734 25.1803C32.1678 22.6885 32.0907 20.1346 31.5074 17.6736ZM4.33403 14.1269C4.52069 13.4469 3.33403 13.7403 2.08069 12.0869C1.7137 11.5958 1.44706 11.0373 1.29601 10.4431C1.14496 9.84894 1.11247 9.23084 1.20038 8.62412C1.28829 8.01739 1.49489 7.43393 1.80837 6.90708C2.12185 6.38023 2.53607 5.92031 3.02736 5.55359C3.6588 5.06663 4.3914 4.72745 5.17125 4.56102C5.95109 4.3946 6.75832 4.40516 7.53355 4.59193C8.30877 4.7787 9.03225 5.13692 9.65073 5.64024C10.2692 6.14356 10.767 6.77916 11.1074 7.50026C11.469 8.20392 11.6408 8.98977 11.6057 9.78014C11.5706 10.5705 11.3299 11.3381 10.9074 12.0069C10.1214 12.7701 9.1642 13.3341 8.11578 13.6519C7.06735 13.9696 5.95811 14.0319 4.88069 13.8336C4.76936 13.8038 4.65087 13.8176 4.54932 13.8721C4.44778 13.9266 4.3708 14.0177 4.33403 14.1269ZM14.6674 11.3003C14.6682 10.8451 14.7717 10.3961 14.9702 9.98648C15.1686 9.5769 15.4568 9.21733 15.8135 8.93455C16.1701 8.65177 16.5859 8.45305 17.0299 8.35318C17.4739 8.25331 17.9347 8.25487 18.3781 8.35773C18.8214 8.4606 19.2359 8.66212 19.5906 8.94731C19.9453 9.23249 20.2311 9.594 20.4267 10.0049C20.6224 10.4158 20.7229 10.8656 20.7207 11.3207C20.7185 11.7758 20.6136 12.2246 20.414 12.6336C19.9613 13.3006 19.2771 13.7757 18.494 13.9669C18.2504 13.9946 18.0044 13.9946 17.7607 13.9669C17.0076 13.9799 16.276 13.7152 15.7055 13.2234C15.135 12.7316 14.7655 12.0471 14.6674 11.3003ZM30.094 26.7669C28.724 26.7419 27.3834 26.3654 26.2007 25.6736C24.5874 24.8736 24.4274 24.5669 24.0274 24.7003V20.1003C25.5734 18.9475 27.2925 18.0474 29.1207 17.4336C29.2324 17.4064 29.3486 17.4032 29.4617 17.4242C29.5748 17.4452 29.6821 17.4899 29.7766 17.5554C29.8711 17.6209 29.9506 17.7058 30.0099 17.8043C30.0692 17.9028 30.107 18.0128 30.1207 18.1269C30.8407 20.5936 30.174 26.2869 30.094 26.7669Z" fill="#7B3F00"/>
<path d="M5.12065 18.9669C4.94732 26.3136 5.20065 26.2069 11.254 25.7136C12.414 25.5936 14.334 25.8469 15.254 24.5536C15.7795 23.5737 15.9266 22.4348 15.6673 21.3536C15.4273 19.4202 15.3206 17.8202 13.2273 17.4469C10.7073 17.0069 8.66732 18.1136 6.30732 18.1669C6.23731 18.1665 6.16815 18.1822 6.10526 18.213C6.04237 18.2438 5.98747 18.2887 5.94484 18.3442C5.90222 18.3998 5.87304 18.4644 5.85959 18.5331C5.84614 18.6018 5.84878 18.6727 5.86732 18.7402C5.82245 18.6613 5.75209 18.6 5.66779 18.5664C5.58349 18.5328 5.49026 18.5288 5.40341 18.5552C5.31656 18.5816 5.24126 18.6367 5.18988 18.7115C5.1385 18.7863 5.11408 18.8764 5.12065 18.9669ZM12.9606 18.7002C14.2273 18.9936 14.0673 20.1402 14.174 21.5002C14.4273 24.5002 13.8406 23.9002 11.094 24.1669C10.2673 24.2736 7.09398 24.9002 6.53398 24.2602C5.97398 23.6202 5.94732 18.9269 5.90732 18.8202C6.42732 19.7002 10.4007 18.1002 12.9606 18.7002Z" fill="#7B3F00"/>
<path d="M20.6265 19.9269C19.8478 19.6945 19.0245 19.6533 18.2265 19.8069C17.3332 20.0602 16.8932 20.0069 16.6665 20.4335C16.5865 20.5802 16.6665 20.7402 16.9198 20.9135C17.066 20.9705 17.218 21.0107 17.3732 21.0335L18.2932 21.2469C19.0908 21.2674 19.8844 21.1268 20.6265 20.8335C20.7467 20.8335 20.8621 20.7858 20.9471 20.7007C21.0321 20.6157 21.0798 20.5004 21.0798 20.3802C21.0798 20.26 21.0321 20.1447 20.9471 20.0596C20.8621 19.9746 20.7467 19.9269 20.6265 19.9269Z" fill="#7B3F00"/>
<path d="M20.6136 22.4873C20.2146 22.3253 19.7986 22.209 19.3736 22.1406C18.604 22.152 17.8437 22.3104 17.1336 22.6073C17.0748 22.6376 17.0255 22.6835 16.9911 22.7399C16.9567 22.7964 16.9385 22.8612 16.9385 22.9273C16.9385 22.9934 16.9567 23.0582 16.9911 23.1147C17.0255 23.1711 17.0748 23.217 17.1336 23.2473C17.6242 23.3986 18.1227 23.5232 18.6269 23.6206C18.8887 23.6406 19.1517 23.6406 19.4136 23.6206C19.8269 23.6206 20.1736 23.4206 20.5736 23.3673C20.6395 23.3866 20.7089 23.3906 20.7766 23.3791C20.8443 23.3676 20.9085 23.3409 20.9643 23.301C21.0202 23.2611 21.0662 23.209 21.099 23.1487C21.1318 23.0883 21.1505 23.0213 21.1536 22.9527C21.1567 22.8842 21.1442 22.8158 21.117 22.7527C21.0899 22.6897 21.0487 22.6336 20.9967 22.5888C20.9447 22.5439 20.8832 22.5115 20.8168 22.4939C20.7504 22.4764 20.6809 22.4741 20.6136 22.4873Z" fill="#7B3F00"/>
</g>
<defs>
<clipPath id="clip0_355_2950">
<rect width="32" height="32" fill="white" transform="translate(0 0.5)"/>
</clipPath>
</defs>
</svg>
