<svg width="24" height="24" viewBox="0 0 24 24" fill="none" xmlns="http://www.w3.org/2000/svg">
<g clip-path="url(#clip0_1358_2226)">
<path d="M14.7898 15.42C14.6098 15.42 14.1798 15.42 13.4898 15.34L13.6998 14.86C13.9217 14.392 14.0959 13.9029 14.2198 13.4C14.2602 13.2146 14.255 13.0221 14.2044 12.8392C14.1539 12.6563 14.0597 12.4884 13.9298 12.35C13.5949 12.0714 13.1835 11.9006 12.7498 11.86C11.9598 11.75 10.9698 11.94 10.3898 11.86C9.95478 11.7773 9.50981 11.7604 9.06979 11.81C8.89979 11.89 8.76979 12.28 9.23979 12.4C9.48979 12.46 10.1098 12.54 10.3398 12.57C10.8198 12.63 11.5998 12.64 12.2798 12.75C12.6298 12.81 13.2098 13.06 13.1698 13.22C13.0698 13.58 12.7398 14.32 12.6798 14.5L12.4198 15.25H11.8998C9.74979 15.33 9.67979 15.43 9.50979 15.81C9.33979 16.19 11.7798 16.32 11.8798 16.33H12.0498L11.1498 18.93C11.1209 19.0122 11.1257 19.1025 11.1632 19.1812C11.2007 19.2599 11.2677 19.3206 11.3498 19.35C11.4294 19.379 11.5172 19.3753 11.5941 19.3397C11.6709 19.3041 11.7305 19.2395 11.7598 19.16L12.9998 16.34C13.4998 16.306 13.9973 16.2426 14.4898 16.15C14.6165 16.136 14.7408 16.1058 14.8598 16.06C15.0398 15.96 15.0798 15.84 15.0698 15.74C15.0704 15.6616 15.0422 15.5857 14.9906 15.5268C14.939 15.4678 14.8675 15.4298 14.7898 15.42Z" fill="white"/>
<path d="M15.7601 3.87008C15.6471 4.62828 15.7297 5.40276 16.0001 6.12008C16.1808 6.47178 16.4839 6.74523 16.8523 6.8889C17.2207 7.03258 17.6289 7.03655 18.0001 6.90008C18.2525 6.83892 18.4856 6.71529 18.6778 6.54056C18.87 6.36582 19.0152 6.14558 19.1001 5.90008C19.2636 5.33893 19.3246 4.75288 19.2801 4.17008V3.83008V2.71008C19.295 2.48867 19.2616 2.26665 19.1822 2.05944C19.1027 1.85223 18.9792 1.66477 18.8201 1.51008C18.287 1.14843 17.6367 1.00195 17.0001 1.10008C16.9572 1.09874 16.9145 1.10603 16.8745 1.12151C16.8345 1.13699 16.7981 1.16035 16.7673 1.19019C16.7365 1.22004 16.712 1.25577 16.6953 1.29527C16.6786 1.33476 16.67 1.3772 16.6701 1.42008C16.6455 1.35842 16.5999 1.30747 16.5413 1.27634C16.4826 1.2452 16.4149 1.23589 16.3501 1.25008C16.2847 1.26838 16.2249 1.30263 16.176 1.34976C16.1271 1.39689 16.0907 1.45541 16.0701 1.52008C16.0105 1.87008 15.987 2.22528 16.0001 2.58008L15.8601 3.19008C15.8079 3.41358 15.7745 3.64103 15.7601 3.87008ZM16.5901 3.46008C16.5901 3.46008 16.7501 1.60008 16.7501 1.53008C16.7753 1.58892 16.8171 1.63916 16.8703 1.67467C16.9236 1.71018 16.986 1.72943 17.0501 1.73008C17.9501 1.73008 18.3301 1.90008 18.4301 2.25008C18.4625 2.88633 18.4189 3.52418 18.3001 4.15008C18.3028 4.53723 18.2591 4.92331 18.1701 5.30008C18.1001 5.54008 18.0101 5.78008 17.7601 5.84008C17.6625 5.88427 17.5563 5.90614 17.4492 5.90409C17.3421 5.90204 17.2368 5.87611 17.141 5.82821C17.0452 5.78031 16.9613 5.71163 16.8954 5.62718C16.8295 5.54274 16.7832 5.44465 16.7601 5.34008C16.6011 4.7269 16.5437 4.09182 16.5901 3.46008Z" fill="white"/>
<path d="M8.54969 3.56008C8.54969 3.66008 8.61969 3.76008 9.00969 3.80008C9.56969 3.80008 9.80969 3.98008 10.5797 4.02008H11.8397H13.0897C13.7797 4.02008 14.1997 3.96008 14.8997 3.91008C15.2297 3.91008 15.4897 3.27008 15.0497 3.16008C14.2897 3.13008 13.7697 3.00008 12.9997 3.00008H10.9997C10.3813 2.99804 9.76345 3.03478 9.14969 3.11008C8.72969 3.14008 8.53969 3.41008 8.54969 3.56008Z" fill="white"/>
<path d="M22.9999 4.06999C22.6624 3.70287 22.2182 3.45102 21.7299 3.34999C21.2671 3.22759 20.7877 3.18032 20.3099 3.20999C19.5999 3.30999 19.7899 3.79999 20.1599 3.79999C20.4949 3.79663 20.8296 3.82341 21.1599 3.87999C21.6587 3.91561 22.1261 4.13681 22.4699 4.49999C22.7029 4.96738 22.8358 5.47829 22.8599 5.99999C22.9599 6.77999 23.0399 7.78999 23.0899 8.89999C21.6199 8.89999 18.6699 8.77999 15.3599 8.71999H11.9699H8.57989C4.99989 8.74999 1.88989 8.86999 0.909886 8.90999C0.903539 7.40125 1.05774 5.89611 1.36989 4.41999C1.46826 4.2394 1.61249 4.08793 1.78805 3.98084C1.96361 3.87374 2.1643 3.81482 2.36989 3.80999C2.78521 3.70893 3.21298 3.66851 3.63989 3.68999C3.69641 3.68026 3.74837 3.65279 3.78823 3.61155C3.8281 3.5703 3.85379 3.51744 3.86159 3.46062C3.86939 3.40379 3.85889 3.34596 3.83161 3.2955C3.80434 3.24505 3.7617 3.20459 3.70989 3.17999C3.0904 3.0458 2.44937 3.0458 1.82989 3.17999C1.58451 3.23903 1.35594 3.35356 1.16178 3.51479C0.967608 3.67602 0.813013 3.87964 0.709886 4.10999C0.319886 5.02999 -0.0801144 10.11 0.00988563 14.61C0.0798856 17.88 0.469886 20.81 1.18989 21.69C1.71989 22.33 3.09989 22.69 4.83989 22.83C7.54989 23.01 11.1499 22.71 13.0099 22.71C15.3457 22.784 17.6839 22.7071 20.0099 22.48C21.0584 22.3889 22.0783 22.0897 23.0099 21.6C23.2812 21.37 23.462 21.051 23.5199 20.7C23.8759 18.6465 24.0367 16.5638 23.9999 14.48C23.9999 9.99999 23.6299 4.80999 22.9999 4.06999ZM22.7499 19.53C22.6941 19.9688 22.5833 20.3989 22.4199 20.81C21.3008 21.2784 20.1028 21.5295 18.8899 21.55C16.5499 21.74 13.9699 21.65 13.0099 21.65C11.1699 21.65 7.59989 21.96 4.90989 21.8C3.52989 21.72 2.38989 21.58 1.96989 21.08C1.28989 20.29 0.999886 17.6 0.909886 14.63C0.843405 12.9207 0.836734 11.2097 0.889886 9.49999C1.88989 9.49999 4.93989 9.65999 8.57989 9.72999H11.9699H15.3599C18.6899 9.66999 21.6499 9.57999 23.1099 9.53999C23.1099 10.54 23.1599 11.67 23.1099 12.77C23.1299 15.0286 23.0097 17.2863 22.7499 19.53Z" fill="white"/>
<path d="M4.47989 3.84002C4.40292 4.64077 4.48102 5.44884 4.70989 6.22002C4.89062 6.57172 5.19375 6.84518 5.56215 6.98885C5.93054 7.13252 6.33877 7.1365 6.70989 7.00002C6.96457 6.94123 7.20009 6.81859 7.39428 6.64365C7.58847 6.4687 7.73494 6.24721 7.81989 6.00002C7.98997 5.43331 8.05105 4.83949 7.99989 4.25002V3.19002V2.79002C8.01349 2.56874 7.97947 2.34712 7.90012 2.1401C7.82076 1.93309 7.69792 1.74551 7.53989 1.59002C7.00859 1.22395 6.35788 1.07379 5.71989 1.17002C5.63237 1.17002 5.54843 1.20479 5.48654 1.26668C5.42466 1.32857 5.38989 1.4125 5.38989 1.50002C5.36535 1.43836 5.31971 1.38742 5.2611 1.35628C5.20249 1.32515 5.13472 1.31584 5.06989 1.33002C5.00451 1.34833 4.9447 1.38258 4.89583 1.42971C4.84696 1.47683 4.81056 1.53536 4.78989 1.60002C4.71481 1.92846 4.67128 2.26331 4.65989 2.60002L4.54989 3.13002V3.39002L4.47989 3.84002ZM5.29989 3.55002C5.29989 3.55002 5.45989 1.70002 5.45989 1.62002C5.4824 1.68152 5.52323 1.73463 5.57688 1.77218C5.63053 1.80973 5.69441 1.82992 5.75989 1.83002C6.65989 1.83002 7.03989 2.00002 7.13989 2.35002C7.16907 2.98667 7.12207 3.62453 6.99989 4.25002C7.00077 4.63707 6.95715 5.02294 6.86989 5.40002C6.80989 5.63002 6.71989 5.87002 6.46989 5.93002C6.37232 5.97422 6.26611 5.99609 6.15902 5.99403C6.05192 5.99198 5.94663 5.96606 5.85082 5.91815C5.75502 5.87025 5.67111 5.80157 5.60521 5.71713C5.5393 5.63269 5.49308 5.5346 5.46989 5.43002C5.30913 4.81716 5.25167 4.18178 5.29989 3.55002Z" fill="white"/>
</g>
<defs>
<clipPath id="clip0_1358_2226">
<rect width="24" height="24" fill="white"/>
</clipPath>
</defs>
</svg>
