<svg width="24" height="17" viewBox="0 0 24 17" fill="none" xmlns="http://www.w3.org/2000/svg">
<path fill-rule="evenodd" clip-rule="evenodd" d="M23.311 6.73043C22.1712 6.62033 21.0257 6.58026 19.881 6.61043C18.2277 6.7031 16.5938 7.01241 15.021 7.53043C14.9767 7.54972 14.9379 7.57979 14.9081 7.61791C14.8783 7.65603 14.8586 7.70099 14.8506 7.7487C14.8427 7.7964 14.8468 7.84534 14.8626 7.89105C14.8784 7.93677 14.9053 7.9778 14.941 8.01043C15.181 8.25043 14.831 8.09043 17.721 7.94043C21.651 7.74043 21.721 7.51043 23.301 7.44043C23.3852 7.42752 23.4621 7.3852 23.518 7.32098C23.5739 7.25676 23.6052 7.1748 23.6064 7.08966C23.6076 7.00452 23.5786 6.92171 23.5245 6.85595C23.4704 6.79018 23.3948 6.74571 23.311 6.73043Z" fill="#522A00"/>
<path fill-rule="evenodd" clip-rule="evenodd" d="M4.63086 5.22043C4.50536 5.19614 4.37636 5.19614 4.25086 5.22043C1.73086 5.19043 -0.669141 7.17043 0.170859 9.70043C0.342232 10.2115 0.648122 10.6669 1.05637 11.0188C1.46462 11.3708 1.96015 11.6062 2.49086 11.7004C2.9302 11.8061 3.37921 11.8664 3.83086 11.8804C5.76086 11.7904 5.53086 11.7004 4.93086 6.28042C4.93086 5.98042 4.28086 5.92042 4.36086 6.62042C4.48555 8.00763 4.48555 9.40322 4.36086 10.7904C4.04086 10.7904 4.29086 10.7904 3.27086 10.7104L2.35086 10.4804C1.06086 10.0004 0.240859 7.72043 2.51086 6.42043C3.83086 5.63043 4.31086 6.15042 4.83086 5.66042C4.83086 5.66042 4.95086 5.32043 4.63086 5.22043Z" fill="#522A00"/>
<path fill-rule="evenodd" clip-rule="evenodd" d="M12.0208 0.620417C10.4108 -1.43958 6.19082 2.08042 4.83082 4.61042C4.70082 4.92042 4.83082 5.05042 5.23082 5.06042C5.29553 4.98058 5.35563 4.89711 5.41082 4.81042C6.38769 3.36494 7.73452 2.20805 9.31082 1.46042C9.83082 1.19042 10.8608 0.740417 11.2008 1.22042C12.0608 2.42042 12.2908 12.0304 11.2508 14.3504C10.9608 15.0104 10.5508 15.4004 9.85082 15.2204C8.18186 14.4645 6.68724 13.3716 5.46082 12.0104C5.39798 11.9584 5.31855 11.9308 5.23702 11.9325C5.15548 11.9342 5.07727 11.9651 5.01665 12.0197C4.95604 12.0742 4.91705 12.1488 4.9068 12.2297C4.89655 12.3106 4.91572 12.3925 4.96082 12.4604C5.95855 13.6118 7.10924 14.6212 8.38082 15.4604C8.69586 15.7303 9.06496 15.9297 9.46336 16.0452C9.86177 16.1608 10.2803 16.1898 10.6908 16.1304C12.1608 15.7504 12.5808 13.7804 12.7908 12.2804C13.0808 9.95042 13.4208 2.45042 12.0208 0.620417Z" fill="#522A00"/>
</svg>
