<svg width="24" height="17" viewBox="0 0 24 17" fill="none" xmlns="http://www.w3.org/2000/svg">
<path fill-rule="evenodd" clip-rule="evenodd" d="M4.62988 5.22043C4.50438 5.19614 4.37539 5.19614 4.24988 5.22043C1.72988 5.22043 -0.670117 7.16042 0.169882 9.69042C0.341255 10.2015 0.647145 10.6569 1.05539 11.0088C1.46364 11.3608 1.95917 11.5962 2.48988 11.6904C2.92339 11.788 3.36562 11.8416 3.80988 11.8504C5.73988 11.7604 5.50988 11.6704 4.90988 6.25043C4.90988 5.95043 4.25988 5.89043 4.33988 6.59043C4.46457 7.97763 4.46457 9.37322 4.33988 10.7604C4.01988 10.7604 4.26988 10.7604 3.24988 10.6804L2.32988 10.4504C0.999882 10.0004 0.199883 7.72043 2.46988 6.42043C3.84988 5.63043 4.30988 6.15042 4.80988 5.66042C4.80988 5.66042 4.99988 5.32043 4.62988 5.22043Z" fill="#522A00"/>
<path fill-rule="evenodd" clip-rule="evenodd" d="M11.9999 0.620417C10.4099 -1.43958 6.18986 2.08042 4.84986 4.61042C4.71986 4.92042 4.84986 5.05042 5.24986 5.06042C5.31457 4.98058 5.37467 4.89711 5.42986 4.81042C6.40125 3.36767 7.74088 2.21102 9.30986 1.46042C9.82986 1.19042 10.8599 0.740417 11.1999 1.22042C12.0599 2.42042 12.2899 12.0304 11.2499 14.3504C10.9599 15.0104 10.5499 15.4004 9.84986 15.2204C8.18091 14.4645 6.68629 13.3716 5.45986 12.0104C5.39703 11.9584 5.3176 11.9308 5.23606 11.9325C5.15452 11.9342 5.07632 11.9651 5.0157 12.0197C4.95508 12.0742 4.91609 12.1488 4.90584 12.2297C4.89559 12.3106 4.91477 12.3925 4.95986 12.4604C5.95523 13.6142 7.10626 14.6238 8.37986 15.4604C8.6949 15.7303 9.064 15.9297 9.4624 16.0452C9.86081 16.1608 10.2793 16.1898 10.6899 16.1304C12.1599 15.7504 12.5799 13.7804 12.7899 12.2804C13.0799 9.95042 13.4199 2.45042 11.9999 0.620417Z" fill="#522A00"/>
<path fill-rule="evenodd" clip-rule="evenodd" d="M23.6697 6.6904C22.4697 6.6004 21.2597 6.5404 20.0397 6.5604C20.0397 6.3504 19.7697 2.6504 19.6897 2.5604C19.6097 2.4704 19.2797 2.3904 19.1497 2.7604C18.9984 4.03484 18.9216 5.31702 18.9197 6.6004C18.4235 6.61695 17.9291 6.66706 17.4397 6.7504C15.2597 7.2304 14.7497 7.2504 14.8597 7.6504C14.8632 7.68563 14.8739 7.71977 14.8911 7.75072C14.9083 7.78168 14.9316 7.80879 14.9597 7.8304C15.0597 7.9004 18.8997 7.7204 18.9597 7.7204C19.0697 9.2004 19.2297 10.0104 19.4297 11.5704C19.4434 11.6493 19.4845 11.7209 19.5458 11.7725C19.6071 11.824 19.6846 11.8523 19.7647 11.8523C19.8448 11.8523 19.9223 11.824 19.9836 11.7725C20.0449 11.7209 20.086 11.6493 20.0997 11.5704V7.6904C21.2897 7.5804 22.4797 7.4404 23.6697 7.3904C23.7625 7.3904 23.8515 7.35353 23.9172 7.28789C23.9828 7.22225 24.0197 7.13323 24.0197 7.0404C24.0197 6.94758 23.9828 6.85855 23.9172 6.79292C23.8515 6.72728 23.7625 6.6904 23.6697 6.6904Z" fill="#522A00"/>
</svg>
