<svg width="39" height="55" viewBox="0 0 39 55" fill="none" xmlns="http://www.w3.org/2000/svg">
<g clip-path="url(#clip0_251_4051)">
<path d="M6.73585 4.55521C6.70902 3.71574 6.58919 2.88184 6.37851 2.06866C6.27396 1.58604 6.00419 1.15481 5.61558 0.849133C5.227 0.543448 4.74381 0.382385 4.24912 0.393616C3.22141 0.433612 2.50202 1.06395 2.22214 2.16777C2.0059 3.09637 1.88062 4.04377 1.84807 4.99656C1.79052 6.11782 1.73045 7.23941 1.66788 8.36134C1.47741 11.8451 1.28044 15.4478 1.20987 18.9961C1.06359 26.3615 1.03858 33.785 1.03516 40.7106C1.06068 44.7102 1.5722 48.692 2.55855 52.5689C2.71523 53.0283 2.9707 53.4484 3.30706 53.7995C3.47834 54.0125 3.65854 54.233 3.8401 54.4924C3.87252 54.5389 3.91571 54.5765 3.966 54.6028C4.01628 54.6292 4.07218 54.6428 4.1289 54.6428H4.13678C4.19482 54.6415 4.2516 54.6257 4.3021 54.597C4.3526 54.5686 4.39525 54.528 4.42625 54.4791C4.61021 54.1885 4.7534 53.9855 4.86028 53.834C5.02252 53.6532 5.13314 53.4323 5.18059 53.1944C5.52315 49.5825 5.80951 46.3917 6.05821 43.4375C6.76528 35.0435 6.81601 26.4976 6.865 18.2324C6.8762 16.3619 6.88976 14.4912 6.90573 12.6204C6.92971 10.1745 6.84376 7.69064 6.7612 5.2885L6.73585 4.55521Z" fill="#522A00"/>
<path d="M36.6765 2.14659C36.4473 1.55246 35.3894 1.30566 34.8737 1.30566C34.339 1.30566 33.6912 1.92404 33.5562 2.41048C33.3093 3.33367 33.1698 4.28216 33.1403 5.23721L32.9906 8.96332C32.7351 15.3093 32.4706 21.8717 32.2914 28.3292C32.1582 33.1318 32.0205 38.0974 32.7888 43.0685C33.2458 46.0251 33.8786 48.9435 34.4938 51.656L34.513 51.7408C34.6675 52.4364 34.9265 53.6004 36.7481 53.6158H36.7511C36.8443 53.6158 36.9337 53.5789 36.9998 53.5129C37.066 53.4473 37.103 53.3577 37.1033 53.2647C37.1033 52.5034 37.0971 51.7545 37.0913 51.0147C37.0779 49.3571 37.0653 47.7911 37.1187 46.2067C37.1646 44.8495 37.253 43.4685 37.339 42.1329C37.4373 40.6055 37.5387 39.0262 37.5788 37.4681C37.7114 32.084 37.8686 24.9907 37.908 17.8602C37.9279 14.2305 37.835 10.3341 37.6243 5.94756C37.5079 4.63918 37.1879 3.35682 36.6765 2.14659Z" fill="#522A00"/>
</g>
<defs>
<clipPath id="clip0_251_4051">
<rect width="37.34" height="54.6952" fill="white" transform="translate(0.830078 0.152344)"/>
</clipPath>
</defs>
</svg>
