<svg width="39" height="45" viewBox="0 0 39 45" fill="none" xmlns="http://www.w3.org/2000/svg">
<path d="M36.6916 17.6978C36.505 17.5302 36.3087 17.3737 36.1037 17.2289C35.497 16.7987 34.8869 16.3473 34.2969 15.9116C32.9675 14.8926 31.5872 13.9416 30.1612 13.0622C23.9844 9.39783 17.0101 6.0379 8.83957 2.79089C7.58133 2.29078 6.30448 1.81205 4.95176 1.30535C4.29837 1.06046 3.6233 0.807121 2.91666 0.539184C2.86236 0.518599 2.80246 0.518187 2.74788 0.538006C2.6933 0.557826 2.64765 0.596554 2.61928 0.647156C2.54859 0.772773 2.46379 0.900031 2.38179 1.02353C2.16807 1.29891 2.01407 1.61566 1.92961 1.95366C1.69036 3.22759 1.53384 4.51565 1.46098 5.80972C1.42469 6.68074 1.38785 7.55167 1.35047 8.42252C1.1549 13.017 0.952497 17.7676 0.879218 22.4428C0.808531 26.919 0.826438 31.4702 0.843639 35.8715C0.850707 37.6666 0.855872 39.4617 0.859171 41.2568V41.3199C0.845474 41.7953 0.873856 42.2712 0.943993 42.7417C0.986735 43.0562 1.10148 43.3568 1.27931 43.62C1.45714 43.883 1.69328 44.1021 1.96944 44.2594C2.24343 44.4043 2.54913 44.4789 2.85916 44.477C3.19128 44.4735 3.51908 44.4015 3.82191 44.2653C4.13326 44.1178 4.42992 43.9414 4.70786 43.7381C4.83156 43.6535 4.95529 43.5688 5.08135 43.4897C5.841 43.0127 6.59988 42.5342 7.35796 42.0548C9.02006 41.0061 10.7385 39.9218 12.4397 38.8746C14.858 37.3855 17.2789 35.9011 19.7026 34.4212C22.7202 32.5749 25.8408 30.6654 28.9018 28.7739C31.7708 27.0009 34.3447 24.7863 36.7352 22.6703C37.7118 21.8058 38.1682 21.0311 38.1725 20.2318C38.1758 19.416 37.7052 18.6112 36.6916 17.6978ZM4.42749 4.17878L4.48757 4.20233C4.70185 4.27504 4.90597 4.37471 5.09502 4.49897C7.56531 6.32678 10.1913 7.82593 13.3742 9.51448C18.0631 12.0026 21.9841 14.1097 25.8806 16.3068C27.2628 17.0862 28.6033 18.0038 29.8997 18.8914C30.3709 19.2146 30.8445 19.5381 31.3198 19.8559C31.6334 20.0758 31.9345 20.3131 32.2218 20.5665C32.3483 20.6733 32.4833 20.7872 32.631 20.9095C31.5771 22.0973 30.3874 23.1577 29.0863 24.0691C26.9421 25.5605 24.8373 27.0096 22.6672 28.3328C18.0169 31.1695 13.2625 34.0119 8.66447 36.7609L5.08698 38.9016C4.91747 38.9922 4.73818 39.0632 4.55261 39.1133L4.52904 39.1202C4.16359 35.4071 4.08348 9.25948 4.42749 4.17878Z" fill="#522A00"/>
</svg>
