<svg width="32" height="19" viewBox="0 0 32 19" fill="none" xmlns="http://www.w3.org/2000/svg">
<path d="M14.3633 9.36136C10.5238 9.33028 6.68437 9.30536 2.8449 9.26336C2.07964 9.25482 1.31326 9.19474 0.551083 9.11983C0.424988 9.10613 0.305959 9.05468 0.209573 8.97224C0.113186 8.8898 0.043925 8.7802 0.0108445 8.65777C-0.0517487 8.46174 0.165859 8.18366 0.425754 8.14278C0.677807 8.10315 0.928586 8.04168 1.1819 8.02642C2.79966 7.9284 4.41729 7.78966 6.03659 7.76039C9.36341 7.70061 12.6912 7.68548 16.0187 7.6817C19.1757 7.67806 22.3328 7.71754 25.4898 7.72483C25.9967 7.72609 26.5039 7.66223 27.0099 7.61701C27.0435 7.60873 27.0745 7.59214 27.1 7.56877C27.1255 7.54541 27.1447 7.51602 27.1558 7.4833C27.1649 7.40517 27.1418 7.27326 27.0899 7.24525C26.1198 6.71794 25.1615 6.16319 24.164 5.69259C21.8433 4.59778 19.6662 3.25528 17.4907 1.9083C17.1332 1.68693 16.7585 1.46207 16.6143 1.02283C16.5881 0.942878 16.5472 0.805941 16.5805 0.779198C16.6999 0.667911 16.8449 0.5879 17.0027 0.546335C17.1708 0.526501 17.341 0.553746 17.4945 0.625027C18.0381 0.87118 18.5778 1.12812 19.1067 1.40424C22.8867 3.37766 26.6656 5.35328 30.4433 7.33109C31.8702 8.07319 32.5482 8.79275 30.8354 10.4244C30.3419 10.8947 29.8427 11.3643 29.3061 11.7826C26.8175 13.7242 24.3198 15.6539 21.813 17.5718C21.4684 17.8191 21.1049 18.0392 20.726 18.2299C20.4788 18.364 20.2314 18.2845 20.018 18.1236C19.7831 17.9465 19.6374 17.4316 19.7183 17.2052C19.8982 16.7025 20.2567 16.3337 20.6417 15.9998C22.1239 14.7141 23.6141 13.4377 25.1121 12.1706C26.0856 11.3425 27.0693 10.5266 28.0412 9.69685C28.0893 9.65596 28.0917 9.52883 28.0722 9.45238C28.0594 9.41929 28.0388 9.3898 28.0121 9.36644C27.9854 9.34307 27.9535 9.32653 27.919 9.31824C27.411 9.28491 26.9021 9.24249 26.3937 9.24515C22.3834 9.26634 18.3731 9.29275 14.3629 9.32439L14.3633 9.36136Z" fill="#B69F7C"/>
</svg>
