<svg width="24" height="24" viewBox="0 0 24 24" fill="none" xmlns="http://www.w3.org/2000/svg">
<g clip-path="url(#clip0_1358_2209)">
<path fill-rule="evenodd" clip-rule="evenodd" d="M4.79973 19.4302C4.08973 18.8002 3.79973 18.6802 2.65973 19.5002C2.15973 19.8702 1.59973 20.3802 1.14973 20.7302C1.64973 17.0002 1.79973 18.2802 2.99973 8.0002C2.99973 7.8002 3.35973 6.7902 3.12973 6.6502C3.35973 6.2602 2.66973 5.8302 2.48973 6.4902C2.30973 7.1502 2.75973 5.4902 1.61973 11.6402C1.45973 12.8302 -0.240269 20.3402 -0.000268564 21.6002C0.0146694 21.6974 0.0511564 21.7901 0.106523 21.8714C0.16189 21.9527 0.234736 22.0207 0.319731 22.0702C1.05973 22.4902 1.91973 21.3802 2.93973 20.4902C3.1929 20.2212 3.49061 19.9979 3.81973 19.8302C3.86414 19.8398 3.90542 19.8604 3.93973 19.8902C6.17973 21.5302 6.48973 22.6302 6.93973 22.6802C7.03098 22.6857 7.12077 22.6554 7.18992 22.5956C7.25906 22.5358 7.30206 22.4513 7.30973 22.3602C7.41973 21.9402 5.14973 19.7502 4.79973 19.4302Z" fill="white"/>
<path fill-rule="evenodd" clip-rule="evenodd" d="M5.74947 6.19018C6.25947 6.28018 6.38947 4.46018 6.44947 4.30018C6.68466 3.69638 7.02303 3.13806 7.44947 2.65018C9.18947 0.560178 10.4495 2.16018 10.6295 2.04018C10.9095 2.49018 11.9095 1.93018 10.6295 1.15018C10.0499 0.736266 9.33645 0.554324 8.62947 0.640178C6.82947 1.00018 5.99947 2.33018 5.56947 4.00018C5.42947 4.68018 5.07947 6.13018 5.74947 6.19018Z" fill="white"/>
<path fill-rule="evenodd" clip-rule="evenodd" d="M22.7095 7.00017C22.676 6.87828 22.6154 6.76553 22.5323 6.6703C22.4492 6.57507 22.3457 6.49982 22.2295 6.45017C21.0056 6.09643 19.7322 5.94444 18.4595 6.00017C18.3485 4.87452 17.9565 3.79479 17.3195 2.86017C15.7295 0.660166 12.7795 0.860167 11.7095 2.74017C11.2375 3.80438 10.9468 4.94005 10.8495 6.10017C9.84946 6.10017 7.53946 6.16017 7.31946 6.42017C7.09946 6.68017 7.31946 9.10017 7.31946 9.73017C7.23946 12.4502 7.99946 22.3702 7.99946 22.4502C8.11946 23.0702 8.40946 23.1202 8.99946 23.1802C9.85946 23.2702 13.7095 23.4602 15.0695 23.3802C15.7195 23.3802 16.3695 23.2702 17.0195 23.2002C18.0195 23.0902 20.0195 23.3202 21.5395 23.2002C22.2995 23.1202 23.7095 22.8202 23.8895 22.0802C24.1995 21.0602 23.3995 8.93017 22.7095 7.00017ZM12.7095 3.29017C12.9677 2.94457 13.3257 2.68643 13.7351 2.55054C14.1446 2.41466 14.5858 2.40754 14.9995 2.53017C16.4295 2.81017 17.3295 4.59017 17.5995 6.03017C15.6622 6.22302 13.7126 6.25981 11.7695 6.14017C11.9198 5.1588 12.2235 4.20718 12.6695 3.32017L12.7095 3.29017ZM22.8195 21.6402C21.7295 22.3402 18.2395 21.9202 16.9495 22.0802C15.9135 22.2383 14.8674 22.3219 13.8195 22.3302C8.92946 22.2602 8.97946 22.4802 8.89946 21.3302C8.14946 12.5802 7.99946 11.3302 7.99946 9.75017V6.89017C8.99946 6.89017 9.99946 6.82017 10.6595 6.89017C10.3095 8.96017 10.2995 9.12017 10.3595 9.24017C10.3859 9.30924 10.4305 9.36987 10.4886 9.41565C10.5467 9.46142 10.6161 9.49062 10.6895 9.50017C11.1295 9.56017 10.9695 9.27017 11.4695 6.94017C13.5262 7.10419 15.5927 7.10419 17.6495 6.94017C18.0295 9.12017 17.9895 9.34017 18.1695 9.47017C18.2283 9.52357 18.305 9.55315 18.3845 9.55315C18.4639 9.55315 18.5406 9.52357 18.5995 9.47017C18.6987 8.64886 18.6852 7.81783 18.5595 7.00017C19.6139 7.00416 20.6632 7.14877 21.6795 7.43017C21.6795 7.53017 21.8095 7.73017 21.8495 7.92017C22.4181 12.4728 22.7419 17.0528 22.8195 21.6402Z" fill="white"/>
<path fill-rule="evenodd" clip-rule="evenodd" d="M6.41956 6.29004L4.41956 6.40004C3.24956 6.58004 3.64956 6.92004 3.82956 6.96004C4.6907 7.0377 5.55644 7.05107 6.41956 7.00004C7.19956 6.75004 7.13956 6.52004 6.41956 6.29004Z" fill="white"/>
</g>
<defs>
<clipPath id="clip0_1358_2209">
<rect width="24" height="24" fill="white"/>
</clipPath>
</defs>
</svg>
