<svg width="52" height="52" viewBox="0 0 52 52" fill="none" xmlns="http://www.w3.org/2000/svg">
<path d="M1.57568 25.6828C1.57568 12.428 12.3209 1.68282 25.5757 1.68282C38.8305 1.68282 49.5757 12.428 49.5757 25.6828C49.5757 38.9376 38.8305 49.6828 25.5757 49.6828C12.3209 49.6828 1.57568 38.9376 1.57568 25.6828Z" fill="#E1DDD4"/>
<path d="M3.98943 26.9794C4.09353 27.7377 4.14239 28.7283 4.18854 29.4967C4.2028 29.7367 4.05609 29.6407 4.06171 29.8083C4.07382 30.1357 4.19852 30.4212 4.21474 30.7467C4.21978 30.8552 3.99285 30.7722 4.00298 30.8857C4.06151 31.5089 4.2718 32.0618 4.42816 32.6728C5.20262 35.687 6.72399 38.4685 8.80064 40.8949C9.48077 41.6954 10.2933 42.722 11.1984 43.3511C11.3035 43.4243 11.3557 43.2388 11.3837 43.2428C11.8174 43.3046 11.4967 43.505 11.6642 43.6959C12.3295 44.4504 13.2518 45.0875 14.1132 45.5051C14.4805 45.6814 14.3004 45.1752 14.5576 45.5461C14.576 45.5716 14.3944 45.6856 14.4823 45.7573C14.6822 45.921 15.1233 46.1143 15.2928 46.2147C15.6191 46.4101 15.6768 46.4353 16.0009 46.5879C16.4438 46.7968 16.9471 47.1093 17.4573 47.2552C17.566 47.2857 17.4946 47.0536 17.6729 47.0849C17.8506 47.1171 18.2873 47.2865 18.4249 47.3782C18.5618 47.4709 18.451 47.5937 18.4672 47.6355C18.6026 47.9891 19.2498 47.7578 19.3181 47.7652C20.5942 47.9456 21.6246 48.3801 22.8289 48.5258C23.735 48.6337 24.7069 48.6131 25.5757 48.6209C25.5829 48.621 25.5901 48.6211 25.5973 48.6212C26.6376 48.6311 27.5229 48.6777 28.5288 48.5334C28.6343 48.5181 28.4818 48.3096 28.6095 48.2904C29.967 48.0831 31.2948 47.8086 32.6489 47.5315C32.7852 47.5035 32.6768 47.7479 32.8175 47.7307C33.6707 47.6345 35.1158 47.4612 35.2036 46.4565C35.7353 46.2485 36.3646 45.9628 36.8985 45.8611C37.2431 45.7944 37.0701 46.1438 37.3802 45.8571C37.4497 45.7923 37.25 45.6899 37.3605 45.6054C37.8242 45.2505 38.3905 44.9574 38.8038 44.5467C38.8874 44.4629 38.763 44.3425 38.772 44.2987C38.8508 43.9404 39.4579 43.9971 39.5575 43.9571C40.3009 43.6646 40.6806 43.2293 41.2126 42.7516C41.3358 42.6401 41.0371 42.605 41.1491 42.4921C41.7305 41.9092 42.3338 41.3135 42.9402 40.7699C43.0755 40.649 43.1141 40.9015 43.1865 40.8497C43.5049 40.6164 43.2764 40.3163 43.5658 40.0842C43.6264 40.0345 43.7295 40.1721 43.7525 40.1725C44.1159 40.1774 43.9134 39.7735 43.9398 39.7242C44.272 39.0848 44.8823 38.9538 45.2147 38.3328C45.2533 38.2587 44.9754 38.3019 45.0937 38.1015C45.8788 36.766 46.6609 35.3371 47.3644 33.9531C47.4734 33.7373 47.5611 33.9533 47.5847 33.9462C47.9582 33.8181 47.6279 33.5264 47.6391 33.4485C47.7391 32.833 48.235 32.3712 47.8774 31.8364C48.5634 29.8525 48.692 27.7596 48.852 25.6828C48.8915 25.1656 48.9336 24.657 48.9858 24.1332C48.9886 24.0996 49.1932 24.1463 49.198 24.0789C49.2504 23.2667 48.9479 23.4455 48.5119 22.9689C48.4026 22.8517 48.8075 22.3956 48.8349 22.3536C48.9398 22.2068 49.2552 22.2985 49.2729 22.2516C49.4062 21.8596 48.439 22.0665 48.3572 21.596C48.3562 21.5808 48.5466 21.6115 48.5573 21.5683C48.5911 21.4337 48.497 21.3238 48.535 21.1907C48.6228 20.8878 49.0728 20.6811 48.7018 20.3124C48.6533 20.2671 48.128 20.4732 48.0519 20.0519C48.0246 19.8832 47.8141 19.1529 47.7842 18.9409C47.7569 18.7275 47.9723 18.8134 47.9755 18.7969C48.0301 18.1719 48.1894 18.3512 48.4322 17.9575C48.6692 17.5599 47.9005 17.9136 47.773 17.8333C47.6466 17.7534 47.6841 17.2861 47.7088 17.1622C47.7347 17.039 47.8895 17.1207 47.8916 17.0186C47.8961 16.3406 47.4027 16.9188 47.2031 16.7814C46.7313 16.4676 47.1519 15.8806 47.0151 15.4511C46.9782 15.3361 46.8925 15.4856 46.8343 15.3957C46.605 15.0417 46.6623 14.7253 46.2772 14.3902C46.2136 14.3333 45.702 14.1854 45.8143 13.8346C45.8306 13.7841 46.016 13.7922 45.9548 13.6201C45.8644 13.3631 45.6361 12.9317 45.4338 12.7194C45.2847 12.5628 45.205 12.9066 45.1243 12.6413C45.0879 12.5232 45.3352 12.6225 45.2554 12.4066C45.1768 12.1903 44.8409 11.7271 44.7062 11.5568C44.5727 11.3859 44.4878 11.5976 44.4669 11.5913C44.3443 11.5508 44.02 11.2829 43.9973 11.2551C42.8566 9.84306 41.8857 8.39621 40.4187 7.34237C40.3042 7.26037 40.2485 7.47884 40.2297 7.46797C39.8027 7.23752 40.4382 7.04584 40.282 6.69188C40.0655 7.05069 39.9551 6.86712 39.6549 6.70065C39.5101 6.62119 39.4863 6.80395 39.4645 6.80827C39.127 6.86332 39.1759 6.51143 39.177 6.43291C39.1825 6.14546 38.8777 6.27642 38.8771 6.08396C38.8741 5.89158 39.2173 5.84102 38.9406 5.65822C38.7815 5.73105 38.7663 6.18842 38.5265 6.10441C37.636 5.78049 36.2841 4.68541 35.6056 4.34708C34.9417 4.0032 34.7049 3.93964 34.3217 3.72622C33.6216 3.34942 33.7863 3.7237 33.2887 3.6847C32.7895 3.65212 33.2377 3.05633 33.2199 2.88871C33.2013 2.72154 33.0786 2.84636 33.021 2.73951C32.9629 2.63264 33.1771 2.59258 32.9885 2.49883C32.7976 2.40276 32.1776 2.50306 32.0656 2.63898C31.8275 2.92436 31.973 3.32972 31.494 3.07289C31.4661 3.058 31.6098 2.90245 31.5006 2.85454C30.6334 2.48103 29.6727 2.28402 28.7574 2.03452C28.6311 1.99994 28.7733 1.80912 28.6995 1.7867C27.9262 1.55894 28.163 1.94192 27.7051 2.28768C27.8478 1.78211 27.6404 1.43829 27.0291 1.39761C26.6617 1.37522 26.7156 1.60529 26.4767 1.75503C26.4059 1.80011 26.1553 1.63763 26.1064 1.74328C25.9476 2.08871 26.1781 2.47746 25.5757 2.31954C25.5754 2.31948 25.5752 2.31942 25.5749 2.31935C25.5656 2.31676 25.57 2.29143 25.5757 2.25921C25.5832 2.21683 25.5928 2.16254 25.5757 2.13239C25.5689 2.12045 25.5579 2.11229 25.5408 2.1102C24.9401 2.0394 24.8782 2.40401 24.2484 2.47964C23.7536 2.53855 22.851 2.40115 22.2772 2.44911C22.2109 1.86942 21.6774 2.08345 21.5305 2.51829C21.1605 2.56558 20.7731 2.66584 20.4085 2.69078C20.2832 2.69958 20.3255 2.51731 20.3063 2.50297C20.0053 2.27829 19.9355 2.69786 19.8622 2.73174C19.0552 3.08696 18.2817 3.01506 17.5929 3.56922C17.5682 3.58943 17.6636 3.984 17.3541 3.78455C17.333 3.77086 17.5268 3.50115 17.1544 3.62651C16.7846 3.7501 16.0096 3.8367 15.5928 4.24058C15.4906 4.33762 15.337 4.77459 14.9852 4.6655C14.9377 4.65049 14.9203 4.52932 14.845 4.49514C14.6013 4.38845 14.7094 4.79257 14.3734 4.57776C14.0385 4.36281 13.5341 4.33821 13.1701 4.83411C13.1578 4.84958 13.2107 5.19493 13.0592 5.28205C12.8165 5.42075 12.4453 5.57888 12.2037 5.74446C12.0881 5.8237 12.2752 5.94022 12.2571 5.95685C11.5504 6.57602 10.9157 6.82813 10.0928 7.41852C9.94002 7.5275 9.7261 8.07854 9.31976 8.1619C8.8719 8.25916 8.48567 7.25233 7.97934 8.07922C7.77125 8.4214 8.36381 9.6072 7.44928 9.66055C6.72855 10.7202 5.74464 11.4714 5.23925 12.682C5.21623 12.7366 5.41478 13.0762 5.34104 13.1867C5.23032 13.3512 5.03438 13.3602 4.95213 13.4775C4.60453 13.9678 4.46578 14.5158 4.18991 15.0185C4.08589 15.2105 3.96752 15.0673 3.84507 15.2995C3.72378 15.5326 3.85259 15.7821 3.612 16.0615C3.43028 16.2724 2.90554 16.3448 2.7219 16.6647C3.13444 16.8428 3.03298 17.0675 2.99628 17.5159C2.98971 17.6018 3.16676 17.5711 3.1713 17.6143C3.19344 17.7904 3.02288 17.8864 3.05735 18.0578C3.06553 18.0993 3.21019 18.1498 3.22524 18.1862C3.35846 18.4952 2.90749 18.7872 2.8295 18.8406C2.53192 19.0406 2.68816 19.2217 2.54559 19.4026C2.40335 19.5853 2.37822 19.2469 2.26064 19.4751C2.01702 19.9485 1.89087 20.613 1.78662 21.1306C1.74574 21.338 1.97345 21.2336 1.97225 21.2642C1.94384 21.6971 1.66229 22.1043 2.03361 22.396C0.950578 22.5535 2.09599 22.6667 1.82166 23.2527C1.80001 23.2983 1.29756 23.3139 1.24435 23.1158C1.1915 22.9164 1.37941 22.6469 1.30207 22.37C1.28305 22.3056 0.873289 21.88 0.85406 21.8239C0.697586 21.397 1.44326 21.4688 1.48636 21.4564C1.95904 21.3073 1.54791 20.7905 1.53911 20.6661C1.49247 20.1095 1.7013 19.6954 1.70777 19.2337C1.71366 18.9325 1.25322 18.7709 1.33329 18.5491C1.60695 17.8094 2.33369 17.7844 2.02939 16.9008C1.96736 16.7107 1.41102 16.6636 2.0098 16.2861C2.04789 16.2603 2.55832 16.0221 2.43196 15.7057C2.41596 15.6656 2.27305 15.6048 2.2772 15.5625C2.30851 15.2799 2.49555 15.1659 2.56675 14.8745C2.63793 14.5835 2.71717 14.2221 2.91987 13.9463C3.04187 13.779 3.41979 13.6879 3.52801 13.6382C3.83609 13.4998 3.68972 13.0826 3.98845 13.0619C4.28718 13.0445 4.44826 13.5117 4.8055 13.2253C4.46777 13.0039 4.13228 12.7583 3.79907 12.5251C4.32337 11.6872 4.97849 10.9647 5.56635 10.1776C5.63928 10.0797 5.39112 10.0451 5.46572 9.93607C5.78346 9.47604 6.21293 9.2026 6.5486 8.73258C6.80797 8.36839 6.97752 7.85234 7.27054 7.476C7.79928 7.59666 8.18308 7.00725 8.5888 6.7034C8.72979 6.59708 8.80285 6.6974 8.9227 6.64566C9.37359 6.45135 8.94243 6.28602 8.99927 6.15254C9.25372 5.58121 9.87506 6.26409 10.3645 5.85476C10.3888 5.83383 10.4281 5.18783 10.4592 5.12801C10.6415 4.74716 10.6098 5.22958 10.8182 5.12365C11.2002 4.9321 11.5037 4.86503 11.8373 4.47539C11.933 4.36186 12.0651 3.91408 12.4302 3.97074C12.4779 3.9782 12.5447 4.12793 12.5749 4.12085C13.1124 3.9843 12.8682 3.53845 13.0555 3.23362C13.245 2.92798 13.8375 3.01542 13.9687 3.06332C14.3132 3.18239 13.8484 3.25148 13.8486 3.28152C13.8508 3.62775 14.1282 3.42067 14.3734 3.3273C14.6322 3.75756 14.9392 3.57353 14.6268 3.2296C14.5917 3.19225 14.4302 3.3241 14.3734 3.3273C14.356 2.78537 14.7077 2.54316 15.3026 2.78017C15.5806 2.8932 15.5014 3.19763 16.0378 2.86967C16.2824 2.7233 16.0501 2.44551 16.2506 2.26343C16.7147 1.8457 17.5371 1.89504 18.0903 1.6714C18.2917 1.58988 18.0342 1.4715 18.1709 1.4096C18.5358 1.24513 18.9109 1.28723 19.2782 1.11811C19.3115 1.10259 19.1768 0.932738 19.2968 0.899674C20.2095 0.647406 21.0441 0.611136 22.0164 0.476679C22.4849 0.409441 23.3215 0.212246 23.8168 0.203747C24.3731 0.18917 25.0011 0.294988 25.5757 0.364778C25.893 0.403051 26.19 0.429539 26.4477 0.413424C26.9198 0.386604 26.8249 0.1864 27.0379 0.0623215C27.4547 -0.178694 28.1158 0.351285 28.1967 0.434302C28.1986 0.436236 27.791 0.44437 27.9966 0.565815C28.1004 0.788314 28.1915 0.434736 28.1967 0.434302C28.2547 0.484158 29.0564 0.625731 29.2198 0.614787C29.3093 0.60689 29.288 0.414396 29.3345 0.413904C30.4457 0.408261 31.5487 0.594946 32.6021 0.985237C32.6199 0.994253 32.5343 1.18784 32.5767 1.20647C33.1645 1.47278 33.6317 1.35626 34.1885 1.39067C34.7438 1.42613 35.1311 1.63497 35.2833 2.0868C35.6713 2.19609 36.1338 2.57678 36.3863 2.80451C36.6389 3.03163 36.8597 2.68736 36.8897 2.69279C37.8225 2.86994 38.1831 3.33431 38.9671 3.85351C39.342 4.10079 40.1157 4.54239 40.5364 4.79386C40.8704 4.99009 40.9985 5.20568 41.3164 5.37415C41.3593 5.39718 41.4324 5.22389 41.4483 5.22738C41.8974 5.30283 41.4707 5.53342 41.4856 5.64606C41.5366 6.05649 41.576 6.2838 42.0433 6.50461C42.1494 6.55422 42.8271 6.29725 43.0136 6.41652C43.2531 6.57054 43.0201 6.66749 43.2715 6.82598C43.2927 6.83986 43.3861 6.73281 43.5133 6.86238C44.1049 7.46286 44.676 8.18237 45.2526 8.83453C45.3311 8.92428 45.4022 8.6618 45.5189 8.79021C46.0664 9.39308 46.6065 10.1109 46.9713 10.8208C47.0604 10.9959 46.8615 10.9848 46.8471 11.0459C46.7602 11.4158 47.2999 11.49 47.3403 11.5383C48.2925 12.6528 48.5011 13.8039 49.2661 15.0607C49.3084 15.1256 49.9622 15.527 49.715 15.9271C49.6995 15.9553 49.4415 16.3468 49.7724 16.4758C49.7931 16.4843 49.9184 16.2537 50.0047 16.5395C50.0905 16.8243 50.3762 17.2334 50.2939 17.6904C50.2689 17.8367 49.9923 18.2339 50.3919 18.513C50.4194 18.5256 51.2497 18.924 50.8372 19.2523C50.7688 19.3057 50.2717 19.3923 50.6291 19.7717C50.6979 19.8451 50.7721 19.6645 50.8927 19.8735C51.0784 20.1964 51.0405 20.681 51.3385 21.0707C51.3912 21.1371 51.7865 21.4062 51.5678 21.7072C51.5335 21.7536 51.355 21.7026 51.3565 21.8406C51.3618 22.495 51.5488 23.1645 51.4783 23.8315C51.4531 24.0676 51.1729 23.9666 51.1141 24.2113C51.0558 24.4572 51.0036 24.9348 51.1322 25.184C51.2611 25.4342 51.6935 25.1493 51.7319 25.5342C51.7366 25.5837 51.7409 25.6332 51.7447 25.6828C51.8686 27.3114 51.4795 28.9092 51.1487 30.4819C51.0972 30.7228 51.2898 30.5515 51.2216 30.9095C50.9915 32.2331 50.4314 34.5279 49.6624 35.4754C49.0621 36.2273 49.3233 35.0808 48.9525 35.683C48.7745 35.9693 49.0827 36.5105 49.0613 36.5936C48.8646 37.395 48.4042 37.7916 48.1088 38.4552C48.0469 38.5925 48.2983 38.5663 48.243 38.6827C48.0548 39.0819 47.7359 39.4287 47.5233 39.7895C47.4279 39.9516 47.578 40.0083 47.4722 40.1469C47.2199 40.4785 46.9544 40.7446 46.5991 40.9831C46.5669 41.0044 46.5537 40.6917 46.3694 40.9319C46.0698 41.3217 45.5852 41.7082 45.3386 42.2343C45.2657 42.3904 45.534 42.6304 45.1093 42.7419C45.0196 42.765 44.7633 42.4085 44.7618 42.9674C44.765 43.0591 44.6451 43.9281 44.165 43.9514C44.0392 43.9583 43.6267 43.8742 43.5228 44.0527C43.5093 44.0781 43.7224 44.1392 43.6156 44.2694C43.2357 44.726 42.763 45.1271 42.3372 45.565C42.2232 45.6824 42.5377 45.6785 42.3622 45.8491C41.8792 46.3195 41.1783 46.7915 40.6056 47.1155C40.3941 47.2348 40.4369 47.0037 40.4121 46.9992C40.0164 46.9189 40.1015 47.3355 40.0356 47.4073C39.6258 47.8448 39.1478 47.9236 38.7119 48.2356C38.5905 48.3213 38.7755 48.4311 38.7584 48.4604C38.5727 48.7562 38.6037 48.3494 38.4169 48.4129C37.8927 48.5891 37.3702 48.8801 36.8862 49.1401C36.7089 49.2354 37.0074 49.3339 36.8461 49.4173C35.8911 49.9142 34.8322 50.315 33.8013 50.5285C33.6067 50.5683 33.6725 50.37 33.6217 50.3464C33.2732 50.179 32.991 50.6456 32.9072 50.7059C32.5354 50.9791 32.3302 50.8803 31.9677 51.0012C30.1878 51.6066 27.852 51.8047 26.0951 51.7638C25.9193 51.7612 25.7463 51.7564 25.5757 51.7496C23.5242 51.6574 21.8824 51.3411 19.9153 50.9515C19.7797 50.9235 19.8671 51.172 19.7489 51.1503C18.221 50.8566 16.7886 50.3012 15.3342 49.7521C15.2144 49.7061 15.3016 49.9738 15.1055 49.9057C14.7022 49.767 14.2193 49.5301 13.8652 49.2778C13.6931 49.1555 14.0239 49.118 13.8503 48.9985C13.4477 48.7196 13.0006 48.4612 12.5532 48.2414C12.3625 48.1478 12.5309 48.4963 12.2904 48.3588C10.654 47.4229 9.1136 46.327 7.90905 44.8349C7.8263 44.732 8.04413 44.3349 7.79038 44.2086C7.69106 44.2825 7.5923 44.3867 7.49532 44.4744C5.47647 42.6279 3.93977 40.3516 2.67477 37.9429C2.62134 37.8409 2.50977 38.127 2.40499 37.9288C1.80147 36.7803 1.2288 35.6369 1.00735 34.3097C0.985875 34.1783 1.39328 34.1078 1.21371 33.7671C1.18039 33.7076 0.954345 33.1764 0.828378 33.0586C0.809741 33.0428 0.656338 33.1992 0.597968 33.0211C0.261908 31.982 0.0534636 30.8533 0.000304937 29.765C-0.0077908 29.5891 0.222232 29.7415 0.218504 29.6167C0.192006 28.7427 -0.0559098 27.8109 0.0886106 26.9664C0.188529 26.4089 0.550172 26.5996 0.888037 26.3034C0.935356 26.2619 0.937716 25.9285 1.13982 25.9099C1.64662 25.8631 2.20366 26.0118 2.74364 25.9425C2.85918 25.9283 2.73287 25.5161 3.01479 25.7595C3.03324 25.7768 3.12954 26.0723 3.22699 26.142C3.29403 26.1907 3.49722 26.0969 3.5839 26.1962C3.67064 26.2947 3.50168 26.4109 3.60746 26.5741C3.71519 26.7367 3.94352 26.6514 3.98943 26.9794ZM37.4931 3.85275C37.6583 4.16761 38.0492 3.56389 37.6786 3.5552C37.6603 3.55556 37.4842 3.83691 37.4931 3.85275ZM5.43004 11.2963C5.91102 11.1687 5.69809 10.6803 5.33678 10.7555C4.9735 10.8361 5.28268 11.338 5.43004 11.2963ZM3.57202 14.8459C3.99445 14.5588 3.12366 14.0267 3.08519 14.5614C3.08276 14.5925 3.54736 14.8632 3.57202 14.8459ZM1.05421 27.6187C1.06313 27.6139 1.05506 27.3755 1.04552 27.3704C0.808817 27.258 0.825178 27.7394 1.05421 27.6187ZM2.35725 18.5927C2.52797 18.5016 2.49946 18.0723 2.28349 18.1843C2.1081 18.2766 2.1427 18.7092 2.35725 18.5927ZM47.326 15.289C47.3184 15.2977 47.3813 15.4528 47.4345 15.4241C47.6062 15.3309 47.4554 15.1424 47.326 15.289ZM1.32285 25.1407C1.38859 24.153 2.27661 23.6399 2.12276 24.6669C2.09696 24.8543 1.87407 24.2495 1.78681 24.4854C1.62786 24.9234 2.14814 25.2267 1.86417 25.6745C1.81129 25.7588 1.31584 25.1991 1.32172 25.1389C1.32209 25.1395 1.32247 25.1401 1.32285 25.1407ZM37.2246 4.68928C37.2252 4.70017 37.422 4.82125 37.4313 4.81603C37.6541 4.67998 37.2537 4.43342 37.2246 4.68928ZM49.2135 24.7288C49.1952 24.742 49.1911 25.2695 49.2086 25.2867C49.5889 25.5601 49.5988 24.4755 49.2135 24.7288ZM22.2662 2.43499C22.0554 2.69598 21.7747 2.76819 21.5317 2.51838C21.776 2.49153 22.0217 2.45522 22.2662 2.43499Z" fill="#E1DDD4"/>
<g clip-path="url(#clip0_983_1700)">
<path d="M31.6438 15.0247C31.6282 14.7647 31.5844 14.5071 31.5135 14.2564C31.491 14.1488 31.445 14.0473 31.3789 13.9592C31.3127 13.8711 31.2281 13.7984 31.1308 13.7462C31.0253 13.7035 30.9117 13.684 30.7979 13.6888C30.6841 13.6936 30.5726 13.7227 30.4712 13.7741C30.2948 13.8488 30.1113 13.9182 29.9338 13.9853C29.7822 14.0429 29.6306 14.1002 29.4806 14.1615C29.2427 14.2589 29.004 14.3543 28.7652 14.4499C28.1365 14.7015 27.4864 14.9617 26.8614 15.2518C26.137 15.5879 25.3856 15.9826 24.5639 16.4585C22.5268 17.6384 20.5375 18.7963 18.5949 19.9895C18.2735 20.2031 17.8964 20.3189 17.5097 20.3225C16.7194 20.3363 15.931 20.3904 15.1686 20.4428C13.6936 20.5444 13.4454 21.0708 13.4205 22.2912C13.4165 22.4912 13.4179 22.6912 13.4194 22.8912C13.4207 23.0889 13.4223 23.2867 13.4181 23.4843C13.3689 25.8965 13.3143 28.6302 13.252 31.3294C13.2367 31.9893 13.5716 32.4664 14.1705 32.638C14.425 32.7082 14.688 32.743 14.952 32.7413C16.0235 32.7383 17.4248 32.6786 18.7911 32.2448C18.9569 32.3487 19.1217 32.4528 19.2855 32.5571C19.6681 32.7997 20.0635 33.0506 20.4599 33.2841C23.1541 34.8705 26.0692 36.1085 28.8884 37.3058L29.4276 37.5349C29.4647 37.5519 29.5028 37.5664 29.542 37.5781C29.6091 37.5984 29.679 37.6092 29.7492 37.6101C29.8413 37.6123 29.932 37.5867 30.0091 37.5366C30.0733 37.4885 30.1257 37.4265 30.1623 37.3553C30.1988 37.2841 30.2186 37.2055 30.22 37.1255C30.2253 37.0712 30.2275 37.0161 30.2298 36.9608C30.2291 36.8646 30.2405 36.7686 30.2635 36.6751C30.8366 34.8295 31.2395 32.9359 31.4669 31.0178L31.5508 30.2846C31.7776 28.3151 32.0117 26.2789 32.0352 24.252C32.0658 21.6157 31.8946 18.9474 31.7289 16.3671C31.7003 15.9198 31.6719 15.4723 31.6438 15.0247ZM29.1754 35.6265C29.1877 35.7622 29.2 35.8977 29.2162 36.0752V36.0784C26.9754 34.1582 24.4344 32.8499 21.9742 31.5833C21.4297 31.3028 20.8674 31.0135 20.3213 30.7235C20.3301 30.2246 20.342 29.7338 20.3541 29.2485C20.3824 28.0894 20.4094 26.9947 20.3918 25.8831C20.3739 24.7665 20.3122 23.6714 20.2471 22.512C20.2197 22.0286 20.1923 21.5405 20.1677 21.0458C20.2365 20.9955 20.3079 20.9488 20.3817 20.906C21.1699 20.4622 21.9585 20.0191 22.7474 19.5769C24.5663 18.5562 26.4472 17.5008 28.2883 16.4473C28.7267 16.1849 29.1501 15.8988 29.5569 15.5901C29.6967 15.4885 29.8402 15.3844 29.9874 15.279C29.9779 15.4259 29.9683 15.5697 29.9587 15.7103C29.9271 16.1756 29.8971 16.6148 29.8805 17.0535C29.8661 17.4286 29.8514 17.8038 29.8364 18.1792C29.7769 19.6821 29.7154 21.2365 29.6837 22.7663C29.6233 25.684 29.4312 28.8378 29.096 32.4081C28.9937 33.509 29.079 34.6017 29.1754 35.6265ZM18.4064 26.1113C18.4099 26.2752 18.4128 26.4393 18.4157 26.6036C18.4376 27.8248 18.4601 29.0859 18.7347 30.4077H15.246C15.2449 30.4008 15.2438 30.3938 15.2425 30.3868C15.2236 30.2873 15.2118 30.1865 15.2073 30.0852C15.1901 29.2246 15.1739 28.3638 15.1588 27.5029C15.1385 26.3764 15.117 25.2498 15.0941 24.1232C15.0878 23.8338 15.0683 23.541 15.0493 23.258C15.037 23.0653 15.0237 22.8725 15.0147 22.6797C15.0079 22.5304 15.0095 22.3802 15.0114 22.2212C15.0114 22.1845 15.0122 22.1478 15.0125 22.111L18.4788 21.9045C18.47 22.2945 18.458 22.6858 18.4462 23.0783C18.4159 24.0709 18.3846 25.0978 18.4064 26.1113Z" fill="#B07010"/>
<path d="M35.046 19.5216C34.7184 19.2529 34.2747 19.209 34.0139 19.4201C33.7625 19.6237 33.7048 20.0092 33.8709 20.3798C33.9499 20.5563 34.0449 20.7262 34.1365 20.8906C34.1771 20.9631 34.2174 21.0355 34.2567 21.1089C35.2236 22.9124 35.6527 24.4655 35.6071 25.9967V26.0019C35.6181 27.3072 35.2839 28.5925 34.6382 29.729C34.3197 30.313 34.0141 30.9153 33.7185 31.4979C33.5934 31.7446 33.468 31.9909 33.3421 32.237C33.2546 32.4074 33.0917 32.7244 33.3868 32.9068C33.4918 32.9661 33.611 32.9957 33.7317 32.9926C33.8322 32.9938 33.932 32.9754 34.0256 32.9387C34.6716 32.677 35.2445 32.2644 35.6959 31.7356C36.528 30.737 37.1114 29.7598 37.4789 28.7479C37.7575 27.9852 37.8924 27.1782 37.8766 26.367C37.8324 24.1077 37.0423 22.0078 35.461 19.9465C35.3393 19.7896 35.2002 19.647 35.046 19.5216Z" fill="#B07010"/>
</g>
<defs>
<clipPath id="clip0_983_1700">
<rect width="24.7559" height="24" fill="white" transform="translate(13.1978 13.6828)"/>
</clipPath>
</defs>
</svg>
