<svg width="35" height="35" viewBox="0 0 35 35" fill="none" xmlns="http://www.w3.org/2000/svg">
<path d="M1.05029 17.1221C1.05029 8.28551 8.21374 1.12207 17.0503 1.12207C25.8868 1.12207 33.0503 8.28551 33.0503 17.1221C33.0503 25.9586 25.8868 33.1221 17.0503 33.1221C8.21374 33.1221 1.05029 25.9586 1.05029 17.1221Z" fill="#7B3F00"/>
<path d="M2.65946 17.9865C2.72886 18.492 2.76143 19.1524 2.79219 19.6647C2.8017 19.8247 2.7039 19.7607 2.70764 19.8724C2.71572 20.0907 2.79885 20.281 2.80966 20.498C2.81303 20.5704 2.66174 20.515 2.66849 20.5906C2.70751 21.0061 2.84771 21.3747 2.95195 21.7821C3.46825 23.7915 4.4825 25.6458 5.86693 27.2634C6.32035 27.7971 6.86207 28.4815 7.46542 28.901C7.53552 28.9497 7.57033 28.8261 7.58898 28.8287C7.87812 28.8699 7.66433 29.0035 7.77594 29.1308C8.21952 29.6338 8.8344 30.0585 9.40863 30.3369C9.65349 30.4545 9.53341 30.117 9.7049 30.3643C9.71716 30.3813 9.59613 30.4573 9.65474 30.5051C9.78794 30.6142 10.082 30.7431 10.1951 30.81C10.4126 30.9402 10.451 30.9571 10.6671 31.0588C10.9623 31.198 11.2979 31.4064 11.638 31.5037C11.7105 31.524 11.6629 31.3692 11.7818 31.3901C11.9002 31.4116 12.1914 31.5245 12.2831 31.5857C12.3744 31.6475 12.3005 31.7293 12.3113 31.7572C12.4016 31.993 12.833 31.8387 12.8786 31.8436C13.7293 31.9639 14.4163 32.2536 15.2191 32.3507C15.8232 32.4227 16.4711 32.409 17.0503 32.4142C17.0551 32.4142 17.0599 32.4143 17.0647 32.4143C17.7582 32.4209 18.3484 32.452 19.019 32.3558C19.0894 32.3456 18.9877 32.2066 19.0729 32.1938C19.9779 32.0556 20.863 31.8726 21.7658 31.6878C21.8566 31.6692 21.7843 31.8321 21.8782 31.8207C22.447 31.7565 23.4104 31.641 23.4689 30.9712C23.8233 30.8326 24.2429 30.6421 24.5988 30.5743C24.8286 30.5298 24.7132 30.7627 24.9199 30.5716C24.9663 30.5284 24.8332 30.4601 24.9068 30.4038C25.216 30.1672 25.5935 29.9718 25.8691 29.698C25.9247 29.6421 25.8418 29.5619 25.8478 29.5326C25.9004 29.2938 26.3051 29.3316 26.3715 29.3049C26.8671 29.1099 27.1203 28.8198 27.4749 28.5013C27.5571 28.4269 27.3579 28.4035 27.4326 28.3283C27.8202 27.9397 28.2224 27.5426 28.6266 27.1801C28.7168 27.0995 28.7425 27.2679 28.7908 27.2334C29.0031 27.0778 28.8508 26.8777 29.0437 26.723C29.0841 26.6899 29.1528 26.7816 29.1682 26.7819C29.4105 26.7851 29.2755 26.5159 29.293 26.483C29.5145 26.0567 29.9214 25.9694 30.143 25.5554C30.1687 25.506 29.9834 25.5348 30.0623 25.4012C30.5857 24.5109 31.1071 23.5582 31.5761 22.6356C31.6488 22.4917 31.7073 22.6357 31.7229 22.631C31.972 22.5456 31.7518 22.3511 31.7593 22.2992C31.8259 21.8889 32.1565 21.581 31.9181 21.2244C32.3755 19.9019 32.4611 18.5066 32.5678 17.1221C32.5942 16.7773 32.6222 16.4382 32.657 16.089C32.6589 16.0666 32.7953 16.0977 32.7985 16.0528C32.8334 15.5113 32.6317 15.6306 32.3411 15.3128C32.2683 15.2347 32.5382 14.9306 32.5565 14.9026C32.6264 14.8047 32.8366 14.8659 32.8484 14.8346C32.9373 14.5733 32.2925 14.7112 32.238 14.3975C32.2373 14.3874 32.3642 14.4079 32.3714 14.3791C32.3939 14.2893 32.3312 14.216 32.3565 14.1273C32.415 13.9254 32.715 13.7876 32.4677 13.5418C32.4354 13.5116 32.0852 13.649 32.0344 13.3681C32.0162 13.2557 31.8759 12.7688 31.8559 12.6275C31.8378 12.4852 31.9814 12.5425 31.9835 12.5314C32.0199 12.1148 32.1261 12.2343 32.288 11.9719C32.446 11.7068 31.9335 11.9426 31.8485 11.8891C31.7642 11.8358 31.7892 11.5243 31.8057 11.4417C31.823 11.3595 31.9262 11.414 31.9276 11.3459C31.9306 10.8939 31.6016 11.2794 31.4686 11.1878C31.154 10.9786 31.4344 10.5872 31.3432 10.3009C31.3187 10.2243 31.2615 10.3239 31.2227 10.264C31.0698 10.028 31.1081 9.81704 30.8513 9.59363C30.8089 9.55574 30.4679 9.45715 30.5427 9.22328C30.5536 9.18958 30.6772 9.19497 30.6363 9.08023C30.5761 8.90892 30.4239 8.62132 30.289 8.47977C30.1897 8.37541 30.1365 8.60457 30.0827 8.42772C30.0584 8.34897 30.2233 8.41522 30.1701 8.27129C30.1177 8.12706 29.8938 7.81826 29.804 7.70472C29.715 7.59078 29.6584 7.73195 29.6444 7.72772C29.5627 7.70075 29.3465 7.52214 29.3314 7.50357C28.5709 6.56224 27.9237 5.59766 26.9457 4.8951C26.8693 4.84044 26.8322 4.98608 26.8196 4.97884C26.535 4.82521 26.9586 4.69742 26.8545 4.46144C26.7102 4.70065 26.6366 4.57827 26.4365 4.4673C26.3399 4.41432 26.324 4.53616 26.3095 4.53904C26.0845 4.57574 26.1171 4.34114 26.1178 4.2888C26.1215 4.09717 25.9183 4.18447 25.9179 4.05617C25.9159 3.92792 26.1447 3.8942 25.9602 3.77234C25.8542 3.82089 25.844 4.1258 25.6842 4.0698C25.0905 3.85386 24.1893 3.12379 23.7369 2.89825C23.2943 2.66899 23.1364 2.62662 22.881 2.48434C22.4142 2.23314 22.524 2.48266 22.1923 2.45666C21.8595 2.43494 22.1583 2.03774 22.1465 1.926C22.134 1.81455 22.0522 1.89777 22.0138 1.82653C21.9751 1.75528 22.1179 1.72858 21.9922 1.66608C21.8649 1.60203 21.4516 1.6689 21.3769 1.75951C21.2182 1.94977 21.3152 2.22001 20.9958 2.04879C20.9773 2.03886 21.0731 1.93516 21.0002 1.90322C20.4221 1.65421 19.7816 1.52287 19.1714 1.35654C19.0872 1.33348 19.182 1.20627 19.1329 1.19132C18.6173 1.03949 18.7752 1.29481 18.4699 1.52531C18.565 1.18827 18.4268 0.959056 18.0192 0.931933C17.7743 0.917006 17.8103 1.07039 17.651 1.17022C17.6037 1.20027 17.4367 1.09195 17.4041 1.16238C17.2983 1.39267 17.4519 1.65184 17.0503 1.54656C17.0501 1.54651 17.05 1.54647 17.0498 1.54643C17.0435 1.5447 17.0465 1.52781 17.0503 1.50633C17.0553 1.47808 17.0617 1.44189 17.0503 1.42179C17.0458 1.41382 17.0384 1.40839 17.027 1.40699C16.6265 1.3598 16.5853 1.60287 16.1654 1.65329C15.8356 1.69256 15.2338 1.60096 14.8513 1.63294C14.8071 1.24648 14.4514 1.38916 14.3535 1.67905C14.1068 1.71058 13.8486 1.77742 13.6055 1.79405C13.522 1.79991 13.5502 1.6784 13.5373 1.66884C13.3367 1.51905 13.2902 1.79877 13.2413 1.82135C12.7033 2.05817 12.1876 2.01023 11.7284 2.37968C11.7119 2.39314 11.7756 2.65619 11.5693 2.52323C11.5552 2.5141 11.6843 2.33429 11.4361 2.41786C11.1896 2.50026 10.6729 2.55799 10.3951 2.82725C10.3269 2.89194 10.2245 3.18325 9.98998 3.11053C9.95833 3.10052 9.9467 3.01974 9.89649 2.99695C9.73405 2.92583 9.80611 3.19524 9.58211 3.05203C9.35884 2.90873 9.02258 2.89234 8.77988 3.22293C8.77169 3.23325 8.80697 3.46348 8.706 3.52156C8.54414 3.61403 8.29671 3.71945 8.13563 3.82984C8.0586 3.88266 8.18329 3.96034 8.17124 3.97143C7.7001 4.3842 7.27699 4.55228 6.7284 4.94587C6.62652 5.01852 6.4839 5.38589 6.21301 5.44146C5.91444 5.5063 5.65695 4.83508 5.3194 5.38634C5.18067 5.61446 5.57571 6.40499 4.96603 6.44056C4.48554 7.14699 3.82959 7.64778 3.49267 8.45486C3.47733 8.49124 3.60969 8.71769 3.56053 8.79132C3.48672 8.90099 3.35609 8.90699 3.30126 8.98518C3.06952 9.31208 2.97703 9.67736 2.79311 10.0125C2.72377 10.1405 2.64485 10.0451 2.56322 10.1998C2.48236 10.3553 2.56823 10.5216 2.40784 10.7079C2.28669 10.8484 1.93686 10.8967 1.81444 11.11C2.08947 11.2287 2.02182 11.3785 1.99735 11.6774C1.99298 11.7347 2.11101 11.7142 2.11403 11.7431C2.1288 11.8604 2.01509 11.9245 2.03807 12.0387C2.04353 12.0664 2.13996 12.1001 2.15 12.1243C2.23881 12.3303 1.93816 12.525 1.88617 12.5606C1.68778 12.6939 1.79194 12.8147 1.6969 12.9352C1.60207 13.0571 1.58532 12.8314 1.50693 12.9836C1.34452 13.2992 1.26042 13.7422 1.19092 14.0873C1.16366 14.2255 1.31547 14.156 1.31467 14.1763C1.29573 14.4649 1.10803 14.7364 1.35558 14.9309C0.633555 15.0358 1.39717 15.1113 1.21428 15.502C1.19985 15.5324 0.864878 15.5428 0.829406 15.4107C0.794167 15.2778 0.919446 15.0981 0.867886 14.9135C0.855204 14.8706 0.582031 14.5869 0.569211 14.5495C0.464894 14.2649 0.962008 14.3127 0.990742 14.3044C1.30587 14.205 1.03177 13.8605 1.02591 13.7776C0.994818 13.4065 1.13403 13.1305 1.13835 12.8227C1.14228 12.6218 0.835313 12.5142 0.888696 12.3663C1.07114 11.8732 1.55563 11.8565 1.35276 11.2674C1.31141 11.1406 0.940516 11.1093 1.33971 10.8576C1.36509 10.8404 1.70538 10.6816 1.62115 10.4706C1.61047 10.4439 1.5152 10.4034 1.51797 10.3752C1.53884 10.1868 1.66354 10.1108 1.711 9.9165C1.75846 9.72253 1.81128 9.48159 1.94642 9.29775C2.02775 9.18619 2.2797 9.12545 2.35184 9.09233C2.55723 9.00008 2.45965 8.72191 2.6588 8.70815C2.85795 8.69652 2.96534 9.008 3.20351 8.81706C2.97835 8.66949 2.75469 8.50571 2.53255 8.35029C2.88208 7.79168 3.31883 7.30998 3.71074 6.78529C3.75936 6.71997 3.59392 6.69693 3.64365 6.62424C3.85547 6.31755 4.14179 6.13526 4.36557 5.82191C4.53848 5.57912 4.65152 5.23509 4.84686 4.98419C5.19936 5.06464 5.45522 4.6717 5.7257 4.46913C5.8197 4.39824 5.8684 4.46513 5.94831 4.43063C6.24889 4.3011 5.96146 4.19087 5.99935 4.10189C6.16898 3.721 6.58321 4.17625 6.90949 3.90337C6.92572 3.88941 6.95194 3.45874 6.97265 3.41887C7.09418 3.16496 7.07305 3.48658 7.21198 3.41596C7.46661 3.28826 7.669 3.24354 7.89134 2.98379C7.95517 2.9081 8.0432 2.60958 8.28665 2.64735C8.31842 2.65233 8.36299 2.75215 8.38308 2.74742C8.74142 2.65639 8.57867 2.35916 8.7035 2.15594C8.82983 1.95218 9.22487 2.01047 9.3123 2.04241C9.54199 2.12178 9.23213 2.16785 9.23222 2.18787C9.2337 2.4187 9.41866 2.28064 9.58208 2.21839C9.75461 2.50523 9.95929 2.38255 9.75101 2.15326C9.72764 2.12836 9.62 2.21626 9.58208 2.21839C9.57052 1.85711 9.80497 1.69563 10.2016 1.85364C10.3869 1.929 10.3341 2.13195 10.6917 1.91331C10.8547 1.81573 10.6999 1.63053 10.8335 1.50915C11.143 1.23066 11.6913 1.26355 12.0601 1.11446C12.1943 1.06011 12.0227 0.981193 12.1138 0.939928C12.357 0.830279 12.6071 0.858349 12.852 0.7456C12.8742 0.735256 12.7844 0.622018 12.8644 0.599976C13.4728 0.431797 14.0292 0.407617 14.6774 0.317979C14.9898 0.273154 15.5475 0.141691 15.8777 0.136025C16.2486 0.126307 16.6673 0.196852 17.0503 0.243379C17.2618 0.268894 17.4598 0.286553 17.6317 0.275809C17.9463 0.257929 17.8831 0.124461 18.0251 0.0417409C18.303 -0.118936 18.7437 0.234383 18.7976 0.289728C18.7989 0.291018 18.5272 0.296439 18.6642 0.377403C18.7334 0.525736 18.7942 0.290017 18.7976 0.289728C18.8363 0.322966 19.3707 0.417347 19.4797 0.410051C19.5394 0.404787 19.5252 0.276457 19.5561 0.276129C20.297 0.272367 21.0323 0.396824 21.7346 0.657018C21.7465 0.663027 21.6894 0.792088 21.7176 0.804504C22.1095 0.982049 22.421 0.904366 22.7922 0.927305C23.1624 0.95095 23.4205 1.09017 23.522 1.3914C23.7807 1.46425 24.0891 1.71804 24.2574 1.86987C24.4258 2.02128 24.5729 1.79176 24.593 1.79538C25.2149 1.91348 25.4553 2.22307 25.9779 2.5692C26.2278 2.73406 26.7436 3.02846 27.0241 3.1961C27.2468 3.32692 27.3322 3.47065 27.5441 3.58296C27.5727 3.59831 27.6215 3.48278 27.6321 3.48511C27.9315 3.53541 27.647 3.68914 27.6569 3.76423C27.6909 4.03785 27.7172 4.18939 28.0287 4.3366C28.0994 4.36967 28.5512 4.19836 28.6756 4.27787C28.8352 4.38055 28.6799 4.44518 28.8475 4.55085C28.8616 4.5601 28.9239 4.48874 29.0087 4.57511C29.4031 4.97543 29.7838 5.45511 30.1682 5.88988C30.2206 5.94971 30.2679 5.77473 30.3458 5.86034C30.7107 6.26224 31.0709 6.74077 31.314 7.21405C31.3734 7.3308 31.2409 7.32341 31.2312 7.36415C31.1733 7.61072 31.5331 7.66016 31.56 7.69242C32.1949 8.43543 32.3339 9.20279 32.8439 10.0407C32.8721 10.0839 33.308 10.3515 33.1432 10.6183C33.1328 10.6371 32.9608 10.8981 33.1814 10.9841C33.1952 10.9897 33.2788 10.836 33.3363 11.0265C33.3935 11.2164 33.584 11.4891 33.5291 11.7938C33.5124 11.8913 33.328 12.1561 33.5944 12.3422C33.6127 12.3506 34.1663 12.6162 33.8913 12.8351C33.8457 12.8707 33.5143 12.9284 33.7526 13.1813C33.7984 13.2302 33.8479 13.1099 33.9283 13.2492C34.0521 13.4645 34.0269 13.7875 34.2255 14.0473C34.2606 14.0916 34.5242 14.271 34.3784 14.4716C34.3555 14.5026 34.2365 14.4686 34.2375 14.5606C34.2411 14.9968 34.3657 15.4432 34.3187 15.8878C34.3019 16.0453 34.1151 15.9779 34.0759 16.141C34.037 16.305 34.0022 16.6234 34.088 16.7895C34.1739 16.9563 34.4621 16.7664 34.4878 17.023C34.4909 17.056 34.4938 17.089 34.4963 17.1221C34.5789 18.2078 34.3195 19.273 34.099 20.3215C34.0646 20.482 34.193 20.3678 34.1475 20.6065C33.9942 21.4889 33.6208 23.0188 33.1081 23.6505C32.7079 24.1517 32.882 23.3874 32.6348 23.7889C32.5162 23.9797 32.7216 24.3405 32.7074 24.396C32.5762 24.9302 32.2693 25.1946 32.0724 25.637C32.0311 25.7285 32.1987 25.711 32.1618 25.7886C32.0364 26.0548 31.8238 26.286 31.682 26.5265C31.6185 26.6346 31.7185 26.6724 31.648 26.7648C31.4798 26.9859 31.3028 27.1633 31.0659 27.3223C31.0444 27.3365 31.0357 27.128 30.9128 27.2881C30.7131 27.548 30.39 27.8057 30.2256 28.1564C30.177 28.2605 30.3558 28.4204 30.0727 28.4948C30.0129 28.5102 29.8421 28.2725 29.8411 28.6451C29.8432 28.7062 29.7632 29.2856 29.4432 29.3011C29.3593 29.3057 29.0843 29.2496 29.015 29.3687C29.0061 29.3856 29.1481 29.4263 29.0769 29.5131C28.8237 29.8175 28.5085 30.0849 28.2246 30.3769C28.1486 30.4551 28.3583 30.4525 28.2413 30.5663C27.9193 30.8798 27.4521 31.1946 27.0702 31.4105C26.9292 31.4901 26.9578 31.336 26.9412 31.333C26.6774 31.2795 26.7342 31.5572 26.6902 31.6051C26.4171 31.8967 26.0984 31.9492 25.8078 32.1573C25.7268 32.2144 25.8502 32.2876 25.8388 32.3071C25.715 32.5044 25.7356 32.2331 25.6111 32.2755C25.2617 32.393 24.9133 32.587 24.5906 32.7603C24.4725 32.8238 24.6714 32.8895 24.5639 32.945C23.9272 33.2764 23.2213 33.5435 22.534 33.6859C22.4043 33.7124 22.4482 33.5802 22.4143 33.5644C22.1819 33.4528 21.9939 33.764 21.938 33.8041C21.6901 33.9863 21.5533 33.9204 21.3116 34.001C20.125 34.4046 18.5679 34.5366 17.3966 34.5094C17.2794 34.5077 17.164 34.5045 17.0503 34.4999C15.6826 34.4385 14.5881 34.2276 13.2767 33.9678C13.1863 33.9492 13.2446 34.1149 13.1657 34.1004C12.1472 33.9046 11.1922 33.5343 10.2226 33.1682C10.1428 33.1376 10.2009 33.3161 10.0702 33.2707C9.80128 33.1782 9.47934 33.0203 9.24331 32.8521C9.1286 32.7705 9.34909 32.7455 9.23337 32.6658C8.96498 32.4799 8.66693 32.3077 8.36867 32.1611C8.24154 32.0987 8.35374 32.331 8.19342 32.2394C7.10249 31.6155 6.07557 30.8848 5.27254 29.8901C5.21737 29.8216 5.36259 29.5568 5.19343 29.4726C5.12721 29.5218 5.06137 29.5913 4.99672 29.6498C3.65082 28.4188 2.62635 26.9012 1.78302 25.2954C1.74739 25.2275 1.67302 25.4182 1.60316 25.286C1.20082 24.5204 0.819039 23.7581 0.671403 22.8733C0.657088 22.7858 0.928693 22.7387 0.808974 22.5116C0.786763 22.472 0.636067 22.1178 0.552089 22.0393C0.539665 22.0287 0.437396 22.133 0.398482 22.0143C0.174442 21.3215 0.0354797 20.5691 4.04119e-05 19.8435C-0.00535679 19.7263 0.147992 19.8278 0.145507 19.7446C0.127841 19.162 -0.037436 18.5408 0.0589109 17.9778C0.125523 17.6061 0.366619 17.7332 0.591862 17.5358C0.623408 17.5081 0.624981 17.2859 0.759716 17.2734C1.09759 17.2422 1.46895 17.3414 1.82893 17.2952C1.90596 17.2857 1.82175 17.0109 2.00969 17.1732C2.022 17.1847 2.0862 17.3817 2.15116 17.4282C2.19586 17.4607 2.33132 17.3981 2.3891 17.4643C2.44693 17.53 2.33429 17.6075 2.40481 17.7163C2.47663 17.8247 2.62885 17.7678 2.65946 17.9865ZM24.9952 2.56869C25.1054 2.7786 25.366 2.37612 25.1189 2.37032C25.1067 2.37056 24.9893 2.55813 24.9952 2.56869ZM3.61986 7.53108C3.94052 7.44597 3.79856 7.12037 3.55769 7.17053C3.3155 7.22428 3.52163 7.55887 3.61986 7.53108ZM2.38118 9.89749C2.66281 9.70606 2.08228 9.35133 2.05663 9.70782C2.05501 9.72855 2.36474 9.90899 2.38118 9.89749ZM0.702643 18.4126C0.708587 18.4095 0.703211 18.2505 0.696851 18.2471C0.539049 18.1722 0.549956 18.4932 0.702643 18.4126ZM1.57134 12.3953C1.68515 12.3346 1.66614 12.0484 1.52216 12.1231C1.40524 12.1846 1.42831 12.473 1.57134 12.3953ZM31.5505 10.1929C31.5454 10.1986 31.5874 10.302 31.6228 10.2829C31.7373 10.2208 31.6368 10.0951 31.5505 10.1929ZM0.881736 16.7607C0.925565 16.1022 1.51758 15.7601 1.41501 16.4448C1.39781 16.5697 1.24922 16.1666 1.19105 16.3238C1.08508 16.6158 1.43193 16.818 1.24262 17.1165C1.20736 17.1727 0.877062 16.7996 0.880981 16.7595C0.881233 16.7599 0.881484 16.7603 0.881736 16.7607ZM24.8162 3.12638C24.8166 3.13364 24.9478 3.21436 24.954 3.21088C25.1025 3.12018 24.8356 2.9558 24.8162 3.12638ZM32.8089 16.4861C32.7966 16.4948 32.7939 16.8465 32.8056 16.858C33.0591 17.0403 33.0657 16.3172 32.8089 16.4861ZM14.844 1.62352C14.7034 1.79751 14.5163 1.84565 14.3543 1.67912C14.5172 1.66122 14.6809 1.63701 14.844 1.62352Z" fill="#7B3F00"/>
<g clip-path="url(#clip0_1252_275)">
<path d="M21.096 10.0166C21.0856 9.84323 21.0565 9.67153 21.0092 9.50439C20.9941 9.43264 20.9635 9.36501 20.9194 9.30625C20.8753 9.24749 20.8189 9.19902 20.754 9.16422C20.6837 9.1358 20.608 9.12275 20.5321 9.12596C20.4562 9.12918 20.3819 9.14857 20.3143 9.18283C20.1967 9.23263 20.0743 9.27891 19.956 9.32365C19.855 9.36202 19.7539 9.40023 19.6539 9.44113C19.4953 9.50602 19.3362 9.56961 19.177 9.63337C18.7578 9.80112 18.3244 9.97459 17.9077 10.168C17.4249 10.3921 16.9239 10.6552 16.3761 10.9725C15.018 11.7591 13.6918 12.531 12.3968 13.3264C12.1825 13.4688 11.9311 13.546 11.6733 13.5485C11.1464 13.5576 10.6208 13.5937 10.1126 13.6286C9.12925 13.6964 8.96373 14.0473 8.94714 14.8609C8.94452 14.9943 8.94542 15.1276 8.9464 15.2609C8.94731 15.3927 8.94837 15.5246 8.94558 15.6563C8.91274 17.2645 8.87635 19.0869 8.83481 20.8864C8.82462 21.3263 9.04788 21.6444 9.44718 21.7588C9.61681 21.8056 9.79213 21.8288 9.96816 21.8276C10.6825 21.8257 11.6167 21.7858 12.5276 21.4967C12.6381 21.5659 12.748 21.6353 12.8572 21.7048C13.1122 21.8666 13.3759 22.0338 13.6401 22.1895C15.4362 23.2471 17.3796 24.0724 19.2591 24.8706L19.6186 25.0234C19.6433 25.0347 19.6687 25.0444 19.6948 25.0522C19.7396 25.0657 19.7861 25.0729 19.8329 25.0735C19.8944 25.075 19.9548 25.0579 20.0062 25.0245C20.0491 24.9924 20.084 24.9511 20.1083 24.9036C20.1327 24.8562 20.1459 24.8038 20.1469 24.7505C20.1504 24.7142 20.1519 24.6775 20.1533 24.6407C20.1529 24.5765 20.1605 24.5125 20.1758 24.4501C20.5579 23.2198 20.8265 21.9574 20.9781 20.6786L21.034 20.1898C21.1852 18.8768 21.3413 17.5194 21.357 16.1681C21.3773 14.4106 21.2632 12.6317 21.1528 10.9115C21.1337 10.6133 21.1148 10.315 21.096 10.0166ZM19.4504 23.7511C19.4586 23.8416 19.4668 23.9319 19.4777 24.0502V24.0524C17.9838 22.7723 16.2897 21.9 14.6496 21.0556C14.2866 20.8687 13.9118 20.6758 13.5477 20.4825C13.5535 20.1498 13.5615 19.8226 13.5696 19.4991C13.5884 18.7264 13.6064 17.9966 13.5947 17.2555C13.5828 16.5111 13.5416 15.781 13.4982 15.0081C13.48 14.6859 13.4617 14.3605 13.4453 14.0307C13.4912 13.9971 13.5388 13.966 13.5879 13.9375C14.1134 13.6416 14.6392 13.3462 15.1651 13.0514C16.3777 12.3709 17.6316 11.6673 18.8591 10.965C19.1513 10.7901 19.4336 10.5993 19.7048 10.3935C19.798 10.3258 19.8936 10.2564 19.9917 10.1861C19.9854 10.2841 19.979 10.3799 19.9726 10.4736C19.9516 10.7838 19.9316 11.0766 19.9205 11.3691C19.9109 11.6192 19.9011 11.8693 19.8911 12.1196C19.8514 13.1215 19.8104 14.1578 19.7893 15.1776C19.749 17.1228 19.6209 19.2253 19.3975 21.6055C19.3293 22.3395 19.3862 23.0679 19.4504 23.7511ZM12.2711 17.4076C12.2735 17.5169 12.2753 17.6263 12.2773 17.7359C12.2919 18.55 12.3069 19.3907 12.49 20.2719H10.1642C10.1634 20.2673 10.1627 20.2626 10.1619 20.258C10.1492 20.1916 10.1414 20.1244 10.1384 20.0569C10.1269 19.4832 10.1161 18.9093 10.106 18.3354C10.0925 17.5843 10.0781 16.8333 10.0629 16.0823C10.0587 15.8893 10.0457 15.6941 10.033 15.5055C10.0248 15.377 10.0159 15.2485 10.01 15.1199C10.0054 15.0204 10.0065 14.9202 10.0078 14.8143C10.0078 14.7898 10.0083 14.7653 10.0085 14.7408L12.3194 14.6031C12.3135 14.8631 12.3055 15.124 12.2976 15.3856C12.2774 16.0474 12.2565 16.732 12.2711 17.4076Z" fill="#B69F7C"/>
<path d="M23.3638 13.0144C23.1454 12.8353 22.8497 12.806 22.6757 12.9468C22.5082 13.0825 22.4697 13.3395 22.5804 13.5866C22.6331 13.7042 22.6964 13.8175 22.7575 13.9271C22.7845 13.9754 22.8115 14.0237 22.8377 14.0726C23.4822 15.275 23.7683 16.3104 23.7379 17.3312V17.3347C23.7452 18.2049 23.5225 19.0617 23.092 19.8194C22.8796 20.2087 22.6759 20.6103 22.4788 20.9987C22.3954 21.1631 22.3118 21.3273 22.2279 21.4914C22.1695 21.605 22.061 21.8163 22.2577 21.9379C22.3277 21.9775 22.4072 21.9972 22.4876 21.9951C22.5546 21.9959 22.6211 21.9837 22.6835 21.9592C23.1142 21.7847 23.4962 21.5096 23.7971 21.1571C24.3518 20.4914 24.7408 19.8399 24.9858 19.1653C25.1715 18.6569 25.2614 18.1188 25.2509 17.578C25.2215 16.0718 24.6947 14.6719 23.6405 13.2977C23.5594 13.1931 23.4666 13.0981 23.3638 13.0144Z" fill="#B69F7C"/>
</g>
<defs>
<clipPath id="clip0_1252_275">
<rect width="16.5039" height="16" fill="white" transform="translate(8.79834 9.12207)"/>
</clipPath>
</defs>
</svg>
