<svg width="52" height="52" viewBox="0 0 52 52" fill="none" xmlns="http://www.w3.org/2000/svg">
<path d="M1.57568 25.6828C1.57568 12.428 12.3209 1.68283 25.5757 1.68283C38.8305 1.68283 49.5757 12.428 49.5757 25.6828C49.5757 38.9377 38.8305 49.6828 25.5757 49.6828C12.3209 49.6828 1.57568 38.9377 1.57568 25.6828Z" fill="#E1DDD4"/>
<path d="M3.98943 26.9794C4.09353 27.7377 4.14239 28.7283 4.18854 29.4967C4.2028 29.7367 4.05609 29.6407 4.06171 29.8084C4.07382 30.1357 4.19852 30.4213 4.21474 30.7468C4.21978 30.8553 3.99285 30.7722 4.00298 30.8857C4.06151 31.5089 4.2718 32.0618 4.42816 32.6728C5.20262 35.687 6.72399 38.4685 8.80064 40.8949C9.48077 41.6954 10.2933 42.722 11.1984 43.3512C11.3035 43.4243 11.3557 43.2388 11.3837 43.2428C11.8174 43.3046 11.4967 43.505 11.6642 43.6959C12.3295 44.4504 13.2518 45.0875 14.1132 45.5051C14.4805 45.6814 14.3004 45.1752 14.5576 45.5461C14.576 45.5716 14.3944 45.6856 14.4823 45.7574C14.6822 45.921 15.1233 46.1144 15.2928 46.2147C15.6191 46.4101 15.6768 46.4353 16.0009 46.5879C16.4438 46.7968 16.9471 47.1093 17.4573 47.2552C17.566 47.2857 17.4946 47.0536 17.6729 47.0849C17.8506 47.1171 18.2873 47.2865 18.4249 47.3783C18.5618 47.4709 18.451 47.5938 18.4672 47.6355C18.6026 47.9892 19.2498 47.7578 19.3181 47.7652C20.5942 47.9456 21.6246 48.3801 22.8289 48.5258C23.735 48.6337 24.7069 48.6132 25.5757 48.621C25.5829 48.621 25.5901 48.6211 25.5973 48.6212C26.6376 48.6311 27.5229 48.6777 28.5288 48.5334C28.6343 48.5181 28.4818 48.3097 28.6095 48.2904C29.967 48.0831 31.2948 47.8086 32.6489 47.5315C32.7852 47.5035 32.6768 47.7479 32.8175 47.7308C33.6707 47.6345 35.1158 47.4612 35.2036 46.4565C35.7353 46.2486 36.3646 45.9628 36.8985 45.8611C37.2431 45.7944 37.0701 46.1438 37.3802 45.8571C37.4497 45.7923 37.25 45.6899 37.3605 45.6055C37.8242 45.2505 38.3905 44.9574 38.8038 44.5467C38.8874 44.4629 38.763 44.3426 38.772 44.2987C38.8508 43.9404 39.4579 43.9971 39.5575 43.9571C40.3009 43.6646 40.6806 43.2294 41.2126 42.7516C41.3358 42.6401 41.0371 42.605 41.1491 42.4921C41.7305 41.9093 42.3338 41.3136 42.9402 40.7699C43.0755 40.649 43.1141 40.9015 43.1865 40.8498C43.5049 40.6164 43.2764 40.3163 43.5658 40.0843C43.6264 40.0345 43.7295 40.1721 43.7525 40.1725C44.1159 40.1774 43.9134 39.7735 43.9398 39.7242C44.272 39.0848 44.8823 38.9538 45.2147 38.3328C45.2533 38.2588 44.9754 38.3019 45.0937 38.1016C45.8788 36.766 46.6609 35.3371 47.3644 33.9531C47.4734 33.7374 47.5611 33.9533 47.5847 33.9463C47.9582 33.8181 47.6279 33.5264 47.6391 33.4485C47.7391 32.8331 48.235 32.3712 47.8774 31.8364C48.5634 29.8526 48.692 27.7597 48.852 25.6828C48.8915 25.1657 48.9336 24.657 48.9858 24.1332C48.9886 24.0996 49.1932 24.1463 49.198 24.0789C49.2504 23.2667 48.9479 23.4456 48.5119 22.9689C48.4026 22.8517 48.8075 22.3956 48.8349 22.3536C48.9398 22.2068 49.2552 22.2986 49.2729 22.2516C49.4062 21.8596 48.439 22.0665 48.3572 21.5961C48.3562 21.5808 48.5466 21.6115 48.5573 21.5684C48.5911 21.4337 48.497 21.3238 48.535 21.1907C48.6228 20.8879 49.0728 20.6811 48.7018 20.3125C48.6533 20.2671 48.128 20.4732 48.0519 20.0519C48.0246 19.8833 47.8141 19.1529 47.7842 18.9409C47.7569 18.7275 47.9723 18.8134 47.9755 18.7969C48.0301 18.1719 48.1894 18.3512 48.4322 17.9576C48.6692 17.56 47.9005 17.9136 47.773 17.8334C47.6466 17.7535 47.6841 17.2861 47.7088 17.1623C47.7347 17.039 47.8895 17.1207 47.8916 17.0186C47.8961 16.3406 47.4027 16.9188 47.2031 16.7814C46.7313 16.4676 47.1519 15.8806 47.0151 15.4511C46.9782 15.3361 46.8925 15.4856 46.8343 15.3958C46.605 15.0417 46.6623 14.7253 46.2772 14.3902C46.2136 14.3333 45.702 14.1854 45.8143 13.8347C45.8306 13.7841 46.016 13.7922 45.9548 13.6201C45.8644 13.3631 45.6361 12.9317 45.4338 12.7194C45.2847 12.5628 45.205 12.9066 45.1243 12.6413C45.0879 12.5232 45.3352 12.6226 45.2554 12.4067C45.1768 12.1903 44.8409 11.7271 44.7062 11.5568C44.5727 11.3859 44.4878 11.5976 44.4669 11.5913C44.3443 11.5508 44.02 11.2829 43.9973 11.2551C42.8566 9.84307 41.8857 8.39622 40.4187 7.34238C40.3042 7.26039 40.2485 7.47885 40.2297 7.46799C39.8027 7.23753 40.4382 7.04586 40.282 6.69189C40.0655 7.0507 39.9551 6.86714 39.6549 6.70067C39.5101 6.62121 39.4863 6.80396 39.4645 6.80829C39.127 6.86334 39.1759 6.51144 39.177 6.43293C39.1825 6.14548 38.8777 6.27644 38.8771 6.08398C38.8741 5.8916 39.2173 5.84103 38.9406 5.65823C38.7815 5.73106 38.7663 6.18843 38.5265 6.10443C37.636 5.78051 36.2841 4.68542 35.6056 4.34709C34.9417 4.00322 34.7049 3.93965 34.3217 3.72624C33.6216 3.34943 33.7863 3.72372 33.2887 3.68471C32.7895 3.65213 33.2377 3.05634 33.2199 2.88872C33.2013 2.72155 33.0786 2.84638 33.021 2.73953C32.9629 2.63265 33.1771 2.5926 32.9885 2.49885C32.7976 2.40278 32.1776 2.50307 32.0656 2.639C31.8275 2.92438 31.973 3.32974 31.494 3.0729C31.4661 3.05801 31.6098 2.90247 31.5006 2.85456C30.6334 2.48104 29.6727 2.28404 28.7574 2.03453C28.6311 1.99995 28.7733 1.80914 28.6995 1.78671C27.9262 1.55896 28.163 1.94194 27.7051 2.2877C27.8478 1.78213 27.6404 1.43831 27.0291 1.39762C26.6617 1.37523 26.7156 1.60531 26.4767 1.75505C26.4059 1.80013 26.1553 1.63765 26.1064 1.7433C25.9476 2.08872 26.1781 2.47748 25.5757 2.31956C25.5754 2.31949 25.5752 2.31943 25.5749 2.31937C25.5656 2.31677 25.57 2.29144 25.5757 2.25923C25.5832 2.21685 25.5928 2.16256 25.5757 2.13241C25.5689 2.12046 25.5579 2.11231 25.5408 2.11021C24.9401 2.03942 24.8782 2.40403 24.2484 2.47966C23.7536 2.53857 22.851 2.40116 22.2772 2.44913C22.2109 1.86944 21.6774 2.08347 21.5305 2.5183C21.1605 2.5656 20.7731 2.66585 20.4085 2.6908C20.2832 2.69959 20.3255 2.51733 20.3063 2.50299C20.0053 2.2783 19.9355 2.69787 19.8622 2.73176C19.0552 3.08698 18.2817 3.01508 17.5929 3.56924C17.5682 3.58944 17.6636 3.98402 17.3541 3.78457C17.333 3.77087 17.5268 3.50117 17.1544 3.62652C16.7846 3.75012 16.0096 3.83672 15.5928 4.2406C15.4906 4.33764 15.337 4.7746 14.9852 4.66552C14.9377 4.6505 14.9203 4.52934 14.845 4.49516C14.6013 4.38847 14.7094 4.79259 14.3734 4.57777C14.0385 4.36282 13.5341 4.33823 13.1701 4.83412C13.1578 4.84959 13.2107 5.19495 13.0592 5.28207C12.8165 5.42077 12.4453 5.5789 12.2037 5.74448C12.0881 5.82372 12.2752 5.94024 12.2571 5.95686C11.5504 6.57603 10.9157 6.82814 10.0928 7.41854C9.94002 7.52751 9.7261 8.07856 9.31976 8.16191C8.8719 8.25918 8.48567 7.25234 7.97934 8.07923C7.77125 8.42142 8.36381 9.60721 7.44928 9.66056C6.72855 10.7202 5.74464 11.4714 5.23925 12.682C5.21623 12.7366 5.41478 13.0763 5.34104 13.1867C5.23032 13.3512 5.03438 13.3602 4.95213 13.4775C4.60453 13.9678 4.46578 14.5158 4.18991 15.0185C4.08589 15.2105 3.96752 15.0673 3.84507 15.2995C3.72378 15.5327 3.85259 15.7821 3.612 16.0615C3.43028 16.2724 2.90554 16.3448 2.7219 16.6647C3.13444 16.8428 3.03298 17.0675 2.99628 17.5159C2.98971 17.6018 3.16676 17.5711 3.1713 17.6143C3.19344 17.7904 3.02288 17.8865 3.05735 18.0578C3.06553 18.0993 3.21019 18.1498 3.22524 18.1862C3.35846 18.4952 2.90749 18.7872 2.8295 18.8406C2.53192 19.0407 2.68816 19.2217 2.54559 19.4026C2.40335 19.5853 2.37822 19.2469 2.26064 19.4751C2.01702 19.9485 1.89087 20.613 1.78662 21.1306C1.74574 21.338 1.97345 21.2337 1.97225 21.2642C1.94384 21.6971 1.66229 22.1043 2.03361 22.396C0.950578 22.5535 2.09599 22.6667 1.82166 23.2527C1.80001 23.2983 1.29756 23.3139 1.24435 23.1158C1.1915 22.9164 1.37941 22.6469 1.30207 22.37C1.28305 22.3056 0.873289 21.88 0.85406 21.8239C0.697586 21.397 1.44326 21.4688 1.48636 21.4564C1.95904 21.3073 1.54791 20.7905 1.53911 20.6661C1.49247 20.1095 1.7013 19.6954 1.70777 19.2337C1.71366 18.9325 1.25322 18.7709 1.33329 18.5491C1.60695 17.8095 2.33369 17.7844 2.02939 16.9008C1.96736 16.7107 1.41102 16.6636 2.0098 16.2861C2.04789 16.2604 2.55832 16.0221 2.43196 15.7057C2.41596 15.6656 2.27305 15.6048 2.2772 15.5625C2.30851 15.2799 2.49555 15.1659 2.56675 14.8745C2.63793 14.5835 2.71717 14.2221 2.91987 13.9463C3.04187 13.779 3.41979 13.6879 3.52801 13.6382C3.83609 13.4999 3.68972 13.0826 3.98845 13.0619C4.28718 13.0445 4.44826 13.5117 4.8055 13.2253C4.46777 13.004 4.13228 12.7583 3.79907 12.5252C4.32337 11.6872 4.97849 10.9647 5.56635 10.1777C5.63928 10.0797 5.39112 10.0451 5.46572 9.93608C5.78346 9.47605 6.21293 9.20261 6.5486 8.73259C6.80797 8.3684 6.97752 7.85236 7.27054 7.47602C7.79928 7.59668 8.18308 7.00727 8.5888 6.70342C8.72979 6.59709 8.80285 6.69742 8.9227 6.64567C9.37359 6.45137 8.94243 6.28603 8.99927 6.15256C9.25372 5.58122 9.87506 6.2641 10.3645 5.85478C10.3888 5.83384 10.4281 5.18784 10.4592 5.12803C10.6415 4.74717 10.6098 5.2296 10.8182 5.12367C11.2002 4.93212 11.5037 4.86504 11.8373 4.47541C11.933 4.36187 12.0651 3.9141 12.4302 3.97076C12.4779 3.97821 12.5447 4.12795 12.5749 4.12086C13.1124 3.98432 12.8682 3.53846 13.0555 3.23364C13.245 2.928 13.8375 3.01543 13.9687 3.06334C14.3132 3.1824 13.8484 3.2515 13.8486 3.28153C13.8508 3.62777 14.1282 3.42068 14.3734 3.32732C14.6322 3.75757 14.9392 3.57354 14.6268 3.22962C14.5917 3.19227 14.4302 3.32412 14.3734 3.32732C14.356 2.78539 14.7077 2.54317 15.3026 2.78018C15.5806 2.89322 15.5014 3.19765 16.0378 2.86969C16.2824 2.72332 16.0501 2.44552 16.2506 2.26345C16.7147 1.84572 17.5371 1.89505 18.0903 1.67141C18.2917 1.58989 18.0342 1.47152 18.1709 1.40962C18.5358 1.24514 18.9109 1.28725 19.2782 1.11813C19.3115 1.10261 19.1768 0.932753 19.2968 0.899689C20.2095 0.647421 21.0441 0.611151 22.0164 0.476694C22.4849 0.409456 23.3215 0.212262 23.8168 0.203763C24.3731 0.189185 25.0011 0.295003 25.5757 0.364793C25.893 0.403066 26.19 0.429555 26.4477 0.41344C26.9198 0.386619 26.8249 0.186416 27.0379 0.0623368C27.4547 -0.178679 28.1158 0.3513 28.1967 0.434317C28.1986 0.436252 27.791 0.444385 27.9966 0.56583C28.1004 0.788329 28.1915 0.434751 28.1967 0.434317C28.2547 0.484173 29.0564 0.625746 29.2198 0.614802C29.3093 0.606906 29.288 0.414411 29.3345 0.41392C30.4457 0.408276 31.5487 0.594962 32.6021 0.985252C32.6199 0.994268 32.5343 1.18786 32.5767 1.20648C33.1645 1.4728 33.6317 1.35628 34.1885 1.39068C34.7438 1.42615 35.1311 1.63498 35.2833 2.08682C35.6713 2.19611 36.1338 2.57679 36.3863 2.80453C36.6389 3.03165 36.8597 2.68737 36.8897 2.6928C37.8225 2.86995 38.1831 3.33432 38.9671 3.85353C39.342 4.10081 40.1157 4.54241 40.5364 4.79388C40.8704 4.9901 40.9985 5.2057 41.3164 5.37417C41.3593 5.39719 41.4324 5.2239 41.4483 5.22739C41.8974 5.30285 41.4707 5.53343 41.4856 5.64608C41.5366 6.0565 41.576 6.28382 42.0433 6.50462C42.1494 6.55424 42.8271 6.29727 43.0136 6.41653C43.2531 6.57056 43.0201 6.6675 43.2715 6.826C43.2927 6.83988 43.3861 6.73283 43.5133 6.86239C44.1049 7.46287 44.676 8.18239 45.2526 8.83455C45.3311 8.92429 45.4022 8.66182 45.5189 8.79023C46.0664 9.3931 46.6065 10.1109 46.9713 10.8208C47.0604 10.9959 46.8615 10.9848 46.8471 11.046C46.7602 11.4158 47.2999 11.49 47.3403 11.5384C48.2925 12.6529 48.5011 13.8039 49.2661 15.0608C49.3084 15.1256 49.9622 15.527 49.715 15.9272C49.6995 15.9554 49.4415 16.3468 49.7724 16.4758C49.7931 16.4843 49.9184 16.2537 50.0047 16.5395C50.0905 16.8243 50.3762 17.2334 50.2939 17.6904C50.2689 17.8367 49.9923 18.2339 50.3919 18.513C50.4194 18.5257 51.2497 18.924 50.8372 19.2523C50.7688 19.3057 50.2717 19.3923 50.6291 19.7717C50.6979 19.8451 50.7721 19.6645 50.8927 19.8735C51.0784 20.1964 51.0405 20.681 51.3385 21.0707C51.3912 21.1371 51.7865 21.4062 51.5678 21.7072C51.5335 21.7536 51.355 21.7026 51.3565 21.8406C51.3618 22.495 51.5488 23.1646 51.4783 23.8315C51.4531 24.0676 51.1729 23.9666 51.1141 24.2113C51.0558 24.4573 51.0036 24.9349 51.1322 25.184C51.2611 25.4342 51.6935 25.1493 51.7319 25.5342C51.7366 25.5837 51.7409 25.6333 51.7447 25.6828C51.8686 27.3114 51.4795 28.9092 51.1487 30.4819C51.0972 30.7228 51.2898 30.5515 51.2216 30.9095C50.9915 32.2331 50.4314 34.528 49.6624 35.4754C49.0621 36.2273 49.3233 35.0808 48.9525 35.683C48.7745 35.9693 49.0827 36.5105 49.0613 36.5937C48.8646 37.395 48.4042 37.7917 48.1088 38.4552C48.0469 38.5925 48.2983 38.5663 48.243 38.6827C48.0548 39.0819 47.7359 39.4287 47.5233 39.7895C47.4279 39.9516 47.578 40.0083 47.4722 40.1469C47.2199 40.4786 46.9544 40.7446 46.5991 40.9831C46.5669 41.0044 46.5537 40.6917 46.3694 40.9319C46.0698 41.3217 45.5852 41.7083 45.3386 42.2343C45.2657 42.3904 45.534 42.6304 45.1093 42.7419C45.0196 42.765 44.7633 42.4085 44.7618 42.9674C44.765 43.0591 44.6451 43.9281 44.165 43.9514C44.0392 43.9583 43.6267 43.8742 43.5228 44.0527C43.5093 44.0781 43.7224 44.1392 43.6156 44.2694C43.2357 44.726 42.763 45.1271 42.3372 45.565C42.2232 45.6824 42.5377 45.6785 42.3622 45.8492C41.8792 46.3195 41.1783 46.7916 40.6056 47.1155C40.3941 47.2348 40.4369 47.0037 40.4121 46.9992C40.0164 46.9189 40.1015 47.3355 40.0356 47.4073C39.6258 47.8448 39.1478 47.9236 38.7119 48.2356C38.5905 48.3213 38.7755 48.4311 38.7584 48.4604C38.5727 48.7563 38.6037 48.3494 38.4169 48.413C37.8927 48.5892 37.3702 48.8802 36.8862 49.1401C36.7089 49.2354 37.0074 49.3339 36.8461 49.4173C35.8911 49.9143 34.8322 50.315 33.8013 50.5285C33.6067 50.5683 33.6725 50.37 33.6217 50.3464C33.2732 50.179 32.991 50.6457 32.9072 50.7059C32.5354 50.9791 32.3302 50.8803 31.9677 51.0012C30.1878 51.6066 27.852 51.8047 26.0951 51.7638C25.9193 51.7612 25.7463 51.7564 25.5757 51.7496C23.5242 51.6574 21.8824 51.3411 19.9153 50.9515C19.7797 50.9235 19.8671 51.172 19.7489 51.1503C18.221 50.8566 16.7886 50.3012 15.3342 49.7521C15.2144 49.7061 15.3016 49.9739 15.1055 49.9057C14.7022 49.767 14.2193 49.5301 13.8652 49.2778C13.6931 49.1555 14.0239 49.118 13.8503 48.9985C13.4477 48.7196 13.0006 48.4612 12.5532 48.2414C12.3625 48.1478 12.5309 48.4963 12.2904 48.3588C10.654 47.4229 9.1136 46.327 7.90905 44.8349C7.8263 44.7321 8.04413 44.3349 7.79038 44.2086C7.69106 44.2825 7.5923 44.3867 7.49532 44.4744C5.47647 42.6279 3.93977 40.3516 2.67477 37.9429C2.62134 37.8409 2.50977 38.127 2.40499 37.9288C1.80147 36.7803 1.2288 35.6369 1.00735 34.3097C0.985875 34.1784 1.39328 34.1078 1.21371 33.7671C1.18039 33.7077 0.954345 33.1764 0.828378 33.0586C0.809741 33.0428 0.656338 33.1992 0.597968 33.0212C0.261908 31.982 0.0534636 30.8534 0.000304937 29.765C-0.0077908 29.5892 0.222232 29.7415 0.218504 29.6167C0.192006 28.7428 -0.0559098 27.8109 0.0886106 26.9664C0.188529 26.4089 0.550172 26.5996 0.888037 26.3034C0.935356 26.2619 0.937716 25.9286 1.13982 25.9099C1.64662 25.8631 2.20366 26.0118 2.74364 25.9426C2.85918 25.9283 2.73287 25.5161 3.01479 25.7596C3.03324 25.7768 3.12954 26.0723 3.22699 26.1421C3.29403 26.1907 3.49722 26.0969 3.5839 26.1962C3.67064 26.2947 3.50168 26.4109 3.60746 26.5742C3.71519 26.7367 3.94352 26.6514 3.98943 26.9794ZM37.4931 3.85276C37.6583 4.16763 38.0492 3.5639 37.6786 3.55521C37.6603 3.55557 37.4842 3.83693 37.4931 3.85276ZM5.43004 11.2963C5.91102 11.1687 5.69809 10.6803 5.33678 10.7555C4.9735 10.8361 5.28268 11.338 5.43004 11.2963ZM3.57202 14.846C3.99445 14.5588 3.12366 14.0267 3.08519 14.5614C3.08276 14.5926 3.54736 14.8632 3.57202 14.846ZM1.05421 27.6187C1.06313 27.6139 1.05506 27.3755 1.04552 27.3704C0.808817 27.258 0.825178 27.7395 1.05421 27.6187ZM2.35725 18.5927C2.52797 18.5016 2.49946 18.0723 2.28349 18.1844C2.1081 18.2766 2.1427 18.7092 2.35725 18.5927ZM47.326 15.289C47.3184 15.2977 47.3813 15.4528 47.4345 15.4241C47.6062 15.3309 47.4554 15.1424 47.326 15.289ZM1.32285 25.1407C1.38859 24.153 2.27661 23.6399 2.12276 24.6669C2.09696 24.8543 1.87407 24.2496 1.78681 24.4854C1.62786 24.9234 2.14814 25.2267 1.86417 25.6745C1.81129 25.7588 1.31584 25.1992 1.32172 25.1389C1.32209 25.1395 1.32247 25.1401 1.32285 25.1407ZM37.2246 4.6893C37.2252 4.70018 37.422 4.82126 37.4313 4.81605C37.6541 4.67999 37.2537 4.43343 37.2246 4.6893ZM49.2135 24.7288C49.1952 24.742 49.1911 25.2695 49.2086 25.2867C49.5889 25.5601 49.5988 24.4755 49.2135 24.7288ZM22.2662 2.43501C22.0554 2.69599 21.7747 2.7682 21.5317 2.5184C21.776 2.49155 22.0217 2.45524 22.2662 2.43501Z" fill="#E1DDD4"/>
<g clip-path="url(#clip0_1118_3148)">
<path d="M11.7627 32.6145C12.0161 32.6848 12.2779 32.7206 12.541 32.7211C13.6974 32.7156 15.0565 32.6509 16.3925 32.218C16.4987 32.2886 16.6016 32.3582 16.7024 32.4264C16.9509 32.5944 17.1857 32.7532 17.43 32.9015C20.3602 34.6783 23.495 36.0335 26.9947 37.4963C27.0934 37.5412 27.1999 37.5663 27.3083 37.5703C27.3816 37.5716 27.4538 37.5524 27.5167 37.5149C27.6483 37.4347 27.7207 37.2787 27.7386 37.0353C27.7434 36.9054 27.7619 36.7764 27.7941 36.6504C28.4494 34.4873 28.8282 32.698 28.9861 31.0196C29.0464 30.3762 29.1202 29.7225 29.1916 29.0902C29.3181 27.9711 29.449 26.8138 29.5103 25.6702C29.6794 22.5255 29.4613 19.3395 29.2507 16.2585C29.2246 15.8758 29.1987 15.493 29.1729 15.1102C29.1566 14.83 29.108 14.5526 29.0278 14.2835C29.0028 14.1852 28.9572 14.0932 28.8937 14.0137C28.8303 13.9342 28.7506 13.869 28.66 13.8224C28.5577 13.7807 28.4479 13.7609 28.3374 13.7644C28.2271 13.7679 28.1186 13.7946 28.0193 13.8426C27.8426 13.9157 27.6594 13.9836 27.4823 14.0497C27.3116 14.1135 27.141 14.1772 26.9724 14.2456C26.7462 14.3375 26.5188 14.4274 26.2917 14.5171C25.691 14.7544 25.0706 14.9997 24.478 15.2831C23.569 15.7177 22.6336 16.2129 21.6978 16.7548C20.2654 17.5843 18.8674 18.4138 17.3871 19.2922C16.7962 19.6428 16.1991 19.9967 15.5958 20.3538C15.4909 20.3504 15.4128 20.3532 15.364 20.3563C15.0697 20.3747 14.7744 20.3906 14.4794 20.4067C13.7391 20.4469 12.9735 20.4884 12.2235 20.567C11.5304 20.6394 11.1767 20.9995 11.0766 21.7344C11.0481 21.9665 11.0328 22.2 11.031 22.4339C10.9932 24.3906 10.9561 26.3472 10.9197 28.3039L10.8621 31.364C10.8433 31.6438 10.9229 31.9214 11.0871 32.1495C11.2513 32.3776 11.4901 32.5419 11.7627 32.6145ZM26.7249 35.6581C26.7371 35.7697 26.744 35.8818 26.7523 36.0129C25.4711 35.0227 24.0321 33.931 22.4589 33.1102C21.3604 32.5376 20.2616 31.9529 19.1989 31.3889C18.7617 31.1567 18.3296 30.9275 17.9026 30.7011C17.9113 30.2094 17.9231 29.7248 17.9348 29.2451C17.9631 28.0919 17.9898 27.0027 17.9716 25.8949C17.9539 24.7842 17.8925 23.6952 17.8275 22.5423C17.8005 22.0615 17.7732 21.5762 17.7488 21.0845C17.8182 21.0343 17.8902 20.9876 17.9643 20.9446C18.7467 20.5043 19.5294 20.0648 20.3126 19.626C22.1254 18.6093 23.9998 17.558 25.8348 16.5083C26.2692 16.2489 26.6888 15.9657 27.0916 15.6599C27.23 15.559 27.3716 15.4556 27.5166 15.3524C27.5226 15.4213 27.5248 15.4904 27.5234 15.5595C27.4898 16.4241 27.4576 17.2888 27.4267 18.1535C27.3479 20.3106 27.2665 22.5411 27.1545 24.7322C27.0418 26.9372 26.8792 29.3325 26.643 32.27C26.5636 33.3995 26.591 34.5337 26.7249 35.658V35.6581ZM16.2916 30.3708L16.2772 30.3795C16.2317 30.4136 16.1792 30.4376 16.1235 30.4495C15.2247 30.4582 14.31 30.4559 13.4252 30.4534L12.9245 30.4521C12.9041 30.4496 12.8839 30.4456 12.8641 30.4399L12.8571 30.4382C12.8543 30.4217 12.8514 30.4051 12.8485 30.3882C12.8287 30.2899 12.8164 30.1904 12.8117 30.0903C12.7953 29.3216 12.7802 28.553 12.7662 27.7842C12.7459 26.7004 12.7237 25.6166 12.6999 24.5327C12.6903 24.1241 12.6665 23.7098 12.6437 23.3092C12.6301 23.0723 12.6166 22.8353 12.6058 22.5981C12.6003 22.4784 12.6018 22.3557 12.6033 22.2262C12.6033 22.1996 12.6038 22.1729 12.6041 22.1458L16.0966 21.9387C15.9557 24.4604 15.876 27.4163 16.2913 30.3709L16.2916 30.3708Z" fill="#B07010"/>
<path d="M40.0097 28.2654C39.4408 27.5993 38.8522 26.9313 38.283 26.2854L37.8691 25.8153C37.7819 25.7162 37.6894 25.6204 37.6151 25.5445L37.8684 25.2701C38.0986 25.0209 38.3192 24.7818 38.5386 24.5417C38.6578 24.4117 38.7777 24.2821 38.8983 24.1527C39.2003 23.8278 39.5128 23.4918 39.8014 23.1437C40.2634 22.5869 40.3297 22.0768 39.9835 21.7445C39.7839 21.5528 39.3385 21.333 38.5993 22.0174C38.4721 22.1352 38.3481 22.2567 38.2242 22.3782C38.1535 22.4474 38.0831 22.5166 38.0118 22.5853L36.1948 24.3306C36.1702 24.3116 36.1457 24.2931 36.1212 24.2751C36.0213 24.1995 35.9351 24.1341 35.8542 24.0639C35.5245 23.7778 35.1953 23.4912 34.8666 23.204C34.3609 22.763 33.8542 22.323 33.3464 21.884C33.125 21.6819 32.8852 21.5008 32.6299 21.343C32.4543 21.2307 32.2453 21.1818 32.0378 21.2044C31.8302 21.2269 31.6367 21.3197 31.4897 21.467C31.2331 21.7463 31.2152 22.1479 31.4415 22.5417C31.5565 22.7518 31.6968 22.9472 31.8595 23.1235C32.368 23.6541 33.0426 24.3517 33.7494 25.0424C33.9605 25.2488 34.1898 25.4366 34.4321 25.6357C34.5096 25.699 34.5887 25.7639 34.6694 25.8306L34.6388 25.8535C34.5477 25.9162 34.4633 25.9877 34.3865 26.067C33.4684 27.0825 32.5393 28.1187 31.6403 29.121L31.4582 29.3239C31.4 29.3756 31.355 29.4406 31.327 29.5132C31.2991 29.5857 31.289 29.6639 31.2977 29.741C31.3253 29.8762 31.4336 29.9867 31.6288 30.0791C31.6457 30.0871 31.6642 30.0912 31.6829 30.0912C31.7032 30.0912 31.7232 30.0865 31.7411 30.0772C33.3031 29.2688 34.6202 28.1425 36.0485 26.8603L36.2743 27.0199C37.3539 27.783 38.4124 28.5306 39.4703 29.2796C39.4898 29.2945 39.5083 29.3108 39.5254 29.3282C39.5768 29.3859 39.6439 29.4273 39.7187 29.4475L39.7371 29.4512C39.897 29.4819 40.0964 29.5204 40.2244 29.424C40.2916 29.3569 40.3398 29.2733 40.364 29.1817C40.3883 29.0901 40.3876 28.9937 40.3623 28.9023C40.2858 28.67 40.1663 28.454 40.0097 28.2654Z" fill="#B07010"/>
</g>
<defs>
<clipPath id="clip0_1118_3148">
<rect width="29.6693" height="24" fill="white" transform="translate(10.7412 13.6828)"/>
</clipPath>
</defs>
</svg>
