<svg width="32" height="32" viewBox="0 0 32 32" fill="none" xmlns="http://www.w3.org/2000/svg">
<path d="M16 0C9.33125 0 4 5.33125 4 12C4 14.3062 4.6875 16.0875 5.88125 17.8937L14.7375 31.3312C15.0063 31.7375 15.4688 32 16 32C16.5312 32 17 31.7312 17.2625 31.3312L26.1187 17.8937C27.3125 16.0875 28 14.3062 28 12C28 5.33125 22.6688 0 16 0ZM16 18.6625C12.3188 18.6625 9.33125 15.675 9.33125 11.9875C9.33125 8.3 12.3188 5.3125 16 5.3125C19.6812 5.3125 22.6688 8.3 22.6688 11.9875C22.6688 15.675 19.6812 18.6625 16 18.6625Z" fill="#B07010"/>
</svg>
