<svg width="32" height="33" viewBox="0 0 32 33" fill="none" xmlns="http://www.w3.org/2000/svg">
<path fill-rule="evenodd" clip-rule="evenodd" d="M19.1598 13.7401C18.3823 13.1565 17.5721 12.6178 16.7331 12.1267C15.8772 11.6192 14.9861 11.1736 14.0665 10.7934C14.0055 10.7651 13.9393 10.7496 13.8721 10.7477C13.8049 10.7459 13.738 10.7579 13.6756 10.7828C13.6131 10.8078 13.5565 10.8453 13.509 10.893C13.4616 10.9406 13.4244 10.9975 13.3998 11.0601C13.3613 11.0011 13.3074 10.9538 13.2439 10.9233C13.1805 10.8927 13.1099 10.8801 13.0398 10.8867C12.9219 10.8936 12.8114 10.9462 12.7317 11.0334C12.652 11.1206 12.6095 11.2354 12.6131 11.3534V17.0334V18.9134C12.6131 19.1267 12.4531 19.5001 12.4531 19.6867C12.4552 19.821 12.4876 19.9531 12.5478 20.0731C12.608 20.1931 12.6945 20.298 12.8008 20.38C12.9072 20.462 13.0307 20.519 13.162 20.5467C13.2934 20.5744 13.4294 20.5721 13.5598 20.5401C14.1903 20.3911 14.7964 20.1532 15.3598 19.8334C16.5331 19.1801 17.6665 18.2067 18.6798 17.5401C19.0265 17.3001 19.6131 17.0334 20.0131 16.7134C20.2744 16.5295 20.5041 16.3044 20.6931 16.0467C20.7952 15.895 20.8497 15.7163 20.8497 15.5334C20.8497 15.3505 20.7952 15.1718 20.6931 15.0201C20.2249 14.5445 19.7114 14.1157 19.1598 13.7401ZM18.9065 15.5934C18.4931 15.8334 18.0131 16.0467 17.6931 16.2467C16.8265 16.7934 15.8798 17.5801 14.8931 18.1934C14.6269 18.369 14.3509 18.5293 14.0665 18.6734L13.9598 17.0867L13.5198 11.6601C13.5731 11.7062 13.6312 11.7465 13.6931 11.7801C14.5243 12.166 15.3263 12.6116 16.0931 13.1134C16.8543 13.634 17.5803 14.2041 18.2665 14.8201C18.5574 15.0186 18.8378 15.2322 19.1065 15.4601L18.9065 15.5934Z" fill="#7B3F00"/>
<path fill-rule="evenodd" clip-rule="evenodd" d="M7.84041 17.9398L7.92041 14.7264V11.5131V5.0331C7.84041 4.40643 6.92041 4.81977 6.89374 5.41977C6.66708 6.96643 6.66708 7.88643 6.50708 9.4331C5.82991 9.49059 5.15732 9.59304 4.49374 9.73977C3.57736 9.96004 2.68434 10.2681 1.82708 10.6598C1.33374 11.0598 1.42708 12.2864 2.44041 11.9931L4.00041 11.4198C4.80041 11.1264 5.58708 10.8598 6.38708 10.6198C6.38708 10.9131 6.38708 11.1931 6.30708 11.4731C6.30708 12.5531 6.21374 13.6198 6.20041 14.6998V15.1664C5.42622 15.0608 4.64126 15.0608 3.86708 15.1664C3.52728 15.2349 3.19303 15.3285 2.86708 15.4464C2.57375 15.5898 2.29661 15.7641 2.04041 15.9664C1.56041 16.5398 1.58708 17.5664 2.34708 17.2998C2.66708 17.1931 2.98708 17.0464 3.29374 16.9264C3.60041 16.8064 3.78708 16.7264 4.16041 16.5798C4.53374 16.4331 4.77374 16.4331 5.14708 16.3131C5.49724 16.2039 5.85338 16.1148 6.21374 16.0464V17.8198C6.21374 18.4064 6.29374 19.3664 6.32041 20.1398C5.7967 20.1468 5.27464 20.2003 4.76041 20.2998C4.45698 20.3794 4.15865 20.4774 3.86708 20.5931C3.58558 20.7094 3.31363 20.8476 3.05374 21.0064C2.84319 21.1268 2.64646 21.2699 2.46708 21.4331C1.96041 21.8998 1.89374 23.0464 2.84041 22.7664C3.40041 22.5798 3.42708 22.6064 4.01374 22.3798C4.60041 22.1531 4.84041 22.0198 5.25374 21.8464C5.66708 21.6731 6.00041 21.4998 6.37374 21.3398C6.37374 22.5531 6.37374 23.0864 6.45374 24.3131C6.54708 25.1398 7.56041 24.9531 7.50708 24.0864C7.58708 21.8331 7.76041 20.2464 7.84041 17.9398Z" fill="#7B3F00"/>
<path fill-rule="evenodd" clip-rule="evenodd" d="M32.0002 16.4999C32.0002 15.2999 32.0002 14.1133 31.9335 12.9266C31.8402 10.1266 31.6135 7.35328 31.4668 4.61995C31.4622 4.53512 31.4316 4.45377 31.3791 4.38696C31.3266 4.32016 31.2548 4.27116 31.1735 4.24662C31.1108 4.15062 31.0166 4.07947 30.9071 4.0454C30.7976 4.01133 30.6796 4.01648 30.5735 4.05995C29.1033 4.6605 27.5616 5.06832 25.9868 5.27328C24.4318 5.42496 22.8628 5.33955 21.3335 5.01995C19.2268 4.65995 17.0802 3.99328 14.9602 3.49995C12.7438 2.91577 10.4472 2.69513 8.16016 2.84662C6.59155 3.00067 5.08648 3.54503 3.78225 4.43005C2.47802 5.31506 1.41615 6.51255 0.693497 7.91328C0.693497 7.91328 0.693497 8.00662 0.693497 8.05995C0.591143 8.07886 0.498807 8.13344 0.432895 8.214C0.366984 8.29456 0.331765 8.39588 0.333497 8.49995C0.0976271 10.9728 -0.0136248 13.4559 0.000163901 15.9399C0.000163901 16.1399 0.226831 19.7533 0.293497 20.4199C0.493497 22.6333 0.800164 24.8466 1.02683 27.0866C1.03709 27.2222 1.10006 27.3484 1.20225 27.4381C1.30444 27.5279 1.43771 27.574 1.5735 27.5666C1.63952 27.5633 1.70419 27.5467 1.76368 27.5179C1.82316 27.489 1.87625 27.4485 1.91978 27.3988C1.96331 27.349 1.9964 27.291 2.01708 27.2283C2.03776 27.1655 2.04561 27.0992 2.04016 27.0333C1.24016 14.6333 1.24016 8.73995 1.22683 8.49995C1.31489 8.467 1.39296 8.41189 1.4535 8.33995C2.05716 7.35764 2.85629 6.50988 3.80127 5.84931C4.74626 5.18874 5.81693 4.72945 6.94683 4.49995C7.50683 4.49995 8.14683 4.29995 8.28016 4.28662C10.4071 4.26765 12.526 4.55047 14.5735 5.12662C16.7335 5.63328 18.9468 6.19328 21.0935 6.45995C22.7956 6.54699 24.5016 6.52027 26.2002 6.37995C27.7062 6.11266 29.1745 5.66499 30.5735 5.04662V13.2333C30.5735 14.22 30.6668 19.2733 30.6668 19.9C30.6668 20.8866 30.2535 26.4466 30.2002 27.6866C28.9218 28.0821 27.6019 28.3282 26.2668 28.42C24.7047 28.4996 23.1396 28.3377 21.6268 27.9399C19.5468 27.4466 17.4402 26.6066 15.3602 26.0199C13.1847 25.2964 10.9061 24.9316 8.6135 24.9399C7.91888 25.0056 7.22878 25.1125 6.54683 25.2599C4.17744 25.9103 2.14287 27.4351 0.853497 29.5266C0.78414 29.6226 0.755074 29.7419 0.772515 29.859C0.789957 29.9761 0.852521 30.0817 0.946831 30.1533C1.04279 30.2226 1.16207 30.2517 1.27918 30.2343C1.39628 30.2168 1.50192 30.1543 1.5735 30.0599C2.36081 28.9194 3.41808 27.9914 4.65109 27.3586C5.88409 26.7258 7.2545 26.4079 8.64016 26.4333C10.7636 26.5431 12.8604 26.9562 14.8668 27.66C16.9868 28.3 19.1602 28.9933 21.2802 29.4466C22.9607 29.7826 24.6822 29.8635 26.3868 29.6866C27.7202 29.5399 31.9335 28.8466 31.5735 27.7933C31.5484 27.7256 31.5075 27.6648 31.4541 27.6161C31.4008 27.5674 31.3366 27.5321 31.2668 27.5133C31.5468 25.0333 31.7868 22.5399 31.8935 20.02C32.0002 18.8066 32.0002 17.6199 32.0002 16.4999Z" fill="#7B3F00"/>
<path fill-rule="evenodd" clip-rule="evenodd" d="M28.8265 22.5402H27.8532C27.5316 22.552 27.211 22.5831 26.8932 22.6335C26.3732 22.7135 25.8665 22.8202 25.3465 22.9135C25.4398 21.5802 25.5065 20.2469 25.5198 18.9135V18.3135C25.9131 18.3733 26.3092 18.4134 26.7065 18.4335H27.6532C27.9732 18.4335 28.2932 18.4335 28.5998 18.3402C29.1332 18.2602 29.3998 18.1535 29.9332 18.0602C30.7065 17.9135 30.5732 17.0869 29.9332 16.8869C29.2932 16.6869 29.0665 16.7669 28.5198 16.7402H27.5465C27.2293 16.7515 26.9131 16.7826 26.5998 16.8335C26.2132 16.8335 25.8532 17.0069 25.4932 17.0869V13.7135C25.4932 12.8335 25.4132 11.9535 25.3598 11.0469L26.6665 11.1669H27.5732H28.4798C29.0665 11.1669 29.1732 11.0602 29.8132 11.0735C30.4532 11.0869 30.5198 10.2335 29.8132 9.92686C29.4236 9.77465 29.0222 9.65426 28.6132 9.56686C28.2912 9.51146 27.9662 9.47584 27.6398 9.46019C27.3026 9.43357 26.9638 9.43357 26.6265 9.46019C26.1739 9.55355 25.7284 9.6783 25.2932 9.83352C25.2932 8.80686 25.1998 8.31352 25.1865 7.28686C24.9865 6.51352 24.2665 6.67352 24.2132 7.28686C23.9865 9.84686 23.8398 11.8869 23.8398 14.4735C23.8398 16.2069 23.8398 17.9402 23.9198 19.6735C23.9198 22.3402 24.0532 24.8469 23.9198 27.4202C23.9035 27.4901 23.9023 27.5627 23.9161 27.6331C23.93 27.7035 23.9586 27.7702 24.0002 27.8288C24.0418 27.8873 24.0953 27.9363 24.1572 27.9726C24.2192 28.0089 24.2881 28.0315 24.3595 28.0392C24.4309 28.0468 24.5031 28.0391 24.5713 28.0167C24.6395 27.9944 24.7022 27.9577 24.7551 27.9093C24.8081 27.8608 24.8502 27.8017 24.8786 27.7358C24.907 27.6698 24.921 27.5986 24.9198 27.5269C25.0932 26.3402 25.2132 25.1402 25.3198 23.9402C25.996 24.08 26.683 24.1603 27.3732 24.1802C27.8861 24.1778 28.3982 24.1422 28.9065 24.0735L29.7065 23.9535C30.6665 23.5802 30.5065 22.6202 29.7065 22.5269C29.4133 22.5083 29.119 22.5127 28.8265 22.5402Z" fill="#7B3F00"/>
</svg>
