<svg width="32" height="33" viewBox="0 0 32 33" fill="none" xmlns="http://www.w3.org/2000/svg">
<path d="M1.74702 20.7801C1.82702 20.8868 1.88035 20.9935 1.97369 21.1135C3.51235 22.8333 5.31216 24.3001 7.30702 25.4601C9.20617 26.7268 11.2819 27.7062 13.467 28.3668C14.1541 28.5729 14.8866 28.5729 15.5737 28.3668C16.5356 27.593 17.4279 26.7364 18.2404 25.8068C20.707 23.2335 24.4937 19.0335 27.3604 15.4735C28.64 13.8703 29.8157 12.1868 30.8804 10.4335C31.1949 9.94781 31.4081 9.40358 31.507 8.83346C31.3528 8.29042 31.0131 7.81862 30.547 7.50013C29.3309 6.60062 28.0317 5.8193 26.667 5.1668C24.6665 4.16602 22.5887 3.32776 20.4537 2.66013C19.8312 2.4333 19.1612 2.36905 18.507 2.47346C18.1819 2.62261 17.8735 2.80586 17.587 3.02013C17.1765 3.29747 16.7804 3.59564 16.4004 3.91346C16.3204 3.99185 16.2722 4.09707 16.2652 4.20884C16.2582 4.32061 16.2928 4.43102 16.3624 4.51879C16.4319 4.60656 16.5315 4.66548 16.6419 4.68419C16.7523 4.7029 16.8658 4.68008 16.9604 4.62013C17.387 4.2868 17.7737 4.0068 18.107 3.79346C18.3434 3.62649 18.5984 3.48777 18.867 3.38013C19.2235 3.36105 19.5795 3.42495 19.907 3.5668L20.8004 3.87346L20.7204 4.10013C20.5238 4.38135 20.3542 4.68045 20.2137 4.99346C20.0946 5.25904 20.0224 5.54325 20.0004 5.83346C19.9923 6.06074 20.0294 6.28736 20.1095 6.5002C20.1896 6.71305 20.3111 6.90789 20.467 7.07346C20.9826 7.58195 21.5827 7.99701 22.2404 8.30013L24.2004 9.15346C24.5247 9.33026 24.8761 9.45192 25.2404 9.51346C25.5424 9.55469 25.8499 9.51797 26.1337 9.4068L27.467 8.6068L28.0404 8.34013H28.1204C28.2299 8.2917 28.3194 8.20692 28.3737 8.10013C28.4194 7.97072 28.4194 7.82954 28.3737 7.70013C28.8004 7.98013 29.187 8.26013 29.4937 8.50013C30.2004 9.06013 30.147 8.90013 30.0004 9.22013C29.8197 9.59153 29.6102 9.94818 29.3737 10.2868C28.3604 11.7935 26.547 13.9935 24.547 16.3401C21.8804 19.5268 18.747 23.0068 16.7737 25.0868C15.747 26.1801 15.0937 26.9268 14.9604 26.9935C14.3176 27.11 13.6548 27.0358 13.0537 26.7801C11.284 26.151 9.58928 25.3282 8.00035 24.3268C6.11723 23.2981 4.40749 21.9797 2.93369 20.4201C2.60035 20.0068 2.34702 19.7001 2.42702 19.4468C2.5524 19.1732 2.71383 18.9176 2.90702 18.6868C3.14702 18.3401 3.48035 17.9401 3.86702 17.4735C3.91459 17.4264 3.95235 17.3703 3.97812 17.3085C4.00389 17.2467 4.01716 17.1804 4.01716 17.1135C4.01716 17.0465 4.00389 16.9802 3.97812 16.9184C3.95235 16.8566 3.91459 16.8006 3.86702 16.7535C3.82106 16.7063 3.76611 16.6688 3.70543 16.6432C3.64475 16.6176 3.57955 16.6044 3.51369 16.6044C3.44783 16.6044 3.38263 16.6176 3.32195 16.6432C3.26126 16.6688 3.20632 16.7063 3.16035 16.7535C2.73044 17.2207 2.32543 17.7103 1.94702 18.2201C1.68379 18.4935 1.47556 18.8148 1.33369 19.1668C1.33369 19.1668 1.00035 19.5268 1.74702 20.7801ZM27.0804 7.5268L25.747 8.07346C25.6677 8.08798 25.5864 8.08798 25.507 8.07346C25.3111 7.99214 25.1272 7.88448 24.9604 7.75346L23.0537 6.78013C22.59 6.59858 22.1438 6.37545 21.7204 6.11346C21.547 5.99346 21.3337 5.95346 21.3337 5.83346C21.302 5.6571 21.302 5.47649 21.3337 5.30013C21.4004 5.0468 21.4937 4.8068 21.5604 4.62013L21.6537 4.26013C22.6404 4.66013 23.7337 5.15346 24.827 5.71346C25.9204 6.27346 26.9204 6.8068 27.8004 7.34013C27.5451 7.34714 27.2946 7.41091 27.067 7.5268H27.0804Z" fill="#7B3F00"/>
<path d="M31.08 11.7805C30.9757 12.1921 30.8142 12.5871 30.6 12.9538C28.3599 16.2176 25.9476 19.3599 23.3733 22.3672C21.3202 24.8855 19.1302 27.2891 16.8133 29.5671C16.3628 30.074 15.8198 30.4904 15.2133 30.7938C13.6667 31.1405 10.5733 29.8471 7.70666 28.2605C5.7284 27.2275 3.90227 25.9264 2.28 24.3938C1.94114 24.1131 1.69486 23.7367 1.57333 23.3138C1.53418 22.759 1.53418 22.202 1.57333 21.6472C1.57333 21.2338 0.879997 20.7672 0.786663 21.1538C0.586559 21.8678 0.461438 22.6006 0.41333 23.3405C0.520136 24.0472 0.857657 24.6988 1.37333 25.1938C3.03074 26.8827 4.91555 28.3322 6.97333 29.5005C8.73329 30.6066 10.6174 31.5017 12.5867 32.1672C13.5328 32.4923 14.5406 32.5972 15.5333 32.4738C16.3027 32.1967 16.9999 31.7501 17.5733 31.1672C19.5426 29.3546 21.3743 27.3981 23.0533 25.3138C27.2267 20.2738 31.4667 14.0738 31.6267 12.9138C31.7771 12.2404 31.8221 11.5477 31.76 10.8605C31.4667 10.3938 31.1867 11.4605 31.08 11.7805Z" fill="#7B3F00"/>
<path fill-rule="evenodd" clip-rule="evenodd" d="M9.94678 16.3802C10.0847 16.3802 10.217 16.3254 10.3145 16.2279C10.412 16.1304 10.4668 15.9981 10.4668 15.8602C10.5735 13.8869 10.7468 11.8602 10.8001 9.9269V5.9269C10.6668 5.30023 10.4535 2.5669 10.4535 1.47356V1.22023C10.4831 1.15772 10.4985 1.08941 10.4985 1.02023C10.4985 0.951048 10.4831 0.882733 10.4535 0.820229C10.2668 0.340228 9.93345 0.500229 9.73345 0.646895C9.57617 0.875769 9.484 1.14306 9.46678 1.42023C9.32012 2.51356 9.17345 5.2869 9.12012 5.98023V9.98023C9.12012 11.9669 9.33345 13.9802 9.45345 15.9136C9.46332 16.0386 9.51923 16.1556 9.61036 16.2418C9.7015 16.328 9.82137 16.3773 9.94678 16.3802Z" fill="#7B3F00"/>
<path fill-rule="evenodd" clip-rule="evenodd" d="M13.147 10.1269L13.427 12.0069C13.4704 12.2908 13.5327 12.5714 13.6136 12.8469C13.635 12.9153 13.671 12.9782 13.7191 13.0313C13.7672 13.0844 13.8263 13.1263 13.8923 13.1542C13.9583 13.1822 14.0296 13.1954 14.1012 13.1929C14.1728 13.1905 14.243 13.1725 14.307 13.1402C14.7336 12.9136 14.5203 13.2469 14.7336 10.1269C14.767 9.55851 14.767 8.98864 14.7336 8.42024C14.7336 8.04691 14.6536 7.67358 14.6003 7.28691C14.4404 6.44697 14.3512 5.59509 14.3336 4.74024C14.3452 4.68157 14.3451 4.62117 14.3333 4.56254C14.3215 4.50391 14.2981 4.44821 14.2647 4.39863C14.2312 4.34905 14.1883 4.30659 14.1383 4.27369C14.0884 4.24078 14.0324 4.21809 13.9736 4.20691C13.914 4.19543 13.8527 4.19604 13.7933 4.20871C13.7339 4.22138 13.6777 4.24586 13.6279 4.28068C13.5782 4.3155 13.536 4.35996 13.5037 4.41142C13.4715 4.46288 13.4499 4.52029 13.4403 4.58024C13.1547 5.50546 12.9976 6.46557 12.9736 7.43358V8.76691C12.9736 9.18024 13.1203 9.68691 13.147 10.1269Z" fill="#7B3F00"/>
<path fill-rule="evenodd" clip-rule="evenodd" d="M17.6936 11.4337C17.7869 11.4337 18.0802 11.3537 18.2802 10.8737C18.4637 10.5027 18.5938 10.1077 18.6669 9.70037C18.707 9.4531 18.707 9.20098 18.6669 8.95371C18.575 8.56685 18.4409 8.19126 18.2669 7.83371C18.2634 7.71226 18.2127 7.59696 18.1256 7.51231C18.0385 7.42765 17.9217 7.38032 17.8002 7.38037C17.7401 7.38026 17.6807 7.39246 17.6255 7.41622C17.5703 7.43998 17.5205 7.4748 17.4793 7.51853C17.4381 7.56225 17.4062 7.61396 17.3858 7.67046C17.3653 7.72696 17.3566 7.78705 17.3602 7.84704C17.1931 8.19682 17.0635 8.56331 16.9736 8.94037C16.9398 9.18365 16.9398 9.43043 16.9736 9.67371C17.1336 11.5137 17.5202 11.4337 17.6936 11.4337Z" fill="#7B3F00"/>
<path fill-rule="evenodd" clip-rule="evenodd" d="M4.26681 12.5002V13.1135C4.16014 14.3268 4.78681 14.2868 4.78681 14.2868C4.78681 14.2868 5.41347 14.2868 5.30681 13.1135V12.6602L5.52014 11.3268C5.65358 10.6216 5.74706 9.90931 5.80014 9.19349C5.80929 8.47118 5.76472 7.74919 5.66681 7.03349L5.46681 5.27349V4.68682C5.50349 4.56721 5.50271 4.43923 5.46458 4.32007C5.42645 4.20091 5.35279 4.09625 5.25347 4.02016C5.00014 3.78016 4.58681 4.02016 4.56014 4.56682C4.56014 4.72682 4.41347 5.15349 4.40014 5.26016L4.22681 7.04682V9.08682V11.1535L4.26681 12.5002Z" fill="#7B3F00"/>
<path fill-rule="evenodd" clip-rule="evenodd" d="M1.14681 11.8868C1.33348 11.8868 1.62681 12.0068 1.90681 10.0602C1.93367 9.82093 1.93367 9.57943 1.90681 9.34018C1.73348 7.52684 1.49348 7.58018 1.45348 7.55351C1.41348 7.52684 1.02681 7.43351 0.720144 7.92684C0.477405 8.3396 0.306108 8.79038 0.213477 9.26018C0.180143 9.52134 0.180143 9.78568 0.213477 10.0468C0.273048 10.4579 0.380443 10.8607 0.533477 11.2468C0.720144 11.7668 1.04014 11.9135 1.14681 11.8868Z" fill="#7B3F00"/>
</svg>
