<svg width="32" height="32" viewBox="0 0 32 32" fill="none" xmlns="http://www.w3.org/2000/svg">
<g clip-path="url(#clip0_475_2487)">
<path fill-rule="evenodd" clip-rule="evenodd" d="M25.3328 7.52002H19.7861C17.2128 7.52002 14.6394 7.64002 12.0794 7.78669C8.85277 7.97335 5.61277 8.25335 2.37277 8.48002C1.59944 8.69335 1.7061 9.40002 2.37277 9.50669H12.1594C14.7194 9.50669 17.2661 9.28002 19.8261 9.20002C21.6661 9.10669 23.4928 9.01335 25.3328 8.96002H29.3994C30.1594 8.81335 30.0928 7.85335 29.1994 7.85335C27.8928 7.61335 26.6661 7.54669 25.3328 7.52002Z" fill="#7C4000"/>
<path fill-rule="evenodd" clip-rule="evenodd" d="M31.9997 11.1199C32.0625 9.62753 31.9506 8.13295 31.6664 6.66655C31.4333 5.58929 30.9073 4.5973 30.1464 3.79989C29.4244 3.07979 28.489 2.61214 27.4797 2.46655C26.1991 2.3269 24.9071 2.3269 23.6264 2.46655L1.33307 3.79989C1.2267 3.80301 1.12534 3.84576 1.04887 3.91977C0.972401 3.99377 0.926345 4.09368 0.91974 4.19989C0.814776 4.21267 0.717929 4.26284 0.646923 4.34119C0.575916 4.41954 0.535501 4.52084 0.533073 4.62655C0.533073 7.07989 0.15974 12.4266 0.0664062 16.2266V21.2532C0.133073 22.3732 0.0664063 23.9199 0.19974 25.1599C0.29047 25.8097 0.498276 26.4376 0.813073 27.0132C1.38915 27.8817 2.2532 28.5192 3.25307 28.8132C5.23558 29.338 7.28305 29.576 9.33307 29.5199C12.9588 29.5905 16.5858 29.4747 20.1997 29.1732C23.8131 28.8799 27.4131 28.4266 30.9597 27.8399C31.0848 27.8122 31.1947 27.7382 31.2674 27.6328C31.3401 27.5274 31.3702 27.3984 31.3516 27.2717C31.333 27.145 31.2671 27.03 31.1672 26.9499C31.0673 26.8698 30.9408 26.8305 30.8131 26.8399C27.2797 27.2932 23.7064 27.6266 20.1464 27.7999C16.5931 27.9781 13.0331 27.9781 9.47974 27.7999C7.86512 27.8029 6.25372 27.6556 4.66641 27.3599C3.77268 27.2439 2.95705 26.7908 2.38641 26.0932C2.10401 25.5518 1.94036 24.9563 1.90641 24.3466C1.78641 23.2266 1.83974 22.0266 1.75974 21.0799C1.59974 19.4532 1.53307 17.8132 1.49307 16.1732C1.42641 12.8266 1.49307 7.37322 1.49307 4.63989C4.05307 4.63989 11.3864 4.53322 17.1464 4.39989C20.1064 4.39989 22.6397 4.23989 23.8131 4.19989C24.97 4.0799 26.1362 4.0799 27.2931 4.19989C27.9441 4.28842 28.553 4.57197 29.0397 5.01322C29.5873 5.58318 29.9659 6.29405 30.1331 7.06655C30.2797 7.59989 30.5464 10.9466 30.5597 11.0666L30.6664 17.1332V22.3332C30.6664 23.5066 30.6664 24.6666 30.7864 25.8266C30.7898 25.8931 30.8063 25.9584 30.835 26.0185C30.8637 26.0787 30.9039 26.1326 30.9535 26.1772C31.003 26.2218 31.0609 26.2562 31.1237 26.2784C31.1866 26.3006 31.2532 26.3101 31.3197 26.3066C31.3857 26.3049 31.4507 26.29 31.5108 26.2627C31.5709 26.2355 31.6249 26.1965 31.6696 26.148C31.7144 26.0995 31.749 26.0425 31.7713 25.9805C31.7937 25.9184 31.8033 25.8524 31.7997 25.7866V22.3466C31.7997 20.6132 31.9064 18.8799 31.9731 17.1466L31.9997 11.1199Z" fill="#7C4000"/>
<path fill-rule="evenodd" clip-rule="evenodd" d="M16.0939 20.0002C17.1072 19.4535 18.0405 18.6669 18.9072 18.0535C19.2139 17.8535 19.7072 17.6135 20.0672 17.3469C20.3136 17.1846 20.5264 16.9764 20.6939 16.7335C20.7972 16.5873 20.8527 16.4126 20.8527 16.2335C20.8527 16.0545 20.7972 15.8798 20.6939 15.7335C20.3081 15.3008 19.8842 14.9036 19.4272 14.5469C18.7565 14.0612 18.0575 13.616 17.3339 13.2135C16.6079 12.8032 15.8551 12.4424 15.0805 12.1335C14.9667 12.0812 14.8372 12.0741 14.7184 12.1137C14.5995 12.1533 14.5002 12.2367 14.4405 12.3469C14.3528 12.2902 14.2516 12.258 14.1472 12.2535C14.0876 12.2569 14.0293 12.272 13.9756 12.298C13.9219 12.324 13.8739 12.3603 13.8342 12.4049C13.7946 12.4495 13.7641 12.5015 13.7446 12.5579C13.7251 12.6143 13.7169 12.674 13.7205 12.7335V17.5602V19.1602C13.7205 19.3335 13.5605 19.6535 13.5605 19.8135C13.5623 20.0326 13.6482 20.2427 13.8005 20.4002C13.9066 20.5156 14.0419 20.6002 14.1922 20.6448C14.3425 20.6894 14.502 20.6924 14.6539 20.6535C15.1637 20.5085 15.649 20.2883 16.0939 20.0002ZM14.6672 13.0802C15.3693 13.4155 16.0427 13.8079 16.6805 14.2535C17.3218 14.6968 17.9362 15.1776 18.5205 15.6935L19.0672 16.1069L18.0272 16.6935C17.2805 17.1735 16.4805 17.8135 15.6405 18.3469L15.1072 18.6802L15.0272 17.5202L14.6672 13.0669V13.0802Z" fill="#7C4000"/>
<path fill-rule="evenodd" clip-rule="evenodd" d="M4.84018 24.1335C4.72447 24.1532 4.6209 24.217 4.55127 24.3115C4.48164 24.406 4.45138 24.5238 4.46685 24.6402C4.47497 24.6982 4.49461 24.7541 4.52462 24.8045C4.55463 24.8548 4.5944 24.8987 4.6416 24.9335C4.68881 24.9683 4.74248 24.9932 4.79948 25.007C4.85648 25.0207 4.91565 25.0229 4.97351 25.0135C5.73351 24.9468 6.49351 24.9068 7.24018 24.8935H8.66685C9.01351 26.4135 9.09352 26.6935 9.53352 26.6668C9.97352 26.6402 10.0002 26.3068 10.1602 24.9068H12.6535C14.6935 24.8002 16.7335 24.7335 18.7602 24.5868C21.8135 24.3868 24.8402 24.0668 27.9068 23.8535C27.9734 23.8518 28.0389 23.8369 28.0998 23.8099C28.1606 23.7828 28.2154 23.744 28.2613 23.6957C28.3071 23.6474 28.3429 23.5906 28.3668 23.5284C28.3906 23.4663 28.402 23.4 28.4002 23.3335C28.3933 23.2003 28.3355 23.0747 28.2388 22.9829C28.142 22.8911 28.0136 22.84 27.8802 22.8402C24.7868 22.8402 21.7335 22.8402 18.6668 22.9335C16.6268 23.0135 14.6668 23.1868 12.5602 23.3202L10.1602 23.5202C10.1667 23.4225 10.1667 23.3245 10.1602 23.2268C9.68018 21.3335 9.33351 21.3335 9.16018 21.3335C8.98685 21.3335 8.65352 21.3335 8.50685 23.3602C8.5002 23.4623 8.5002 23.5647 8.50685 23.6668L7.17352 23.7868C6.40018 23.8935 5.62685 24.0002 4.84018 24.1335Z" fill="#7C4000"/>
</g>
<defs>
<clipPath id="clip0_475_2487">
<rect width="32" height="32" fill="white"/>
</clipPath>
</defs>
</svg>
