<svg width="56" height="56" viewBox="0 0 56 56" fill="none" xmlns="http://www.w3.org/2000/svg">
<path d="M4 28C4 14.7452 14.7452 4 28 4C41.2548 4 52 14.7452 52 28C52 41.2548 41.2548 52 28 52C14.7452 52 4 41.2548 4 28Z" fill="#E1DDD4"/>
<path d="M6.41375 29.2966C6.51784 30.0549 6.56671 31.0455 6.61285 31.8139C6.62712 32.0539 6.48041 31.9579 6.48602 32.1255C6.49814 32.4529 6.62284 32.7384 6.63905 33.0639C6.6441 33.1724 6.41717 33.0894 6.42729 33.2029C6.48583 33.8261 6.69612 34.379 6.85248 34.99C7.62694 38.0041 9.14831 40.7856 11.225 43.2121C11.9051 44.0126 12.7177 45.0392 13.6227 45.6683C13.7278 45.7415 13.78 45.556 13.808 45.5599C14.2417 45.6218 13.9211 45.8222 14.0885 46.0131C14.7538 46.7676 15.6762 47.4047 16.5375 47.8222C16.9048 47.9986 16.7247 47.4923 16.9819 47.8633C17.0003 47.8888 16.8188 48.0028 16.9067 48.0745C17.1065 48.2382 17.5476 48.4315 17.7171 48.5319C18.0435 48.7273 18.1011 48.7525 18.4253 48.9051C18.8681 49.114 19.3714 49.4265 19.8816 49.5724C19.9903 49.6028 19.9189 49.3707 20.0972 49.4021C20.2749 49.4342 20.7117 49.6037 20.8492 49.6954C20.9861 49.7881 20.8753 49.9109 20.8915 49.9527C21.0269 50.3063 21.6741 50.075 21.7424 50.0823C23.0185 50.2628 24.0489 50.6973 25.2532 50.843C26.1593 50.9509 27.1313 50.9303 28 50.9381C28.0072 50.9382 28.0144 50.9383 28.0216 50.9384C29.0619 50.9483 29.9472 50.9949 30.9531 50.8506C31.0586 50.8352 30.9061 50.6268 31.0338 50.6075C32.3914 50.4002 33.7191 50.1257 35.0732 49.8487C35.2095 49.8207 35.1011 50.0651 35.2418 50.0479C36.095 49.9517 37.5401 49.7783 37.6279 48.7737C38.1596 48.5657 38.7889 48.28 39.3228 48.1783C39.6674 48.1115 39.4944 48.4609 39.8045 48.1743C39.874 48.1095 39.6744 48.0071 39.7848 47.9226C40.2485 47.5677 40.8149 47.2746 41.2281 46.8638C41.3117 46.7801 41.1873 46.6597 41.1963 46.6159C41.2752 46.2575 41.8822 46.3143 41.9818 46.2743C42.7252 45.9818 43.105 45.5465 43.6369 45.0688C43.7602 44.9572 43.4614 44.9222 43.5735 44.8093C44.1548 44.2264 44.7581 43.6307 45.3645 43.0871C45.4998 42.9662 45.5384 43.2187 45.6108 43.1669C45.9292 42.9336 45.7008 42.6335 45.9901 42.4014C46.0507 42.3517 46.1538 42.4893 46.1769 42.4897C46.5402 42.4946 46.3377 42.0907 46.3641 42.0414C46.6963 41.4019 47.3066 41.2709 47.639 40.65C47.6776 40.5759 47.3997 40.6191 47.518 40.4187C48.3032 39.0832 49.0852 37.6543 49.7887 36.2703C49.8977 36.0545 49.9854 36.2705 50.009 36.2634C50.3825 36.1353 50.0522 35.8436 50.0635 35.7657C50.1634 35.1502 50.6593 34.6884 50.3018 34.1536C50.9878 32.1697 51.1163 30.0768 51.2763 28C51.3158 27.4828 51.3579 26.9742 51.4101 26.4504C51.4129 26.4168 51.6175 26.4635 51.6223 26.3961C51.6747 25.5839 51.3722 25.7627 50.9362 25.2861C50.8269 25.1689 51.2318 24.7128 51.2592 24.6708C51.3641 24.5239 51.6795 24.6157 51.6972 24.5688C51.8305 24.1768 50.8633 24.3837 50.7815 23.9132C50.7805 23.898 50.9709 23.9287 50.9816 23.8855C51.0154 23.7509 50.9213 23.6409 50.9593 23.5079C51.0471 23.205 51.4971 22.9983 51.1261 22.6296C51.0776 22.5843 50.5524 22.7904 50.4762 22.3691C50.4489 22.2004 50.2384 21.47 50.2085 21.2581C50.1813 21.0447 50.3966 21.1306 50.3998 21.114C50.4544 20.4891 50.6138 20.6684 50.8565 20.2747C51.0935 19.8771 50.3248 20.2308 50.1973 20.1505C50.0709 20.0706 50.1084 19.6033 50.1331 19.4794C50.159 19.3562 50.3138 19.4379 50.3159 19.3358C50.3204 18.6578 49.827 19.236 49.6274 19.0986C49.1556 18.7848 49.5762 18.1977 49.4394 17.7682C49.4025 17.6533 49.3168 17.8028 49.2586 17.7129C49.0293 17.3589 49.0867 17.0425 48.7015 16.7073C48.6379 16.6505 48.1264 16.5026 48.2386 16.1518C48.2549 16.1013 48.4403 16.1093 48.3791 15.9372C48.2887 15.6803 48.0604 15.2489 47.8581 15.0366C47.709 14.88 47.6293 15.2238 47.5486 14.9585C47.5122 14.8404 47.7595 14.9397 47.6797 14.7238C47.6011 14.5075 47.2652 14.0443 47.1306 13.874C46.997 13.7031 46.9121 13.9148 46.8912 13.9085C46.7686 13.868 46.4443 13.6001 46.4216 13.5722C45.281 12.1602 44.3101 10.7134 42.843 9.65955C42.7285 9.57756 42.6728 9.79602 42.654 9.78515C42.227 9.5547 42.8625 9.36302 42.7063 9.00906C42.4898 9.36787 42.3794 9.18431 42.0793 9.01784C41.9344 8.93838 41.9106 9.12113 41.8888 9.12546C41.5513 9.18051 41.6003 8.82861 41.6013 8.75009C41.6068 8.46265 41.302 8.59361 41.3014 8.40115C41.2985 8.20877 41.6417 8.1582 41.3649 7.9754C41.2059 8.04823 41.1906 8.5056 40.9508 8.4216C40.0604 8.09768 38.7085 7.00259 38.0299 6.66426C37.366 6.32039 37.1292 6.25682 36.746 6.04341C36.0459 5.6666 36.2106 6.04089 35.713 6.00188C35.2138 5.9693 35.662 5.37351 35.6443 5.20589C35.6256 5.03872 35.5029 5.16354 35.4453 5.05669C35.3873 4.94982 35.6014 4.90977 35.4128 4.81602C35.2219 4.71994 34.6019 4.82024 34.4899 4.95617C34.2518 5.24155 34.3973 5.64691 33.9183 5.39007C33.8905 5.37518 34.0341 5.21963 33.9249 5.17173C33.0577 4.79821 32.097 4.60121 31.1817 4.3517C31.0554 4.31712 31.1976 4.12631 31.1239 4.10388C30.3505 3.87612 30.5874 4.25911 30.1294 4.60486C30.2721 4.0993 30.0648 3.75548 29.4534 3.71479C29.086 3.6924 29.14 3.92248 28.901 4.07222C28.8302 4.11729 28.5797 3.95482 28.5307 4.06047C28.3719 4.40589 28.6024 4.79465 28 4.63673C27.9998 4.63666 27.9995 4.6366 27.9992 4.63654C27.9899 4.63394 27.9943 4.60861 28 4.5764C28.0075 4.53402 28.0172 4.47973 28 4.44958C27.9932 4.43763 27.9822 4.42948 27.9651 4.42738C27.3644 4.35659 27.3025 4.7212 26.6727 4.79683C26.1779 4.85574 25.2753 4.71833 24.7016 4.7663C24.6352 4.18661 24.1017 4.40064 23.9549 4.83547C23.5848 4.88277 23.1974 4.98302 22.8328 5.00797C22.7076 5.01676 22.7498 4.83449 22.7306 4.82016C22.4296 4.59547 22.3598 5.01504 22.2866 5.04893C21.4795 5.40415 20.706 5.33224 20.0172 5.88641C19.9925 5.90661 20.0879 6.30119 19.7784 6.10173C19.7573 6.08804 19.9511 5.81833 19.5787 5.94369C19.2089 6.06728 18.434 6.15388 18.0172 6.55776C17.9149 6.65481 17.7613 7.09177 17.4095 6.98269C17.3621 6.96767 17.3446 6.84651 17.2693 6.81233C17.0256 6.70564 17.1337 7.10976 16.7977 6.89494C16.4628 6.67999 15.9584 6.6554 15.5944 7.15129C15.5821 7.16676 15.635 7.51212 15.4836 7.59924C15.2408 7.73793 14.8696 7.89607 14.628 8.06165C14.5125 8.14089 14.6995 8.2574 14.6814 8.27403C13.9747 8.8932 13.3401 9.14531 12.5172 9.73571C12.3643 9.84468 12.1504 10.3957 11.7441 10.4791C11.2962 10.5763 10.91 9.56951 10.4037 10.3964C10.1956 10.7386 10.7881 11.9244 9.8736 11.9777C9.15286 13.0374 8.16896 13.7885 7.66356 14.9992C7.64055 15.0538 7.8391 15.3934 7.76536 15.5039C7.65464 15.6684 7.45869 15.6774 7.37645 15.7947C7.02885 16.285 6.8901 16.8329 6.61423 17.3357C6.51021 17.5277 6.39184 17.3845 6.26939 17.6167C6.14809 17.8498 6.27691 18.0993 6.03632 18.3787C5.85459 18.5895 5.32985 18.662 5.14622 18.9819C5.55876 19.16 5.4573 19.3847 5.42059 19.833C5.41402 19.9189 5.59108 19.8883 5.59561 19.9315C5.61775 20.1076 5.4472 20.2036 5.48167 20.375C5.48985 20.4164 5.63451 20.467 5.64956 20.5034C5.78278 20.8124 5.33181 21.1044 5.25382 21.1578C4.95624 21.3578 5.11248 21.5389 4.9699 21.7198C4.82767 21.9025 4.80253 21.5641 4.68496 21.7923C4.44134 22.2657 4.31518 22.9302 4.21094 23.4478C4.17005 23.6551 4.39776 23.5508 4.39657 23.5814C4.36816 24.0142 4.08661 24.4215 4.45793 24.7132C3.37489 24.8707 4.52031 24.9839 4.24598 25.5699C4.22433 25.6155 3.72188 25.6311 3.66867 25.4329C3.61581 25.2336 3.80373 24.964 3.72639 24.6872C3.70737 24.6228 3.29761 24.1972 3.27838 24.1411C3.1219 23.7142 3.86757 23.7859 3.91067 23.7736C4.38336 23.6245 3.97222 23.1077 3.96342 22.9833C3.91679 22.4267 4.12561 22.0126 4.13209 21.5509C4.13798 21.2497 3.67753 21.0881 3.7576 20.8663C4.03127 20.1266 4.75801 20.1016 4.4537 19.2179C4.39168 19.0279 3.83534 18.9808 4.43412 18.6033C4.4722 18.5775 4.98263 18.3393 4.85628 18.0228C4.84027 17.9828 4.69736 17.922 4.70152 17.8797C4.73283 17.597 4.91987 17.483 4.99106 17.1916C5.06225 16.9007 5.14148 16.5393 5.34419 16.2635C5.46619 16.0962 5.84411 16.0051 5.95232 15.9554C6.26041 15.817 6.11404 15.3998 6.41277 15.3791C6.71149 15.3617 6.87257 15.8289 7.22982 15.5425C6.89209 15.3211 6.5566 15.0755 6.22339 14.8423C6.74769 14.0044 7.4028 13.2819 7.99067 12.4948C8.0636 12.3969 7.81544 12.3623 7.89003 12.2533C8.20777 11.7932 8.63725 11.5198 8.97291 11.0498C9.23228 10.6856 9.40184 10.1695 9.69485 9.79318C10.2236 9.91385 10.6074 9.32444 11.0131 9.02059C11.1541 8.91426 11.2272 9.01459 11.347 8.96284C11.7979 8.76854 11.3667 8.6032 11.4236 8.46973C11.678 7.89839 12.2994 8.58127 12.7888 8.17195C12.8131 8.15101 12.8525 7.50501 12.8835 7.4452C13.0658 7.06434 13.0341 7.54677 13.2425 7.44084C13.6245 7.24929 13.9281 7.18221 14.2616 6.79258C14.3573 6.67904 14.4894 6.23127 14.8545 6.28793C14.9022 6.29538 14.9691 6.44512 14.9992 6.43803C15.5367 6.30149 15.2926 5.85563 15.4798 5.5508C15.6693 5.24517 16.2619 5.3326 16.393 5.38051C16.7375 5.49957 16.2728 5.56867 16.2729 5.5987C16.2751 5.94494 16.5525 5.73785 16.7977 5.64449C17.0565 6.07474 17.3635 5.89071 17.0511 5.54678C17.016 5.50944 16.8546 5.64129 16.7977 5.64449C16.7803 5.10256 17.132 4.86034 17.7269 5.09735C18.005 5.21039 17.9257 5.51482 18.4621 5.18685C18.7067 5.04049 18.4744 4.76269 18.6749 4.58062C19.139 4.16288 19.9614 4.21222 20.5147 3.98858C20.716 3.90706 20.4585 3.78868 20.5953 3.72679C20.9601 3.56231 21.3352 3.60442 21.7025 3.4353C21.7358 3.41978 21.6011 3.24992 21.7211 3.21686C22.6338 2.96459 23.4684 2.92832 24.4407 2.79386C24.9093 2.72663 25.7458 2.52943 26.2411 2.52093C26.7974 2.50635 27.4255 2.61217 28 2.68196C28.3173 2.72023 28.6143 2.74672 28.872 2.73061C29.3441 2.70379 29.2492 2.50358 29.4623 2.37951C29.879 2.13849 30.5401 2.66847 30.621 2.75149C30.6229 2.75342 30.2153 2.76155 30.4209 2.883C30.5247 3.1055 30.6158 2.75192 30.621 2.75149C30.6791 2.80134 31.4807 2.94292 31.6441 2.93197C31.7336 2.92407 31.7123 2.73158 31.7588 2.73109C32.8701 2.72545 33.973 2.91213 35.0264 3.30242C35.0442 3.31144 34.9586 3.50503 35.001 3.52365C35.5889 3.78997 36.056 3.67344 36.6128 3.70785C37.1681 3.74332 37.5554 3.95215 37.7076 4.40399C38.0956 4.51328 38.5582 4.89396 38.8106 5.1217C39.0632 5.34882 39.284 5.00454 39.3141 5.00997C40.2468 5.18712 40.6074 5.65149 41.3914 6.1707C41.7663 6.41798 42.54 6.85958 42.9607 7.11105C43.2948 7.30727 43.4228 7.52286 43.7407 7.69134C43.7836 7.71436 43.8568 7.54107 43.8727 7.54456C44.3218 7.62002 43.895 7.8506 43.9099 7.96325C43.9609 8.37367 44.0003 8.60099 44.4676 8.82179C44.5737 8.87141 45.2514 8.61444 45.438 8.7337C45.6774 8.88773 45.4444 8.98467 45.6958 9.14317C45.717 9.15705 45.8104 9.05 45.9376 9.17956C46.5292 9.78004 47.1003 10.4996 47.6769 11.1517C47.7554 11.2415 47.8265 10.979 47.9432 11.1074C48.4907 11.7103 49.0309 12.428 49.3956 13.138C49.4847 13.3131 49.2858 13.302 49.2714 13.3631C49.1845 13.733 49.7243 13.8071 49.7646 13.8555C50.7169 14.97 50.9254 16.1211 51.6904 17.3779C51.7327 17.4428 52.3865 17.8442 52.1393 18.2443C52.1238 18.2725 51.8658 18.664 52.1967 18.793C52.2174 18.8014 52.3427 18.5709 52.429 18.8567C52.5148 19.1415 52.8006 19.5506 52.7182 20.0076C52.6932 20.1539 52.4166 20.5511 52.8162 20.8301C52.8437 20.8428 53.674 21.2412 53.2615 21.5695C53.1931 21.6229 52.696 21.7095 53.0534 22.0889C53.1222 22.1622 53.1964 21.9817 53.317 22.1907C53.5027 22.5136 53.4649 22.9982 53.7628 23.3879C53.8155 23.4543 54.2108 23.7234 53.9921 24.0244C53.9578 24.0708 53.7793 24.0198 53.7808 24.1578C53.7861 24.8122 53.9731 25.4817 53.9026 26.1487C53.8774 26.3848 53.5972 26.2838 53.5384 26.5285C53.4801 26.7744 53.4279 27.252 53.5565 27.5012C53.6854 27.7514 54.1178 27.4665 54.1562 27.8514C54.1609 27.9009 54.1652 27.9504 54.169 28C54.2929 29.6285 53.9038 31.2264 53.573 32.7991C53.5215 33.0399 53.7141 32.8686 53.6459 33.2266C53.4159 34.5503 52.8558 36.8451 52.0867 37.7926C51.4864 38.5444 51.7476 37.3979 51.3768 38.0002C51.1988 38.2865 51.507 38.8277 51.4856 38.9108C51.2889 39.7122 50.8285 40.1088 50.5331 40.7723C50.4713 40.9097 50.7226 40.8834 50.6673 40.9999C50.4792 41.3991 50.1602 41.7458 49.9476 42.1066C49.8523 42.2687 50.0024 42.3254 49.8965 42.4641C49.6442 42.7957 49.3787 43.0618 49.0234 43.3003C48.9912 43.3216 48.978 43.0089 48.7937 43.249C48.4942 43.6389 48.0095 44.0254 47.7629 44.5515C47.69 44.7076 47.9583 44.9476 47.5336 45.0591C47.444 45.0822 47.1876 44.7257 47.1862 45.2845C47.1893 45.3763 47.0694 46.2453 46.5893 46.2686C46.4635 46.2754 46.051 46.1913 45.9471 46.3699C45.9337 46.3953 46.1467 46.4564 46.04 46.5866C45.66 47.0431 45.1873 47.4443 44.7615 47.8822C44.6475 47.9996 44.9621 47.9957 44.7865 48.1663C44.3035 48.6366 43.6026 49.1087 43.0299 49.4326C42.8184 49.552 42.8612 49.3209 42.8364 49.3163C42.4407 49.2361 42.5259 49.6527 42.4599 49.7245C42.0501 50.162 41.5721 50.2407 41.1362 50.5528C41.0148 50.6385 41.1998 50.7482 41.1827 50.7776C40.997 51.0734 41.028 50.6665 40.8412 50.7301C40.317 50.9063 39.7945 51.1973 39.3105 51.4573C39.1332 51.5525 39.4317 51.6511 39.2704 51.7345C38.3154 52.2314 37.2565 52.6322 36.2256 52.8457C36.031 52.8855 36.0968 52.6872 36.046 52.6635C35.6975 52.4961 35.4153 52.9628 35.3315 53.0231C34.9597 53.2963 34.7545 53.1975 34.392 53.3184C32.6121 53.9237 30.2763 54.1219 28.5194 54.0809C28.3437 54.0784 28.1706 54.0736 28 54.0668C25.9485 53.9746 24.3067 53.6583 22.3396 53.2687C22.204 53.2407 22.2914 53.4892 22.1732 53.4675C20.6453 53.1738 19.2129 52.6184 17.7585 52.0692C17.6387 52.0233 17.7259 52.291 17.5298 52.2229C17.1265 52.0842 16.6436 51.8473 16.2895 51.595C16.1175 51.4727 16.4482 51.4352 16.2746 51.3156C15.872 51.0368 15.425 50.7784 14.9776 50.5586C14.7869 50.465 14.9552 50.8135 14.7147 50.676C13.0783 49.7401 11.5379 48.6442 10.3334 47.1521C10.2506 47.0492 10.4684 46.6521 10.2147 46.5258C10.1154 46.5996 10.0166 46.7039 9.91964 46.7916C7.90079 44.945 6.36409 42.6687 5.09909 40.2601C5.04565 40.1581 4.93408 40.4442 4.82931 40.2459C4.22579 39.0975 3.65312 37.954 3.43166 36.6269C3.41019 36.4955 3.8176 36.425 3.63802 36.0843C3.60471 36.0248 3.37866 35.4936 3.25269 35.3758C3.23406 35.36 3.08065 35.5164 3.02228 35.3383C2.68622 34.2992 2.47778 33.1705 2.42462 32.0822C2.41653 31.9063 2.64655 32.0586 2.64282 31.9338C2.61632 31.0599 2.36841 30.1281 2.51293 29.2836C2.61285 28.7261 2.97449 28.9168 3.31235 28.6206C3.35967 28.5791 3.36203 28.2457 3.56413 28.227C4.07094 28.1803 4.62798 28.329 5.16796 28.2597C5.2835 28.2455 5.15718 27.8333 5.4391 28.0767C5.45755 28.094 5.55385 28.3894 5.65131 28.4592C5.71834 28.5079 5.92153 28.414 6.00821 28.5134C6.09496 28.6119 5.926 28.7281 6.03178 28.8913C6.13951 29.0539 6.36784 28.9686 6.41375 29.2966ZM39.9174 6.16993C40.0827 6.4848 40.4736 5.88107 40.103 5.87238C40.0846 5.87274 39.9085 6.1541 39.9174 6.16993ZM7.85436 13.6135C8.33534 13.4859 8.12241 12.9974 7.7611 13.0727C7.39782 13.1533 7.707 13.6552 7.85436 13.6135ZM5.99634 17.1631C6.41877 16.876 5.54798 16.3439 5.50951 16.8786C5.50707 16.9097 5.97167 17.1804 5.99634 17.1631ZM3.47853 29.9359C3.48744 29.9311 3.47938 29.6927 3.46984 29.6876C3.23313 29.5752 3.24949 30.0566 3.47853 29.9359ZM4.78157 20.9099C4.95229 20.8188 4.92378 20.3894 4.70781 20.5015C4.53242 20.5938 4.56702 21.0264 4.78157 20.9099ZM49.7503 17.6062C49.7427 17.6149 49.8056 17.77 49.8588 17.7413C50.0305 17.6481 49.8797 17.4596 49.7503 17.6062ZM3.74717 27.4579C3.81291 26.4702 4.70093 25.957 4.54708 26.9841C4.52128 27.1715 4.29839 26.5667 4.21113 26.8025C4.05218 27.2406 4.57246 27.5439 4.28849 27.9917C4.2356 28.076 3.74015 27.5163 3.74603 27.4561C3.74641 27.4567 3.74679 27.4573 3.74717 27.4579ZM39.6489 7.00647C39.6495 7.01735 39.8463 7.13843 39.8556 7.13322C40.0784 6.99716 39.678 6.7506 39.6489 7.00647ZM51.6378 27.046C51.6195 27.0592 51.6155 27.5866 51.633 27.6039C52.0133 27.8773 52.0231 26.7926 51.6378 27.046ZM24.6905 4.75218C24.4797 5.01316 24.1991 5.08537 23.956 4.83557C24.2003 4.80872 24.446 4.77241 24.6905 4.75218Z" fill="#E1DDD4"/>
<path fill-rule="evenodd" clip-rule="evenodd" d="M36.9233 26.1464C34.1233 25.9364 31.2999 25.7964 28.4533 25.843C28.4533 25.353 27.8233 16.7197 27.6366 16.5097C27.4499 16.2997 26.6799 16.113 26.3766 16.9764C26.0236 19.9501 25.8444 22.9418 25.8399 25.9364C24.6822 25.975 23.5285 26.0919 22.3866 26.2864C17.2999 27.4064 16.1099 27.453 16.3666 28.3864C16.3748 28.4686 16.3998 28.5482 16.4399 28.6205C16.48 28.6927 16.5345 28.7559 16.5999 28.8064C16.8333 28.9697 25.7933 28.5497 25.9333 28.5497C26.1899 32.003 26.5633 33.893 27.0299 37.533C27.0619 37.7172 27.1578 37.8842 27.3008 38.0045C27.4438 38.1248 27.6247 38.1908 27.8116 38.1908C27.9985 38.1908 28.1794 38.1248 28.3224 38.0045C28.4654 37.8842 28.5613 37.7172 28.5933 37.533V28.4797C31.3699 28.223 34.1466 27.8964 36.9233 27.7797C37.1399 27.7797 37.3476 27.6937 37.5007 27.5405C37.6539 27.3874 37.7399 27.1796 37.7399 26.963C37.7399 26.7464 37.6539 26.5387 37.5007 26.3856C37.3476 26.2324 37.1399 26.1464 36.9233 26.1464Z" fill="#522A00"/>
</svg>
