<svg width="64" height="64" viewBox="0 0 64 64" fill="none" xmlns="http://www.w3.org/2000/svg">
<path d="M8 32C8 18.7452 18.7452 8 32 8C45.2548 8 56 18.7452 56 32C56 45.2548 45.2548 56 32 56C18.7452 56 8 45.2548 8 32Z" fill="#E1DDD4"/>
<path d="M10.4137 33.2966C10.5178 34.0549 10.5667 35.0455 10.6129 35.8139C10.6271 36.0539 10.4804 35.9579 10.486 36.1255C10.4981 36.4529 10.6228 36.7384 10.6391 37.0639C10.6441 37.1724 10.4172 37.0894 10.4273 37.2029C10.4858 37.8261 10.6961 38.379 10.8525 38.99C11.6269 42.0041 13.1483 44.7856 15.225 47.2121C15.9051 48.0126 16.7177 49.0392 17.6227 49.6683C17.7278 49.7415 17.78 49.556 17.808 49.5599C18.2417 49.6218 17.9211 49.8222 18.0885 50.0131C18.7538 50.7676 19.6762 51.4047 20.5375 51.8222C20.9048 51.9986 20.7247 51.4923 20.9819 51.8633C21.0003 51.8888 20.8188 52.0028 20.9067 52.0745C21.1065 52.2382 21.5476 52.4315 21.7171 52.5319C22.0435 52.7273 22.1011 52.7525 22.4253 52.9051C22.8681 53.114 23.3714 53.4265 23.8816 53.5724C23.9903 53.6028 23.9189 53.3707 24.0972 53.4021C24.2749 53.4342 24.7117 53.6037 24.8492 53.6954C24.9861 53.7881 24.8753 53.9109 24.8915 53.9527C25.0269 54.3063 25.6741 54.075 25.7424 54.0823C27.0185 54.2628 28.0489 54.6973 29.2532 54.843C30.1593 54.9509 31.1313 54.9303 32 54.9381C32.0072 54.9382 32.0144 54.9383 32.0216 54.9384C33.0619 54.9483 33.9472 54.9949 34.9531 54.8506C35.0586 54.8352 34.9061 54.6268 35.0338 54.6075C36.3914 54.4002 37.7191 54.1257 39.0732 53.8487C39.2095 53.8207 39.1011 54.0651 39.2418 54.0479C40.095 53.9517 41.5401 53.7783 41.6279 52.7737C42.1596 52.5657 42.7889 52.28 43.3228 52.1783C43.6674 52.1115 43.4944 52.4609 43.8045 52.1743C43.874 52.1095 43.6744 52.0071 43.7848 51.9226C44.2485 51.5677 44.8149 51.2746 45.2281 50.8638C45.3117 50.7801 45.1873 50.6597 45.1963 50.6159C45.2752 50.2575 45.8822 50.3143 45.9818 50.2743C46.7252 49.9818 47.105 49.5465 47.6369 49.0688C47.7602 48.9572 47.4614 48.9222 47.5735 48.8093C48.1548 48.2264 48.7581 47.6307 49.3645 47.0871C49.4998 46.9662 49.5384 47.2187 49.6108 47.1669C49.9292 46.9336 49.7008 46.6335 49.9901 46.4014C50.0507 46.3517 50.1538 46.4893 50.1769 46.4897C50.5402 46.4946 50.3377 46.0907 50.3641 46.0414C50.6963 45.4019 51.3066 45.2709 51.639 44.65C51.6776 44.5759 51.3997 44.6191 51.518 44.4187C52.3032 43.0832 53.0852 41.6543 53.7887 40.2703C53.8977 40.0545 53.9854 40.2705 54.009 40.2634C54.3825 40.1353 54.0522 39.8436 54.0635 39.7657C54.1634 39.1502 54.6593 38.6884 54.3018 38.1536C54.9878 36.1697 55.1163 34.0768 55.2763 32C55.3158 31.4828 55.3579 30.9742 55.4101 30.4504C55.4129 30.4168 55.6175 30.4635 55.6223 30.3961C55.6747 29.5839 55.3722 29.7627 54.9362 29.2861C54.8269 29.1689 55.2318 28.7128 55.2592 28.6708C55.3641 28.5239 55.6795 28.6157 55.6972 28.5688C55.8305 28.1768 54.8633 28.3837 54.7815 27.9132C54.7805 27.898 54.9709 27.9287 54.9816 27.8855C55.0154 27.7509 54.9213 27.6409 54.9593 27.5079C55.0471 27.205 55.4971 26.9983 55.1261 26.6296C55.0776 26.5843 54.5524 26.7904 54.4762 26.3691C54.4489 26.2004 54.2384 25.47 54.2085 25.2581C54.1813 25.0447 54.3966 25.1306 54.3998 25.114C54.4544 24.4891 54.6138 24.6684 54.8565 24.2747C55.0935 23.8771 54.3248 24.2308 54.1973 24.1505C54.0709 24.0706 54.1084 23.6033 54.1331 23.4794C54.159 23.3562 54.3138 23.4379 54.3159 23.3358C54.3204 22.6578 53.827 23.236 53.6274 23.0986C53.1556 22.7848 53.5762 22.1977 53.4394 21.7682C53.4025 21.6533 53.3168 21.8028 53.2586 21.7129C53.0293 21.3589 53.0867 21.0425 52.7015 20.7073C52.6379 20.6505 52.1264 20.5026 52.2386 20.1518C52.2549 20.1013 52.4403 20.1093 52.3791 19.9372C52.2887 19.6803 52.0604 19.2489 51.8581 19.0366C51.709 18.88 51.6293 19.2238 51.5486 18.9585C51.5122 18.8404 51.7595 18.9397 51.6797 18.7238C51.6011 18.5075 51.2652 18.0443 51.1306 17.874C50.997 17.7031 50.9121 17.9148 50.8912 17.9085C50.7686 17.868 50.4443 17.6001 50.4216 17.5722C49.281 16.1602 48.3101 14.7134 46.843 13.6596C46.7285 13.5776 46.6728 13.796 46.654 13.7852C46.227 13.5547 46.8625 13.363 46.7063 13.0091C46.4898 13.3679 46.3794 13.1843 46.0793 13.0178C45.9344 12.9384 45.9106 13.1211 45.8888 13.1255C45.5513 13.1805 45.6003 12.8286 45.6013 12.7501C45.6068 12.4626 45.302 12.5936 45.3014 12.4011C45.2985 12.2088 45.6417 12.1582 45.3649 11.9754C45.2059 12.0482 45.1906 12.5056 44.9508 12.4216C44.0604 12.0977 42.7085 11.0026 42.0299 10.6643C41.366 10.3204 41.1292 10.2568 40.746 10.0434C40.0459 9.6666 40.2106 10.0409 39.713 10.0019C39.2138 9.9693 39.662 9.37351 39.6443 9.20589C39.6256 9.03872 39.5029 9.16354 39.4453 9.05669C39.3873 8.94982 39.6014 8.90977 39.4128 8.81602C39.2219 8.71994 38.6019 8.82024 38.4899 8.95617C38.2518 9.24155 38.3973 9.64691 37.9183 9.39007C37.8905 9.37518 38.0341 9.21963 37.9249 9.17173C37.0577 8.79821 36.097 8.60121 35.1817 8.3517C35.0554 8.31712 35.1976 8.12631 35.1239 8.10388C34.3505 7.87612 34.5874 8.25911 34.1294 8.60486C34.2721 8.0993 34.0648 7.75548 33.4534 7.71479C33.086 7.6924 33.14 7.92248 32.901 8.07222C32.8302 8.11729 32.5797 7.95482 32.5307 8.06047C32.3719 8.40589 32.6024 8.79465 32 8.63673C31.9998 8.63666 31.9995 8.6366 31.9992 8.63654C31.9899 8.63394 31.9943 8.60861 32 8.5764C32.0075 8.53402 32.0172 8.47973 32 8.44958C31.9932 8.43763 31.9822 8.42948 31.9651 8.42738C31.3644 8.35659 31.3025 8.7212 30.6727 8.79683C30.1779 8.85574 29.2753 8.71833 28.7016 8.7663C28.6352 8.18661 28.1017 8.40064 27.9549 8.83547C27.5848 8.88277 27.1974 8.98302 26.8328 9.00797C26.7076 9.01676 26.7498 8.83449 26.7306 8.82016C26.4296 8.59547 26.3598 9.01504 26.2866 9.04893C25.4795 9.40415 24.706 9.33224 24.0172 9.88641C23.9925 9.90661 24.0879 10.3012 23.7784 10.1017C23.7573 10.088 23.9511 9.81833 23.5787 9.94369C23.2089 10.0673 22.434 10.1539 22.0172 10.5578C21.9149 10.6548 21.7613 11.0918 21.4095 10.9827C21.3621 10.9677 21.3446 10.8465 21.2693 10.8123C21.0256 10.7056 21.1337 11.1098 20.7977 10.8949C20.4628 10.68 19.9584 10.6554 19.5944 11.1513C19.5821 11.1668 19.635 11.5121 19.4836 11.5992C19.2408 11.7379 18.8696 11.8961 18.628 12.0616C18.5125 12.1409 18.6995 12.2574 18.6814 12.274C17.9747 12.8932 17.3401 13.1453 16.5172 13.7357C16.3643 13.8447 16.1504 14.3957 15.7441 14.4791C15.2962 14.5763 14.91 13.5695 14.4037 14.3964C14.1956 14.7386 14.7881 15.9244 13.8736 15.9777C13.1529 17.0374 12.169 17.7885 11.6636 18.9992C11.6405 19.0538 11.8391 19.3934 11.7654 19.5039C11.6546 19.6684 11.4587 19.6774 11.3764 19.7947C11.0288 20.285 10.8901 20.8329 10.6142 21.3357C10.5102 21.5277 10.3918 21.3845 10.2694 21.6167C10.1481 21.8498 10.2769 22.0993 10.0363 22.3787C9.85459 22.5895 9.32985 22.662 9.14622 22.9819C9.55876 23.16 9.4573 23.3847 9.42059 23.833C9.41402 23.9189 9.59108 23.8883 9.59561 23.9315C9.61775 24.1076 9.4472 24.2036 9.48167 24.375C9.48985 24.4164 9.63451 24.467 9.64956 24.5034C9.78278 24.8124 9.33181 25.1044 9.25382 25.1578C8.95624 25.3578 9.11248 25.5389 8.9699 25.7198C8.82767 25.9025 8.80253 25.5641 8.68496 25.7923C8.44134 26.2657 8.31518 26.9302 8.21094 27.4478C8.17005 27.6551 8.39776 27.5508 8.39657 27.5814C8.36816 28.0142 8.08661 28.4215 8.45793 28.7132C7.37489 28.8707 8.52031 28.9839 8.24598 29.5699C8.22433 29.6155 7.72188 29.6311 7.66867 29.4329C7.61581 29.2336 7.80373 28.964 7.72639 28.6872C7.70737 28.6228 7.29761 28.1972 7.27838 28.1411C7.1219 27.7142 7.86757 27.7859 7.91067 27.7736C8.38336 27.6245 7.97222 27.1077 7.96342 26.9833C7.91679 26.4267 8.12561 26.0126 8.13209 25.5509C8.13798 25.2497 7.67753 25.0881 7.7576 24.8663C8.03127 24.1266 8.75801 24.1016 8.4537 23.2179C8.39168 23.0279 7.83534 22.9808 8.43412 22.6033C8.4722 22.5775 8.98263 22.3393 8.85628 22.0228C8.84027 21.9828 8.69736 21.922 8.70152 21.8797C8.73283 21.597 8.91987 21.483 8.99106 21.1916C9.06225 20.9007 9.14148 20.5393 9.34419 20.2635C9.46619 20.0962 9.84411 20.0051 9.95232 19.9554C10.2604 19.817 10.114 19.3998 10.4128 19.3791C10.7115 19.3617 10.8726 19.8289 11.2298 19.5425C10.8921 19.3211 10.5566 19.0755 10.2234 18.8423C10.7477 18.0044 11.4028 17.2819 11.9907 16.4948C12.0636 16.3969 11.8154 16.3623 11.89 16.2533C12.2078 15.7932 12.6373 15.5198 12.9729 15.0498C13.2323 14.6856 13.4018 14.1695 13.6949 13.7932C14.2236 13.9138 14.6074 13.3244 15.0131 13.0206C15.1541 12.9143 15.2272 13.0146 15.347 12.9628C15.7979 12.7685 15.3667 12.6032 15.4236 12.4697C15.678 11.8984 16.2994 12.5813 16.7888 12.1719C16.8131 12.151 16.8525 11.505 16.8835 11.4452C17.0658 11.0643 17.0341 11.5468 17.2425 11.4408C17.6245 11.2493 17.9281 11.1822 18.2616 10.7926C18.3573 10.679 18.4894 10.2313 18.8545 10.2879C18.9022 10.2954 18.9691 10.4451 18.9992 10.438C19.5367 10.3015 19.2926 9.85563 19.4798 9.5508C19.6693 9.24517 20.2619 9.3326 20.393 9.38051C20.7375 9.49957 20.2728 9.56867 20.2729 9.5987C20.2751 9.94494 20.5525 9.73785 20.7977 9.64449C21.0565 10.0747 21.3635 9.89071 21.0511 9.54678C21.016 9.50944 20.8546 9.64129 20.7977 9.64449C20.7803 9.10256 21.132 8.86034 21.7269 9.09735C22.005 9.21039 21.9257 9.51482 22.4621 9.18685C22.7067 9.04049 22.4744 8.76269 22.6749 8.58062C23.139 8.16288 23.9614 8.21222 24.5147 7.98858C24.716 7.90706 24.4585 7.78868 24.5953 7.72679C24.9601 7.56231 25.3352 7.60442 25.7025 7.4353C25.7358 7.41978 25.6011 7.24992 25.7211 7.21686C26.6338 6.96459 27.4684 6.92832 28.4407 6.79386C28.9093 6.72663 29.7458 6.52943 30.2411 6.52093C30.7974 6.50635 31.4255 6.61217 32 6.68196C32.3173 6.72023 32.6143 6.74672 32.872 6.73061C33.3441 6.70379 33.2492 6.50358 33.4623 6.37951C33.879 6.13849 34.5401 6.66847 34.621 6.75149C34.6229 6.75342 34.2153 6.76155 34.4209 6.883C34.5247 7.1055 34.6158 6.75192 34.621 6.75149C34.6791 6.80134 35.4807 6.94292 35.6441 6.93197C35.7336 6.92407 35.7123 6.73158 35.7588 6.73109C36.8701 6.72545 37.973 6.91213 39.0264 7.30242C39.0442 7.31144 38.9586 7.50503 39.001 7.52365C39.5889 7.78997 40.056 7.67344 40.6128 7.70785C41.1681 7.74332 41.5554 7.95215 41.7076 8.40399C42.0956 8.51328 42.5582 8.89396 42.8106 9.1217C43.0632 9.34882 43.284 9.00454 43.3141 9.00997C44.2468 9.18712 44.6074 9.65149 45.3914 10.1707C45.7663 10.418 46.54 10.8596 46.9607 11.111C47.2948 11.3073 47.4228 11.5229 47.7407 11.6913C47.7836 11.7144 47.8568 11.5411 47.8727 11.5446C48.3218 11.62 47.895 11.8506 47.9099 11.9632C47.9609 12.3737 48.0003 12.601 48.4676 12.8218C48.5737 12.8714 49.2514 12.6144 49.438 12.7337C49.6774 12.8877 49.4444 12.9847 49.6958 13.1432C49.717 13.157 49.8104 13.05 49.9376 13.1796C50.5292 13.78 51.1003 14.4996 51.6769 15.1517C51.7554 15.2415 51.8265 14.979 51.9432 15.1074C52.4907 15.7103 53.0309 16.428 53.3956 17.138C53.4847 17.3131 53.2858 17.302 53.2714 17.3631C53.1845 17.733 53.7243 17.8071 53.7646 17.8555C54.7169 18.97 54.9254 20.1211 55.6904 21.3779C55.7327 21.4428 56.3865 21.8442 56.1393 22.2443C56.1238 22.2725 55.8658 22.664 56.1967 22.793C56.2174 22.8014 56.3427 22.5709 56.429 22.8567C56.5148 23.1415 56.8006 23.5506 56.7182 24.0076C56.6932 24.1539 56.4166 24.5511 56.8162 24.8301C56.8437 24.8428 57.674 25.2412 57.2615 25.5695C57.1931 25.6229 56.696 25.7095 57.0534 26.0889C57.1222 26.1622 57.1964 25.9817 57.317 26.1907C57.5027 26.5136 57.4649 26.9982 57.7628 27.3879C57.8155 27.4543 58.2108 27.7234 57.9921 28.0244C57.9578 28.0708 57.7793 28.0198 57.7808 28.1578C57.7861 28.8122 57.9731 29.4817 57.9026 30.1487C57.8774 30.3848 57.5972 30.2838 57.5384 30.5285C57.4801 30.7744 57.4279 31.252 57.5565 31.5012C57.6854 31.7514 58.1178 31.4665 58.1562 31.8514C58.1609 31.9009 58.1652 31.9504 58.169 32C58.2929 33.6285 57.9038 35.2264 57.573 36.7991C57.5215 37.0399 57.7141 36.8686 57.6459 37.2266C57.4159 38.5503 56.8558 40.8451 56.0867 41.7926C55.4864 42.5444 55.7476 41.3979 55.3768 42.0002C55.1988 42.2865 55.507 42.8277 55.4856 42.9108C55.2889 43.7122 54.8285 44.1088 54.5331 44.7723C54.4713 44.9097 54.7226 44.8834 54.6673 44.9999C54.4792 45.3991 54.1602 45.7458 53.9476 46.1066C53.8523 46.2687 54.0024 46.3254 53.8965 46.4641C53.6442 46.7957 53.3787 47.0618 53.0234 47.3003C52.9912 47.3216 52.978 47.0089 52.7937 47.249C52.4942 47.6389 52.0095 48.0254 51.7629 48.5515C51.69 48.7076 51.9583 48.9476 51.5336 49.0591C51.444 49.0822 51.1876 48.7257 51.1862 49.2845C51.1893 49.3763 51.0694 50.2453 50.5893 50.2686C50.4635 50.2754 50.051 50.1913 49.9471 50.3699C49.9337 50.3953 50.1467 50.4564 50.04 50.5866C49.66 51.0431 49.1873 51.4443 48.7615 51.8822C48.6475 51.9996 48.9621 51.9957 48.7865 52.1663C48.3035 52.6366 47.6026 53.1087 47.0299 53.4326C46.8184 53.552 46.8612 53.3209 46.8364 53.3163C46.4407 53.2361 46.5259 53.6527 46.4599 53.7245C46.0501 54.162 45.5721 54.2407 45.1362 54.5528C45.0148 54.6385 45.1998 54.7482 45.1827 54.7776C44.997 55.0734 45.028 54.6665 44.8412 54.7301C44.317 54.9063 43.7945 55.1973 43.3105 55.4573C43.1332 55.5525 43.4317 55.6511 43.2704 55.7345C42.3154 56.2314 41.2565 56.6322 40.2256 56.8457C40.031 56.8855 40.0968 56.6872 40.046 56.6635C39.6975 56.4961 39.4153 56.9628 39.3315 57.0231C38.9597 57.2963 38.7545 57.1975 38.392 57.3184C36.6121 57.9237 34.2763 58.1219 32.5194 58.0809C32.3437 58.0784 32.1706 58.0736 32 58.0668C29.9485 57.9746 28.3067 57.6583 26.3396 57.2687C26.204 57.2407 26.2914 57.4892 26.1732 57.4675C24.6453 57.1738 23.2129 56.6184 21.7585 56.0692C21.6387 56.0233 21.7259 56.291 21.5298 56.2229C21.1265 56.0842 20.6436 55.8473 20.2895 55.595C20.1175 55.4727 20.4482 55.4352 20.2746 55.3156C19.872 55.0368 19.425 54.7784 18.9776 54.5586C18.7869 54.465 18.9552 54.8135 18.7147 54.676C17.0783 53.7401 15.5379 52.6442 14.3334 51.1521C14.2506 51.0492 14.4684 50.6521 14.2147 50.5258C14.1154 50.5996 14.0166 50.7039 13.9196 50.7916C11.9008 48.945 10.3641 46.6687 9.09909 44.2601C9.04565 44.1581 8.93408 44.4442 8.82931 44.2459C8.22579 43.0975 7.65312 41.954 7.43166 40.6269C7.41019 40.4955 7.8176 40.425 7.63802 40.0843C7.60471 40.0248 7.37866 39.4936 7.25269 39.3758C7.23406 39.36 7.08065 39.5164 7.02228 39.3383C6.68622 38.2992 6.47778 37.1705 6.42462 36.0822C6.41653 35.9063 6.64655 36.0586 6.64282 35.9338C6.61632 35.0599 6.36841 34.1281 6.51293 33.2836C6.61285 32.7261 6.97449 32.9168 7.31235 32.6206C7.35967 32.5791 7.36203 32.2457 7.56413 32.227C8.07094 32.1803 8.62798 32.329 9.16796 32.2597C9.2835 32.2455 9.15718 31.8333 9.4391 32.0767C9.45755 32.094 9.55385 32.3894 9.65131 32.4592C9.71834 32.5079 9.92153 32.414 10.0082 32.5134C10.095 32.6119 9.926 32.7281 10.0318 32.8913C10.1395 33.0539 10.3678 32.9686 10.4137 33.2966ZM43.9174 10.1699C44.0827 10.4848 44.4736 9.88107 44.103 9.87238C44.0846 9.87274 43.9085 10.1541 43.9174 10.1699ZM11.8544 17.6135C12.3353 17.4859 12.1224 16.9974 11.7611 17.0727C11.3978 17.1533 11.707 17.6552 11.8544 17.6135ZM9.99634 21.1631C10.4188 20.876 9.54798 20.3439 9.50951 20.8786C9.50707 20.9097 9.97167 21.1804 9.99634 21.1631ZM7.47853 33.9359C7.48744 33.9311 7.47938 33.6927 7.46984 33.6876C7.23313 33.5752 7.24949 34.0566 7.47853 33.9359ZM8.78157 24.9099C8.95229 24.8188 8.92378 24.3894 8.70781 24.5015C8.53242 24.5938 8.56702 25.0264 8.78157 24.9099ZM53.7503 21.6062C53.7427 21.6149 53.8056 21.77 53.8588 21.7413C54.0305 21.6481 53.8797 21.4596 53.7503 21.6062ZM7.74717 31.4579C7.81291 30.4702 8.70093 29.957 8.54708 30.9841C8.52128 31.1715 8.29839 30.5667 8.21113 30.8025C8.05218 31.2406 8.57246 31.5439 8.28849 31.9917C8.2356 32.076 7.74015 31.5163 7.74603 31.4561C7.74641 31.4567 7.74679 31.4573 7.74717 31.4579ZM43.6489 11.0065C43.6495 11.0174 43.8463 11.1384 43.8556 11.1332C44.0784 10.9972 43.678 10.7506 43.6489 11.0065ZM55.6378 31.046C55.6195 31.0592 55.6155 31.5866 55.633 31.6039C56.0133 31.8773 56.0231 30.7926 55.6378 31.046ZM28.6905 8.75218C28.4797 9.01316 28.1991 9.08537 27.956 8.83557C28.2003 8.80872 28.446 8.77241 28.6905 8.75218Z" fill="#E1DDD4"/>
<path fill-rule="evenodd" clip-rule="evenodd" d="M43.9046 29.6792C40.8651 29.3856 37.8105 29.2787 34.7579 29.3592C30.3492 29.6063 25.992 30.4312 21.7979 31.8125C21.6797 31.864 21.5761 31.9442 21.4968 32.0458C21.4174 32.1475 21.3647 32.2674 21.3435 32.3946C21.3223 32.5218 21.3333 32.6523 21.3754 32.7742C21.4175 32.8961 21.4894 33.0055 21.5846 33.0925C22.2246 33.7325 21.2913 33.3059 28.9979 32.9059C39.4779 32.3725 39.6646 31.7592 43.8779 31.5725C44.1024 31.5381 44.3073 31.4253 44.4564 31.254C44.6055 31.0828 44.6891 30.8642 44.6923 30.6372C44.6955 30.4101 44.6181 30.1893 44.4739 30.0139C44.3297 29.8385 44.128 29.7199 43.9046 29.6792Z" fill="#522A00"/>
</svg>
