<svg width="245" height="56" viewBox="0 0 245 56" fill="none" xmlns="http://www.w3.org/2000/svg">
<path d="M0.888184 4H242.888V54H0.888184V4Z" fill="#522A00"/>
<path d="M6.45082 0.0406792C9.72339 -0.0635319 14.0132 0.047895 17.2734 0.200835C18.2952 0.248269 17.7778 0.460302 18.4831 0.502592C19.8626 0.585033 21.1477 0.481044 22.5109 0.579252C22.9627 0.612836 22.4004 0.948696 22.8741 0.976223C25.47 1.12465 27.9258 1.03911 30.5555 1.1105C43.5085 1.46274 56.2409 1.58882 69.3524 1.74185C73.6756 1.79202 78.931 2.09682 83.3964 1.96352C83.9177 1.94766 83.6069 1.65286 83.706 1.62856C85.2616 1.2566 84.7444 1.85174 85.7601 1.93081C89.7912 2.24302 94.2738 2.27017 98.1532 2.1564C99.8037 2.10713 98.1489 1.52158 99.8107 1.85024C99.9261 1.87245 99.5074 2.18551 99.96 2.2189C100.986 2.29399 102.934 2.23804 103.729 2.26284C105.263 2.31223 105.516 2.30908 106.966 2.31264C108.949 2.32025 111.307 2.47586 113.434 2.40493C113.888 2.38886 113.287 2.06794 114.011 2.01333C114.735 1.95881 116.653 1.98602 117.299 2.06167C117.945 2.13736 117.67 2.38959 117.785 2.44741C118.726 2.9354 120.943 2.25954 121.229 2.24282C126.431 1.95803 130.893 2.34304 135.776 2.34194C139.483 2.34029 143.448 2.21318 146.975 2.23061C151.178 2.25262 154.74 2.42652 158.823 2.39663C159.253 2.39384 158.749 2.01652 159.275 2.01235C164.866 1.96844 170.418 2.00958 175.985 2.2643C176.544 2.29018 175.824 2.62147 176.382 2.66714C179.797 2.9394 185.201 3.59343 187.229 2.15102C189.542 2.20735 192.351 2.26554 194.42 2.5563C195.755 2.74343 194.459 3.10434 196.098 2.95034C196.468 2.91603 195.987 2.59996 196.541 2.57241C198.875 2.4567 201.426 2.55944 203.735 2.39614C204.204 2.36218 204.076 2.07898 204.209 2.02798C205.328 1.61497 207.19 2.2977 207.596 2.34731C210.686 2.71726 212.943 2.57168 215.823 2.58071C216.491 2.58297 215.701 2.20256 216.344 2.19106C219.679 2.13654 223.133 2.16924 226.398 2.33804C227.124 2.3765 226.456 2.70054 226.804 2.73549C228.334 2.8857 228.673 2.27367 230.141 2.40591C230.45 2.433 230.276 2.7104 230.332 2.74087C231.216 3.21911 231.983 2.54147 232.21 2.52651C235.084 2.32209 236.921 3.02951 239.698 2.92934C240.03 2.91664 239.281 2.56565 240.215 2.55141C241.099 2.53763 241.991 2.52776 242.888 2.52178L244.346 2.50181L244.366 4C244.403 9.40963 244.297 15.0014 244.057 20.2829C244.013 21.2402 243.75 20.5568 243.717 20.617C243.209 21.5989 243.89 22.2342 243.915 22.5463C244.1 25.0089 243.529 27.3092 244.34 28.9824C244.114 37.3508 244.362 45.6883 244.094 54L244.111 55.1894L242.888 55.2061C240.841 55.1401 238.796 55.0428 236.752 54.8993C236.621 54.8909 236.857 54.5557 236.594 54.5404C233.435 54.3522 234.042 54.8731 231.952 55.5101C231.425 55.6701 229.823 54.901 229.681 54.8446C229.165 54.6368 229.701 54.1382 229.528 54.098C228.097 53.7821 228.33 55.431 226.4 55.4315C226.339 55.4287 226.593 55.1252 226.431 55.0951C225.928 55.0003 225.429 55.1209 224.936 55.0165C223.809 54.7747 223.408 53.9735 221.686 54.4398C221.468 54.5003 221.801 55.4356 220.077 55.3915C219.39 55.3731 216.349 55.3891 215.497 55.3285C214.646 55.2679 215.23 54.9665 215.17 54.9535C212.876 54.5549 213.746 54.3897 212.596 53.7997C211.447 53.2118 211.766 54.6139 211.298 54.7704C210.828 54.9264 209.147 54.5976 208.734 54.4833C208.321 54.3689 208.836 54.1774 208.468 54.1127C206.033 53.6898 207.399 54.8086 206.597 55.0311C204.705 55.558 203.232 54.5182 201.5 54.4164C201.031 54.3888 201.414 54.6257 200.996 54.6478C199.344 54.7324 198.35 54.4079 196.47 54.7054C196.162 54.7539 194.642 55.379 193.658 54.9203C193.519 54.8541 193.915 54.595 193.21 54.537C192.158 54.4499 190.262 54.3932 189.131 54.4798C188.296 54.5439 189.253 54.9709 188.202 54.8382C187.735 54.779 188.601 54.5292 187.723 54.4388C186.85 54.3484 184.618 54.3594 183.769 54.368C182.921 54.3768 183.385 54.7007 183.317 54.7225C182.902 54.8475 181.275 55.0037 181.131 55.0033C173.879 55.0428 167.191 54.4969 160.13 54.6776C159.576 54.6913 159.945 55.0328 159.86 55.0384C157.963 55.1815 159.459 54.2735 158.134 53.9696C158.325 54.6626 157.543 54.5371 156.207 54.6131C155.563 54.6503 155.913 54.9187 155.855 54.9461C154.9 55.3537 154.235 54.8273 154.064 54.7196C153.431 54.3234 152.743 54.7915 152.313 54.5267C151.882 54.2639 152.872 53.8743 151.591 53.8793C151.231 54.1273 152.183 54.7756 151.21 54.8807C147.539 55.2782 140.686 54.7695 137.734 54.7167C134.788 54.6639 133.837 54.7096 132.12 54.62C129.019 54.4579 130.156 54.9389 128.23 55.159C126.299 55.3792 127.238 54.1957 126.96 53.9413C126.688 53.687 126.39 53.9487 126.051 53.8089C125.714 53.6692 126.445 53.4962 125.65 53.4437C124.855 53.3913 122.682 53.8437 122.4 54.1097C121.804 54.6733 122.784 55.2648 120.68 55.057C120.559 55.0447 120.952 54.7335 120.489 54.702C116.809 54.4624 112.987 54.4476 109.312 54.2357C108.807 54.2061 109.258 53.8599 108.964 53.8387C105.901 53.6173 106.996 54.201 105.317 54.8495C105.694 53.9865 104.766 53.4586 102.441 53.4535C101.044 53.4501 101.284 53.827 100.381 54.0926C100.109 54.1727 99.1206 53.9139 98.9415 54.0912C98.3506 54.6706 99.282 55.3192 96.8852 55.0609C96.7801 55.0486 97.1149 54.7315 96.7515 54.7123C94.4029 54.5865 94.1218 55.1926 91.5831 55.266C89.5931 55.3236 86.0539 54.954 83.788 54.8939C83.8357 53.9237 81.6955 54.1459 80.8273 54.8148C79.3568 54.7874 77.7685 54.8252 76.3472 54.7328C75.8581 54.7012 76.1795 54.4203 76.1178 54.39C75.1719 53.9139 74.5326 54.5647 74.2152 54.5902C70.7751 54.8382 67.9723 54.345 64.6892 54.827C64.5727 54.8444 64.3839 55.5183 63.5063 55.0262C63.4495 54.9923 64.5338 54.6857 62.9894 54.662C61.4447 54.6382 58.5329 54.2769 56.3885 54.5892C55.8696 54.6644 54.557 55.2115 53.5035 54.784C53.3632 54.726 53.5167 54.5327 53.3141 54.4252C52.6592 54.0824 52.3016 54.7636 51.5319 54.1849C50.7621 53.6063 49.161 53.1729 46.9983 53.5721C46.9295 53.5837 46.4175 54.1236 45.7374 54.1151C44.6517 54.101 43.1105 53.9885 41.9769 53.992C41.4342 53.9939 41.7815 54.3292 41.6873 54.3353C38.0378 54.5232 35.4405 54.2243 31.5308 54.0946C30.8142 54.0701 28.7545 54.5273 27.3671 54.1659C25.8436 53.7702 27.4092 52.1243 23.9073 52.5165C22.495 52.6733 20.7067 54.7614 18.1686 53.6796C13.2459 53.9476 8.69337 53.3939 3.75701 53.7767C3.535 53.7937 2.83306 54.3764 2.31116 54.3685C1.69627 54.3583 1.30146 54.1846 0.888184 54.1044L0.785255 54.1058L0.783806 54C0.804658 53.8926 0.819191 53.7839 0.822893 53.6697C0.904937 51.3516 0.671901 49.2303 0.708148 46.9953C0.721318 46.1467 1.00295 46.4434 1.01869 45.4314C1.03417 44.4199 0.663313 43.7455 0.842425 42.3748C0.97895 41.3397 1.73698 40.3047 1.82533 38.9307C1.07762 38.8783 1.09302 37.9346 0.895647 36.2573C0.857352 35.9349 0.597109 36.2806 0.56557 36.1281C0.431441 35.5074 0.647125 34.933 0.501117 34.3437C0.46605 34.2003 0.210703 34.1935 0.167622 34.0763C-0.208424 33.0797 0.365954 31.4377 0.465961 31.1557C0.845768 30.0749 0.51366 29.5698 0.663226 28.7408C0.812772 27.9131 0.99972 29.1506 1.09047 28.1838C1.27818 26.1798 1.23694 23.6048 1.24867 21.5695C1.25178 20.7574 0.91093 21.3115 0.90346 21.1953C0.81701 19.516 1.17958 17.8178 0.500629 16.8867C2.25613 15.7224 0.330354 15.8741 0.681781 13.4737C0.710204 13.2847 1.54037 13.0441 1.66225 13.77C1.78401 14.4959 1.52451 15.5967 1.71449 16.6038C1.75908 16.8423 2.537 18.2085 2.58412 18.3949C2.9524 19.8551 1.71183 20.062 1.64369 20.1393C0.908367 21.0153 1.74643 22.6849 1.80434 23.1245C2.06968 25.1358 1.89521 26.8446 2.08461 28.5269C2.20702 29.6271 3.01964 29.7348 2.99476 30.5987C2.91255 33.4707 1.77894 34.4732 2.76185 37.1796C2.97149 37.7599 3.85966 37.1832 3.16126 39.2626C3.11724 39.3932 2.47834 40.9371 2.88246 41.829C2.93341 41.941 3.19225 41.9375 3.214 42.0852C3.35465 43.0753 3.14844 43.7357 3.2472 44.8143C3.34596 45.8927 3.4932 47.1896 3.4054 48.421C3.35291 49.1631 2.87064 50.1153 2.75257 50.4706C2.41245 51.4737 2.97011 52.5492 2.55824 53.1707C2.16398 53.7676 1.57496 52.6846 1.28874 54L0.888184 53.5994C0.95388 53.6137 1.02554 53.6273 1.1037 53.64C1.16456 52.9675 1.30438 52.2773 1.40222 51.6009C5.00352 51.6246 8.54692 51.8421 12.1602 51.8124C12.6082 51.808 12.15 51.4465 12.6303 51.4325C14.6564 51.375 16.4261 51.6328 18.5272 51.5301C20.1537 51.4493 21.9371 51.0665 23.6378 50.9701C24.6766 51.7396 27.2002 51.4784 29.0335 51.5487C29.6757 51.573 29.6327 51.7785 30.0894 51.8456C31.8124 52.0936 31.0051 51.4135 31.4774 51.3065C33.5039 50.8498 33.6774 52.389 36.0666 52.3509C36.1931 52.3494 37.7405 51.529 37.9535 51.4779C39.3076 51.1447 38.1777 51.7635 39.0251 51.8241C40.5724 51.9349 41.6475 52.1308 43.4629 51.8905C43.9922 51.8193 45.262 51.3079 46.2899 51.7035C46.4252 51.7553 46.3504 52.0265 46.4592 52.0423C48.4294 52.3071 48.4813 51.455 49.6071 51.1664C50.7332 50.8778 52.4723 51.4661 52.8263 51.6356C53.7522 52.0742 52.1168 51.823 52.0666 51.8661C51.4775 52.3783 52.746 52.2901 53.7151 52.3334C53.8554 53.1689 55.2108 53.1187 54.7199 52.3749C54.664 52.2936 53.9098 52.3715 53.7151 52.3334C54.5659 51.5136 56.0554 51.4086 57.7006 52.1747C58.4708 52.5337 57.7427 52.9523 60.0821 52.7992C61.1439 52.73 60.7336 52.1548 61.6706 51.9979C63.8111 51.6401 66.5927 52.1767 68.7995 52.0922C69.6004 52.0615 68.8202 51.7465 69.3676 51.7147C70.8202 51.6293 72.1013 51.8655 73.5603 51.7445C73.6924 51.7331 73.3695 51.4035 73.8232 51.3993C77.2625 51.361 80.2573 51.5721 83.8482 51.578C85.5833 51.5807 88.6852 51.3989 90.4826 51.4354C93.5976 51.4968 97.4299 51.9762 100.091 51.8597C101.827 51.7852 101.446 51.4555 102.19 51.2308C103.625 50.7954 106.165 51.5754 106.507 51.6962C106.517 51.7002 105.024 51.7779 105.821 51.9471C106.284 52.2998 106.49 51.6977 106.507 51.6962C106.732 51.7742 109.715 51.849 110.308 51.786C110.63 51.7516 110.449 51.4392 110.617 51.4271C114.607 51.1476 118.603 51.0682 122.65 51.2142C122.721 51.2205 122.613 51.57 122.781 51.5804C125.124 51.7358 126.623 51.3083 128.555 51.0546C130.487 50.8009 132.019 50.8858 133.163 51.4857C134.62 51.4102 136.711 51.6754 137.914 51.8363C139.118 51.9972 139.286 51.317 139.391 51.3036C142.694 50.8732 144.603 51.2625 148.029 51.3231C149.657 51.3531 152.888 51.2544 154.652 51.18C156.046 51.1201 156.885 51.2795 158.169 51.1776C158.343 51.164 158.168 50.8611 158.221 50.8495C159.654 50.4871 158.965 51.2275 159.261 51.3597C160.334 51.8406 160.997 52.0967 162.832 51.8705C163.256 51.8187 164.489 50.7526 165.26 50.6903C166.264 50.6112 165.885 50.9933 166.936 50.9007C167.026 50.8932 167.007 50.6574 167.655 50.6678C170.665 50.713 173.947 50.8502 177.074 50.8265C177.502 50.8242 176.954 50.4503 177.571 50.4408C180.468 50.3965 183.643 50.4103 186.465 50.5853C187.159 50.6296 186.724 50.8914 186.874 50.9691C187.8 51.4394 189.113 50.7561 189.329 50.743C194.496 50.4146 198.45 51.0331 203.717 50.7386C204.003 50.7214 206.21 49.9887 207.194 50.6171C207.262 50.6589 208.235 51.3017 209.097 50.8622C209.15 50.8347 208.543 50.5037 209.602 50.5375C210.661 50.5711 212.366 50.3501 213.822 50.7137C214.283 50.8283 215.372 51.4695 216.747 50.9584C216.836 50.9227 218.959 49.7669 219.717 50.5643C219.839 50.6956 219.711 51.5395 221.352 51.1068C221.665 51.0229 221.096 50.8347 221.922 50.7172C223.188 50.536 224.864 50.762 226.42 50.3861C226.691 50.3195 227.846 49.7468 228.772 50.1815C228.918 50.2496 228.642 50.5313 229.131 50.5629C231.458 50.7141 233.894 50.5256 236.256 50.7206C237.092 50.7891 236.665 51.2445 237.537 51.3666C238.409 51.4886 240.166 51.6059 241.079 51.3978C241.992 51.1896 240.994 50.4637 242.362 50.4056C242.537 50.3982 242.713 50.3913 242.888 50.385L239.273 54C239.066 48.2334 239.469 42.5164 239.53 36.7551C239.539 35.8747 239.279 36.6046 239.274 35.3071C239.255 30.5233 239.011 22.264 239.563 18.113C240.005 14.7871 240.342 18.9726 240.522 16.431C240.608 15.2046 239.764 13.8778 239.737 13.5817C239.467 10.6895 239.841 8.67944 239.726 6.07627C239.703 5.53871 239.361 6.06594 239.344 5.60843C239.324 5.07848 239.328 4.53936 239.342 4L242.888 7.54659C241.837 7.52061 240.785 7.46019 239.798 7.47864C239.128 7.49196 239.252 7.7532 238.635 7.73304C237.16 7.6878 235.856 7.57799 234.418 7.33314C234.287 7.31082 235.171 6.98585 234.079 6.97376C232.313 6.95512 230.121 6.71358 228.089 6.96302C227.486 7.03806 227.462 7.63512 226.166 7.22279C225.895 7.13667 226.241 6.41972 224.732 7.03919C224.478 7.14213 221.942 7.97768 220.697 7.43909C220.369 7.29734 219.531 6.71067 218.806 6.80286C218.707 6.81758 219.101 7.13828 218.501 7.16956C216.383 7.27423 214.164 7.24001 211.989 7.34046C211.408 7.36792 212.273 7.69978 211.407 7.73011C209.026 7.81399 206.054 7.72949 203.726 7.62562C202.868 7.58669 203.461 7.31178 203.398 7.28187C202.394 6.79527 201.8 7.45207 201.467 7.49036C199.394 7.71968 197.815 7.41116 195.904 7.4928C195.377 7.5145 195.751 7.82767 195.646 7.8556C194.557 8.12844 195.368 7.56603 194.679 7.50403C192.748 7.3285 190.596 7.35367 188.644 7.39368C187.927 7.40884 188.733 7.77197 188.089 7.78138C184.28 7.84395 180.32 7.8092 176.603 7.60901C175.903 7.57066 176.343 7.29104 176.197 7.22718C175.192 6.78036 173.718 7.38983 173.379 7.44788C171.837 7.71297 171.238 7.46569 169.877 7.51185C163.226 7.74164 155.013 7.57787 148.735 7.47669C140.554 7.34648 134.205 7.08047 126.404 7.14954C125.908 7.15358 126.408 7.52556 125.981 7.53382C120.462 7.62349 115.029 7.47814 109.499 7.58558C109.046 7.59373 109.7 7.94637 108.971 7.97132C107.478 8.02496 105.585 8.00579 104.075 7.89319C103.338 7.83894 104.326 7.53635 103.585 7.48792C101.858 7.37447 100.007 7.34936 98.2334 7.40589C97.4787 7.43072 98.6174 7.79138 97.6364 7.79554C90.9537 7.83132 84.3906 7.89343 77.6375 7.4264C77.1746 7.39432 76.7684 6.66132 75.784 6.80189C75.7099 7.00532 75.7139 7.24461 75.6815 7.46204C65.9533 7.57917 56.3244 7.32506 46.5688 7.28577C46.1575 7.2842 46.8683 7.67258 46.072 7.67151C41.4631 7.66577 36.9875 7.77337 32.2731 7.38734C31.8053 7.34958 32.0453 6.66633 30.6669 6.76966C30.4237 6.78852 28.3476 6.87964 27.8108 7.02796C27.7379 7.05033 28.1167 7.36925 27.4477 7.37855C23.56 7.42698 19.4858 7.35417 15.6048 7.15931C14.9784 7.12725 15.6455 6.78763 15.1993 6.76185C12.0347 6.58156 8.59254 6.83974 5.56861 6.53138C3.5445 6.32376 4.29388 5.73669 3.2183 5.15883C3.06616 5.0773 1.81277 5.06438 1.74796 4.72816C1.58155 3.88272 2.18865 2.95697 1.93955 2.05581C1.88692 1.86171 0.208299 2.07077 1.20215 1.60171C1.27158 1.57032 2.48858 1.41464 2.78833 1.25552C2.99703 1.14551 2.62095 0.803576 3.04676 0.662748C3.47252 0.522051 3.94039 0.808676 4.64631 0.643216C5.35191 0.475709 5.04165 0.0867252 6.45082 0.0406792ZM143.332 52.5555C144.447 52.8822 144.611 51.6858 143.406 51.972C143.348 51.9873 143.275 52.5395 143.332 52.5555ZM8.52669 52.7445C9.98326 53.2722 10.9801 52.4963 9.95247 52.0887C8.92503 51.6816 8.08292 52.5845 8.52669 52.7445ZM1.75844 46.5341C1.34238 48.2365 3.03889 48.5045 2.69593 46.6811C2.67655 46.5751 1.7826 46.4346 1.75844 46.5341ZM8.20631 4.99428C8.19093 4.97839 7.28995 4.96291 7.26841 4.97865C6.78865 5.35862 8.59026 5.38932 8.20631 4.99428ZM1.33901 31.5456C1.10952 32.077 1.37443 33.6072 1.6598 32.9468C1.88938 32.4153 1.62448 30.8837 1.33901 31.5456ZM201.453 53.8324C201.471 53.8502 202.117 53.8663 202.104 53.7655C202.06 53.4409 201.161 53.5325 201.453 53.8324ZM1.31947 6.0708C1.25561 9.83459 -0.145785 12.1166 0.0123492 8.01789C0.0409603 7.27565 0.459245 9.61758 0.58559 8.67286C0.815768 6.94423 -0.06414 5.79641 0.407367 4.03237C0.493669 3.71305 1.32623 5.85609 1.32143 6.07748C1.32078 6.07525 1.32012 6.07303 1.31947 6.0708ZM143.974 53.9925C143.996 54.0084 144.89 54.0234 144.912 54.0077C145.396 53.6279 143.595 53.5974 143.974 53.9925ZM239.145 54.5721C239.194 54.6058 241.27 54.6374 241.337 54.6063C242.42 53.9852 238.224 53.9196 239.145 54.5721ZM83.7524 54.868C82.7767 55.2501 81.6095 55.2951 80.8318 54.8153C81.8014 54.8408 82.7775 54.8445 83.7524 54.868Z" fill="#522A00"/>
</svg>
