<svg width="915" height="628" viewBox="0 0 915 628" fill="none" xmlns="http://www.w3.org/2000/svg">
<path d="M99.0005 13.9959H31.0005L17.0005 41.9959V59.9959L31.0005 89.9959L17.0005 125.996L1.00049 157.996L31.0005 193.996L17.0005 227.996L59.0005 269.996L37.0005 297.996L17.0005 341.996L47.0005 371.996L31.0005 433.996L37.0005 471.996L17.0005 497.996L37.0005 527.996L17.0005 543.996L31.0005 559.996V615.996H59.0005L99.0005 625.996L129 615.996L151 597.996L187 625.996L227 603.996L279 615.996L293 603.996L319 615.996H397L445 597.996L503 615.996L545 597.996L599 615.996L621 603.996H679L707 615.996L745 603.996L779 597.996L805 615.996L837 603.996L913 597.996L903 559.996L885 519.996L913 483.996L885 433.996L903 403.996L867 319.996L885 281.996L867 253.996V215.996L845 193.996L867 139.996L845 113.996V89.9959V13.9959L823 1.99591L795 27.9959H779L745 13.9959L707 1.99591L643 13.9959H599H559L521 27.9959L489 13.9959H433L397 27.9959L357 13.9959H307L279 27.9959H245L187 13.9959L129 27.9959L99.0005 13.9959Z" fill="#B69F7C"/>
<path d="M60.9701 10.0366C72.3519 9.96932 86.0175 9.99191 99.0005 10.0575L100.666 10.427C107.111 13.4744 113.364 16.4465 118.983 19.1285C123.951 21.4995 121.336 20.5128 124.761 22.1581C126.689 23.0838 128.585 23.9777 130.465 24.8575L128.188 24.6293C133.186 23.4282 138.057 22.219 143.159 21.0594C145.533 20.521 142.666 21.5584 145.154 20.9863C158.784 17.8489 171.626 14.6612 185.415 11.4062C185.718 11.3347 186.021 11.2632 186.324 11.1916H187.677C207.056 15.9723 226.346 20.7126 245.618 25.4359L245 25.3623C256.336 25.4019 267.664 25.4374 279 25.47L277.871 25.7366C287.209 21.1012 296.551 16.4606 305.908 11.8109L307 11.553C323.609 11.5939 340.261 11.6307 357 11.6667L357.77 11.7975C368.143 15.4531 378.552 19.1209 389.008 22.8059C391.846 23.8061 394.761 24.838 397.736 25.8935L396.193 25.9199C407.677 21.5104 420.079 16.7887 432.264 12.1015L433 11.9633C442.528 11.9982 451.941 12.0084 460.78 11.9594C463.588 11.9436 461.914 11.6488 462.448 11.6245C470.829 11.2525 468.042 11.8476 473.514 11.9267C478.569 11.9994 483.755 12.0566 489 12.1002L489.76 12.2591C500.356 16.9998 511.247 21.7974 521.717 26.359L520.383 26.3194C525.633 24.3762 530.77 22.4623 535.711 20.6117C544.037 17.4914 535.469 20.0241 543.984 17.2373C544.575 17.0431 542.566 18.1169 544.866 17.3052C548.353 16.0742 553.899 14.0217 558.398 12.3605L559 12.253C561.378 12.2512 563.481 12.2505 564.902 12.2588C573.162 12.3081 574.529 12.305 582.342 12.3086C587.541 12.3123 593.219 12.351 599 12.3817C605.095 12.414 611.304 12.4372 617.185 12.4008C619.631 12.3848 616.393 12.0639 620.294 12.0092C624.198 11.9547 634.528 11.9819 638.01 12.0576C641.493 12.1333 640.01 12.3855 640.626 12.4433C641.308 12.5089 642.113 12.5534 643 12.5814L642.74 12.6056C648.394 11.7288 657.277 9.54606 658.581 9.2867C675.597 5.91696 691.157 3.08112 706.675 0.259542L707.532 0.311286C716.781 3.28775 726.013 6.26146 735.577 9.28118C738.851 10.315 742.166 11.3577 745.503 12.4047L745.636 12.4529C756.981 17.1004 768.586 21.8238 779.671 26.3664L779 26.2337C783.479 26.226 787.88 26.2226 792.162 26.2265C793.114 26.2274 794.06 26.2286 795 26.2301L793.799 26.7019C803.658 17.5749 812.708 9.2673 821.889 0.799165L822.746 -2.53916e-05L823.783 0.562195C830.29 4.1401 836.865 7.7443 843.768 11.4971C845.768 12.5849 843.683 11.0343 845.952 12.2515L846.984 12.8113L846.987 13.9959C846.988 14.0465 846.988 14.099 846.988 14.1536C847.025 39.5254 847.002 64.7486 846.841 89.9959C846.811 94.7244 846.776 99.4538 846.736 104.185C846.71 107.193 846.379 103.316 846.333 106.322C846.298 108.719 846.256 111.299 846.213 113.996L845.926 113.213C852.79 121.592 860.871 131.434 867.765 139.349L868.156 139.809L867.928 140.374C865.398 146.849 863.375 152.471 862.409 156.166C857.655 167.687 851.892 181.678 847.416 191.894C846.837 193.216 846.467 194.006 846.219 194.492L845.931 193.066C847.333 194.727 845.034 192.719 850.113 197.624C851.545 199.008 849.937 196.953 852.069 199.046C857.267 204.149 862.689 209.579 868.063 214.933L868.502 215.37L868.503 215.996C868.514 221.508 868.536 226.973 868.604 232.208C868.638 234.739 868.922 234.048 868.973 234.765C869.385 240.791 868.703 250.822 868.653 253.009C868.646 253.34 868.639 253.669 868.632 253.996L868.373 253.114C874.879 263.723 880.289 272.097 886.186 281.234L886.609 281.888L886.274 282.599C884.893 285.53 883.476 288.534 881.98 291.688C880.437 294.94 882.602 291.257 881.13 294.393C877.034 303.108 872.836 311.979 868.64 320.772L868.668 319.281C871.968 327.044 875.225 334.768 878.368 342.302C879.875 345.914 878.159 342.734 878.864 344.466C881.973 352.104 883.256 353.543 886.249 360.863C886.881 362.406 886.256 361.652 886.348 361.943C887.783 366.506 890.035 370.04 890.531 371.159C896.054 383.592 899.233 392.338 903.981 403.576L904.196 404.074L903.915 404.545C903.04 405.987 902.144 407.481 901.219 409.046C900.309 410.587 902.686 407.307 900.11 411.628C895.566 419.252 890.941 426.985 886.274 434.76L886.296 433.27C895.622 449.928 905.019 466.837 914.135 483.361L914.557 484.109L914.027 484.794C910.306 489.517 906.609 494.198 902.952 498.819C899.751 502.863 901.803 499.795 901.579 500.031C897.93 503.895 896.366 507.015 895.354 508.358C892.109 512.651 888.856 516.754 885.807 520.623L885.932 519.577C888.854 526.18 891.537 532.159 894.176 536.848C897.523 544.387 900.883 551.915 904.249 559.434L904.325 559.647C907.637 572.333 910.971 585 914.301 597.654L914.713 599.205L913.106 599.336C887.726 601.341 862.394 603.343 837.093 605.163L837.412 605.092C828.775 608.263 820.135 611.409 811.489 614.523C810.823 614.764 811.894 614.004 810.565 614.486C808.461 615.249 806.69 615.9 805.177 616.466L804.932 616.558L804.715 616.408C795.947 610.325 796.652 611.38 788.295 606.267C785.871 604.784 779.214 599.239 778.618 598.758C778.586 598.732 778.555 598.707 778.525 598.683L779.146 598.818C776.569 599.057 779.23 598.095 778.319 598.216C770.673 599.244 772.197 600.65 761.956 602.457C761.635 602.511 762.927 601.975 762.063 602.097C759.376 602.475 756.749 603.061 754.118 603.419C750.508 603.909 748.247 603.957 745.065 604.362L745.113 604.351C743.039 604.898 740.579 605.657 737.092 606.955C735.99 607.366 737.982 607.718 729.115 610.472C725.971 611.447 713.272 615.469 707.406 617.279L706.933 617.43L706.47 617.233C705.77 616.927 705.171 616.665 704.707 616.458C700.515 614.596 703.528 615.559 703.233 615.418C692.031 610.184 696.403 611.878 690.945 608.897C685.487 605.918 686.512 607.883 684.131 607.033C683.093 606.662 680.953 605.719 678.703 604.691L679 604.752C675.792 604.677 672.355 604.544 671.097 604.479C668.872 604.365 671.648 604.173 669.669 604.109C656.549 603.686 663.91 604.805 659.587 605.027C649.394 605.554 641.456 604.514 632.125 604.412C629.6 604.385 631.66 604.622 629.412 604.644C626.292 604.673 623.607 604.653 621 604.626L621.302 604.549C617.037 606.82 612.996 608.946 607.312 612.266C606.369 612.817 603.059 614.943 599.516 616.942L599.108 617.166L598.66 617.018C596.65 616.38 594.623 615.672 592.956 614.951C592.265 614.651 594.37 615.08 590.788 613.825C585.438 611.949 575.766 608.666 569.958 606.821C565.669 605.459 570.426 607.495 565.096 605.578C562.727 604.726 567.231 605.964 562.774 604.383C558.986 603.039 550.1 600.074 544.885 598.342L545.144 598.331C544.285 598.7 543.529 599.025 542.918 599.289C538.723 601.096 541.149 600.409 540.818 600.574C538.814 601.569 530.819 605.166 530.106 605.471C521.054 609.361 512.164 613.141 503.372 616.862L503.055 616.999L502.721 616.896C483.176 610.733 464.148 604.652 444.809 598.614L445.228 598.602C437.985 601.304 430.71 604.038 423.367 606.832C420.576 607.893 422.558 607.515 422.133 607.68C412.614 611.403 419.84 607.723 413.048 609.945C414.258 610.232 410.268 611.594 403.553 614.194C400.318 615.446 402.181 615.034 401.894 615.171C400.222 615.954 398.695 616.555 397.382 617.014L397 617.083C394.505 617.027 392.815 616.785 392.222 616.716C388.815 616.319 385.107 616.787 382.788 616.523C380.471 616.26 385.804 615.87 378.899 615.875C376.963 616.123 382.089 616.772 376.847 616.877C361.871 617.178 337.067 616.959 319 616.812L318.658 616.737C313.417 614.266 308.802 612.092 305.301 610.462C300.015 608.002 296.041 606.16 292.713 604.62L293.447 604.517C288.647 608.622 285.456 611.354 280.976 615.119C280.415 615.591 279.888 616.035 279.392 616.453L279.163 616.651L278.865 616.583C265.121 613.306 270.049 614.904 260.338 612.879C250.151 610.754 255.345 610.738 253.945 610.154C252.572 609.576 250.951 609.47 249.204 608.924C247.462 608.378 251.34 609.096 247.181 608.082C243.019 607.068 231.507 604.875 229.967 604.793C227.633 604.669 229.551 605.542 226.762 605.029L227.511 604.925C226.558 605.507 224.916 606.416 222.081 607.908C221.504 608.211 223.208 606.919 221.006 608.094C209.866 614.047 198.495 620.231 187.197 626.354L186.963 626.484L186.75 626.318C181 621.789 175.277 617.273 169.653 612.802C167.522 611.107 169.656 612.328 168.418 611.339C155.528 601.032 159.826 605.115 152.288 600.074C153.355 600.357 152.982 599.626 151.105 597.861L150.998 597.778L150.893 597.864C148.757 599.301 145.282 601.972 140.436 605.934C134.607 610.699 135.848 610.169 132.248 613.459C131.701 613.958 130.335 615.017 129.035 616.038L129.018 616.047C127.476 616.528 126.007 616.998 125.582 617.232C122.745 618.788 127.711 617.816 115.379 621.655C114.838 621.822 116.448 620.951 114.585 621.552C107.145 623.95 103.826 625.269 99.3227 626.963L99.0439 627.056L98.7534 626.984C95.8393 626.372 92.4654 625.638 87.3859 624.397C80.0936 622.616 68.8826 619.639 58.7551 616.977L59.0005 617.008C54.5165 616.954 50.2393 616.908 46.5789 616.89C46.829 615.945 35.8885 616.131 31.0005 616.76L30.2382 616.762L30.2363 615.996C30.2197 615.867 30.2028 615.743 30.1857 615.623C30.2131 607.7 30.1753 599.143 30.2677 591.486C30.2992 588.85 30.5801 590.582 30.6105 590.249C31.0866 585.153 30.4358 581.709 30.4103 579.999C30.3159 572.945 30.3289 566.388 30.3546 559.996L30.5144 560.421C25.835 555.03 21.3035 549.783 16.5159 544.42L16.0726 543.916L16.5982 543.493C19.143 541.416 21.7144 539.286 24.3391 537.066C24.8184 536.66 25.1917 535.499 29.1914 532.929C29.4514 532.764 25.0812 536.653 31.5933 531.474C33.0174 530.341 34.7266 529.001 36.6203 527.521L36.4941 528.333C31.8094 521.133 25.5408 511.429 20.3303 504.053C19.5051 502.884 17.9567 500.854 16.2671 498.485L15.9166 497.962L16.3019 497.459C17.926 495.203 19.8009 492.727 21.657 490.656C22.1641 490.092 21.8128 490.866 22.5635 490.067C24.9866 487.479 25.6212 485.537 28.6084 482.602C30.567 480.678 33.65 477.19 37.454 472.345L37.6037 472.151L37.5657 471.907C37.0926 468.706 36.4845 465.103 35.7229 461.161C35.6535 460.796 34.6901 458.156 34.127 454.535C33.2286 448.755 32.0447 440.536 31.0887 434.504C31.0587 434.314 31.0305 434.146 31.0039 433.995C31.5084 431.882 30.824 433.361 30.937 432.9C35.6682 413.815 39.4544 400.34 44.8433 379.976C45.2739 378.351 45.959 375.373 46.7784 371.939L46.8383 372.158C43.5445 368.983 39.7051 365.224 36.8659 362.096C31.3417 356.012 38.4697 360.813 24.8518 347.749C22.7732 345.755 20.2939 343.75 17.5323 341.464L17.6851 342.307C19.6082 336.743 21.9766 330.198 26.1057 322.739C29.8258 314.33 33.5366 306.18 37.2414 298.105L37.2086 298.159C44.5694 288.859 51.8885 279.685 59.2775 270.214L59.4706 269.969L59.2496 269.747C55.7412 266.263 52.1842 262.761 48.55 259.23C47.6924 258.396 44.6061 256.134 42.6234 254.14C39.6809 251.179 38.2534 249.367 36.1585 247.246C29.5436 240.544 23.2283 234.394 16.8827 228.114L16.8043 228.036L16.8464 227.932C17.9418 225.233 19.0488 222.525 20.185 219.789C21.9378 215.567 21.5896 217.152 23.6803 212.116C25.7694 207.083 26.81 203.582 29.7873 196.822C30.1993 195.887 30.6306 194.96 31.078 194.028L31.0973 193.981L31.0649 193.942C28.3179 190.236 25.6257 186.195 21.8099 181.503C21.0548 181.765 17.8117 177.849 11.875 171.034C10.7336 169.724 11.7261 171.321 11.1758 170.71C8.93193 168.227 7.11639 165.712 4.97147 163.366C4.45001 162.795 4.23054 162.93 3.79321 162.473C2.7237 161.358 1.53101 159.973 0.352753 158.536L3.06368e-05 158.115L0.246341 157.619C2.34434 153.506 4.77405 149.345 5.32232 148.408C8.26622 143.37 9.18613 140.787 11.3174 136.859C13.4453 132.938 10.6308 138.985 13.0414 134.366C14.3845 131.793 15.8121 129.014 17.2773 126.134L17.2889 126.108C20.532 117.94 23.9831 109.012 26.8972 101.542C28.4859 97.465 27.0863 100.124 27.3063 99.5373C28.5351 96.2861 29.831 93.0449 31.0284 90.0068L31.033 89.9949L31.0276 89.9833C28.8353 85.2292 26.845 81.019 25.1596 78.3962C24.0977 71.9695 22.6982 73.5243 17.5478 61.6567C17.1427 60.7216 17.347 59.1962 19.1113 62.6887C20.8755 66.1811 23.1482 71.6649 25.615 76.5016C26.1988 77.6472 30.0165 83.9884 30.4839 84.8786C31.4312 86.683 32.0896 88.1233 32.5472 89.2741L32.8557 89.9396L32.5913 90.6145C31.1156 93.8404 30.2172 94.2339 30.0583 94.5032C27.6623 98.6356 25.1831 107.323 24.3786 109.551C22.179 115.645 20.044 121.139 18.0184 126.392L17.9774 126.484C16.2922 129.879 14.6666 133.169 13.104 136.464C10.5625 141.821 11.03 142.703 8.92608 146.855C6.44848 151.745 4.41821 155.446 2.57842 158.785L2.35577 156.867C6.58783 162.378 9.97461 166.83 16.4898 173.656C18.6524 175.924 17.3456 172.968 23.981 182.022C24.3939 182.586 29.1425 189.264 32.5241 192.726L33.2907 193.651L32.8344 194.751C32.8205 194.794 32.8068 194.837 32.7933 194.88C32.6106 195.457 32.8573 195.538 32.5743 196.282C30.6733 201.268 29.1281 204.48 27.0068 209.891C24.8858 215.301 22.3615 221.818 19.7543 227.919C19.611 228.255 19.4608 228.598 19.3055 228.945L18.7631 226.233C21.3619 228.992 24.1814 232.388 25.3355 233.694C28.9164 237.756 33.4082 241.459 35.4845 244.118C37.5791 246.798 32.4672 242.575 38.5386 249.025C39.2459 248.781 40.2667 248.826 41.1177 248.72C47.6687 255.287 54.1381 261.835 60.613 268.383L62.044 269.822L60.7936 271.405C54.5382 279.275 48.2835 287.151 42.0184 295.15C40.5307 297.051 42.3399 295.333 40.7524 297.376C40.1727 298.122 39.5975 298.859 39.0259 299.587L39.3454 299.062C35.3073 307.963 31.4565 315.935 27.2628 325.387C24.7552 331.042 22.2102 337.143 19.6273 343.19L19.0408 339.956C21.0222 341.848 22.9926 343.743 24.9183 345.629C28.3317 350.13 38.1306 359.56 45.0649 366.594C47.3161 368.877 47.216 369.029 48.5358 370.461L49.4145 371.344L49.1029 372.538C49.0583 372.686 49.0113 372.845 48.9615 373.019C46.4018 381.945 48.1472 377.903 47.6149 380.394C45.329 391.08 43.605 391.601 40.4253 404.074C40.2564 404.735 38.9678 413.012 38.7304 414.136C37.23 421.283 38.1521 415.234 36.9526 419.64C35.4764 425.061 34.2515 429.354 32.9327 434.495L32.9716 433.685C33.3756 436.22 33.8384 438.946 34.4131 442.084C34.9282 444.89 36.5003 451.567 36.9734 457.099C37.0358 457.827 36.7052 457.472 36.7809 458.053C37.8877 466.411 38.6738 468.223 39.5669 471.591L39.7393 472.701L39.0599 473.58C38.5848 474.349 38.0387 475.196 37.3239 476.223C33.8535 481.208 27.6743 488.276 26.3773 489.684C22.9879 493.371 28.5594 486.54 28.6901 486.299C30.2191 483.472 26.1223 488.942 22.9043 493.054C21.7811 493.144 17.3686 498.963 19.5709 497.32C19.8188 497.131 22.2347 493.862 22.9043 493.054C21.992 494.812 20.5976 496.985 18.8336 499.406L18.9248 496.713C21.2567 500.021 23.8016 504.113 26.2608 508.596C28.2636 512.247 25.7396 509.216 32.8584 519.618C36.0889 524.339 35.3415 522.181 38.2722 526.294C38.4088 526.486 38.546 526.679 38.6836 526.874L39.7113 528.424L38.2642 529.576C32.371 534.563 25.1086 540.162 18.2293 545.532L18.4809 542.701C21.2097 545.895 23.8817 549.004 26.3945 551.835C29.2591 555.062 26.728 551.691 28.694 553.889C30.0889 555.449 31.423 556.974 32.7298 558.483L33.3005 559.138L33.2983 559.996C33.2704 565.467 33.1673 570.711 33.256 576.47C33.2674 577.182 33.597 575.442 33.6012 577.887C33.6286 591.131 33.5285 603.151 33.4671 615.996L31.0005 613.529C36.1267 613.554 41.3841 613.572 46.9029 613.574C50.2218 613.575 54.4691 613.553 59.0005 613.525L59.5998 613.599C67.5976 615.547 76.5093 617.705 82.5627 619.243C87.9525 620.611 93.7427 622.127 99.5832 623.665L98.2407 623.716C108.842 620.329 119.628 616.912 128.328 613.979L127.654 614.351C128.328 613.795 128.986 613.251 129.626 612.719C136.816 606.739 135.02 607.783 137.979 605.072C140.983 602.318 145.476 598.781 149.278 595.891L150.966 594.516L152.67 595.849C155.968 598.608 158.63 600.938 159.284 601.52C159.326 601.557 152.926 596.679 156.211 599.448C157.965 601.259 159.211 601.465 159.284 601.52C160.191 602.324 172.833 612.252 175.392 614.162C176.782 615.2 176.208 614.357 176.929 614.903C180.85 617.871 184.765 620.849 188.678 623.839L185.683 623.601C198.891 616.187 212.186 608.841 225.645 601.532L226.594 601.013L227.633 601.256C229.064 601.594 230.496 601.933 231.928 602.274C232.301 602.367 231.659 602.577 232.536 602.79C244.799 605.779 252.769 607.18 262.968 609.273C269.399 610.593 274.964 611.851 279.67 613.095L277.063 613.735C279.286 611.949 281.329 610.396 283.202 609.083C285.612 606.977 288.49 604.544 291.395 602.123L292.604 601.092L294.034 601.756C298.99 604.127 303.944 606.559 307.391 608.255C313.21 611.117 314.316 610.879 314.839 611.106C316.706 611.913 318.478 612.689 320.18 613.441L319 613.182C333.421 612.954 343.358 613.265 359.707 613.319C368.483 613.349 385.89 613.25 395.391 613.176C395.943 613.172 396.479 613.168 397 613.166L396.007 613.346C402.156 611.01 406.279 609.603 412.248 607.264C413.119 606.922 412.128 606.971 412.391 606.86C419.494 603.809 416.279 605.805 417.819 605.369C423.4 603.79 426.833 602.776 436.013 599.092C437.488 598.5 440.771 596.705 443.936 595.157L444.916 594.792L445.899 595.1C447.403 595.413 448.861 595.748 450.072 596.104C455.258 597.631 453.196 597.391 458.63 598.981C459.095 599.117 459.068 598.862 462.401 599.907C475.684 604.07 489.976 608.617 503.941 612.966L501.751 613.08C503.97 612.132 506.179 611.185 508.372 610.241C510.486 609.333 507.627 610.151 510.68 608.832C521.307 604.242 532.705 599.357 543.614 594.761L544.854 594.233L546.114 594.657C550.015 595.984 553.849 597.298 557.559 598.583C561.095 599.808 558.787 599.315 559.533 599.645C564.116 601.669 571.042 603.257 572.153 603.614C582.133 606.81 591.193 609.841 600.052 612.842L597.409 613.077C604.75 609.119 611.966 605.261 619.473 601.196L621 600.806C628.32 600.828 635.901 600.819 644.068 600.735C645.612 600.717 657.5 599.985 662.804 600.613C663.167 600.655 668.414 601.298 673.054 600.858C673.342 600.831 670.072 600.5 675.778 600.533C676.758 600.539 677.84 600.537 679 600.532L680.365 600.812C685.52 602.995 692.375 605.825 698.228 608.661C699.955 609.497 703.413 611.417 708.124 613.375L706.142 613.276C707.574 612.807 709.092 612.268 710.669 611.648C711.118 611.469 721.674 606.923 725.807 606.454C726.477 606.38 726.071 607.393 734.371 604.319C735.956 603.73 732.976 604.474 737.184 603.022C739.255 602.307 741.556 601.563 743.987 600.787L744.416 600.682C749.724 599.729 755.627 598.71 761.185 597.47C762.613 597.15 768.641 595.505 773.632 595.066C774.413 594.997 773 595.533 775.601 595.106C776.534 594.953 777.47 594.797 778.408 594.639L779.797 594.398L780.941 595.194C789.422 601.17 798.301 607.186 806.895 613.26L803.832 612.88C805.062 612.432 806.29 611.989 807.516 611.55C811.76 610.032 809.762 611.267 814.205 609.732C818.648 608.196 827.554 604.982 832.085 603.06C835.897 601.444 832.763 602.041 835.764 600.699L836.723 600.486C837.338 600.399 838.182 600.306 839.349 600.205C863.883 598.073 888.272 596.356 912.729 594.559L909.667 598.873C907.829 591.732 905.984 584.586 904.116 577.432C902.918 572.843 903.668 576.712 901.884 569.953C901.144 567.151 900.342 564.121 899.492 560.919L899.693 561.484C894.32 549.608 887.794 535.219 881.646 521.506L880.738 519.475L882.096 517.737C891.399 505.81 900.275 494.541 906.582 486.832C908.618 484.344 909.852 482.881 910.556 482.094L910.298 485.509C909.507 483.838 909.996 484.474 910.598 485.341L910.827 482.305C910.081 483.486 909.041 485.006 911.091 482.511L910.89 485.178C910.563 484.556 910.118 483.725 909.527 482.637C906.374 476.83 902.144 471.005 901.342 469.626C893.749 456.602 888.855 447.164 882.25 435.536L881.357 433.932L882.298 432.374C882.528 431.985 882.759 431.594 882.991 431.199C884.461 428.703 882.706 430.963 883.96 428.841C888.241 421.591 892.925 414.082 897.04 407.168C898.792 404.225 898.371 404.467 899.799 402.075L899.568 405.467C899.509 405.329 899.447 405.183 899.381 405.027C896.292 397.705 893.625 391.202 890.798 383.985C890.541 383.328 892.715 387.576 890.41 382.167C886.679 373.413 882.248 362.462 877.706 352.497C876.357 349.541 875.758 349.659 873.387 343.079C872.889 341.699 874.284 343.134 870.511 335.902C870.029 334.976 866.351 327.67 863.674 321.421L863.032 319.911L863.73 318.447C864.644 316.519 865.545 314.734 866.347 313.342C867.232 311.804 869.695 307.975 871.284 304.405C871.498 303.92 870.3 305.7 871.657 302.762C875.007 295.518 878.534 288.06 882.037 280.592L882.242 283.769C880.316 280.797 878.385 277.827 876.456 274.882C874.741 272.264 876.982 276.365 874.434 272.458C871.134 267.397 867.483 261.722 863.844 256.025L863.246 255.088L863.248 253.996C863.27 246.403 863.32 238.796 863.375 232.16C863.414 227.536 863.689 230.732 863.719 230.396C864.205 224.985 863.548 221.786 863.51 219.99C863.482 218.621 863.462 217.293 863.448 215.996L864.489 218.508C857.853 212.01 852.601 206.435 846.162 200.097C844.138 198.104 845.341 199.75 844.921 199.369C841.527 196.276 842.92 197.249 842.453 196.543L840.76 194.841L841.665 192.637C841.796 192.441 841.991 192.061 842.308 191.317C846.395 181.75 850.747 171.003 854.678 161.247C856.122 157.663 854.147 161.547 855.447 158.332C858.086 151.799 860.771 145.181 863.473 138.559L864.093 142.456C856.706 133.715 849.33 124.931 842.201 116.365L841.329 115.33L841.333 113.996C841.35 111.821 841.37 109.658 841.391 107.51C841.43 103.739 841.709 106.111 841.773 105.325C842.22 99.9082 841.611 91.9691 841.553 90.1421C841.551 90.0932 841.549 90.0444 841.548 89.9959C841.29 81.7977 841.535 78.5663 841.489 71.274C841.375 53.4861 841.357 33.6256 841.382 13.9959L843.268 17.1729C835.848 13.1139 828.469 9.06868 821.291 5.12938L825.429 4.61147C817.282 12.1377 809.436 19.3761 802.234 26.0231C800.589 27.5419 798.962 29.0431 797.352 30.5283L796.349 31.4552L795 31.4518C789.535 31.4337 784.214 31.4138 779 31.393L777.707 31.1372C765.959 26.2449 754.808 21.5933 743.765 16.9958L744.024 17.0896C731.457 13.0672 719.026 9.09913 706.055 4.99132L707.579 5.08333C700.85 6.33954 693.982 7.62916 686.89 8.97104C684.265 9.46734 686.981 9.33651 684.719 9.769C670.971 12.3898 657.314 14.9405 643.656 17.4901L643 17.551C628.374 17.5394 613.747 17.5264 599 17.5715C597.997 17.5745 596.993 17.5779 595.989 17.5815C593.544 17.5896 597.068 17.9423 593.144 17.9672C585.096 18.0209 574.9 18.0017 566.762 17.8891C562.793 17.8349 568.117 17.5323 564.122 17.4838C562.435 17.4633 560.725 17.4456 559 17.4308L560.188 17.219C552.86 19.8476 545.255 22.6404 537.931 25.3881C534.124 26.8172 540.005 25.0346 535.047 26.8658C530.795 28.437 526.553 30.0051 522.317 31.5702L520.868 32.1L519.474 31.4857C508.778 26.8183 498.126 22.1651 487.474 17.4856L489 17.8049C470.441 17.7771 451.852 17.6889 433 17.4626L434.257 17.2269C433.244 17.6068 432.23 17.9867 431.216 18.3664C428.879 19.2405 426.574 19.3506 421.682 21.4038C421.384 21.7381 421.491 21.9533 421.407 22.2191C413.685 25.2418 405.973 28.251 398.266 31.2505L397.055 31.7181L395.847 31.2919C382.496 26.6233 369.176 21.9437 355.859 17.2561L357 17.4501C340.346 17.4202 323.692 17.3782 307 17.3429L308.497 16.9896C299.17 21.6285 289.831 26.2765 280.473 30.9419L279 31.2896C276.227 31.2864 273.452 31.2838 270.675 31.2817C268.459 31.2801 272.289 31.6685 267.999 31.6674C260.283 31.6656 252.637 31.6748 245 31.6767L244.137 31.5739C227.667 27.6028 211.25 23.6076 194.293 19.2409C191.89 18.6225 193.227 18.2631 186.352 16.6842H187.649C187.543 16.711 187.436 16.7385 187.326 16.7666C186.057 17.0922 175.205 19.8054 172.429 20.6282C172.052 20.7421 174.111 20.5732 170.609 21.428C157.245 24.6866 143.447 27.9961 129.779 31.2202L128.641 31.4917L127.598 31.0016C120.963 27.863 114.37 24.7284 107.894 21.6325C104.849 20.1763 108.249 21.3883 106.082 20.3485C103.381 19.0532 100.633 17.7506 97.8579 16.4444L99.0005 16.6979C84.6081 16.6507 69.647 16.7815 56.2171 16.5273C45.3118 16.3197 49.3493 15.7326 43.5544 15.1547C42.7347 15.0732 35.9819 15.0603 35.6327 14.7241C34.7361 13.8786 38.007 12.9529 36.6649 12.0517C36.3813 11.8576 27.3375 12.0667 32.692 11.5976C33.0661 11.5662 39.6229 11.4106 41.2379 11.2514C42.3623 11.1414 40.3361 10.7995 42.6302 10.6587C44.9241 10.518 47.4448 10.8046 51.248 10.6391C55.0496 10.4716 53.378 10.0826 60.9701 10.0366ZM334.406 614.551C340.409 614.878 341.294 613.682 334.802 613.968C334.488 613.983 334.096 614.535 334.406 614.551ZM53.3801 279.181C48.1167 285.026 45.409 289.728 49.1498 285.627C52.8898 281.526 54.983 277.4 53.3801 279.181ZM22.1021 217.892C18.2252 226.214 19.2442 228.195 22.6674 218.981C22.867 218.446 22.3286 217.405 22.1021 217.892ZM70.4282 14.9902C70.3453 14.9743 65.4911 14.9588 65.3751 14.9746C62.7903 15.3545 72.4968 15.3852 70.4282 14.9902ZM5.16384 150.677C3.97266 152.648 1.51884 157.855 1.54431 158.268L1.46757 157.607C1.49245 157.616 1.50338 157.608 1.49883 157.581L1.5807 158.286C1.64636 158.243 1.80329 158.022 2.07448 157.573C3.5606 155.114 7.01389 147.615 5.16384 150.677ZM631.873 603.828C631.968 603.846 635.448 603.862 635.378 603.761C635.141 603.437 630.298 603.528 631.873 603.828ZM26.3968 24.1677C22.2792 32.3384 18.645 38.9336 16.8163 41.9038L16.7946 41.9959C16.5651 44.5903 16.3322 44.9268 16.2066 41.9959L16.2904 41.6409C17.0441 39.9569 18.4138 37.136 20.5363 32.9659C22.3502 29.402 17.0816 40.8745 19.4709 36.3785C23.8418 28.1514 25.8204 22.2266 30.4924 13.9369C31.3391 12.4366 26.9201 23.1361 26.3824 24.2008C26.3872 24.1898 26.392 24.1788 26.3968 24.1677ZM337.863 615.988C337.983 616.004 342.8 616.019 342.916 616.004C345.524 615.624 335.819 615.593 337.863 615.988ZM823.444 609.691C823.705 609.629 834.184 605.733 834.515 605.576C839.758 602.946 818.571 610.821 823.444 609.691ZM46.3868 616.864C41.2741 617.236 35.1856 617.288 31.0005 616.849L30.1491 616.852L30.1469 615.996C30.1593 615.878 30.1721 615.762 30.1852 615.647C30.1846 615.763 30.1841 615.88 30.1835 615.996L30.1856 616.815L31.0005 616.813C36.1096 616.837 41.2512 616.841 46.3868 616.864Z" fill="#B69F7C"/>
</svg>
