<svg width="100" height="100" viewBox="0 0 100 100" fill="none" xmlns="http://www.w3.org/2000/svg">
<rect width="100" height="100" rx="50" fill="#B69F7C"/>
<path d="M69.7599 44.4801C69.5454 44.2875 69.3198 44.1076 69.0842 43.9412C68.3868 43.4467 67.6856 42.9278 67.0075 42.427C65.4794 41.2558 63.8929 40.1626 62.2538 39.1518C55.154 34.9399 47.1376 31.078 37.7462 27.3458C36.2999 26.7709 34.8323 26.2207 33.2774 25.6382C32.5264 25.3568 31.7504 25.0656 30.9382 24.7576C30.8758 24.7339 30.807 24.7335 30.7442 24.7562C30.6815 24.779 30.629 24.8235 30.5964 24.8817C30.5151 25.0261 30.4177 25.1724 30.3234 25.3143C30.0778 25.6308 29.9008 25.9949 29.8037 26.3834C29.5287 27.8477 29.3488 29.3282 29.265 30.8157C29.2233 31.8169 29.181 32.8179 29.138 33.8189C28.9132 39.0999 28.6806 44.5604 28.5963 49.9341C28.5151 55.0792 28.5357 60.3105 28.5554 65.3695C28.5636 67.4328 28.5695 69.4962 28.5733 71.5595V71.632C28.5575 72.1784 28.5902 72.7254 28.6708 73.2662C28.7199 73.6277 28.8518 73.9733 29.0562 74.2758C29.2606 74.5781 29.532 74.8299 29.8495 75.0108C30.1644 75.1773 30.5158 75.263 30.8721 75.2609C31.2539 75.2568 31.6307 75.1741 31.9787 75.0175C32.3366 74.848 32.6776 74.6452 32.9971 74.4116C33.1392 74.3142 33.2815 74.2169 33.4264 74.126C34.2995 73.5777 35.1718 73.0277 36.0432 72.4767C37.9536 71.2713 39.9288 70.025 41.8842 68.8213C44.6639 67.1097 47.4466 65.4035 50.2324 63.7025C53.7009 61.5802 57.2878 59.3855 60.8062 57.2112C64.1039 55.1733 67.0624 52.6279 69.8101 50.1956C70.9327 49.2019 71.4573 48.3116 71.4621 47.3928C71.4659 46.4551 70.9251 45.53 69.7599 44.4801ZM32.6748 28.941L32.7439 28.9681C32.9902 29.0517 33.2248 29.1663 33.4421 29.3091C36.2815 31.41 39.2999 33.1332 42.9583 35.074C48.3479 37.934 52.8549 40.3559 57.3336 42.8813C58.9223 43.7771 60.4631 44.8319 61.9532 45.8521C62.4948 46.2236 63.0392 46.5954 63.5855 46.9607C63.946 47.2135 64.2921 47.4862 64.6222 47.7775C64.7677 47.9003 64.9229 48.0312 65.0927 48.1718C63.8812 49.537 62.5138 50.7559 61.0183 51.8034C58.5537 53.5177 56.1343 55.1833 53.64 56.7043C48.2948 59.9649 42.8299 63.232 37.5449 66.3918L33.4328 68.8524C33.238 68.9565 33.0319 69.0381 32.8186 69.0957L32.7915 69.1035C32.3715 64.8357 32.2794 34.7809 32.6748 28.941Z" fill="#522A00"/>
</svg>
