<svg width="32" height="33" viewBox="0 0 32 33" fill="none" xmlns="http://www.w3.org/2000/svg">
<g clip-path="url(#clip0_266_1369)">
<path d="M24.44 15.94C23.6 13.2733 22.4267 10.6066 21.4267 8.11329C20 4.37996 19.4933 3.75329 14.36 5.83329C8.72001 8.09996 4.61334 9.47329 1.04001 11.9133C0.976709 11.9587 0.925422 12.0189 0.890577 12.0886C0.855732 12.1583 0.838376 12.2354 0.840007 12.3133C0.775176 12.2749 0.700811 12.2555 0.625477 12.2575C0.550144 12.2595 0.476907 12.2828 0.414204 12.3246C0.351501 12.3664 0.301882 12.4251 0.271063 12.4938C0.240244 12.5626 0.229479 12.6387 0.240007 12.7133C0.920007 17.8333 2.97334 22.6733 4.61334 27.46C4.98667 28.54 6.46667 32.22 7.68001 32.46C8.89334 32.7 9.98667 31.8733 10.84 31.6066C13.5768 30.7085 16.2496 29.626 18.84 28.3666C21.2533 27.2466 25.7067 26.34 26.3467 24.86C26.8667 23.6066 26.5867 23.1666 24.44 15.94ZM24.92 24.2466C24.7067 24.7133 19.5867 26.34 18.1867 26.9933C15.6629 28.2476 13.0673 29.3517 10.4133 30.3C9.64839 30.6888 8.83759 30.98 8.00001 31.1666C6.54667 29.9533 2.90667 19.54 2.54667 18.4466C1.89406 16.5701 1.39465 14.6438 1.05334 12.6866C1.58667 13.02 2.28001 11.7533 7.20001 9.80662C16.16 6.45996 16.2533 6.37996 17.4667 6.09996C17.9006 5.98107 18.3506 5.93157 18.8 5.95329C19.4277 6.73812 19.8821 7.64693 20.1333 8.61996C21.12 11.1666 22.2267 13.8333 23.0133 16.38C25.0667 23.4866 25.2133 23.5666 24.92 24.2466Z" fill="#7B3F00"/>
<path d="M22.2534 17.9001C21.8142 16.5075 21.275 15.1484 20.6401 13.8334C19.6134 11.6334 19.3068 9.03345 18.1468 8.32678C17.5201 7.94012 17.0134 8.32678 16.6268 8.47345C11.2134 10.2868 6.81343 11.6068 3.42676 13.6734C3.36584 13.7085 3.31523 13.759 3.28004 13.8199C3.24485 13.8808 3.22632 13.9498 3.22632 14.0201C3.22632 14.0904 3.24485 14.1595 3.28004 14.2203C3.31523 14.2812 3.36584 14.3317 3.42676 14.3668C5.61343 22.1401 5.06676 21.6601 6.37343 24.3534C7.49343 26.6601 7.42676 26.6468 20.6401 21.0734C21.4287 20.8946 22.1171 20.4166 22.5601 19.7401C22.8668 19.0601 22.3868 18.3534 22.2534 17.9001ZM20.4268 17.3001C19.0934 16.6868 17.8668 15.8068 16.5201 15.0201C17.1148 14.0828 17.7788 13.1915 18.5068 12.3534C19.1601 14.4601 19.5468 14.8201 20.4268 17.3001ZM4.30676 14.1134C5.46255 13.4913 6.66113 12.9522 7.89343 12.5001C9.13343 12.0468 16.9201 9.68678 17.4401 9.42012C17.7974 9.96283 18.0464 10.5695 18.1734 11.2068C16.9874 11.9994 16.0967 13.162 15.6401 14.5134C13.6134 13.4868 11.6401 12.9934 9.9201 14.5134C8.2001 16.0334 7.4801 17.7134 6.14676 20.4068C4.85343 15.4868 5.33343 17.1801 4.30676 14.1134ZM20.8268 19.3268C20.0801 19.7134 23.8801 17.9934 9.74676 24.0334C9.4401 24.1668 8.17343 24.7001 7.89343 24.5401C7.32567 23.6185 6.87762 22.6283 6.5601 21.5934C7.52342 19.8569 8.63417 18.2064 9.8801 16.6601C11.4801 15.0868 11.9601 14.6734 14.4134 15.5401C16.8668 16.4068 18.4134 17.7668 20.9068 18.4601C20.9868 18.7268 20.9601 19.2468 20.8268 19.3268Z" fill="#7B3F00"/>
<path d="M22.1199 22.6467C21.4796 22.673 20.8504 22.8224 20.2666 23.0867C18.9703 23.5571 17.7623 24.2422 16.6933 25.1134C16.6495 25.1432 16.612 25.1813 16.583 25.2255C16.5539 25.2698 16.5339 25.3193 16.524 25.3713C16.5141 25.4233 16.5145 25.4768 16.5252 25.5286C16.536 25.5804 16.5568 25.6296 16.5866 25.6734C16.6164 25.7172 16.6545 25.7547 16.6987 25.7837C16.743 25.8128 16.7925 25.8328 16.8445 25.8427C16.8965 25.8526 16.95 25.8522 17.0018 25.8414C17.0536 25.8307 17.1028 25.8098 17.1466 25.7801C18.0686 25.2912 19.0218 24.8636 19.9999 24.5001C20.7023 24.1322 21.4283 23.8115 22.1733 23.5401C22.2386 23.5467 22.3046 23.5391 22.3667 23.5177C22.4289 23.4964 22.4856 23.4617 22.533 23.4163C22.5804 23.3708 22.6174 23.3156 22.6413 23.2544C22.6653 23.1933 22.6756 23.1276 22.6717 23.0621C22.6678 22.9965 22.6497 22.9326 22.6186 22.8747C22.5876 22.8168 22.5443 22.7664 22.4918 22.7269C22.4393 22.6874 22.3789 22.6597 22.3147 22.6459C22.2505 22.6321 22.184 22.6324 22.1199 22.6467Z" fill="#7B3F00"/>
<path d="M31.7332 6.95337C31.5465 3.0867 31.5732 2.95337 31.4132 2.4867C31.3362 2.21138 31.1826 1.96364 30.9701 1.77241C30.7576 1.58117 30.4951 1.45433 30.2132 1.4067C30.0932 1.4067 30.5465 1.4067 20.0265 0.6067C17.7435 0.426752 15.4485 0.466937 13.1732 0.7267C10.6665 1.1267 9.95987 1.83337 10.2799 4.4067C10.3333 4.92533 10.4636 5.43311 10.6665 5.91337C10.709 6.01061 10.7883 6.08702 10.8871 6.12578C10.9858 6.16453 11.096 6.16247 11.1932 6.12003C11.2905 6.0776 11.3669 5.99827 11.4056 5.8995C11.4444 5.80073 11.4423 5.69061 11.3999 5.59337C10.9797 4.58153 10.9559 3.44862 11.3332 2.42003C12.2399 1.18003 19.0265 1.83337 19.9999 1.95337C20.1332 1.95337 30.0265 2.98003 30.0532 3.15337C30.0799 3.3267 30.2932 7.07337 30.2932 7.15337C30.4932 8.58003 30.1065 15.4067 30.0532 16.8734C30.1187 18.3534 30.0965 19.836 29.9865 21.3134C29.6932 21.5267 29.2399 21.42 27.6132 21.2334C27.5563 21.2159 27.4965 21.2097 27.4372 21.2153C27.378 21.2209 27.3204 21.2381 27.2677 21.266C27.2151 21.2939 27.1685 21.3318 27.1305 21.3777C27.0926 21.4236 27.064 21.4765 27.0465 21.5334C27.029 21.5903 27.0229 21.6501 27.0285 21.7093C27.0341 21.7686 27.0513 21.8262 27.0792 21.8788C27.107 21.9315 27.145 21.9781 27.1909 22.016C27.2367 22.054 27.2896 22.0825 27.3465 22.1C29.4265 22.4334 30.0132 22.5534 30.5732 22.1C31.1332 21.6467 31.0265 20.98 31.0799 20.54C31.2932 14.2334 31.9065 8.7267 31.7332 6.95337Z" fill="#7B3F00"/>
<path d="M28 15.5134C28.5466 15.0734 28.4133 13.9801 28.4266 13.5667C28.4266 11.7401 28.3333 10.3934 28.28 8.88672C28.3368 7.7971 28.3056 6.70466 28.1866 5.62006C27.8666 4.19339 26.7466 4.44672 25.9733 4.39339C24.4932 4.18098 22.9881 4.21703 21.52 4.50006C21.4683 4.51319 21.4197 4.53637 21.377 4.56826C21.3344 4.60016 21.2984 4.64016 21.2711 4.68597C21.2439 4.73178 21.2259 4.78251 21.2183 4.83525C21.2107 4.888 21.2135 4.94174 21.2266 4.99339C21.2398 5.04504 21.2629 5.0936 21.2948 5.1363C21.3267 5.17899 21.3667 5.21499 21.4125 5.24223C21.4583 5.26947 21.5091 5.28742 21.5618 5.29505C21.6146 5.30268 21.6683 5.29985 21.72 5.28672C23.3466 4.91339 26.8933 5.91339 26.7733 5.74006C26.84 12.6867 27.0933 9.94005 27.3066 14.7001C26.9866 14.9667 26.28 14.8601 25.6933 14.8734C25.5847 14.8919 25.4862 14.9483 25.4152 15.0325C25.3442 15.1167 25.3052 15.2233 25.3052 15.3334C25.3052 15.4435 25.3442 15.5501 25.4152 15.6343C25.4862 15.7185 25.5847 15.7748 25.6933 15.7934C26.48 15.8201 27.3066 16.1001 28 15.5134Z" fill="#7B3F00"/>
</g>
<defs>
<clipPath id="clip0_266_1369">
<rect width="32" height="32" fill="white" transform="translate(0 0.5)"/>
</clipPath>
</defs>
</svg>
