<svg width="52" height="52" viewBox="0 0 52 52" fill="none" xmlns="http://www.w3.org/2000/svg">
<path d="M2 27C2 14.2975 12.2975 4 25 4H27C39.7025 4 50 14.2975 50 27C50 39.7025 39.7025 50 27 50H25C12.2975 50 2 39.7025 2 27Z" fill="#522A00"/>
<path d="M26.4147 0.0406792C26.599 0.0176005 26.796 0.00509787 27 0.00127983C27.844 -0.013835 28.7823 0.127905 29.518 0.317832C29.8135 0.393945 29.6401 0.590041 29.8421 0.653524C30.2355 0.778571 30.6219 0.723885 31.0004 0.880626C31.1257 0.933816 30.913 1.24086 31.0443 1.28904C31.7596 1.55148 32.4639 1.60501 33.1809 1.85363C36.6935 3.07981 39.9077 4.80776 42.6872 7.20271C43.6097 7.99337 44.4672 9.2011 45.3956 10.0167C45.505 10.1121 45.6639 9.84947 45.7005 9.85332C46.2702 9.92689 45.7311 10.2189 45.8577 10.4813C46.3604 11.5251 47.0694 12.505 47.7504 13.3343C48.0395 13.6872 48.2833 12.9859 48.2562 13.5526C48.2544 13.5913 47.9285 13.6618 47.9667 13.7846C48.0546 14.0616 48.3757 14.4888 48.4618 14.691C48.6264 15.0797 48.6623 15.1392 48.8451 15.4898C49.0924 15.9731 49.232 16.6168 49.5284 17.1169C49.5928 17.2241 49.8208 16.9439 49.9506 17.1058C50.0819 17.2683 50.2576 17.7697 50.2504 17.964C50.2442 18.1577 49.981 18.177 49.9384 18.2269C49.5747 18.6357 50.4083 18.9666 50.4496 19.041C51.1774 20.3101 51.1011 21.6165 51.3214 22.9174C51.4904 23.9119 51.7257 24.9788 51.7474 25.9474C51.7556 26.3111 51.7401 26.6592 51.7139 27C51.6569 27.7334 51.5538 28.4168 51.5086 29.1738C51.5009 29.2908 51.8892 29.1869 51.8802 29.3314C51.7821 30.8722 51.4535 32.3993 50.79 33.7959C50.7231 33.9352 50.4587 33.656 50.3731 33.788C49.8596 34.6159 48.7648 35.6694 49.8677 36.7382C49.5681 37.302 49.1807 37.9753 48.6616 38.3357C48.3277 38.566 48.1742 38.089 48.1019 38.5457C48.0844 38.6487 48.4237 38.688 48.3754 38.8324C48.1699 39.4425 47.7237 39.9785 47.5132 40.5898C47.4708 40.7148 47.7253 40.8434 47.7473 40.9022C47.9165 41.3939 47.0566 41.4252 46.9534 41.4809C46.1597 41.9396 45.8988 42.4952 45.3793 43.0785C45.2583 43.2128 45.6857 43.303 45.578 43.4425C45.0133 44.1634 44.3153 44.8206 43.5413 45.2923C43.3687 45.396 43.2868 45.0337 43.1938 45.0703C42.7894 45.2293 43.1201 45.7521 42.7274 45.9089C42.6454 45.9419 42.5048 45.698 42.4736 45.6843C41.9887 45.4652 42.2567 46.118 42.216 46.1695C41.7257 46.8165 40.9066 46.5368 40.356 47.0283C40.289 47.0881 40.6518 47.2685 40.4496 47.4198C39.1013 48.43 37.4419 49.1787 35.8057 49.5137C35.5515 49.5661 35.627 49.2539 35.5999 49.2296C35.1786 48.848 35.2618 49.5415 35.1909 49.5946C34.6308 49.9941 33.8859 49.6272 33.6796 50.5276C31.4545 50.9253 29.2429 51.4737 27 51.2061C26.4795 51.1401 25.9593 51.0428 25.4396 50.8993C25.4061 50.8909 25.4661 50.5557 25.3994 50.5404C25.228 50.5002 25.1002 50.4924 25 50.511C24.6198 50.578 24.6259 51.0082 24.1668 51.4962C24.0155 51.6523 23.6235 50.8629 23.5921 50.8037C23.4687 50.5882 23.6388 50.0989 23.5962 50.056C23.254 49.717 23.1972 51.3683 22.6744 51.3222C22.6587 51.3179 22.7545 51.0221 22.7143 50.988C22.591 50.8812 22.4462 50.9876 22.3268 50.8693C22.0526 50.5945 22.0581 49.7897 21.555 50.1884C21.4895 50.2391 21.443 51.1811 20.9873 51.0627C20.8057 51.0177 19.9997 50.8808 19.7873 50.7684C19.5765 50.6599 19.7959 50.3997 19.7824 50.3834C19.2812 49.86 19.5436 49.7496 19.4021 49.1074C19.2701 48.467 18.9939 49.843 18.8338 49.9626C18.6723 50.082 18.3349 49.6444 18.2673 49.5037C18.1979 49.3635 18.38 49.2182 18.3086 49.1292C17.8421 48.5424 17.8381 49.7118 17.5683 49.8596C16.9179 50.2016 16.8894 49.0861 16.515 48.8316C16.4119 48.7618 16.4181 49.0186 16.3085 48.9993C15.8734 48.9167 15.7643 48.5195 15.1951 48.5889C15.1046 48.6017 14.4688 48.9956 14.4343 48.466C14.4309 48.3905 14.6378 48.2041 14.4993 48.0704C14.2918 47.8707 13.887 47.5935 13.5883 47.5249C13.3674 47.4745 13.3762 47.9697 13.2005 47.7177C13.1236 47.6054 13.4434 47.5009 13.2908 47.309C13.1393 47.1192 12.642 46.8298 12.453 46.7173C12.2639 46.6066 12.1891 46.9432 12.1625 46.9522C12.0035 46.9997 11.5583 46.891 11.5269 46.8681C9.89967 45.8044 8.93094 44.2364 7.55826 43.0131C7.45015 42.9154 7.26322 43.2169 7.24413 43.2044C6.80048 42.9267 7.73847 42.6121 7.74085 42.1571C7.25355 42.6518 7.21203 42.4179 6.92935 42.2005C6.79277 42.0956 6.64561 42.3377 6.61472 42.3436C6.138 42.4086 6.4341 41.936 6.49105 41.835C6.69744 41.4594 6.21955 41.6081 6.35982 41.3563C6.50083 41.1083 6.96253 41.0707 6.76151 40.8158C6.5076 40.8914 6.14129 41.4817 5.90303 41.3408C4.98078 40.8051 4.42766 38.9728 4.12738 38.2705C3.81036 37.5661 3.66472 37.3574 3.55531 36.9141C3.36962 36.1109 3.05266 36.5763 2.64988 36.1882C2.25126 35.7912 3.44652 35.5875 3.65563 35.4262C3.86694 35.269 3.59582 35.2944 3.6955 35.1639C3.79582 35.0349 4.02234 35.1434 4.00107 34.9401C3.97911 34.7394 3.37339 34.3814 3.09845 34.3939C2.51594 34.427 2.03314 34.86 2.05858 34.2613C2.06073 34.2271 2.38855 34.2319 2.38191 34.1063C2.32238 33.1192 2.09959 32.1496 2.13948 31.181C2.14564 31.0481 2.50684 31.1008 2.51454 31.0236C2.60374 30.2237 2.07566 30.5955 1.37026 30.2503C2.2396 30.2281 2.72403 29.9243 2.66818 29.3519C2.63693 29.007 2.26829 29.1027 1.98403 28.8952C1.89817 28.8321 2.13809 28.5621 1.95861 28.5284C1.37188 28.4134 0.734567 28.6958 0.961421 28.0452C0.972513 28.0172 1.29309 28.0912 1.30827 27.9955C1.38855 27.5122 1.03652 27.3718 0.843434 27C0.79062 26.8977 0.750459 26.7781 0.736789 26.6305C0.683401 26.0922 1.10381 25.1643 1.22694 24.5826C2.19033 24.688 2.02705 24.1315 1.39643 23.815C1.47432 23.437 1.50347 23.015 1.66238 22.6649C1.71681 22.5446 1.9775 22.6792 2.01029 22.6688C2.52271 22.5195 1.91738 22.235 1.90988 22.1458C1.85589 21.2044 2.51962 20.6323 2.32147 19.6716C2.31421 19.6382 1.68907 19.3782 2.23055 19.3116C2.26728 19.3092 2.46693 19.6752 2.61929 19.3001C2.77244 18.9213 3.37398 18.3485 3.3074 17.7177C3.29 17.5663 2.932 17.021 3.43843 16.9481C3.50659 16.9394 3.66471 17.0575 3.78439 17.0556C4.1656 17.0505 3.5925 16.6701 4.20011 16.7461C4.80858 16.8216 5.36374 16.6782 5.27592 16.016C5.27385 15.9959 4.86596 15.6185 4.96087 15.4709C5.1115 15.2368 5.41054 14.9591 5.56208 14.7143C5.6345 14.5968 5.30447 14.4911 5.31219 14.4676C5.66574 13.5717 6.30651 13.1874 7.02935 12.493C7.15982 12.3685 7.15303 11.6625 7.66312 11.6344C8.21782 11.6109 9.17353 12.9955 9.4551 12.1233C9.56134 11.7857 8.42323 9.96454 9.64237 10.3114C10.3836 9.26809 11.6208 9.00024 12.4302 8.00279C12.4663 7.95836 12.2969 7.37242 12.4161 7.30567C12.5923 7.2084 12.8294 7.38187 12.9587 7.32346C13.5029 7.08633 13.8614 6.61763 14.3886 6.38605C14.5883 6.2986 14.648 6.58369 14.8841 6.48374C15.1195 6.38528 15.116 5.97507 15.5099 5.99271C15.8089 6.00753 16.3471 6.59981 16.687 6.55665C16.4166 5.85997 16.6399 5.78276 16.9699 5.44863C17.0337 5.38406 16.8602 5.17091 16.8859 5.1277C16.9907 4.94577 17.2023 5.09893 17.2974 4.91114C17.3208 4.86585 17.2388 4.62403 17.2538 4.57326C17.3811 4.13028 17.9749 4.54395 18.0708 4.6198C18.4475 4.9013 18.4761 4.54752 18.7233 4.63319C18.9673 4.72062 18.7139 4.98478 18.9739 5.00714C19.5107 5.05372 20.1234 4.86777 20.6275 4.78231C20.8272 4.74684 20.6274 4.43834 20.6544 4.42549C21.0602 4.25934 21.5398 4.55163 21.6778 3.84665C22.2113 5.54604 21.9089 3.63834 22.5732 3.91899C22.6257 3.9422 22.7667 4.76195 22.6018 4.90188C22.4382 5.04167 22.1368 4.81622 21.9173 5.03878C21.8624 5.09075 21.6538 5.90856 21.6202 5.96229C21.3436 6.3801 21.081 5.1692 21.0486 5.10527C20.7014 4.41938 20.4505 5.32474 20.3623 5.40374C19.9395 5.76571 19.5008 5.69629 19.1563 5.98806C18.9324 6.17794 19.1375 6.9652 18.9406 6.99818C18.2946 7.11133 17.6741 6.12703 17.4201 7.27364C17.3682 7.51934 17.8193 8.29296 17.1204 7.82275C17.0792 7.79146 16.4947 7.34355 16.4665 7.79945C16.4635 7.8566 16.5698 8.09259 16.5479 8.12622C16.4002 8.34696 16.1772 8.22319 15.9977 8.41974C15.8185 8.61643 15.6257 8.8794 15.3395 8.93335C15.1683 8.96524 14.7429 8.65015 14.6115 8.58905C14.2366 8.4101 14.3025 9.0193 13.9665 8.7415C13.6223 8.46664 13.5541 7.77067 13.0647 7.75785C13.4066 8.33713 13.7432 8.94067 14.0834 9.52562C13.3785 9.9392 12.5872 10.2352 11.9551 10.7821C11.8778 10.8502 12.1864 11.0655 12.1108 11.1449C11.7942 11.4773 11.3209 11.5465 11.0384 11.9479C10.8209 12.2599 10.803 12.8134 10.6134 13.1497C9.89746 12.7816 9.69212 13.3877 9.3723 13.6568C9.25918 13.7521 9.10855 13.6122 8.98944 13.65C8.5441 13.7992 9.18975 14.0863 9.20526 14.2363C9.28183 14.8722 8.04239 13.9557 7.73315 14.4387C7.71416 14.466 8.17349 15.2346 8.19055 15.3009C8.29034 15.7422 7.92664 15.1797 7.76653 15.3062C7.47606 15.5378 7.17155 15.6458 7.15609 16.1305C7.15131 16.2744 7.44552 16.7786 6.98726 16.7853C6.92693 16.7866 6.69951 16.6379 6.67323 16.6521C6.21644 16.9258 6.96121 17.346 7.10067 17.7001C7.24165 18.0517 6.54561 18.1373 6.35695 18.1407C5.86956 18.1447 6.25785 17.9127 6.22484 17.8838C5.82499 17.5356 5.77271 17.8413 5.63789 18.0302C4.86591 17.7074 4.77391 18.0323 5.50154 18.2286C5.58086 18.2499 5.58369 18.0558 5.63789 18.0302C6.29601 18.5594 6.26175 18.8895 5.40802 18.9516C5.00836 18.9833 4.68064 18.6651 4.61926 19.2475C4.59366 19.5115 5.16689 19.6208 5.24 19.8783C5.40962 20.4588 4.70544 20.9037 4.65065 21.4298C4.63152 21.618 4.98276 21.525 4.98086 21.655C4.9784 21.9973 4.68011 22.2259 4.72664 22.5813C4.7314 22.6131 5.06895 22.6114 5.05151 22.7125C4.92918 23.4755 4.6142 24.11 4.52487 24.9278C4.48032 25.3196 4.6167 26.0366 4.57214 26.4383C4.55178 26.6163 4.50668 26.8052 4.45401 27C4.29769 27.5725 4.08085 28.1936 4.20429 28.6478C4.3114 29.0406 4.63372 28.9221 4.87312 29.0656C5.33576 29.336 4.63858 29.9915 4.53311 30.0931C4.52902 30.0968 4.40402 29.7686 4.26204 29.9735C3.92816 30.1304 4.53116 30.0902 4.53311 30.0931C4.46061 30.1545 4.50107 30.8471 4.5918 30.9676C4.63967 31.0334 4.93841 30.9331 4.95752 30.9679C5.40637 31.7989 5.707 32.6176 5.85982 33.5208C5.859 33.538 5.52042 33.6278 5.52281 33.6672C5.55006 34.2229 6.07663 34.3977 6.47303 34.6927C6.87159 34.99 6.92982 35.3184 6.49975 35.8105C6.70829 36.0748 6.68784 36.6151 6.68049 36.9363C6.67338 37.2588 7.28655 36.9583 7.30938 36.972C8.04826 37.3968 7.93518 37.95 8.32652 38.6235C8.5096 38.9432 9.0262 39.4661 9.33409 39.7218C9.57654 39.9241 9.57697 40.1707 9.84323 40.3199C9.87904 40.34 10.0805 40.1105 10.097 40.1116C10.5759 40.1054 9.92424 40.486 9.86999 40.6239C9.675 41.1245 9.59636 41.4199 10.0545 41.5674C10.1623 41.6043 11.1129 41.0486 11.274 41.1176C11.4859 41.2123 11.162 41.4314 11.3942 41.5233C11.4139 41.5312 11.5718 41.3567 11.6682 41.46C12.1175 41.9368 12.5837 42.5046 13.1495 42.8969C13.2258 42.9508 13.3537 42.5801 13.4661 42.6516C13.9937 42.9869 14.5484 43.3719 14.9837 43.8344C15.0904 43.9492 14.8761 44.1265 14.8649 44.2102C14.8048 44.7216 15.4001 44.2721 15.4449 44.2816C16.576 44.5276 17.1053 45.4487 18.3009 45.5737C18.3706 45.5817 19.0465 45.0409 19.0556 45.7012C19.0546 45.7449 19.0718 46.4245 19.3801 46.0568C19.3986 46.0335 19.3669 45.6796 19.5765 45.7758C19.7887 45.8725 20.1952 45.7531 20.416 46.1788C20.4834 46.3126 20.5849 46.9951 20.9898 46.556C21.0238 46.5275 21.6771 45.4767 21.6988 46.2875C21.7023 46.4207 21.5366 47.2512 21.9676 46.88C22.0482 46.8073 21.9535 46.6031 22.1483 46.5129C22.443 46.3729 22.7833 46.6426 23.1534 46.2995C23.2201 46.2392 23.5061 45.6897 23.67 46.1363C23.6965 46.2063 23.6178 46.4835 23.7217 46.5219C24.1339 46.6737 24.5686 46.5808 25 46.6501C25.1048 46.6646 25.2093 46.6868 25.3132 46.7206C25.526 46.7891 25.4172 47.2445 25.639 47.3666C25.8609 47.4886 26.3077 47.6059 26.5398 47.3978C26.772 47.1896 26.5184 46.4637 26.8662 46.4056C26.9108 46.3982 26.9554 46.3913 27 46.385C28.2305 46.1781 29.4772 46.4661 30.7278 46.2888C30.9166 46.2613 30.7121 46.0378 30.9833 45.9772C31.9986 45.7642 33.5724 45.0069 34.6046 45.1526C35.4512 45.2703 34.7303 45.9482 35.3279 45.8847C35.6233 45.8485 35.5343 44.9563 35.5781 44.9056C36.0274 44.3886 36.5856 44.512 37.026 44.1226C37.1152 44.0424 36.8426 43.8061 36.919 43.7417C37.1764 43.5201 37.5572 43.4603 37.8106 43.2576C37.9235 43.166 37.7551 42.9645 37.8749 42.9071C38.1601 42.7663 38.4484 42.6939 38.8456 42.7009C38.8824 42.701 38.922 43.0786 39.1221 42.9422C39.4428 42.7222 39.9801 42.5983 40.1579 42.1117C40.2101 41.966 39.8162 41.519 40.3015 41.636C40.4024 41.6601 40.8339 42.2395 40.6579 41.5568C40.6348 41.4392 40.4407 40.4668 41.0077 40.6534C41.1577 40.7027 41.7106 40.9746 41.7552 40.7917C41.7592 40.7659 41.466 40.6101 41.5331 40.4922C41.7719 40.0815 42.1154 39.7369 42.3342 39.3042C42.3914 39.1888 42.0162 39.1268 42.1078 38.9632C42.3583 38.5145 42.7952 38.0562 43.1572 37.6962C43.291 37.5642 43.4507 37.8212 43.483 37.8268C44.0116 37.9084 43.5295 37.441 43.5343 37.3616C43.5757 36.8632 44.0106 36.7294 44.1389 36.3252C44.1741 36.215 43.8603 36.1366 43.8465 36.1035C43.7149 35.772 44.1295 36.1891 44.2538 36.0874C44.6038 35.8013 44.788 35.3652 44.9226 34.9632C44.9715 34.8153 44.5694 34.8271 44.616 34.6978C44.8834 33.932 45.1985 33.1642 45.6135 32.4571C45.6922 32.3239 45.9345 32.4918 46.0046 32.4793C46.4964 32.3886 45.9915 31.9118 45.9517 31.8305C45.775 31.4455 46.0436 31.3795 46.0609 31.081C46.1322 29.7933 46.3977 28.2898 46.4891 27C46.5009 26.8445 46.5106 26.6932 46.5182 26.5469C46.5984 24.7805 46.6499 23.3421 46.1364 21.7019C46.1034 21.5983 45.7743 21.803 45.7415 21.7165C45.3355 20.6044 45.0514 19.4576 44.4291 18.4357C44.3787 18.3523 44.1243 18.6329 44.0336 18.5066C43.8455 18.249 43.6771 17.8928 43.6163 17.5597C43.5858 17.3971 43.9533 17.4297 43.9159 17.2674C43.8284 16.8883 43.637 16.5295 43.3783 16.2398C43.2678 16.1178 43.1018 16.5201 42.9828 16.3485C42.1585 15.1831 41.2372 14.1775 40.5075 12.8341C40.458 12.7427 40.8947 12.146 40.6359 12.0992C40.4863 12.2381 40.3255 12.4154 40.1737 12.5712C38.5501 11.2468 36.9399 9.88422 35.0057 8.97819C34.9249 8.94064 34.9072 9.35743 34.7518 9.28773C33.8476 8.88654 32.9284 8.67623 32.0473 8.04203C31.959 7.98005 32.1825 7.33062 31.8581 7.35609C31.8011 7.36011 31.3289 7.34391 31.1821 7.46588C31.162 7.48453 31.176 7.81335 31.0319 7.7925C30.1991 7.66761 29.3402 7.47278 28.5067 7.21551C28.3714 7.17346 28.5432 6.84542 28.4457 6.81257C27.9815 6.66013 27.4837 6.71511 27 6.68871C26.7225 6.67514 26.4503 6.63564 26.1903 6.53138C25.6755 6.32376 25.8661 5.73669 25.5926 5.15883C25.5539 5.0773 25.2351 5.06438 25.2187 4.72816C25.1763 3.88272 25.3307 2.95697 25.2674 2.05581C25.254 1.86171 24.8271 2.07077 25.0798 1.60171C25.0975 1.57032 25.407 1.41464 25.4832 1.25552C25.5363 1.14551 25.4407 0.803576 25.549 0.662748C25.6572 0.522051 25.7762 0.808676 25.9557 0.643216C26.1352 0.475709 26.0563 0.0867252 26.4147 0.0406792ZM6.69916 38.3953C6.56559 38.7966 7.59333 38.1829 7.2032 38.1009C7.18318 38.0976 6.70552 38.3753 6.69916 38.3953ZM12.0618 9.52176C11.4605 9.31115 11.7458 10.0748 12.1867 10.2487C12.6207 10.429 12.241 9.58847 12.0618 9.52176ZM14.9705 7.26801C14.4037 7.09213 15.1481 8.61812 15.3653 8.11905C15.3781 8.09072 15.003 7.27856 14.9705 7.26801ZM26.8611 4.99428C26.8572 4.97839 26.6281 4.96291 26.6226 4.97865C26.5006 5.35862 26.9587 5.38932 26.8611 4.99428ZM18.2359 5.4828C18.0386 5.30324 17.7574 5.67581 18.0038 5.89476C18.1983 6.07119 18.4767 5.70645 18.2359 5.4828ZM16.7157 48.2831C16.7132 48.3014 16.8601 48.3752 16.8929 48.2797C16.9979 47.9727 16.7568 47.9774 16.7157 48.2831ZM24.4814 4.43713C23.5617 4.39868 22.8432 3.05302 23.9394 3.14732C24.1335 3.16679 23.5441 3.61396 23.7966 3.72795C24.2434 3.93655 24.5232 3.04891 24.9916 3.51919C25.0702 3.60438 24.5298 4.44106 24.4798 4.43912C24.4803 4.43846 24.4809 4.43779 24.4814 4.43713ZM5.56696 39.2943C5.55638 39.3076 5.66663 39.5073 5.68298 39.5032C6.06712 39.3985 5.84932 39.003 5.56696 39.2943ZM26.0481 50.5721C26.0606 50.6058 26.5884 50.6374 26.6056 50.6063C26.8809 49.9852 25.8139 49.9196 26.0481 50.5721ZM1.25363 24.5758C0.899014 24.2807 0.892811 23.955 1.39579 23.8161C1.33675 24.0656 1.30293 24.3214 1.25363 24.5758Z" fill="#522A00"/>
<path d="M16.9322 34.3892C17.0041 34.2731 17.151 34.1735 17.2771 34.1123C17.3165 34.093 17.3466 34.1528 17.3759 34.1415C17.433 34.1194 17.4479 34.0604 17.5078 34.0421C17.528 34.0362 17.583 34.1236 17.6025 34.1159C17.7086 34.0728 17.761 33.9841 17.8517 33.9237C18.2985 33.6263 18.691 33.2872 19.1002 32.943C19.235 32.8295 19.4507 32.7431 19.5507 32.5866C19.5623 32.5682 19.4908 32.5146 19.4885 32.5066C19.4543 32.383 19.5657 32.5241 19.6116 32.5117C19.7937 32.4621 19.9282 32.3391 20.0155 32.2035C20.0525 32.1457 19.8807 32.069 19.9982 32.091C20.0062 32.0924 20.0606 32.1708 20.0807 32.1649C20.1261 32.1513 20.1702 32.0835 20.1983 32.0659C20.2528 32.0324 20.2594 32.0244 20.3019 31.9835C20.3604 31.9282 20.4612 31.8934 20.5072 31.8173C20.5169 31.8008 20.4315 31.75 20.4407 31.7176C20.45 31.6852 20.5108 31.6359 20.5455 31.6334C20.5801 31.6309 20.6257 31.6923 20.6412 31.7013C20.7718 31.7778 20.6921 31.5707 20.6968 31.5589C20.7858 31.3491 20.9957 31.3026 21.1357 31.162C21.2419 31.0552 21.3288 30.9143 21.4339 30.8167C21.5593 30.7006 21.6985 30.6352 21.8094 30.5115C21.8212 30.4986 21.7267 30.433 21.7409 30.417C21.8922 30.2471 22.0605 30.0963 22.2744 29.9904C22.296 29.9799 22.3456 30.0708 22.3713 30.0645C22.5271 30.0241 22.8211 30.0076 22.5734 29.6434C22.6518 29.5888 22.7449 29.5205 22.866 29.5227C22.944 29.5241 22.9833 29.6379 22.9978 29.5581C23.0011 29.5402 22.9203 29.487 22.9303 29.4652C22.9729 29.3736 23.0679 29.3221 23.0996 29.2212C23.1059 29.2005 23.0421 29.1441 23.0351 29.1294C22.9797 29.0097 23.178 29.101 23.2002 29.0999C23.3674 29.0896 23.4014 28.9938 23.486 28.913C23.5057 28.8943 23.4023 28.8363 23.4184 28.8154C23.5026 28.708 23.6088 28.6157 23.7384 28.5578C23.7674 28.545 23.8169 28.633 23.8343 28.6304C23.9102 28.6183 23.7901 28.4787 23.8603 28.4646C23.8749 28.4615 23.9288 28.5253 23.9369 28.5302C24.0637 28.6063 23.942 28.4405 23.9453 28.4308C23.9845 28.3048 24.1874 28.4021 24.2459 28.3011C24.2527 28.2889 24.1568 28.2359 24.1806 28.2061C24.3387 28.0068 24.5482 27.8383 24.7846 27.7209C24.8213 27.7026 24.8576 27.7782 24.8662 27.7833C25.0021 27.8629 24.876 27.7003 24.8796 27.6859C24.9112 27.576 25.0983 27.6309 24.9745 27.4109C25.2628 27.2184 25.4496 26.9262 25.7452 26.7443C25.8747 26.5857 26.0984 26.6148 26.257 26.7443C26.3018 26.8171 26.3399 26.8965 26.3681 26.9856C26.3701 26.9912 26.2923 27.0555 26.2966 27.0663C26.3474 27.197 26.4405 27.0691 26.6356 26.994C26.6847 26.9752 26.5676 27.1843 26.5597 27.2004C26.5304 27.2593 26.4093 27.3497 26.4057 27.3632C26.3798 27.4713 26.7229 27.1148 26.7785 27.1701C26.7796 27.1725 26.7079 27.2296 26.7062 27.2406C26.7006 27.2752 26.7405 27.2639 26.7325 27.3002C26.7136 27.3839 26.5551 27.5654 26.7035 27.5159C26.7226 27.5094 26.9115 27.3014 26.9516 27.3603C26.9674 27.3839 27.0582 27.4679 27.0698 27.5052C27.0814 27.5425 27.0007 27.5897 26.9997 27.5942C26.981 27.7446 26.921 27.7547 26.8288 27.9129C26.7372 28.0706 27.0254 27.764 27.0721 27.7443C27.1187 27.7246 27.0972 27.8427 27.0848 27.8788C27.0724 27.915 27.017 27.9408 27.0138 27.9651C26.9941 28.1247 27.1922 27.8481 27.2624 27.824C27.4286 27.7666 27.2503 28.0295 27.2785 28.1008C27.2861 28.1201 27.3253 28.0589 27.342 28.0662C27.4074 28.0957 27.3672 28.1931 27.4843 28.184C27.5034 28.1826 27.6797 28.0936 27.6106 28.2192C27.6006 28.2373 27.5343 28.2809 27.5422 28.3134C27.5539 28.3621 27.5964 28.4286 27.6473 28.4427C27.6848 28.4531 27.7479 28.335 27.75 28.3934C27.7508 28.4194 27.673 28.4475 27.679 28.4919C27.6849 28.5361 27.7514 28.5979 27.7776 28.6205C27.8038 28.643 27.8592 28.5609 27.8658 28.5583C27.9042 28.5437 27.9841 28.5573 27.9881 28.5615C28.2049 28.7615 28.2812 29.0694 28.5224 29.2339C28.5412 29.2469 28.6031 29.1639 28.6067 29.1651C28.6915 29.1893 28.4559 29.3389 28.4295 29.4415C28.5711 29.289 28.5669 29.338 28.6214 29.3603C28.6478 29.3709 28.6947 29.3039 28.7022 29.2998C28.8161 29.2408 28.7235 29.3715 28.7056 29.3993C28.6397 29.5015 28.7588 29.422 28.715 29.4905C28.6716 29.5586 28.5605 29.6128 28.5984 29.6486C28.6613 29.6063 28.7715 29.4414 28.8217 29.4471C29.0115 29.4683 29.1005 29.773 29.1741 29.8691C29.2475 29.9649 29.2846 29.9825 29.3149 30.0508C29.3695 30.1743 29.4389 30.0396 29.541 30.0482C29.6431 30.057 29.3651 30.2811 29.3191 30.3431C29.273 30.4048 29.3371 30.3578 29.3172 30.3972C29.2972 30.4366 29.2395 30.4523 29.2512 30.4862C29.2629 30.5202 29.4213 30.4867 29.4859 30.4383C29.6225 30.3359 29.7199 30.1823 29.7362 30.2868C29.7371 30.2929 29.6598 30.3476 29.6664 30.3676C29.7213 30.5241 29.828 30.6371 29.8886 30.7876C29.8968 30.8084 29.8104 30.8689 29.8144 30.8818C29.8554 31.0168 29.9478 30.8615 30.1335 30.7722C29.9397 30.9444 29.8543 31.0831 29.92 31.1509C29.9595 31.1918 30.0325 31.1049 30.1148 31.0745C30.1396 31.0653 30.1131 31.1487 30.1559 31.1162C30.2957 31.0103 30.4066 30.8459 30.4206 30.9696C30.4211 30.9752 30.3442 31.0328 30.3505 31.0474C30.3913 31.1415 30.528 31.021 30.6165 31.0784C30.6859 31.1233 30.7091 31.3034 30.7615 31.3813C30.5543 31.5857 30.6629 31.6001 30.8298 31.4831C30.8662 31.5311 30.9198 31.5688 30.9411 31.6292C30.9484 31.6499 30.8796 31.7003 30.8749 31.7085C30.8011 31.8367 30.9575 31.717 30.9721 31.7207C31.1235 31.7669 31.0994 31.9521 31.296 31.9441C31.303 31.9438 31.4514 31.8063 31.3722 31.9359C31.3667 31.9447 31.2705 31.9786 31.3098 32.028C31.3491 32.0774 31.3561 32.2377 31.484 32.233C31.5149 32.232 31.6686 32.1537 31.6082 32.2746C31.5999 32.2909 31.5545 32.3275 31.5375 32.3562C31.4836 32.4477 31.6384 32.3135 31.5378 32.4583C31.4371 32.6032 31.3912 32.7411 31.538 32.7186C31.5425 32.7181 31.6717 32.6183 31.6894 32.6396C31.7176 32.6738 31.738 32.7419 31.7713 32.7737C31.7873 32.7889 31.8485 32.7078 31.8525 32.7093C31.9972 32.7742 32.0084 32.9123 32.0932 33.0521C32.1086 33.0779 32.2648 33.0401 32.2279 33.1566C32.1878 33.2843 31.7937 33.5885 31.9774 33.6059C32.0513 33.6132 32.5456 33.2216 32.389 33.524C32.5873 33.6086 32.6007 33.8568 32.8237 33.9174C32.8337 33.9202 32.9774 33.8168 32.9908 33.8334C33.0103 33.8584 32.9647 33.9284 32.9768 33.9481C33.026 34.0321 33.1364 34.0436 33.1929 34.1155C33.2145 34.1427 33.1462 34.1939 33.1719 34.2263C33.1977 34.2587 33.2958 34.1994 33.2971 34.2768C33.2979 34.3355 33.1669 34.526 33.1876 34.5842C33.3477 34.4271 33.3716 34.4575 33.4616 34.4638C33.479 34.4649 33.5243 34.3998 33.5353 34.3975C33.5816 34.3869 33.5524 34.4491 33.6003 34.4351C33.6118 34.4318 33.6662 34.3778 33.6787 34.372C33.7871 34.3209 33.7124 34.4899 33.6993 34.5192C33.6498 34.6308 33.7348 34.5749 33.7269 34.6304C33.7189 34.6859 33.6437 34.69 33.6522 34.7371C33.67 34.8345 33.7527 34.8997 33.8087 34.9606C33.8314 34.9846 33.8877 34.8964 33.8927 34.8982C33.9592 34.9281 33.9311 35.0538 34.1019 34.9365C33.7629 35.3423 34.1671 34.9295 34.1615 35.073C34.1609 35.0844 33.9917 35.2675 33.945 35.2724C33.8983 35.2774 33.9218 35.1908 33.8525 35.2021C33.8362 35.2047 33.6319 35.3305 33.6166 35.3351C33.4965 35.3713 33.7537 35.1022 33.766 35.0855C33.8968 34.9044 33.6711 35.0342 33.6461 35.0338C33.5321 35.0324 33.52 34.9463 33.4315 34.9381C33.3739 34.9325 33.1984 35.1017 33.1789 35.0716C33.1138 34.9717 33.3255 34.7024 33.0392 34.8332C32.9781 34.861 32.8062 35.066 32.8947 34.8581C32.9002 34.845 32.9914 34.6651 32.8801 34.7252C32.866 34.7328 32.8112 34.7878 32.8024 34.7882C32.7441 34.7896 32.7689 34.7268 32.7169 34.7168C32.665 34.7068 32.5965 34.7008 32.5798 34.6467C32.5696 34.6143 32.6445 34.4846 32.6594 34.4494C32.7027 34.3484 32.5535 34.4358 32.623 34.3306C32.6928 34.2248 32.8614 34.1266 32.8709 34.0227C32.7265 34.1636 32.5761 34.306 32.4298 34.4466C32.3313 34.3382 32.2757 34.1902 32.1656 34.0927C32.1518 34.0808 32.0882 34.1706 32.0715 34.1598C32.0011 34.1138 32.0049 34.0083 31.9228 33.9697C31.8589 33.9401 31.7265 33.9701 31.6572 33.9417C31.7906 33.7486 31.6626 33.7315 31.6249 33.6639C31.6116 33.6403 31.6564 33.5979 31.6575 33.5706C31.6606 33.4685 31.5396 33.6359 31.5033 33.6451C31.3482 33.6837 31.6697 33.3522 31.593 33.2917C31.5891 33.2884 31.3706 33.418 31.3536 33.4227C31.244 33.4544 31.4077 33.3556 31.3963 33.3184C31.3753 33.2505 31.386 33.178 31.2829 33.1769C31.2525 33.1768 31.1076 33.2488 31.162 33.1353C31.1691 33.1204 31.2287 33.0651 31.229 33.0586C31.2285 32.9458 31.0463 33.1251 30.9527 33.154C30.8592 33.1828 30.934 33.0081 30.9598 32.9619C31.0262 32.8423 31.0199 32.9426 31.0305 32.9349C31.1561 32.8431 31.1009 32.8254 31.0823 32.7884C31.2555 32.6071 31.2059 32.5788 31.0622 32.7507C31.0466 32.7696 31.0848 32.7747 31.0823 32.7884C30.8839 32.9378 30.8189 32.9173 30.9341 32.7075C30.9881 32.6093 31.0979 32.5414 30.9982 32.5067C30.953 32.4908 30.8427 32.6246 30.7826 32.631C30.6451 32.6454 30.6791 32.4517 30.5977 32.4062C30.5682 32.3897 30.5238 32.4789 30.5014 32.4699C30.4415 32.4463 30.4548 32.3594 30.3872 32.3432C30.381 32.3418 30.3204 32.421 30.3064 32.4089C30.1995 32.3182 30.1583 32.1873 30.0563 32.0829C30.0071 32.0325 29.8794 31.982 29.8355 31.9226C29.759 31.8201 29.7506 31.6083 29.6495 31.5565C29.5838 31.5225 29.5248 31.6034 29.4558 31.6297C29.3222 31.6808 29.4147 31.4424 29.4304 31.4069C29.431 31.4058 29.4904 31.4322 29.5034 31.3734C29.5649 31.2853 29.4313 31.4071 29.4304 31.4069C29.4405 31.3839 29.3707 31.2823 29.3403 31.2787C29.3238 31.2767 29.2627 31.3482 29.2553 31.3459C29.0814 31.2906 28.9497 31.1926 28.8645 31.0454C28.8638 31.042 28.941 30.971 28.9384 30.9639C28.904 30.8637 28.7703 30.9113 28.6609 30.9096C28.5516 30.9079 28.5256 30.8459 28.62 30.6858C28.5621 30.6599 28.5583 30.5436 28.5579 30.4749C28.5574 30.4062 28.4083 30.5456 28.4024 30.5455C28.2163 30.5419 28.244 30.4045 28.1585 30.2932C28.118 30.24 28.0043 30.1681 27.9378 30.1333C27.8851 30.1059 27.8948 30.048 27.8362 30.0327C27.8284 30.0306 27.7692 30.0999 27.7652 30.1008C27.6471 30.1365 27.824 29.9993 27.8435 29.9627C27.9147 29.8299 27.95 29.7565 27.8493 29.7518C27.8261 29.7506 27.5646 29.9413 27.5292 29.9324C27.4836 29.9203 27.5755 29.8501 27.5257 29.8396C27.5215 29.8386 27.472 29.8892 27.4556 29.8683C27.3787 29.7723 27.3135 29.6489 27.2187 29.5641C27.2059 29.5523 27.1423 29.6473 27.1226 29.6316C27.0299 29.5578 26.9417 29.4637 26.8977 29.3455C26.8872 29.3161 26.9552 29.2731 26.9674 29.2523C27.0405 29.1259 26.8579 29.2332 26.8489 29.2297C26.6308 29.1509 26.6484 28.9061 26.4346 28.8173C26.4227 28.8128 26.2039 28.9048 26.3089 28.7432C26.3159 28.7324 26.4242 28.5681 26.3063 28.6365C26.2989 28.6408 26.2461 28.7285 26.2229 28.6909C26.1996 28.6533 26.1037 28.6512 26.139 28.5323C26.1501 28.4948 26.2548 28.3274 26.1069 28.3964C26.0967 28.4014 25.7906 28.5856 25.938 28.3946C25.9623 28.3633 26.145 28.1879 26.0061 28.2326C25.9793 28.2414 25.9557 28.2977 25.907 28.2989C25.8323 28.3009 25.832 28.2048 25.7076 28.2399C25.6857 28.2462 25.531 28.3345 25.5966 28.2157C25.6069 28.1971 25.6746 28.1452 25.6672 28.1245C25.6324 28.0256 25.5225 27.9956 25.496 27.8863C25.4865 27.8478 25.5954 27.7635 25.5962 27.7125C25.597 27.6616 25.5715 27.5862 25.5011 27.6041C25.4307 27.6221 25.3054 27.8047 25.2537 27.7777C25.2471 27.7743 25.2406 27.7707 25.2343 27.767H26.768C26.6462 27.9765 26.3965 28.0553 26.2181 28.208C26.1909 28.2313 26.2669 28.2655 26.2307 28.3038C26.0974 28.4453 25.9118 28.7342 25.6754 28.7364C25.4861 28.7382 25.5349 28.5466 25.4238 28.5814C25.3703 28.5984 25.5112 28.8156 25.5084 28.8297C25.4825 28.9701 25.3455 28.9485 25.295 29.0476C25.2846 29.0681 25.3723 29.1255 25.3627 29.1422C25.3304 29.1996 25.2508 29.2144 25.2138 29.2633C25.1974 29.2853 25.2564 29.3372 25.2344 29.3506C25.1824 29.3834 25.1216 29.3976 25.0284 29.387C25.0199 29.386 24.9763 29.2917 24.9424 29.3205C24.8877 29.3672 24.7735 29.379 24.7681 29.4903C24.7667 29.5235 24.8926 29.6509 24.7679 29.6006C24.7418 29.5902 24.5997 29.4281 24.6878 29.6029C24.7023 29.632 24.8067 29.8821 24.6567 29.8036C24.6172 29.783 24.4687 29.6826 24.4674 29.723C24.4677 29.7289 24.547 29.7857 24.5364 29.8096C24.4978 29.8926 24.4268 29.9491 24.3856 30.0329C24.3747 30.0554 24.47 30.1009 24.4515 30.1322C24.4009 30.2184 24.2976 30.2859 24.2087 30.3308C24.1758 30.3472 24.1345 30.2718 24.1264 30.2672C23.9943 30.1929 24.1166 30.3493 24.1151 30.367C24.1042 30.4752 23.9934 30.4551 23.9558 30.5273C23.9453 30.5471 24.0224 30.6027 24.0253 30.6117C24.0519 30.7008 23.9559 30.5582 23.923 30.5649C23.8303 30.5831 23.7738 30.6503 23.7262 30.7149C23.7088 30.7387 23.809 30.7925 23.7925 30.813C23.6963 30.9357 23.5752 31.0421 23.4259 31.1065C23.3977 31.1184 23.351 31.0465 23.3333 31.0371C23.2096 30.9712 23.2966 31.1428 23.2992 31.1649C23.3111 31.2654 23.2414 31.2302 23.2121 31.2791C23.0698 31.5189 22.7991 31.7201 22.5973 31.879C22.3346 32.0864 22.0958 32.2124 21.8863 32.4511C21.8729 32.4662 21.9662 32.5308 21.9557 32.5448C21.8162 32.7224 21.6293 32.8476 21.4932 33.0293C21.4819 33.044 21.5755 33.1001 21.5598 33.1263C21.5283 33.1806 21.4699 33.2309 21.4026 33.2504C21.3699 33.26 21.3341 33.1675 21.3025 33.1785C21.2289 33.204 21.1704 33.2519 21.1314 33.3148C21.115 33.3418 21.2242 33.3856 21.1969 33.4146C21.0125 33.6142 20.8371 33.8159 20.5441 33.9109C20.524 33.9174 20.3568 33.7735 20.3583 33.8316C20.3994 33.8769 20.4502 33.9276 20.4954 33.9746C20.2408 34.2789 19.9103 34.5017 19.6217 34.7736C19.6095 34.7851 19.7123 34.847 19.6892 34.8697C19.5556 35.0009 19.4498 35.1523 19.2325 35.2058C19.2111 35.2113 19.073 35.0594 19.0553 35.121C19.0524 35.1319 19.012 35.2109 19.0281 35.2578C19.0307 35.2646 19.1093 35.3214 19.092 35.3426C18.9906 35.4646 18.8581 35.5662 18.7053 35.6363C18.6805 35.6475 18.6276 35.5563 18.6093 35.5637C18.4802 35.6163 18.436 35.77 18.2838 35.7915C18.1816 35.8056 18.0786 35.6595 17.9251 35.5678C17.9034 35.5549 17.8647 35.5882 17.7915 35.5187C17.6073 35.3441 17.4284 35.1303 17.2301 34.9463C17.1874 34.9066 17.1835 34.9992 17.1126 34.8712C17.1079 34.8625 17.1098 34.7945 17.0847 34.7521C17.0674 34.7228 16.984 34.6611 16.9664 34.619C16.9488 34.5769 17.023 34.6243 17.0082 34.5689C16.9929 34.5131 16.9015 34.4395 16.9322 34.3892ZM28.5548 30.1667C28.5921 30.0654 28.3336 30.3144 28.4289 30.2883C28.4338 30.2868 28.5531 30.1717 28.5548 30.1667ZM32.4677 33.9994C32.5378 33.8456 32.3445 33.9816 32.2876 34.0975C32.2308 34.2134 32.4465 34.0461 32.4677 33.9994ZM32.9833 34.3516C33.0227 34.2144 32.6551 34.5666 32.7802 34.5462C32.7874 34.5452 32.9811 34.3596 32.9833 34.3516ZM18.0335 35.3896C18.0297 35.3867 18.0005 35.4093 18.0032 35.4132C18.07 35.5076 18.1283 35.4624 18.0335 35.3896ZM33.5029 34.6932C33.5363 34.6293 33.4362 34.6415 33.3946 34.721C33.3612 34.785 33.4614 34.7728 33.5029 34.6932ZM27.1559 28.2261C27.1592 28.2218 27.1441 28.1998 27.123 28.2216C27.0555 28.2917 27.1007 28.2981 27.1559 28.2261ZM34.2389 35.4209C34.1443 35.2993 34.3761 34.9364 34.4603 35.0877C34.4755 35.1151 34.3195 35.1365 34.3198 35.1905C34.3207 35.289 34.5403 35.1353 34.491 35.286C34.4818 35.3135 34.2437 35.4285 34.2383 35.4211C34.2385 35.4211 34.2387 35.421 34.2389 35.4209ZM28.8412 29.8434C28.8439 29.8394 28.8214 29.8105 28.8175 29.8132C28.723 29.8799 28.7683 29.9381 28.8412 29.8434ZM26.23 26.9863C26.2357 26.9777 26.1828 26.9114 26.1743 26.9161C26.0114 27.0167 26.118 27.1512 26.23 26.9863ZM30.757 31.3878C30.8661 31.3347 30.9092 31.3587 30.8297 31.4829C30.8073 31.4496 30.78 31.4208 30.757 31.3878ZM35.0699 19.6111C34.998 19.7272 34.8511 19.8268 34.725 19.888C34.6856 19.9073 34.6555 19.8475 34.6262 19.8587C34.5691 19.8809 34.5542 19.9399 34.4942 19.9582C34.4741 19.964 34.419 19.8766 34.3996 19.8844C34.2935 19.9275 34.2411 20.0162 34.1504 20.0766C33.7035 20.3739 33.311 20.7129 32.9018 21.0571C32.767 21.1707 32.5513 21.257 32.4513 21.4135C32.4397 21.4318 32.5111 21.4855 32.5134 21.4935C32.5476 21.6171 32.4363 21.4759 32.3903 21.4883C32.2083 21.5379 32.0737 21.6609 31.9864 21.7965C31.9494 21.8544 32.1212 21.931 32.0037 21.9091C31.9957 21.9077 31.9413 21.8292 31.9212 21.8351C31.8758 21.8487 31.8317 21.9165 31.8036 21.9341C31.7491 21.9677 31.7424 21.9756 31.7 22.0165C31.6415 22.0718 31.5407 22.1066 31.4946 22.1827C31.485 22.1992 31.5703 22.25 31.5611 22.2824C31.5519 22.3147 31.491 22.364 31.4564 22.3666C31.4218 22.3691 31.3762 22.3077 31.3606 22.2987C31.2301 22.2222 31.3097 22.4293 31.3051 22.441C31.216 22.6509 31.0061 22.6974 30.8661 22.8379C30.7599 22.9447 30.673 23.0856 30.5679 23.1832C30.4425 23.2993 30.3033 23.3647 30.1923 23.4883C30.1805 23.5013 30.2751 23.5668 30.2608 23.5828C30.1095 23.7528 29.9412 23.9035 29.7273 24.0094C29.7057 24.02 29.6561 23.929 29.6304 23.9353C29.4745 23.9757 29.1806 23.9922 29.4282 24.3564C29.3498 24.4109 29.2568 24.4793 29.1357 24.477C29.0576 24.4757 29.0183 24.3619 29.0039 24.4416C29.0005 24.4595 29.0814 24.5128 29.0713 24.5345C29.0288 24.6261 28.9337 24.6776 28.902 24.7786C28.8957 24.7993 28.9595 24.8557 28.9665 24.8703C29.0219 24.9901 28.8236 24.8987 28.8014 24.8998C28.6342 24.9101 28.6002 25.0059 28.5156 25.0866C28.4959 25.1054 28.5993 25.1634 28.5832 25.1843C28.499 25.2916 28.3928 25.3839 28.2632 25.4419C28.2342 25.4546 28.1846 25.3667 28.1672 25.3692C28.0914 25.3813 28.2115 25.5209 28.1413 25.535C28.1266 25.5382 28.0728 25.4743 28.0647 25.4695C27.9379 25.3934 28.0596 25.5592 28.0562 25.5689C28.017 25.6948 27.8142 25.5975 27.7556 25.6985C27.7488 25.7108 27.8448 25.7637 27.821 25.7936C27.6628 25.9928 27.4533 26.1613 27.2169 26.2786C27.1802 26.297 27.1439 26.2214 27.1353 26.2162C26.9993 26.1367 27.1254 26.2993 27.1219 26.3137C27.0903 26.4236 26.9031 26.3686 27.027 26.5886C26.7384 26.7813 26.5514 27.074 26.2551 27.2558C26.1258 27.4143 25.9022 27.3851 25.7438 27.2558C25.6993 27.1832 25.6614 27.1041 25.6333 27.0154C25.6313 27.0098 25.7091 26.9455 25.7049 26.9347C25.654 26.804 25.561 26.9319 25.3658 27.007C25.3167 27.0258 25.4339 26.8167 25.4417 26.8006C25.471 26.7417 25.5922 26.6514 25.5957 26.6378C25.6216 26.5297 25.2785 26.8862 25.223 26.8308C25.2218 26.8285 25.2935 26.7714 25.2952 26.7604C25.3009 26.7258 25.261 26.7371 25.269 26.7007C25.2879 26.6171 25.4463 26.4356 25.2979 26.485C25.2788 26.4916 25.09 26.6996 25.0498 26.6407C25.034 26.617 24.9433 26.5331 24.9316 26.4957C24.92 26.4584 25.0008 26.4113 25.0018 26.4068C25.0204 26.2563 25.0805 26.2463 25.1726 26.0881C25.2644 25.9304 24.9761 26.237 24.9294 26.2567C24.8828 26.2763 24.9043 26.1582 24.9167 26.1221C24.9291 26.086 24.9845 26.0602 24.9877 26.0359C25.0074 25.8762 24.8093 26.1528 24.7391 26.1769C24.5729 26.2343 24.7512 25.9715 24.7231 25.9001C24.7154 25.8808 24.6762 25.942 24.6595 25.9347C24.5941 25.9052 24.6343 25.8078 24.5172 25.8169C24.4981 25.8183 24.3218 25.9073 24.3909 25.7817C24.4009 25.7636 24.4673 25.7201 24.4593 25.6875C24.4476 25.6388 24.4051 25.5723 24.3543 25.5582C24.3167 25.5478 24.2536 25.6658 24.2516 25.6075C24.2507 25.5815 24.3286 25.5534 24.3225 25.509C24.3166 25.4648 24.2502 25.403 24.224 25.3804C24.1977 25.3579 24.1424 25.4399 24.1358 25.4426C24.0973 25.4572 24.0175 25.4436 24.0134 25.4394C23.7967 25.2394 23.7204 24.9314 23.4792 24.7669C23.4604 24.7539 23.3986 24.8369 23.3949 24.8357C23.3101 24.8115 23.5457 24.6619 23.5721 24.5594C23.4306 24.7119 23.4347 24.6628 23.3802 24.6405C23.3538 24.6299 23.307 24.6969 23.2995 24.701C23.1856 24.76 23.2781 24.6293 23.2961 24.6015C23.3619 24.4993 23.2429 24.5788 23.2867 24.5103C23.3301 24.4422 23.4412 24.388 23.4033 24.3522C23.3404 24.3945 23.2301 24.5593 23.1799 24.5537C22.9901 24.5325 22.9012 24.2277 22.8276 24.1317C22.7542 24.0359 22.7171 24.0182 22.6868 23.9499C22.6322 23.8264 22.5628 23.9611 22.4607 23.9525C22.3586 23.9437 22.6366 23.7196 22.6826 23.6577C22.7287 23.5959 22.6647 23.6429 22.6846 23.6035C22.7045 23.5642 22.7622 23.5485 22.7505 23.5145C22.7388 23.4806 22.5804 23.5141 22.5159 23.5624C22.3792 23.6648 22.2818 23.8184 22.2655 23.7139C22.2647 23.7078 22.342 23.6531 22.3353 23.6331C22.2804 23.4766 22.1738 23.3636 22.1132 23.2131C22.105 23.1923 22.1914 23.1318 22.1874 23.1189C22.1464 22.9839 22.054 23.1392 21.8682 23.2285C22.0621 23.0563 22.1475 22.9176 22.0818 22.8498C22.0423 22.8089 21.9693 22.8957 21.887 22.9261C21.8622 22.9353 21.8887 22.852 21.8459 22.8845C21.7061 22.9904 21.5952 23.1547 21.5811 23.0311C21.5807 23.0254 21.6576 22.9678 21.6513 22.9533C21.6105 22.8591 21.4738 22.9796 21.3853 22.9222C21.3159 22.8773 21.2927 22.6972 21.2403 22.6193C21.4475 22.4149 21.3389 22.4006 21.1721 22.5175C21.1356 22.4694 21.082 22.4318 21.0608 22.3714C21.0534 22.3506 21.1222 22.3003 21.1269 22.2921C21.2008 22.1639 21.0443 22.2836 21.0298 22.2799C20.8784 22.2337 20.9025 22.0485 20.7059 22.0564C20.6989 22.0568 20.5505 22.1943 20.6297 22.0647C20.6352 22.0559 20.7314 22.022 20.6921 21.9726C20.6528 21.9232 20.6458 21.7629 20.5179 21.7675C20.487 21.7685 20.3333 21.8469 20.3937 21.7259C20.402 21.7096 20.4474 21.673 20.4644 21.6444C20.5183 21.5528 20.3635 21.6871 20.4642 21.5422C20.5648 21.3973 20.6108 21.2594 20.4639 21.282C20.4595 21.2824 20.3303 21.3823 20.3125 21.3609C20.2843 21.3267 20.2639 21.2586 20.2306 21.2268C20.2146 21.2116 20.1535 21.2927 20.1495 21.2912C20.0048 21.2262 19.9936 21.0882 19.9088 20.9484C19.8934 20.9226 19.7372 20.9604 19.774 20.8439C19.8142 20.7162 20.2084 20.412 20.0246 20.3946C19.9507 20.3873 19.4564 20.7788 19.613 20.4764C19.4147 20.3918 19.4014 20.1436 19.1784 20.083C19.1684 20.0802 19.0246 20.1836 19.0113 20.167C18.9918 20.142 19.0374 20.072 19.0253 20.0523C18.9761 19.9683 18.8657 19.9567 18.8092 19.8848C18.7876 19.8577 18.8559 19.8064 18.8302 19.774C18.8044 19.7417 18.7063 19.801 18.705 19.7236C18.7042 19.6649 18.8353 19.4744 18.8145 19.4162C18.6544 19.5733 18.6306 19.5429 18.5405 19.5365C18.5231 19.5354 18.4778 19.6005 18.4668 19.6028C18.4205 19.6135 18.4497 19.5512 18.4018 19.5652C18.3903 19.5686 18.3359 19.6225 18.3234 19.6283C18.215 19.6794 18.2897 19.5104 18.3028 19.4811C18.3523 19.3695 18.2674 19.4254 18.2753 19.3699C18.2832 19.3144 18.3584 19.3103 18.3499 19.2633C18.3322 19.1659 18.2495 19.1006 18.1935 19.0397C18.1708 19.0157 18.1144 19.1039 18.1095 19.1021C18.0429 19.0722 18.0711 18.9465 17.9003 19.0638C18.2393 18.658 17.8351 19.0708 17.8407 18.9273C17.8413 18.9158 18.0105 18.7328 18.0572 18.7278C18.1039 18.7229 18.0804 18.8095 18.1497 18.7982C18.166 18.7956 18.3703 18.6698 18.3856 18.6652C18.5057 18.629 18.2484 18.8981 18.2362 18.9148C18.1054 19.0959 18.3311 18.9661 18.356 18.9665C18.4701 18.968 18.4822 19.0541 18.5707 19.0622C18.6283 19.0679 18.8038 18.8986 18.8233 18.9287C18.8884 19.0287 18.6767 19.2979 18.9629 19.1672C19.0241 19.1394 19.1959 18.9344 19.1075 19.1423C19.1019 19.1554 19.0107 19.3353 19.1221 19.2752C19.1361 19.2676 19.1909 19.2126 19.1998 19.2122C19.2581 19.2109 19.2333 19.2736 19.2852 19.2836C19.3371 19.2936 19.4056 19.2997 19.4224 19.3537C19.4326 19.3861 19.3576 19.5158 19.3428 19.551C19.2994 19.652 19.4486 19.5646 19.3791 19.6698C19.3093 19.7756 19.1407 19.8738 19.1312 19.9777C19.2756 19.8368 19.426 19.6944 19.5723 19.5538C19.6708 19.6623 19.7264 19.8102 19.8365 19.9077C19.8503 19.9197 19.9139 19.8298 19.9306 19.8407C20.001 19.8867 19.9972 19.9922 20.0793 20.0308C20.1432 20.0604 20.2756 20.0304 20.3449 20.0589C20.2115 20.2519 20.3394 20.269 20.3772 20.3366C20.3905 20.3602 20.3456 20.4026 20.3445 20.4299C20.3414 20.532 20.4625 20.3646 20.4987 20.3555C20.6539 20.3168 20.3323 20.6483 20.409 20.7088C20.4129 20.7122 20.6315 20.5826 20.6484 20.5779C20.758 20.5461 20.5943 20.6449 20.6058 20.6821C20.6267 20.75 20.616 20.8225 20.7191 20.8237C20.7495 20.8238 20.8944 20.7518 20.84 20.8652C20.8329 20.8801 20.7732 20.9355 20.773 20.942C20.7734 21.0547 20.9557 20.8755 21.0493 20.8466C21.1428 20.8178 21.068 20.9925 21.0422 21.0386C20.9757 21.1583 20.982 21.058 20.9715 21.0657C20.8459 21.1574 20.901 21.1752 20.9197 21.2122C20.7465 21.3934 20.796 21.4217 20.9398 21.2499C20.9554 21.231 20.9172 21.2259 20.9197 21.2122C21.118 21.0628 21.1831 21.0833 21.0679 21.293C21.0138 21.3913 20.9041 21.4592 21.0038 21.4939C21.0489 21.5098 21.1592 21.376 21.2194 21.3696C21.3568 21.3552 21.3229 21.549 21.4042 21.5944C21.4337 21.6109 21.4781 21.5217 21.5006 21.5307C21.5604 21.5543 21.5471 21.6412 21.6147 21.6575C21.6209 21.6588 21.6816 21.5796 21.6955 21.5918C21.8024 21.6825 21.8436 21.8133 21.9456 21.9177C21.9948 21.9682 22.1225 22.0187 22.1664 22.0781C22.2428 22.1806 22.2512 22.3924 22.3524 22.4442C22.418 22.4782 22.4771 22.3974 22.5461 22.3711C22.6797 22.3199 22.5872 22.5584 22.5714 22.5938C22.5708 22.595 22.5114 22.5685 22.4984 22.6273C22.4369 22.7155 22.5706 22.5937 22.5714 22.5938C22.5613 22.6168 22.6311 22.7184 22.6615 22.7221C22.6781 22.724 22.7392 22.6526 22.7465 22.6548C22.9204 22.7102 23.0521 22.8082 23.1373 22.9554C23.138 22.9588 23.0608 23.0298 23.0634 23.0368C23.0977 23.1371 23.2315 23.0895 23.3409 23.0912C23.4502 23.0929 23.4761 23.1549 23.3817 23.315C23.4396 23.3409 23.4434 23.4572 23.4439 23.5259C23.4443 23.5946 23.5934 23.4552 23.5993 23.4554C23.7855 23.459 23.7577 23.5964 23.8433 23.7077C23.8837 23.7608 23.9974 23.8327 24.0639 23.8676C24.1166 23.895 24.1069 23.9529 24.1654 23.9682C24.1733 23.9703 24.2325 23.901 24.2365 23.9C24.3546 23.8644 24.1777 24.0016 24.1582 24.0382C24.087 24.171 24.0517 24.2443 24.1524 24.2491C24.1755 24.2503 24.4371 24.0596 24.4725 24.0685C24.5181 24.0806 24.4262 24.1508 24.476 24.1613C24.4802 24.1623 24.5297 24.1118 24.5461 24.1326C24.623 24.2286 24.6881 24.352 24.783 24.4369C24.7958 24.4487 24.8594 24.3536 24.8791 24.3693C24.9717 24.4431 25.06 24.5373 25.1039 24.6555C25.1145 24.6848 25.0464 24.7279 25.0343 24.7487C24.9611 24.875 25.1438 24.7678 25.1527 24.7713C25.3708 24.8501 25.3532 25.0948 25.567 25.1837C25.5789 25.1883 25.7977 25.0963 25.6927 25.2578C25.6857 25.2686 25.5773 25.433 25.6953 25.3645C25.7027 25.3602 25.7555 25.2725 25.7787 25.3101C25.802 25.3477 25.8979 25.3498 25.8625 25.4688C25.8515 25.5063 25.7467 25.6736 25.8947 25.6047C25.9048 25.5997 26.211 25.4155 26.0636 25.6064C26.0392 25.6378 25.8565 25.8131 25.9954 25.7685C26.0222 25.7597 26.0458 25.7034 26.0945 25.7022C26.1693 25.7001 26.1695 25.7963 26.2939 25.7612C26.3158 25.7549 26.4705 25.6666 26.4049 25.7854C26.3946 25.804 26.327 25.8559 26.3343 25.8766C26.3691 25.9755 26.479 26.0055 26.5055 26.1148C26.515 26.1533 26.4061 26.2376 26.4053 26.2886C26.4044 26.3395 26.43 26.4149 26.5004 26.397C26.5708 26.379 26.6961 26.1964 26.7477 26.2234C26.754 26.2267 26.7602 26.2301 26.7662 26.2336L25.2329 26.2334C25.3545 26.0231 25.6048 25.9444 25.7834 25.7914C25.8107 25.7681 25.7346 25.734 25.7708 25.6957C25.9042 25.5541 26.0898 25.2652 26.3262 25.2631C26.5155 25.2613 26.4666 25.4529 26.5778 25.4181C26.6312 25.4011 26.4903 25.1839 26.4932 25.1698C26.5191 25.0294 26.6561 25.051 26.7066 24.9519C26.717 24.9314 26.6293 24.874 26.6389 24.8573C26.6712 24.7999 26.7508 24.7851 26.7878 24.7363C26.8042 24.7142 26.7453 24.6623 26.7672 24.6489C26.8192 24.6161 26.88 24.6019 26.9732 24.6126C26.9817 24.6136 27.0253 24.7079 27.0592 24.6791C27.1139 24.6323 27.2281 24.6206 27.2336 24.5093C27.235 24.4761 27.109 24.3487 27.2337 24.399C27.2598 24.4094 27.4019 24.5715 27.3139 24.3967C27.2994 24.3676 27.195 24.1174 27.345 24.196C27.3845 24.2166 27.533 24.317 27.5343 24.2766C27.534 24.2707 27.4546 24.2139 27.4653 24.19C27.5039 24.107 27.5749 24.0505 27.6161 23.9667C27.627 23.9442 27.5317 23.8987 27.5502 23.8674C27.6008 23.7812 27.7041 23.7137 27.793 23.6689C27.826 23.6525 27.8672 23.7278 27.8754 23.7324C28.0074 23.8068 27.8852 23.6504 27.8866 23.6327C27.8976 23.5245 28.0084 23.5446 28.0459 23.4724C28.0565 23.4526 27.9793 23.3969 27.9764 23.388C27.9498 23.2988 28.0458 23.4414 28.0788 23.4348C28.1715 23.4166 28.228 23.3494 28.2756 23.2848C28.293 23.261 28.1928 23.2071 28.2093 23.1866C28.3054 23.0639 28.4266 22.9576 28.5759 22.8932C28.6041 22.8813 28.6508 22.9532 28.6685 22.9626C28.7922 23.0285 28.7052 22.8569 28.7026 22.8348C28.6907 22.7343 28.7604 22.7696 28.7897 22.7207C28.9321 22.4808 29.2027 22.2797 29.4046 22.1208C29.6673 21.9134 29.9061 21.7875 30.1156 21.5487C30.129 21.5336 30.0357 21.4691 30.0462 21.455C30.1858 21.2775 30.3727 21.1522 30.5088 20.9706C30.5201 20.9558 30.4265 20.8998 30.4421 20.8736C30.4737 20.8193 30.5321 20.769 30.5994 20.7495C30.6321 20.7399 30.6679 20.8324 30.6995 20.8214C30.7731 20.7959 30.8316 20.748 30.8706 20.6851C30.887 20.6582 30.7778 20.6144 30.8051 20.5853C30.9895 20.3857 31.1649 20.184 31.458 20.0891C31.4781 20.0826 31.6453 20.2265 31.6437 20.1684C31.6027 20.1231 31.5518 20.0724 31.5066 20.0254C31.7613 19.7211 32.0919 19.4984 32.3805 19.2265C32.3926 19.215 32.2898 19.153 32.3129 19.1304C32.4466 18.9992 32.5523 18.8478 32.7697 18.7943C32.7911 18.7888 32.9292 18.9407 32.9468 18.8792C32.9498 18.8682 32.9901 18.7892 32.9741 18.7423C32.9715 18.7355 32.8929 18.6787 32.9102 18.6575C33.0116 18.5356 33.1441 18.434 33.2969 18.3638C33.3217 18.3526 33.3746 18.4438 33.3929 18.4365C33.5221 18.3838 33.5662 18.2302 33.7185 18.2087C33.8207 18.1946 33.9237 18.3407 34.0772 18.4324C34.0988 18.4453 34.1376 18.4121 34.2107 18.4815C34.3949 18.6561 34.5738 18.87 34.7721 19.054C34.8148 19.0937 34.8187 19.0011 34.8896 19.1291C34.8943 19.1378 34.8923 19.2058 34.9174 19.2482C34.9348 19.2775 35.0181 19.3392 35.0358 19.3813C35.0534 19.4234 34.9791 19.3761 34.9939 19.4314C35.0092 19.4872 35.1006 19.5609 35.0699 19.6111ZM23.4469 23.8341C23.4096 23.9354 23.6682 23.6864 23.5728 23.7125C23.5679 23.7141 23.4487 23.8291 23.4469 23.8341ZM19.5344 20.0011C19.4643 20.1548 19.6575 20.0189 19.7145 19.9029C19.7713 19.7871 19.5556 19.9544 19.5344 20.0011ZM19.0188 19.6488C18.9794 19.786 19.347 19.4338 19.2219 19.4542C19.2147 19.4552 19.021 19.6408 19.0188 19.6488ZM33.9687 18.6106C33.9726 18.6135 34.0017 18.5909 33.999 18.587C33.9322 18.4926 33.8739 18.5378 33.9687 18.6106ZM18.4992 19.3071C18.4658 19.3711 18.566 19.3588 18.6075 19.2793C18.641 19.2154 18.5408 19.2276 18.4992 19.3071ZM24.8456 25.7749C24.8423 25.7792 24.8575 25.8011 24.8785 25.7794C24.9461 25.7093 24.9008 25.7029 24.8456 25.7749ZM17.7633 18.5793C17.8579 18.701 17.6261 19.0638 17.5419 18.9125C17.5267 18.8851 17.6827 18.8637 17.6823 18.8098C17.6815 18.7113 17.4619 18.8649 17.5112 18.7142C17.5204 18.6868 17.7586 18.5717 17.7639 18.5791C17.7637 18.5792 17.7635 18.5793 17.7633 18.5793ZM23.1605 24.1574C23.1578 24.1614 23.1803 24.1903 23.1842 24.1875C23.2787 24.1209 23.2334 24.0627 23.1605 24.1574ZM25.7714 27.0147C25.7657 27.0233 25.8186 27.0896 25.8271 27.085C25.99 26.9843 25.8834 26.8499 25.7714 27.0147ZM21.2448 22.6128C21.1357 22.6658 21.0926 22.6419 21.1721 22.5177C21.1946 22.551 21.2218 22.5798 21.2448 22.6128Z" fill="#E1DDD4"/>
</svg>
