<svg width="52" height="52" viewBox="0 0 52 52" fill="none" xmlns="http://www.w3.org/2000/svg">
<path d="M2 27C2 14.2975 12.2975 4 25 4H27C39.7025 4 50 14.2975 50 27C50 39.7025 39.7025 50 27 50H25C12.2975 50 2 39.7025 2 27Z" fill="#B69F7C"/>
<path d="M26.4147 0.0406792C26.599 0.0176005 26.796 0.00509787 27 0.00127983C27.844 -0.013835 28.7823 0.127905 29.518 0.317832C29.8135 0.393945 29.6401 0.590041 29.8421 0.653524C30.2355 0.778571 30.6219 0.723885 31.0004 0.880626C31.1257 0.933816 30.913 1.24086 31.0443 1.28904C31.7596 1.55148 32.4639 1.60501 33.1809 1.85363C36.6935 3.07981 39.9077 4.80776 42.6872 7.20271C43.6097 7.99337 44.4672 9.2011 45.3956 10.0167C45.505 10.1121 45.6639 9.84947 45.7005 9.85332C46.2702 9.92689 45.7311 10.2189 45.8577 10.4813C46.3604 11.5251 47.0694 12.505 47.7504 13.3343C48.0395 13.6872 48.2833 12.9859 48.2562 13.5526C48.2544 13.5913 47.9285 13.6618 47.9667 13.7846C48.0546 14.0616 48.3757 14.4888 48.4618 14.691C48.6264 15.0797 48.6623 15.1392 48.8451 15.4898C49.0924 15.9731 49.232 16.6168 49.5284 17.1169C49.5928 17.2241 49.8208 16.9439 49.9506 17.1058C50.0819 17.2683 50.2576 17.7697 50.2504 17.964C50.2442 18.1577 49.981 18.177 49.9384 18.2269C49.5747 18.6357 50.4083 18.9666 50.4496 19.041C51.1774 20.3101 51.1011 21.6165 51.3214 22.9174C51.4904 23.9119 51.7257 24.9788 51.7474 25.9474C51.7556 26.3111 51.7401 26.6592 51.7139 27C51.6569 27.7334 51.5538 28.4168 51.5086 29.1738C51.5009 29.2908 51.8892 29.1869 51.8802 29.3314C51.7821 30.8722 51.4535 32.3993 50.79 33.7959C50.7231 33.9352 50.4587 33.656 50.3731 33.788C49.8596 34.6159 48.7648 35.6694 49.8677 36.7382C49.5681 37.302 49.1807 37.9753 48.6616 38.3357C48.3277 38.566 48.1742 38.089 48.1019 38.5457C48.0844 38.6487 48.4237 38.688 48.3754 38.8324C48.1699 39.4425 47.7237 39.9785 47.5132 40.5898C47.4708 40.7148 47.7253 40.8434 47.7473 40.9022C47.9165 41.3939 47.0566 41.4252 46.9534 41.4809C46.1597 41.9396 45.8988 42.4952 45.3793 43.0785C45.2583 43.2128 45.6857 43.303 45.578 43.4425C45.0133 44.1634 44.3153 44.8206 43.5413 45.2923C43.3687 45.396 43.2868 45.0337 43.1938 45.0703C42.7894 45.2293 43.1201 45.7521 42.7274 45.9089C42.6454 45.9419 42.5048 45.698 42.4736 45.6843C41.9887 45.4652 42.2567 46.118 42.216 46.1695C41.7257 46.8165 40.9066 46.5368 40.356 47.0283C40.289 47.0881 40.6518 47.2685 40.4496 47.4198C39.1013 48.43 37.4419 49.1787 35.8057 49.5137C35.5515 49.5661 35.627 49.2539 35.5999 49.2296C35.1786 48.848 35.2618 49.5415 35.1909 49.5946C34.6308 49.9941 33.8859 49.6272 33.6796 50.5276C31.4545 50.9253 29.2429 51.4737 27 51.2061C26.4795 51.1401 25.9593 51.0428 25.4396 50.8993C25.4061 50.8909 25.4661 50.5557 25.3994 50.5404C25.228 50.5002 25.1002 50.4924 25 50.511C24.6198 50.578 24.6259 51.0082 24.1668 51.4962C24.0155 51.6523 23.6235 50.8629 23.5921 50.8037C23.4687 50.5882 23.6388 50.0989 23.5962 50.056C23.254 49.717 23.1972 51.3683 22.6744 51.3222C22.6587 51.3179 22.7545 51.0221 22.7143 50.988C22.591 50.8812 22.4462 50.9876 22.3268 50.8693C22.0526 50.5945 22.0581 49.7897 21.555 50.1884C21.4895 50.2391 21.443 51.1811 20.9873 51.0627C20.8057 51.0177 19.9997 50.8808 19.7873 50.7684C19.5765 50.6599 19.7959 50.3997 19.7824 50.3834C19.2812 49.86 19.5436 49.7496 19.4021 49.1074C19.2701 48.467 18.9939 49.843 18.8338 49.9626C18.6723 50.082 18.3349 49.6444 18.2673 49.5037C18.1979 49.3635 18.38 49.2182 18.3086 49.1292C17.8421 48.5424 17.8381 49.7118 17.5683 49.8596C16.9179 50.2016 16.8894 49.0861 16.515 48.8316C16.4119 48.7618 16.4181 49.0186 16.3085 48.9993C15.8734 48.9167 15.7643 48.5195 15.1951 48.5889C15.1046 48.6017 14.4688 48.9956 14.4343 48.466C14.4309 48.3905 14.6378 48.2041 14.4993 48.0704C14.2918 47.8707 13.887 47.5935 13.5883 47.5249C13.3674 47.4745 13.3762 47.9697 13.2005 47.7177C13.1236 47.6054 13.4434 47.5009 13.2908 47.309C13.1393 47.1192 12.642 46.8298 12.453 46.7173C12.2639 46.6066 12.1891 46.9432 12.1625 46.9522C12.0035 46.9997 11.5583 46.891 11.5269 46.8681C9.89967 45.8044 8.93094 44.2364 7.55826 43.0131C7.45015 42.9154 7.26322 43.2169 7.24413 43.2044C6.80048 42.9267 7.73847 42.6121 7.74085 42.1571C7.25355 42.6518 7.21203 42.4179 6.92935 42.2005C6.79277 42.0956 6.64561 42.3377 6.61472 42.3436C6.138 42.4086 6.4341 41.936 6.49105 41.835C6.69744 41.4594 6.21955 41.6081 6.35982 41.3563C6.50083 41.1083 6.96253 41.0707 6.76151 40.8158C6.5076 40.8914 6.14129 41.4817 5.90303 41.3408C4.98078 40.8051 4.42766 38.9728 4.12738 38.2705C3.81036 37.5661 3.66472 37.3574 3.55531 36.9141C3.36962 36.1109 3.05266 36.5763 2.64988 36.1882C2.25126 35.7912 3.44652 35.5875 3.65563 35.4262C3.86694 35.269 3.59582 35.2944 3.6955 35.1639C3.79582 35.0349 4.02234 35.1434 4.00107 34.9401C3.97911 34.7394 3.37339 34.3814 3.09845 34.3939C2.51594 34.427 2.03314 34.86 2.05858 34.2613C2.06073 34.2271 2.38855 34.2319 2.38191 34.1063C2.32238 33.1192 2.09959 32.1496 2.13948 31.181C2.14564 31.0481 2.50684 31.1008 2.51454 31.0236C2.60374 30.2237 2.07566 30.5955 1.37026 30.2503C2.2396 30.2281 2.72403 29.9243 2.66818 29.3519C2.63693 29.007 2.26829 29.1027 1.98403 28.8952C1.89817 28.8321 2.13809 28.5621 1.95861 28.5284C1.37188 28.4134 0.734567 28.6958 0.961421 28.0452C0.972513 28.0172 1.29309 28.0912 1.30827 27.9955C1.38855 27.5122 1.03652 27.3718 0.843434 27C0.79062 26.8977 0.750459 26.7781 0.736789 26.6305C0.683401 26.0922 1.10381 25.1643 1.22694 24.5826C2.19033 24.688 2.02705 24.1315 1.39643 23.815C1.47432 23.437 1.50347 23.015 1.66238 22.6649C1.71681 22.5446 1.9775 22.6792 2.01029 22.6688C2.52271 22.5195 1.91738 22.235 1.90988 22.1458C1.85589 21.2044 2.51962 20.6323 2.32147 19.6716C2.31421 19.6382 1.68907 19.3782 2.23055 19.3116C2.26728 19.3092 2.46693 19.6752 2.61929 19.3001C2.77244 18.9213 3.37398 18.3485 3.3074 17.7177C3.29 17.5663 2.932 17.021 3.43843 16.9481C3.50659 16.9394 3.66471 17.0575 3.78439 17.0556C4.1656 17.0505 3.5925 16.6701 4.20011 16.7461C4.80858 16.8216 5.36374 16.6782 5.27592 16.016C5.27385 15.9959 4.86596 15.6185 4.96087 15.4709C5.1115 15.2368 5.41054 14.9591 5.56208 14.7143C5.6345 14.5968 5.30447 14.4911 5.31219 14.4676C5.66574 13.5717 6.30651 13.1874 7.02935 12.493C7.15982 12.3685 7.15303 11.6625 7.66312 11.6344C8.21782 11.6109 9.17353 12.9955 9.4551 12.1233C9.56134 11.7857 8.42323 9.96454 9.64237 10.3114C10.3836 9.26809 11.6208 9.00024 12.4302 8.00279C12.4663 7.95836 12.2969 7.37242 12.4161 7.30567C12.5923 7.2084 12.8294 7.38187 12.9587 7.32346C13.5029 7.08633 13.8614 6.61763 14.3886 6.38605C14.5883 6.2986 14.648 6.58369 14.8841 6.48374C15.1195 6.38528 15.116 5.97507 15.5099 5.99271C15.8089 6.00753 16.3471 6.59981 16.687 6.55665C16.4166 5.85997 16.6399 5.78276 16.9699 5.44863C17.0337 5.38406 16.8602 5.17091 16.8859 5.1277C16.9907 4.94577 17.2023 5.09893 17.2974 4.91114C17.3208 4.86585 17.2388 4.62403 17.2538 4.57326C17.3811 4.13028 17.9749 4.54395 18.0708 4.6198C18.4475 4.9013 18.4761 4.54752 18.7233 4.63319C18.9673 4.72062 18.7139 4.98478 18.9739 5.00714C19.5107 5.05372 20.1234 4.86777 20.6275 4.78231C20.8272 4.74684 20.6274 4.43834 20.6544 4.42549C21.0602 4.25934 21.5398 4.55163 21.6778 3.84665C22.2113 5.54604 21.9089 3.63834 22.5732 3.91899C22.6257 3.9422 22.7667 4.76195 22.6018 4.90188C22.4382 5.04167 22.1368 4.81622 21.9173 5.03878C21.8624 5.09075 21.6538 5.90856 21.6202 5.96229C21.3436 6.3801 21.081 5.1692 21.0486 5.10527C20.7014 4.41938 20.4505 5.32474 20.3623 5.40374C19.9395 5.76571 19.5008 5.69629 19.1563 5.98806C18.9324 6.17794 19.1375 6.9652 18.9406 6.99818C18.2946 7.11133 17.6741 6.12703 17.4201 7.27364C17.3682 7.51934 17.8193 8.29296 17.1204 7.82275C17.0792 7.79146 16.4947 7.34355 16.4665 7.79945C16.4635 7.8566 16.5698 8.09259 16.5479 8.12622C16.4002 8.34696 16.1772 8.22319 15.9977 8.41974C15.8185 8.61643 15.6257 8.8794 15.3395 8.93335C15.1683 8.96524 14.7429 8.65015 14.6115 8.58905C14.2366 8.4101 14.3025 9.0193 13.9665 8.7415C13.6223 8.46664 13.5541 7.77067 13.0647 7.75785C13.4066 8.33713 13.7432 8.94067 14.0834 9.52562C13.3785 9.9392 12.5872 10.2352 11.9551 10.7821C11.8778 10.8502 12.1864 11.0655 12.1108 11.1449C11.7942 11.4773 11.3209 11.5465 11.0384 11.9479C10.8209 12.2599 10.803 12.8134 10.6134 13.1497C9.89746 12.7816 9.69212 13.3877 9.3723 13.6568C9.25918 13.7521 9.10855 13.6122 8.98944 13.65C8.5441 13.7992 9.18975 14.0863 9.20526 14.2363C9.28183 14.8722 8.04239 13.9557 7.73315 14.4387C7.71416 14.466 8.17349 15.2346 8.19055 15.3009C8.29034 15.7422 7.92664 15.1797 7.76653 15.3062C7.47606 15.5378 7.17155 15.6458 7.15609 16.1305C7.15131 16.2744 7.44552 16.7786 6.98726 16.7853C6.92693 16.7866 6.69951 16.6379 6.67323 16.6521C6.21644 16.9258 6.96121 17.346 7.10067 17.7001C7.24165 18.0517 6.54561 18.1373 6.35695 18.1407C5.86956 18.1447 6.25785 17.9127 6.22484 17.8838C5.82499 17.5356 5.77271 17.8413 5.63789 18.0302C4.86591 17.7074 4.77391 18.0323 5.50154 18.2286C5.58086 18.2499 5.58369 18.0558 5.63789 18.0302C6.29601 18.5594 6.26175 18.8895 5.40802 18.9516C5.00836 18.9833 4.68064 18.6651 4.61926 19.2475C4.59366 19.5115 5.16689 19.6208 5.24 19.8783C5.40962 20.4588 4.70544 20.9037 4.65065 21.4298C4.63152 21.618 4.98276 21.525 4.98086 21.655C4.9784 21.9973 4.68011 22.2259 4.72664 22.5813C4.7314 22.6131 5.06895 22.6114 5.05151 22.7125C4.92918 23.4755 4.6142 24.11 4.52487 24.9278C4.48032 25.3196 4.6167 26.0366 4.57214 26.4383C4.55178 26.6163 4.50668 26.8052 4.45401 27C4.29769 27.5725 4.08085 28.1936 4.20429 28.6478C4.3114 29.0406 4.63372 28.9221 4.87312 29.0656C5.33576 29.336 4.63858 29.9915 4.53311 30.0931C4.52902 30.0968 4.40402 29.7686 4.26204 29.9735C3.92816 30.1304 4.53116 30.0902 4.53311 30.0931C4.46061 30.1545 4.50107 30.8471 4.5918 30.9676C4.63967 31.0334 4.93841 30.9331 4.95752 30.9679C5.40637 31.7989 5.707 32.6176 5.85982 33.5208C5.859 33.538 5.52042 33.6278 5.52281 33.6672C5.55006 34.2229 6.07663 34.3977 6.47303 34.6927C6.87159 34.99 6.92982 35.3184 6.49975 35.8105C6.70829 36.0748 6.68784 36.6151 6.68049 36.9363C6.67338 37.2588 7.28655 36.9583 7.30938 36.972C8.04826 37.3968 7.93518 37.95 8.32652 38.6235C8.5096 38.9432 9.0262 39.4661 9.33409 39.7218C9.57654 39.9241 9.57697 40.1707 9.84323 40.3199C9.87904 40.34 10.0805 40.1105 10.097 40.1116C10.5759 40.1054 9.92424 40.486 9.86999 40.6239C9.675 41.1245 9.59636 41.4199 10.0545 41.5674C10.1623 41.6043 11.1129 41.0486 11.274 41.1176C11.4859 41.2123 11.162 41.4314 11.3942 41.5233C11.4139 41.5312 11.5718 41.3567 11.6682 41.46C12.1175 41.9368 12.5837 42.5046 13.1495 42.8969C13.2258 42.9508 13.3537 42.5801 13.4661 42.6516C13.9937 42.9869 14.5484 43.3719 14.9837 43.8344C15.0904 43.9492 14.8761 44.1265 14.8649 44.2102C14.8048 44.7216 15.4001 44.2721 15.4449 44.2816C16.576 44.5276 17.1053 45.4487 18.3009 45.5737C18.3706 45.5817 19.0465 45.0409 19.0556 45.7012C19.0546 45.7449 19.0718 46.4245 19.3801 46.0568C19.3986 46.0335 19.3669 45.6796 19.5765 45.7758C19.7887 45.8725 20.1952 45.7531 20.416 46.1788C20.4834 46.3126 20.5849 46.9951 20.9898 46.556C21.0238 46.5275 21.6771 45.4767 21.6988 46.2875C21.7023 46.4207 21.5366 47.2512 21.9676 46.88C22.0482 46.8073 21.9535 46.6031 22.1483 46.5129C22.443 46.3729 22.7833 46.6426 23.1534 46.2995C23.2201 46.2392 23.5061 45.6897 23.67 46.1363C23.6965 46.2063 23.6178 46.4835 23.7217 46.5219C24.1339 46.6737 24.5686 46.5808 25 46.6501C25.1048 46.6646 25.2093 46.6868 25.3132 46.7206C25.526 46.7891 25.4172 47.2445 25.639 47.3666C25.8609 47.4886 26.3077 47.6059 26.5398 47.3978C26.772 47.1896 26.5184 46.4637 26.8662 46.4056C26.9108 46.3982 26.9554 46.3913 27 46.385C28.2305 46.1781 29.4772 46.4661 30.7278 46.2888C30.9166 46.2613 30.7121 46.0378 30.9833 45.9772C31.9986 45.7642 33.5724 45.0069 34.6046 45.1526C35.4512 45.2703 34.7303 45.9482 35.3279 45.8847C35.6233 45.8485 35.5343 44.9563 35.5781 44.9056C36.0274 44.3886 36.5856 44.512 37.026 44.1226C37.1152 44.0424 36.8426 43.8061 36.919 43.7417C37.1764 43.5201 37.5572 43.4603 37.8106 43.2576C37.9235 43.166 37.7551 42.9645 37.8749 42.9071C38.1601 42.7663 38.4484 42.6939 38.8456 42.7009C38.8824 42.701 38.922 43.0786 39.1221 42.9422C39.4428 42.7222 39.9801 42.5983 40.1579 42.1117C40.2101 41.966 39.8162 41.519 40.3015 41.636C40.4024 41.6601 40.8339 42.2395 40.6579 41.5568C40.6348 41.4392 40.4407 40.4668 41.0077 40.6534C41.1577 40.7027 41.7106 40.9746 41.7552 40.7917C41.7592 40.7659 41.466 40.6101 41.5331 40.4922C41.7719 40.0815 42.1154 39.7369 42.3342 39.3042C42.3914 39.1888 42.0162 39.1268 42.1078 38.9632C42.3583 38.5145 42.7952 38.0562 43.1572 37.6962C43.291 37.5642 43.4507 37.8212 43.483 37.8268C44.0116 37.9084 43.5295 37.441 43.5343 37.3616C43.5757 36.8632 44.0106 36.7294 44.1389 36.3252C44.1741 36.215 43.8603 36.1366 43.8465 36.1035C43.7149 35.772 44.1295 36.1891 44.2538 36.0874C44.6038 35.8013 44.788 35.3652 44.9226 34.9632C44.9715 34.8153 44.5694 34.8271 44.616 34.6978C44.8834 33.932 45.1985 33.1642 45.6135 32.4571C45.6922 32.3239 45.9345 32.4918 46.0046 32.4793C46.4964 32.3886 45.9915 31.9118 45.9517 31.8305C45.775 31.4455 46.0436 31.3795 46.0609 31.081C46.1322 29.7933 46.3977 28.2898 46.4891 27C46.5009 26.8445 46.5106 26.6932 46.5182 26.5469C46.5984 24.7805 46.6499 23.3421 46.1364 21.7019C46.1034 21.5983 45.7743 21.803 45.7415 21.7165C45.3355 20.6044 45.0514 19.4576 44.4291 18.4357C44.3787 18.3523 44.1243 18.6329 44.0336 18.5066C43.8455 18.249 43.6771 17.8928 43.6163 17.5597C43.5858 17.3971 43.9533 17.4297 43.9159 17.2674C43.8284 16.8883 43.637 16.5295 43.3783 16.2398C43.2678 16.1178 43.1018 16.5201 42.9828 16.3485C42.1585 15.1831 41.2372 14.1775 40.5075 12.8341C40.458 12.7427 40.8947 12.146 40.6359 12.0992C40.4863 12.2381 40.3255 12.4154 40.1737 12.5712C38.5501 11.2468 36.9399 9.88422 35.0057 8.97819C34.9249 8.94064 34.9072 9.35743 34.7518 9.28773C33.8476 8.88654 32.9284 8.67623 32.0473 8.04203C31.959 7.98005 32.1825 7.33062 31.8581 7.35609C31.8011 7.36011 31.3289 7.34391 31.1821 7.46588C31.162 7.48453 31.176 7.81335 31.0319 7.7925C30.1991 7.66761 29.3402 7.47278 28.5067 7.21551C28.3714 7.17346 28.5432 6.84542 28.4457 6.81257C27.9815 6.66013 27.4837 6.71511 27 6.68871C26.7225 6.67514 26.4503 6.63564 26.1903 6.53138C25.6755 6.32376 25.8661 5.73669 25.5926 5.15883C25.5539 5.0773 25.2351 5.06438 25.2187 4.72816C25.1763 3.88272 25.3307 2.95697 25.2674 2.05581C25.254 1.86171 24.8271 2.07077 25.0798 1.60171C25.0975 1.57032 25.407 1.41464 25.4832 1.25552C25.5363 1.14551 25.4407 0.803576 25.549 0.662748C25.6572 0.522051 25.7762 0.808676 25.9557 0.643216C26.1352 0.475709 26.0563 0.0867252 26.4147 0.0406792ZM6.69916 38.3953C6.56559 38.7966 7.59333 38.1829 7.2032 38.1009C7.18318 38.0976 6.70552 38.3753 6.69916 38.3953ZM12.0618 9.52176C11.4605 9.31115 11.7458 10.0748 12.1867 10.2487C12.6207 10.429 12.241 9.58847 12.0618 9.52176ZM14.9705 7.26801C14.4037 7.09213 15.1481 8.61812 15.3653 8.11905C15.3781 8.09072 15.003 7.27856 14.9705 7.26801ZM26.8611 4.99428C26.8572 4.97839 26.6281 4.96291 26.6226 4.97865C26.5006 5.35862 26.9587 5.38932 26.8611 4.99428ZM18.2359 5.4828C18.0386 5.30324 17.7574 5.67581 18.0038 5.89476C18.1983 6.07119 18.4767 5.70645 18.2359 5.4828ZM16.7157 48.2831C16.7132 48.3014 16.8601 48.3752 16.8929 48.2797C16.9979 47.9727 16.7568 47.9774 16.7157 48.2831ZM24.4814 4.43713C23.5617 4.39868 22.8432 3.05302 23.9394 3.14732C24.1335 3.16679 23.5441 3.61396 23.7966 3.72795C24.2434 3.93655 24.5232 3.04891 24.9916 3.51919C25.0702 3.60438 24.5298 4.44106 24.4798 4.43912C24.4803 4.43846 24.4809 4.43779 24.4814 4.43713ZM5.56696 39.2943C5.55638 39.3076 5.66663 39.5073 5.68298 39.5032C6.06712 39.3985 5.84932 39.003 5.56696 39.2943ZM26.0481 50.5721C26.0606 50.6058 26.5884 50.6374 26.6056 50.6063C26.8809 49.9852 25.8139 49.9196 26.0481 50.5721ZM1.25363 24.5758C0.899014 24.2807 0.892811 23.955 1.39579 23.8161C1.33675 24.0656 1.30293 24.3214 1.25363 24.5758Z" fill="#B69F7C"/>
<path d="M16.9322 34.3887C17.0041 34.2726 17.151 34.173 17.2771 34.1118C17.3165 34.0925 17.3466 34.1523 17.3759 34.141C17.433 34.1189 17.4479 34.0599 17.5078 34.0416C17.528 34.0357 17.583 34.1231 17.6025 34.1154C17.7086 34.0723 17.761 33.9836 17.8517 33.9232C18.2985 33.6258 18.691 33.2867 19.1002 32.9425C19.235 32.829 19.4507 32.7426 19.5507 32.5861C19.5623 32.5677 19.4908 32.5141 19.4885 32.5061C19.4543 32.3825 19.5657 32.5236 19.6116 32.5112C19.7937 32.4617 19.9282 32.3386 20.0155 32.203C20.0525 32.1452 19.8807 32.0685 19.9982 32.0905C20.0062 32.0919 20.0606 32.1703 20.0807 32.1644C20.1261 32.1508 20.1702 32.083 20.1983 32.0654C20.2528 32.0319 20.2594 32.0239 20.3019 31.983C20.3604 31.9277 20.4612 31.8929 20.5072 31.8168C20.5169 31.8003 20.4315 31.7495 20.4407 31.7171C20.45 31.6847 20.5108 31.6354 20.5455 31.6329C20.5801 31.6304 20.6257 31.6918 20.6412 31.7008C20.7718 31.7773 20.6921 31.5702 20.6968 31.5585C20.7858 31.3486 20.9957 31.3021 21.1357 31.1615C21.2419 31.0547 21.3288 30.9138 21.4339 30.8162C21.5593 30.7001 21.6985 30.6347 21.8094 30.5111C21.8212 30.4981 21.7267 30.4325 21.7409 30.4165C21.8922 30.2466 22.0605 30.0958 22.2744 29.9899C22.296 29.9794 22.3456 30.0703 22.3713 30.064C22.5271 30.0236 22.8211 30.0071 22.5734 29.6429C22.6518 29.5884 22.7449 29.52 22.866 29.5222C22.944 29.5236 22.9833 29.6374 22.9978 29.5576C23.0011 29.5397 22.9203 29.4865 22.9303 29.4647C22.9729 29.3731 23.0679 29.3217 23.0996 29.2207C23.1059 29.2 23.0421 29.1436 23.0351 29.1289C22.9797 29.0092 23.178 29.1005 23.2002 29.0994C23.3674 29.0891 23.4014 28.9934 23.486 28.9126C23.5057 28.8938 23.4023 28.8358 23.4184 28.8149C23.5026 28.7076 23.6088 28.6153 23.7384 28.5573C23.7674 28.5446 23.8169 28.6325 23.8343 28.6299C23.9102 28.6178 23.7901 28.4783 23.8603 28.4641C23.8749 28.461 23.9288 28.5248 23.9369 28.5297C24.0637 28.6058 23.942 28.44 23.9453 28.4303C23.9845 28.3043 24.1874 28.4016 24.2459 28.3006C24.2527 28.2884 24.1568 28.2354 24.1806 28.2056C24.3387 28.0063 24.5482 27.8378 24.7846 27.7205C24.8213 27.7021 24.8576 27.7777 24.8662 27.7828C25.0021 27.8624 24.876 27.6998 24.8796 27.6854C24.9112 27.5755 25.0983 27.6305 24.9745 27.4105C25.2628 27.2179 25.4496 26.9257 25.7452 26.7438C25.8747 26.5852 26.0984 26.6143 26.257 26.7438C26.3018 26.8166 26.3399 26.896 26.3681 26.9851C26.3701 26.9907 26.2923 27.055 26.2966 27.0658C26.3474 27.1965 26.4405 27.0686 26.6356 26.9935C26.6847 26.9747 26.5676 27.1839 26.5597 27.1999C26.5304 27.2588 26.4093 27.3492 26.4057 27.3627C26.3798 27.4708 26.7229 27.1143 26.7785 27.1697C26.7796 27.172 26.7079 27.2291 26.7062 27.2401C26.7006 27.2747 26.7405 27.2634 26.7325 27.2998C26.7136 27.3834 26.5551 27.5649 26.7035 27.5155C26.7226 27.5089 26.9115 27.3009 26.9516 27.3598C26.9674 27.3834 27.0582 27.4674 27.0698 27.5047C27.0814 27.542 27.0007 27.5892 26.9997 27.5937C26.981 27.7441 26.921 27.7542 26.8288 27.9124C26.7372 28.0701 27.0254 27.7635 27.0721 27.7438C27.1187 27.7242 27.0972 27.8422 27.0848 27.8783C27.0724 27.9145 27.017 27.9403 27.0138 27.9646C26.9941 28.1242 27.1922 27.8477 27.2624 27.8235C27.4286 27.7661 27.2503 28.029 27.2785 28.1003C27.2861 28.1196 27.3253 28.0584 27.342 28.0657C27.4074 28.0953 27.3672 28.1926 27.4843 28.1835C27.5034 28.1821 27.6797 28.0932 27.6106 28.2187C27.6006 28.2368 27.5343 28.2804 27.5422 28.3129C27.5539 28.3616 27.5964 28.4281 27.6473 28.4422C27.6848 28.4526 27.7479 28.3346 27.75 28.3929C27.7508 28.4189 27.673 28.447 27.679 28.4914C27.6849 28.5356 27.7514 28.5974 27.7776 28.62C27.8038 28.6425 27.8592 28.5604 27.8658 28.5578C27.9042 28.5432 27.9841 28.5568 27.9881 28.561C28.2049 28.761 28.2812 29.0689 28.5224 29.2334C28.5412 29.2465 28.6031 29.1634 28.6067 29.1646C28.6915 29.1888 28.4559 29.3384 28.4295 29.441C28.5711 29.2885 28.5669 29.3376 28.6214 29.3598C28.6478 29.3704 28.6947 29.3034 28.7022 29.2993C28.8161 29.2403 28.7235 29.371 28.7056 29.3988C28.6397 29.501 28.7588 29.4215 28.715 29.49C28.6716 29.5581 28.5605 29.6124 28.5984 29.6481C28.6613 29.6058 28.7715 29.441 28.8217 29.4466C29.0115 29.4678 29.1005 29.7726 29.1741 29.8686C29.2475 29.9644 29.2846 29.982 29.3149 30.0504C29.3695 30.1738 29.4389 30.0391 29.541 30.0478C29.6431 30.0565 29.3651 30.2806 29.3191 30.3426C29.273 30.4043 29.3371 30.3574 29.3172 30.3967C29.2972 30.4361 29.2395 30.4518 29.2512 30.4857C29.2629 30.5197 29.4213 30.4862 29.4859 30.4378C29.6225 30.3354 29.7199 30.1818 29.7362 30.2863C29.7371 30.2924 29.6598 30.3471 29.6664 30.3671C29.7213 30.5236 29.828 30.6366 29.8886 30.7871C29.8968 30.8079 29.8104 30.8684 29.8144 30.8813C29.8554 31.0163 29.9478 30.861 30.1335 30.7717C29.9397 30.9439 29.8543 31.0826 29.92 31.1504C29.9595 31.1913 30.0325 31.1044 30.1148 31.0741C30.1396 31.0649 30.1131 31.1482 30.1559 31.1157C30.2957 31.0098 30.4066 30.8454 30.4206 30.9691C30.4211 30.9747 30.3442 31.0324 30.3505 31.0469C30.3913 31.141 30.528 31.0205 30.6165 31.0779C30.6859 31.1228 30.7091 31.3029 30.7615 31.3808C30.5543 31.5852 30.6629 31.5996 30.8298 31.4826C30.8662 31.5307 30.9198 31.5683 30.9411 31.6287C30.9484 31.6495 30.8796 31.6998 30.8749 31.708C30.8011 31.8362 30.9575 31.7165 30.9721 31.7202C31.1235 31.7664 31.0994 31.9516 31.296 31.9436C31.303 31.9433 31.4514 31.8058 31.3722 31.9354C31.3667 31.9442 31.2705 31.9781 31.3098 32.0275C31.3491 32.0769 31.3561 32.2372 31.484 32.2326C31.5149 32.2315 31.6686 32.1532 31.6082 32.2741C31.5999 32.2905 31.5545 32.327 31.5375 32.3557C31.4836 32.4472 31.6384 32.313 31.5378 32.4578C31.4371 32.6027 31.3912 32.7406 31.538 32.7181C31.5425 32.7176 31.6717 32.6178 31.6894 32.6391C31.7176 32.6733 31.738 32.7414 31.7713 32.7733C31.7873 32.7885 31.8485 32.7074 31.8525 32.7088C31.9972 32.7738 32.0084 32.9118 32.0932 33.0516C32.1086 33.0774 32.2648 33.0396 32.2279 33.1561C32.1878 33.2838 31.7937 33.588 31.9774 33.6054C32.0513 33.6127 32.5456 33.2211 32.389 33.5235C32.5873 33.6081 32.6007 33.8563 32.8237 33.9169C32.8337 33.9197 32.9774 33.8163 32.9908 33.8329C33.0103 33.8579 32.9647 33.9279 32.9768 33.9476C33.026 34.0316 33.1364 34.0431 33.1929 34.115C33.2145 34.1422 33.1462 34.1934 33.1719 34.2259C33.1977 34.2582 33.2958 34.1989 33.2971 34.2763C33.2979 34.335 33.1669 34.5255 33.1876 34.5837C33.3477 34.4266 33.3716 34.457 33.4616 34.4633C33.479 34.4644 33.5243 34.3993 33.5353 34.397C33.5816 34.3864 33.5524 34.4486 33.6003 34.4346C33.6118 34.4313 33.6662 34.3773 33.6787 34.3715C33.7871 34.3204 33.7124 34.4894 33.6993 34.5187C33.6498 34.6303 33.7348 34.5744 33.7269 34.6299C33.7189 34.6854 33.6437 34.6896 33.6522 34.7366C33.67 34.834 33.7527 34.8992 33.8087 34.9602C33.8314 34.9841 33.8877 34.8959 33.8927 34.8977C33.9592 34.9276 33.9311 35.0533 34.1019 34.936C33.7629 35.3419 34.1671 34.929 34.1615 35.0725C34.1609 35.0839 33.9917 35.267 33.945 35.272C33.8983 35.2769 33.9218 35.1903 33.8525 35.2016C33.8362 35.2042 33.6319 35.33 33.6166 35.3347C33.4965 35.3708 33.7537 35.1017 33.766 35.085C33.8968 34.9039 33.6711 35.0337 33.6461 35.0334C33.5321 35.0319 33.52 34.9458 33.4315 34.9376C33.3739 34.932 33.1984 35.1013 33.1789 35.0712C33.1138 34.9712 33.3255 34.7019 33.0392 34.8327C32.9781 34.8605 32.8062 35.0655 32.8947 34.8576C32.9002 34.8445 32.9914 34.6646 32.8801 34.7247C32.866 34.7323 32.8112 34.7873 32.8024 34.7877C32.7441 34.7891 32.7689 34.7264 32.7169 34.7163C32.665 34.7063 32.5965 34.7003 32.5798 34.6463C32.5696 34.6138 32.6445 34.4841 32.6594 34.4489C32.7027 34.3479 32.5535 34.4353 32.623 34.3301C32.6928 34.2243 32.8614 34.1261 32.8709 34.0222C32.7265 34.1631 32.5761 34.3055 32.4298 34.4461C32.3313 34.3377 32.2757 34.1897 32.1656 34.0922C32.1518 34.0803 32.0882 34.1701 32.0715 34.1593C32.0011 34.1133 32.0049 34.0078 31.9228 33.9692C31.8589 33.9396 31.7265 33.9696 31.6572 33.9412C31.7906 33.7481 31.6626 33.731 31.6249 33.6634C31.6116 33.6398 31.6564 33.5975 31.6575 33.5701C31.6606 33.468 31.5396 33.6355 31.5033 33.6446C31.3482 33.6833 31.6697 33.3518 31.593 33.2912C31.5891 33.2879 31.3706 33.4175 31.3536 33.4222C31.244 33.454 31.4077 33.3552 31.3963 33.318C31.3753 33.25 31.386 33.1776 31.2829 33.1764C31.2525 33.1763 31.1076 33.2483 31.162 33.1348C31.1691 33.12 31.2287 33.0646 31.229 33.0581C31.2285 32.9453 31.0463 33.1246 30.9527 33.1535C30.8592 33.1823 30.934 33.0076 30.9598 32.9614C31.0262 32.8418 31.0199 32.9421 31.0305 32.9344C31.1561 32.8427 31.1009 32.8249 31.0823 32.7879C31.2555 32.6066 31.2059 32.5783 31.0622 32.7502C31.0466 32.7691 31.0848 32.7742 31.0823 32.7879C30.8839 32.9374 30.8189 32.9168 30.9341 32.7071C30.9881 32.6088 31.0979 32.5409 30.9982 32.5062C30.953 32.4903 30.8427 32.6241 30.7826 32.6305C30.6451 32.6449 30.6791 32.4512 30.5977 32.4057C30.5682 32.3892 30.5238 32.4784 30.5014 32.4695C30.4415 32.4459 30.4548 32.3589 30.3872 32.3427C30.381 32.3413 30.3204 32.4205 30.3064 32.4084C30.1995 32.3177 30.1583 32.1869 30.0563 32.0824C30.0071 32.032 29.8794 31.9815 29.8355 31.9221C29.759 31.8196 29.7506 31.6078 29.6495 31.556C29.5838 31.522 29.5248 31.6029 29.4558 31.6292C29.3222 31.6803 29.4147 31.4419 29.4304 31.4064C29.431 31.4053 29.4904 31.4317 29.5034 31.3729C29.5649 31.2848 29.4313 31.4066 29.4304 31.4064C29.4405 31.3834 29.3707 31.2818 29.3403 31.2782C29.3238 31.2762 29.2627 31.3477 29.2553 31.3454C29.0814 31.2901 28.9497 31.1921 28.8645 31.0449C28.8638 31.0415 28.941 30.9705 28.9384 30.9634C28.904 30.8632 28.7703 30.9108 28.6609 30.9091C28.5516 30.9074 28.5256 30.8454 28.62 30.6853C28.5621 30.6594 28.5583 30.5431 28.5579 30.4744C28.5574 30.4057 28.4083 30.5452 28.4024 30.545C28.2163 30.5414 28.244 30.404 28.1585 30.2927C28.118 30.2395 28.0043 30.1677 27.9378 30.1328C27.8851 30.1054 27.8948 30.0475 27.8362 30.0322C27.8284 30.0301 27.7692 30.0994 27.7652 30.1004C27.6471 30.136 27.824 29.9988 27.8435 29.9622C27.9147 29.8294 27.95 29.756 27.8493 29.7513C27.8261 29.7501 27.5646 29.9408 27.5292 29.9319C27.4836 29.9198 27.5755 29.8497 27.5257 29.8391C27.5215 29.8381 27.472 29.8887 27.4556 29.8678C27.3787 29.7718 27.3135 29.6484 27.2187 29.5636C27.2059 29.5518 27.1423 29.6469 27.1226 29.6311C27.0299 29.5573 26.9417 29.4632 26.8977 29.345C26.8872 29.3156 26.9552 29.2726 26.9674 29.2518C27.0405 29.1254 26.8579 29.2327 26.8489 29.2292C26.6308 29.1505 26.6484 28.9057 26.4346 28.8168C26.4227 28.8123 26.2039 28.9043 26.3089 28.7427C26.3159 28.7319 26.4242 28.5676 26.3063 28.6361C26.2989 28.6404 26.2461 28.728 26.2229 28.6904C26.1996 28.6528 26.1037 28.6508 26.139 28.5318C26.1501 28.4943 26.2548 28.3269 26.1069 28.3959C26.0967 28.4009 25.7906 28.5851 25.938 28.3941C25.9623 28.3628 26.145 28.1875 26.0061 28.2321C25.9793 28.2409 25.9557 28.2972 25.907 28.2984C25.8323 28.3004 25.832 28.2043 25.7076 28.2394C25.6857 28.2457 25.531 28.334 25.5966 28.2152C25.6069 28.1966 25.6746 28.1447 25.6672 28.124C25.6324 28.0251 25.5225 27.9951 25.496 27.8859C25.4865 27.8473 25.5954 27.763 25.5962 27.712C25.597 27.6611 25.5715 27.5857 25.5011 27.6036C25.4307 27.6216 25.3054 27.8042 25.2537 27.7772C25.2471 27.7738 25.2406 27.7702 25.2343 27.7665H26.768C26.6462 27.976 26.3965 28.0548 26.2181 28.2075C26.1909 28.2308 26.2669 28.265 26.2307 28.3033C26.0974 28.4448 25.9118 28.7338 25.6754 28.7359C25.4861 28.7377 25.5349 28.5461 25.4238 28.5809C25.3703 28.598 25.5112 28.8151 25.5084 28.8292C25.4825 28.9696 25.3455 28.948 25.295 29.0471C25.2846 29.0676 25.3723 29.125 25.3627 29.1417C25.3304 29.1992 25.2508 29.214 25.2138 29.2628C25.1974 29.2849 25.2564 29.3367 25.2344 29.3502C25.1824 29.3829 25.1216 29.3971 25.0284 29.3865C25.0199 29.3855 24.9763 29.2912 24.9424 29.32C24.8877 29.3668 24.7735 29.3785 24.7681 29.4898C24.7667 29.523 24.8926 29.6504 24.7679 29.6001C24.7418 29.5897 24.5997 29.4276 24.6878 29.6024C24.7023 29.6315 24.8067 29.8816 24.6567 29.8031C24.6172 29.7825 24.4687 29.6821 24.4674 29.7225C24.4677 29.7285 24.547 29.7852 24.5364 29.8091C24.4978 29.8921 24.4268 29.9486 24.3856 30.0324C24.3747 30.0549 24.47 30.1005 24.4515 30.1318C24.4009 30.218 24.2976 30.2854 24.2087 30.3303C24.1758 30.3467 24.1345 30.2713 24.1264 30.2668C23.9943 30.1924 24.1166 30.3488 24.1151 30.3665C24.1042 30.4747 23.9934 30.4546 23.9558 30.5268C23.9453 30.5466 24.0224 30.6023 24.0253 30.6112C24.0519 30.7003 23.9559 30.5577 23.923 30.5644C23.8303 30.5826 23.7738 30.6498 23.7262 30.7144C23.7088 30.7382 23.809 30.7921 23.7925 30.8125C23.6963 30.9352 23.5752 31.0416 23.4259 31.106C23.3977 31.1179 23.351 31.046 23.3333 31.0366C23.2096 30.9707 23.2966 31.1423 23.2992 31.1644C23.3111 31.2649 23.2414 31.2297 23.2121 31.2786C23.0698 31.5184 22.7991 31.7196 22.5973 31.8785C22.3346 32.0859 22.0958 32.2119 21.8863 32.4506C21.8729 32.4658 21.9662 32.5303 21.9557 32.5443C21.8162 32.7219 21.6293 32.8471 21.4932 33.0288C21.4819 33.0436 21.5755 33.0996 21.5598 33.1258C21.5283 33.1801 21.4699 33.2304 21.4026 33.2499C21.3699 33.2595 21.3341 33.167 21.3025 33.178C21.2289 33.2035 21.1704 33.2514 21.1314 33.3143C21.115 33.3413 21.2242 33.3851 21.1969 33.4141C21.0125 33.6137 20.8371 33.8154 20.5441 33.9104C20.524 33.9169 20.3568 33.773 20.3583 33.8311C20.3994 33.8764 20.4502 33.9271 20.4954 33.9741C20.2408 34.2785 19.9103 34.5012 19.6217 34.7731C19.6095 34.7846 19.7123 34.8466 19.6892 34.8692C19.5556 35.0004 19.4498 35.1518 19.2325 35.2054C19.2111 35.2108 19.073 35.0589 19.0553 35.1205C19.0524 35.1315 19.012 35.2104 19.0281 35.2573C19.0307 35.2642 19.1093 35.3209 19.092 35.3421C18.9906 35.4641 18.8581 35.5657 18.7053 35.6358C18.6805 35.647 18.6276 35.5558 18.6093 35.5632C18.4802 35.6158 18.436 35.7695 18.2838 35.791C18.1816 35.8051 18.0786 35.659 17.9251 35.5673C17.9034 35.5544 17.8647 35.5877 17.7915 35.5182C17.6073 35.3436 17.4284 35.1298 17.2301 34.9458C17.1874 34.9061 17.1835 34.9987 17.1126 34.8707C17.1079 34.862 17.1098 34.794 17.0847 34.7517C17.0674 34.7223 16.984 34.6606 16.9664 34.6185C16.9488 34.5764 17.023 34.6238 17.0082 34.5684C16.9929 34.5126 16.9015 34.439 16.9322 34.3887ZM28.5548 30.1662C28.5921 30.0649 28.3336 30.3139 28.4289 30.2878C28.4338 30.2863 28.5531 30.1712 28.5548 30.1662ZM32.4677 33.9989C32.5378 33.8451 32.3445 33.9811 32.2876 34.097C32.2308 34.2129 32.4465 34.0456 32.4677 33.9989ZM32.9833 34.3511C33.0227 34.2139 32.6551 34.5661 32.7802 34.5457C32.7874 34.5447 32.9811 34.3591 32.9833 34.3511ZM18.0335 35.3891C18.0297 35.3862 18.0005 35.4088 18.0032 35.4127C18.07 35.5071 18.1283 35.4619 18.0335 35.3891ZM33.5029 34.6927C33.5363 34.6288 33.4362 34.641 33.3946 34.7205C33.3612 34.7845 33.4614 34.7723 33.5029 34.6927ZM27.1559 28.2256C27.1592 28.2213 27.1441 28.1993 27.123 28.2211C27.0555 28.2912 27.1007 28.2976 27.1559 28.2256ZM34.2389 35.4204C34.1443 35.2988 34.3761 34.9359 34.4603 35.0872C34.4755 35.1146 34.3195 35.1361 34.3198 35.19C34.3207 35.2885 34.5403 35.1348 34.491 35.2855C34.4818 35.313 34.2437 35.428 34.2383 35.4207C34.2385 35.4206 34.2387 35.4205 34.2389 35.4204ZM28.8412 29.8429C28.8439 29.8389 28.8214 29.81 28.8175 29.8128C28.723 29.8794 28.7683 29.9376 28.8412 29.8429ZM26.23 26.9858C26.2357 26.9772 26.1828 26.9109 26.1743 26.9156C26.0114 27.0162 26.118 27.1507 26.23 26.9858ZM30.757 31.3873C30.8661 31.3343 30.9092 31.3582 30.8297 31.4824C30.8073 31.4491 30.78 31.4203 30.757 31.3873ZM35.0699 19.6106C34.998 19.7267 34.8511 19.8263 34.725 19.8875C34.6856 19.9068 34.6555 19.847 34.6262 19.8583C34.5691 19.8804 34.5542 19.9394 34.4942 19.9577C34.4741 19.9635 34.419 19.8761 34.3996 19.8839C34.2935 19.927 34.2411 20.0157 34.1504 20.0761C33.7035 20.3734 33.311 20.7124 32.9018 21.0566C32.767 21.1702 32.5513 21.2565 32.4513 21.413C32.4397 21.4314 32.5111 21.485 32.5134 21.493C32.5476 21.6166 32.4363 21.4755 32.3903 21.4879C32.2083 21.5374 32.0737 21.6604 31.9864 21.796C31.9494 21.8539 32.1212 21.9306 32.0037 21.9086C31.9957 21.9072 31.9413 21.8287 31.9212 21.8346C31.8758 21.8482 31.8317 21.916 31.8036 21.9336C31.7491 21.9672 31.7424 21.9751 31.7 22.016C31.6415 22.0714 31.5407 22.1061 31.4946 22.1822C31.485 22.1987 31.5703 22.2495 31.5611 22.2819C31.5519 22.3143 31.491 22.3636 31.4564 22.3661C31.4218 22.3686 31.3762 22.3072 31.3606 22.2982C31.2301 22.2217 31.3097 22.4288 31.3051 22.4405C31.216 22.6504 31.0061 22.6969 30.8661 22.8374C30.7599 22.9442 30.673 23.0851 30.5679 23.1827C30.4425 23.2988 30.3033 23.3642 30.1923 23.4878C30.1805 23.5008 30.2751 23.5663 30.2608 23.5823C30.1095 23.7523 29.9412 23.903 29.7273 24.0089C29.7057 24.0195 29.6561 23.9285 29.6304 23.9349C29.4745 23.9752 29.1806 23.9917 29.4282 24.3559C29.3498 24.4104 29.2568 24.4788 29.1357 24.4765C29.0576 24.4752 29.0183 24.3614 29.0039 24.4411C29.0005 24.459 29.0814 24.5123 29.0713 24.534C29.0288 24.6256 28.9337 24.6771 28.902 24.7781C28.8957 24.7988 28.9595 24.8552 28.9665 24.8698C29.0219 24.9896 28.8236 24.8982 28.8014 24.8993C28.6342 24.9096 28.6002 25.0054 28.5156 25.0862C28.4959 25.1049 28.5993 25.1629 28.5832 25.1838C28.499 25.2912 28.3928 25.3834 28.2632 25.4414C28.2342 25.4541 28.1846 25.3662 28.1672 25.3688C28.0914 25.3809 28.2115 25.5204 28.1413 25.5345C28.1266 25.5377 28.0728 25.4738 28.0647 25.469C27.9379 25.3929 28.0596 25.5587 28.0562 25.5684C28.017 25.6943 27.8142 25.597 27.7556 25.698C27.7488 25.7103 27.8448 25.7632 27.821 25.7931C27.6628 25.9923 27.4533 26.1608 27.2169 26.2781C27.1802 26.2965 27.1439 26.2209 27.1353 26.2157C26.9993 26.1362 27.1254 26.2988 27.1219 26.3132C27.0903 26.4231 26.9031 26.3681 27.027 26.5881C26.7384 26.7808 26.5514 27.0735 26.2551 27.2553C26.1258 27.4138 25.9022 27.3846 25.7438 27.2553C25.6993 27.1827 25.6614 27.1036 25.6333 27.0149C25.6313 27.0093 25.7091 26.945 25.7049 26.9342C25.654 26.8035 25.561 26.9315 25.3658 27.0065C25.3167 27.0253 25.4339 26.8162 25.4417 26.8001C25.471 26.7412 25.5922 26.6509 25.5957 26.6374C25.6216 26.5292 25.2785 26.8857 25.223 26.8303C25.2218 26.828 25.2935 26.7709 25.2952 26.7599C25.3009 26.7253 25.261 26.7366 25.269 26.7003C25.2879 26.6166 25.4463 26.4351 25.2979 26.4846C25.2788 26.4911 25.09 26.6991 25.0498 26.6402C25.034 26.6166 24.9433 26.5326 24.9316 26.4952C24.92 26.4579 25.0008 26.4108 25.0018 26.4063C25.0204 26.2558 25.0805 26.2458 25.1726 26.0876C25.2644 25.9299 24.9761 26.2365 24.9294 26.2562C24.8828 26.2758 24.9043 26.1578 24.9167 26.1216C24.9291 26.0855 24.9845 26.0597 24.9877 26.0354C25.0074 25.8757 24.8093 26.1523 24.7391 26.1765C24.5729 26.2339 24.7512 25.971 24.7231 25.8996C24.7154 25.8803 24.6762 25.9415 24.6595 25.9342C24.5941 25.9047 24.6343 25.8073 24.5172 25.8164C24.4981 25.8178 24.3218 25.9068 24.3909 25.7812C24.4009 25.7631 24.4673 25.7196 24.4593 25.687C24.4476 25.6383 24.4051 25.5718 24.3543 25.5577C24.3167 25.5473 24.2536 25.6654 24.2516 25.607C24.2507 25.581 24.3286 25.5529 24.3225 25.5085C24.3166 25.4643 24.2502 25.4025 24.224 25.3799C24.1977 25.3574 24.1424 25.4395 24.1358 25.4421C24.0973 25.4567 24.0175 25.4431 24.0134 25.4389C23.7967 25.2389 23.7204 24.9309 23.4792 24.7664C23.4604 24.7534 23.3986 24.8364 23.3949 24.8352C23.3101 24.811 23.5457 24.6614 23.5721 24.5589C23.4306 24.7114 23.4347 24.6623 23.3802 24.64C23.3538 24.6294 23.307 24.6964 23.2995 24.7005C23.1856 24.7595 23.2781 24.6288 23.2961 24.601C23.3619 24.4988 23.2429 24.5783 23.2867 24.5098C23.3301 24.4417 23.4412 24.3875 23.4033 24.3517C23.3404 24.394 23.2301 24.5589 23.1799 24.5532C22.9901 24.532 22.9012 24.2272 22.8276 24.1312C22.7542 24.0354 22.7171 24.0177 22.6868 23.9494C22.6322 23.8259 22.5628 23.9606 22.4607 23.952C22.3586 23.9432 22.6366 23.7191 22.6826 23.6572C22.7287 23.5954 22.6647 23.6424 22.6846 23.603C22.7045 23.5637 22.7622 23.548 22.7505 23.514C22.7388 23.4801 22.5804 23.5136 22.5159 23.5619C22.3792 23.6643 22.2818 23.8179 22.2655 23.7134C22.2647 23.7073 22.342 23.6526 22.3353 23.6326C22.2804 23.4761 22.1738 23.3631 22.1132 23.2126C22.105 23.1918 22.1914 23.1313 22.1874 23.1184C22.1464 22.9834 22.054 23.1387 21.8682 23.228C22.0621 23.0558 22.1475 22.9171 22.0818 22.8493C22.0423 22.8084 21.9693 22.8953 21.887 22.9256C21.8622 22.9348 21.8887 22.8515 21.8459 22.884C21.7061 22.9899 21.5952 23.1542 21.5811 23.0306C21.5807 23.025 21.6576 22.9673 21.6513 22.9528C21.6105 22.8586 21.4738 22.9791 21.3853 22.9217C21.3159 22.8768 21.2927 22.6967 21.2403 22.6189C21.4475 22.4144 21.3389 22.4001 21.1721 22.517C21.1356 22.469 21.082 22.4313 21.0608 22.3709C21.0534 22.3502 21.1222 22.2998 21.1269 22.2916C21.2008 22.1634 21.0443 22.2831 21.0298 22.2794C20.8784 22.2332 20.9025 22.048 20.7059 22.0559C20.6989 22.0563 20.5505 22.1938 20.6297 22.0642C20.6352 22.0554 20.7314 22.0215 20.6921 21.9721C20.6528 21.9227 20.6458 21.7624 20.5179 21.767C20.487 21.768 20.3333 21.8464 20.3937 21.7254C20.402 21.7091 20.4474 21.6725 20.4644 21.6439C20.5183 21.5524 20.3635 21.6866 20.4642 21.5417C20.5648 21.3969 20.6108 21.2589 20.4639 21.2815C20.4595 21.282 20.3303 21.3818 20.3125 21.3604C20.2843 21.3262 20.2639 21.2581 20.2306 21.2263C20.2146 21.2111 20.1535 21.2922 20.1495 21.2908C20.0048 21.2258 19.9936 21.0877 19.9088 20.9479C19.8934 20.9221 19.7372 20.9599 19.774 20.8434C19.8142 20.7157 20.2084 20.4116 20.0246 20.3941C19.9507 20.3868 19.4564 20.7783 19.613 20.4759C19.4147 20.3914 19.4014 20.1431 19.1784 20.0825C19.1684 20.0797 19.0246 20.1831 19.0113 20.1665C18.9918 20.1415 19.0374 20.0715 19.0253 20.0518C18.9761 19.9678 18.8657 19.9562 18.8092 19.8843C18.7876 19.8572 18.8559 19.806 18.8302 19.7735C18.8044 19.7412 18.7063 19.8005 18.705 19.7231C18.7042 19.6644 18.8353 19.4739 18.8145 19.4157C18.6544 19.5728 18.6306 19.5424 18.5405 19.5361C18.5231 19.5349 18.4778 19.6001 18.4668 19.6024C18.4205 19.613 18.4497 19.5507 18.4018 19.5648C18.3903 19.5681 18.3359 19.622 18.3234 19.6278C18.215 19.6789 18.2897 19.5099 18.3028 19.4806C18.3523 19.369 18.2674 19.4249 18.2753 19.3694C18.2832 19.3139 18.3584 19.3098 18.3499 19.2628C18.3322 19.1654 18.2495 19.1001 18.1935 19.0392C18.1708 19.0152 18.1144 19.1034 18.1095 19.1016C18.0429 19.0717 18.0711 18.946 17.9003 19.0633C18.2393 18.6575 17.8351 19.0703 17.8407 18.9268C17.8413 18.9154 18.0105 18.7324 18.0572 18.7274C18.1039 18.7224 18.0804 18.8091 18.1497 18.7977C18.166 18.7951 18.3703 18.6693 18.3856 18.6647C18.5057 18.6285 18.2484 18.8976 18.2362 18.9143C18.1054 19.0954 18.3311 18.9656 18.356 18.966C18.4701 18.9675 18.4822 19.0536 18.5707 19.0618C18.6283 19.0674 18.8038 18.8981 18.8233 18.9282C18.8884 19.0282 18.6767 19.2974 18.9629 19.1667C19.0241 19.1389 19.1959 18.934 19.1075 19.1418C19.1019 19.1549 19.0107 19.3348 19.1221 19.2747C19.1361 19.2671 19.1909 19.2121 19.1998 19.2118C19.2581 19.2104 19.2333 19.2731 19.2852 19.2831C19.3371 19.2932 19.4056 19.2992 19.4224 19.3532C19.4326 19.3856 19.3576 19.5153 19.3428 19.5506C19.2994 19.6515 19.4486 19.5641 19.3791 19.6693C19.3093 19.7752 19.1407 19.8733 19.1312 19.9772C19.2756 19.8363 19.426 19.694 19.5723 19.5533C19.6708 19.6618 19.7264 19.8097 19.8365 19.9073C19.8503 19.9192 19.9139 19.8294 19.9306 19.8402C20.001 19.8862 19.9972 19.9917 20.0793 20.0303C20.1432 20.0599 20.2756 20.03 20.3449 20.0584C20.2115 20.2514 20.3394 20.2685 20.3772 20.3361C20.3905 20.3597 20.3456 20.4021 20.3445 20.4294C20.3414 20.5315 20.4625 20.3641 20.4987 20.355C20.6539 20.3163 20.3323 20.6478 20.409 20.7084C20.4129 20.7117 20.6315 20.5821 20.6484 20.5774C20.758 20.5456 20.5943 20.6444 20.6058 20.6816C20.6267 20.7496 20.616 20.822 20.7191 20.8232C20.7495 20.8233 20.8944 20.7513 20.84 20.8648C20.8329 20.8796 20.7732 20.935 20.773 20.9415C20.7734 21.0543 20.9557 20.875 21.0493 20.8461C21.1428 20.8173 21.068 20.992 21.0422 21.0382C20.9757 21.1578 20.982 21.0575 20.9715 21.0652C20.8459 21.1569 20.901 21.1747 20.9197 21.2117C20.7465 21.393 20.796 21.4213 20.9398 21.2494C20.9554 21.2305 20.9172 21.2254 20.9197 21.2117C21.118 21.0623 21.1831 21.0828 21.0679 21.2925C21.0138 21.3908 20.9041 21.4587 21.0038 21.4934C21.0489 21.5093 21.1592 21.3755 21.2194 21.3691C21.3568 21.3547 21.3229 21.5485 21.4042 21.5939C21.4337 21.6104 21.4781 21.5212 21.5006 21.5302C21.5604 21.5538 21.5471 21.6407 21.6147 21.657C21.6209 21.6584 21.6816 21.5792 21.6955 21.5913C21.8024 21.682 21.8436 21.8128 21.9456 21.9172C21.9948 21.9677 22.1225 22.0182 22.1664 22.0776C22.2428 22.1801 22.2512 22.3919 22.3524 22.4437C22.418 22.4777 22.4771 22.3969 22.5461 22.3706C22.6797 22.3194 22.5872 22.5579 22.5714 22.5933C22.5708 22.5945 22.5114 22.5681 22.4984 22.6269C22.4369 22.715 22.5706 22.5932 22.5714 22.5933C22.5613 22.6163 22.6311 22.7179 22.6615 22.7216C22.6781 22.7235 22.7392 22.6521 22.7465 22.6544C22.9204 22.7097 23.0521 22.8077 23.1373 22.9549C23.138 22.9583 23.0608 23.0293 23.0634 23.0364C23.0977 23.1366 23.2315 23.089 23.3409 23.0907C23.4502 23.0924 23.4761 23.1545 23.3817 23.3145C23.4396 23.3404 23.4434 23.4567 23.4439 23.5254C23.4443 23.5941 23.5934 23.4547 23.5993 23.4549C23.7855 23.4585 23.7577 23.5959 23.8433 23.7072C23.8837 23.7603 23.9974 23.8322 24.0639 23.8671C24.1166 23.8945 24.1069 23.9524 24.1654 23.9677C24.1733 23.9698 24.2325 23.9005 24.2365 23.8996C24.3546 23.8639 24.1777 24.0011 24.1582 24.0377C24.087 24.1705 24.0517 24.2439 24.1524 24.2486C24.1755 24.2498 24.4371 24.0591 24.4725 24.0681C24.5181 24.0801 24.4262 24.1503 24.476 24.1608C24.4802 24.1618 24.5297 24.1113 24.5461 24.1321C24.623 24.2281 24.6881 24.3515 24.783 24.4364C24.7958 24.4482 24.8594 24.3531 24.8791 24.3688C24.9717 24.4427 25.06 24.5368 25.1039 24.655C25.1145 24.6844 25.0464 24.7274 25.0343 24.7482C24.9611 24.8746 25.1438 24.7673 25.1527 24.7708C25.3708 24.8496 25.3532 25.0944 25.567 25.1832C25.5789 25.1878 25.7977 25.0958 25.6927 25.2573C25.6857 25.2681 25.5773 25.4325 25.6953 25.364C25.7027 25.3597 25.7555 25.2721 25.7787 25.3096C25.802 25.3472 25.8979 25.3493 25.8625 25.4683C25.8515 25.5058 25.7467 25.6731 25.8947 25.6042C25.9048 25.5992 26.211 25.415 26.0636 25.6059C26.0392 25.6373 25.8565 25.8126 25.9954 25.768C26.0222 25.7592 26.0458 25.7029 26.0945 25.7017C26.1693 25.6997 26.1695 25.7958 26.2939 25.7607C26.3158 25.7544 26.4705 25.6661 26.4049 25.7849C26.3946 25.8035 26.327 25.8554 26.3343 25.8761C26.3691 25.975 26.479 26.0051 26.5055 26.1143C26.515 26.1528 26.4061 26.2372 26.4053 26.2881C26.4044 26.339 26.43 26.4144 26.5004 26.3965C26.5708 26.3786 26.6961 26.1959 26.7477 26.2229C26.754 26.2262 26.7602 26.2296 26.7662 26.2331L25.2329 26.2329C25.3545 26.0226 25.6048 25.9439 25.7834 25.7909C25.8107 25.7676 25.7346 25.7335 25.7708 25.6952C25.9042 25.5537 26.0898 25.2647 26.3262 25.2626C26.5155 25.2608 26.4666 25.4525 26.5778 25.4176C26.6312 25.4006 26.4903 25.1834 26.4932 25.1693C26.5191 25.029 26.6561 25.0505 26.7066 24.9514C26.717 24.9309 26.6293 24.8735 26.6389 24.8569C26.6712 24.7994 26.7508 24.7846 26.7878 24.7358C26.8042 24.7137 26.7453 24.6618 26.7672 24.6484C26.8192 24.6156 26.88 24.6015 26.9732 24.6121C26.9817 24.6131 27.0253 24.7074 27.0592 24.6786C27.1139 24.6318 27.2281 24.6201 27.2336 24.5088C27.235 24.4756 27.109 24.3482 27.2337 24.3985C27.2598 24.4089 27.4019 24.571 27.3139 24.3962C27.2994 24.3671 27.195 24.117 27.345 24.1955C27.3845 24.2161 27.533 24.3165 27.5343 24.2761C27.534 24.2702 27.4546 24.2134 27.4653 24.1895C27.5039 24.1065 27.5749 24.05 27.6161 23.9662C27.627 23.9437 27.5317 23.8982 27.5502 23.8669C27.6008 23.7807 27.7041 23.7132 27.793 23.6684C27.826 23.652 27.8672 23.7273 27.8754 23.7319C28.0074 23.8063 27.8852 23.6499 27.8866 23.6322C27.8976 23.524 28.0084 23.5441 28.0459 23.4719C28.0565 23.4521 27.9793 23.3964 27.9764 23.3875C27.9498 23.2983 28.0458 23.4409 28.0788 23.4343C28.1715 23.4161 28.228 23.3489 28.2756 23.2843C28.293 23.2605 28.1928 23.2066 28.2093 23.1861C28.3054 23.0635 28.4266 22.9571 28.5759 22.8928C28.6041 22.8808 28.6508 22.9528 28.6685 22.9621C28.7922 23.028 28.7052 22.8564 28.7026 22.8343C28.6907 22.7338 28.7604 22.7691 28.7897 22.7202C28.9321 22.4804 29.2027 22.2792 29.4046 22.1203C29.6673 21.9129 29.9061 21.787 30.1156 21.5482C30.129 21.5331 30.0357 21.4686 30.0462 21.4545C30.1858 21.277 30.3727 21.1518 30.5088 20.9701C30.5201 20.9554 30.4265 20.8993 30.4421 20.8731C30.4737 20.8188 30.5321 20.7685 30.5994 20.749C30.6321 20.7394 30.6679 20.832 30.6995 20.8209C30.7731 20.7954 30.8316 20.7476 30.8706 20.6846C30.887 20.6577 30.7778 20.6139 30.8051 20.5848C30.9895 20.3852 31.1649 20.1835 31.458 20.0886C31.4781 20.0821 31.6453 20.226 31.6437 20.1679C31.6027 20.1226 31.5518 20.0719 31.5066 20.0249C31.7613 19.7206 32.0919 19.4979 32.3805 19.226C32.3926 19.2145 32.2898 19.1525 32.3129 19.1299C32.4466 18.9987 32.5523 18.8473 32.7697 18.7938C32.7911 18.7883 32.9292 18.9402 32.9468 18.8787C32.9498 18.8677 32.9901 18.7887 32.9741 18.7418C32.9715 18.735 32.8929 18.6782 32.9102 18.657C33.0116 18.5351 33.1441 18.4335 33.2969 18.3633C33.3217 18.3521 33.3746 18.4434 33.3929 18.436C33.5221 18.3834 33.5662 18.2297 33.7185 18.2083C33.8207 18.1942 33.9237 18.3402 34.0772 18.4319C34.0988 18.4449 34.1376 18.4116 34.2107 18.4811C34.3949 18.6556 34.5738 18.8695 34.7721 19.0535C34.8148 19.0932 34.8187 19.0006 34.8896 19.1287C34.8943 19.1373 34.8923 19.2053 34.9174 19.2477C34.9348 19.277 35.0181 19.3387 35.0358 19.3809C35.0534 19.4229 34.9791 19.3756 34.9939 19.4309C35.0092 19.4868 35.1006 19.5604 35.0699 19.6106ZM23.4469 23.8337C23.4096 23.935 23.6682 23.6859 23.5728 23.712C23.5679 23.7136 23.4487 23.8286 23.4469 23.8337ZM19.5344 20.0006C19.4643 20.1544 19.6575 20.0184 19.7145 19.9024C19.7713 19.7866 19.5556 19.9539 19.5344 20.0006ZM19.0188 19.6483C18.9794 19.7855 19.347 19.4333 19.2219 19.4537C19.2147 19.4548 19.021 19.6403 19.0188 19.6483ZM33.9687 18.6101C33.9726 18.6131 34.0017 18.5905 33.999 18.5865C33.9322 18.4921 33.8739 18.5373 33.9687 18.6101ZM18.4992 19.3066C18.4658 19.3706 18.566 19.3584 18.6075 19.2789C18.641 19.2149 18.5408 19.2271 18.4992 19.3066ZM24.8456 25.7744C24.8423 25.7787 24.8575 25.8006 24.8785 25.7789C24.9461 25.7088 24.9008 25.7024 24.8456 25.7744ZM17.7633 18.5789C17.8579 18.7005 17.6261 19.0634 17.5419 18.9121C17.5267 18.8847 17.6827 18.8632 17.6823 18.8093C17.6815 18.7108 17.4619 18.8645 17.5112 18.7138C17.5204 18.6863 17.7586 18.5713 17.7639 18.5786C17.7637 18.5787 17.7635 18.5788 17.7633 18.5789ZM23.1605 24.1569C23.1578 24.1609 23.1803 24.1898 23.1842 24.1871C23.2787 24.1204 23.2334 24.0622 23.1605 24.1569ZM25.7714 27.0142C25.7657 27.0228 25.8186 27.0891 25.8271 27.0845C25.99 26.9838 25.8834 26.8494 25.7714 27.0142ZM21.2448 22.6123C21.1357 22.6654 21.0926 22.6414 21.1721 22.5172C21.1946 22.5505 21.2218 22.5793 21.2448 22.6123Z" fill="#E1DDD4"/>
</svg>
