<svg width="32" height="32" viewBox="0 0 32 32" fill="none" xmlns="http://www.w3.org/2000/svg">
<path fill-rule="evenodd" clip-rule="evenodd" d="M8.43659 0.499462C8.44534 0.437548 8.44534 0.37471 8.43659 0.312796C8.40456 0.232253 8.3464 0.164807 8.27144 0.121284C8.19649 0.0777607 8.10908 0.0606842 8.02325 0.0727959C7.51659 0.152796 7.67659 0.619462 7.66325 1.16613C7.6024 2.54111 7.46888 3.91191 7.26325 5.2728C7.21963 5.79071 7.11215 6.30125 6.94325 6.7928C6.90832 6.88072 6.85433 6.95981 6.78516 7.02436C6.71599 7.08892 6.63338 7.13733 6.54325 7.16613C5.99347 7.27675 5.4365 7.34805 4.87659 7.37946C4.45813 7.45926 4.03507 7.5127 3.60992 7.53946H0.463252C0.343969 7.53927 0.229139 7.58476 0.14235 7.66659C0.0555611 7.74842 0.0034008 7.86037 -0.00341511 7.97946C-0.00341511 8.10323 0.0457516 8.22193 0.133268 8.30945C0.220786 8.39696 0.339484 8.44613 0.463252 8.44613C1.51659 8.49946 2.54325 8.69946 3.59659 8.76613C4.07092 8.81064 4.54817 8.8151 5.02325 8.77946C5.68824 8.79991 6.35363 8.75526 7.00992 8.64613C7.31163 8.55818 7.58895 8.40171 7.82023 8.18893C8.05152 7.97615 8.23051 7.71282 8.34325 7.41946C8.58928 6.7752 8.72888 6.09521 8.75659 5.40613C8.77727 3.97559 8.69707 2.54538 8.51659 1.12613C8.50323 0.915756 8.47651 0.706445 8.43659 0.499462Z" fill="#B07010"/>
<path fill-rule="evenodd" clip-rule="evenodd" d="M0.559576 24.5298H3.71958C4.13138 24.5577 4.54106 24.6111 4.94624 24.6898C5.51057 24.7213 6.07196 24.7926 6.62624 24.9032C6.71621 24.9333 6.79796 24.9839 6.86505 25.051C6.93215 25.1181 6.98276 25.1999 7.01291 25.2898C7.18899 25.7755 7.30104 26.2819 7.34624 26.7965C7.53487 28.1582 7.65059 29.5291 7.69291 30.9032C7.65433 31.1863 7.65433 31.4734 7.69291 31.7565C7.69291 31.8765 8.37291 32.1965 8.49291 31.5698L8.57291 30.9432C8.76823 29.5251 8.85737 28.0945 8.83958 26.6632C8.82469 25.9763 8.69861 25.2964 8.46624 24.6498C8.35439 24.356 8.17569 24.0921 7.94428 23.8792C7.71286 23.6663 7.43508 23.5102 7.13291 23.4232C6.47705 23.3097 5.81166 23.2605 5.14624 23.2765C4.66682 23.2432 4.18566 23.2432 3.70624 23.2765C2.65291 23.3565 1.62624 23.5432 0.572909 23.5965C0.449142 23.5965 0.330443 23.6457 0.242927 23.7332C0.155409 23.8207 0.106242 23.9394 0.106242 24.0632C0.106242 24.1869 0.155409 24.3056 0.242927 24.3932C0.330443 24.4807 0.449142 24.5298 0.572909 24.5298H0.559576Z" fill="#B07010"/>
<path fill-rule="evenodd" clip-rule="evenodd" d="M32.385 6.66616C31.3316 6.5995 30.2783 6.66616 29.225 6.66616C28.8051 6.65264 28.3865 6.61256 27.9716 6.54616C27.4073 6.51471 26.8459 6.44342 26.2916 6.33283C26.2035 6.30318 26.1231 6.25429 26.0562 6.18972C25.9894 6.12515 25.9377 6.04651 25.905 5.9595C25.7292 5.4692 25.6172 4.95835 25.5716 4.4395C25.3533 2.79458 25.2286 1.13857 25.1983 -0.520502C25.1983 -0.640502 24.5183 -0.947169 24.3983 -0.333836L24.3183 0.29283C24.1408 1.71667 24.0695 3.15174 24.105 4.58616C24.1196 5.26872 24.2457 5.94428 24.4783 6.58616C24.5893 6.88199 24.7676 7.14799 24.9989 7.36318C25.2303 7.57836 25.5085 7.73686 25.8116 7.82616C26.4687 7.9282 27.1335 7.97281 27.7983 7.9595C28.2779 7.98616 28.7587 7.98616 29.2383 7.9595C30.2916 7.8795 31.3183 7.69283 32.3716 7.62616C32.4919 7.62616 32.6072 7.5784 32.6922 7.49339C32.7772 7.40837 32.825 7.29306 32.825 7.17283C32.8324 7.11008 32.8267 7.04647 32.8081 6.98608C32.7895 6.92569 32.7585 6.86985 32.7171 6.82214C32.6756 6.77443 32.6247 6.73591 32.5675 6.70905C32.5103 6.68219 32.4481 6.66758 32.385 6.66616Z" fill="#B07010"/>
<path fill-rule="evenodd" clip-rule="evenodd" d="M23.3682 30.8254C23.3682 31.3854 23.4349 31.9454 23.9015 31.8654C24.3682 31.7854 24.2482 31.3987 24.2615 30.7854C24.308 29.411 24.4282 28.0402 24.6215 26.6787C24.6638 26.1606 24.7713 25.6499 24.9415 25.1587C24.9748 25.0698 25.0282 24.9898 25.0976 24.925C25.167 24.8602 25.2505 24.8124 25.3415 24.7854C25.8902 24.6683 26.4477 24.5969 27.0082 24.572C27.4275 24.5057 27.8506 24.4656 28.2749 24.452H31.4215C31.4885 24.4635 31.5572 24.4602 31.6227 24.4423C31.6883 24.4245 31.7491 24.3925 31.801 24.3487C31.853 24.3049 31.8947 24.2503 31.9233 24.1887C31.952 24.1271 31.9668 24.06 31.9668 23.992C31.9668 23.9241 31.952 23.857 31.9233 23.7954C31.8947 23.7338 31.853 23.6792 31.801 23.6354C31.7491 23.5915 31.6883 23.5596 31.6227 23.5418C31.5572 23.5239 31.4885 23.5206 31.4215 23.532C30.3682 23.4654 29.3415 23.2787 28.2882 23.1987C27.813 23.172 27.3367 23.172 26.8615 23.1987C26.1967 23.1849 25.5319 23.2295 24.8749 23.332C24.5727 23.4232 24.2954 23.5823 24.0643 23.7973C23.8332 24.0122 23.6543 24.2773 23.5415 24.572C23.309 25.2139 23.1829 25.8895 23.1682 26.572C23.1362 27.9927 23.2031 29.414 23.3682 30.8254Z" fill="#B07010"/>
</svg>
