<svg width="32" height="33" viewBox="0 0 32 33" fill="none" xmlns="http://www.w3.org/2000/svg">
<path fill-rule="evenodd" clip-rule="evenodd" d="M8.24562 11.1032C8.06982 11.3318 7.94348 11.5945 7.87462 11.8745C7.80576 12.1546 7.79589 12.4458 7.84562 12.7299C7.84887 13.1172 7.93644 13.4991 8.10222 13.8491C8.26801 14.199 8.50803 14.5087 8.80562 14.7566C9.13852 14.9458 9.50671 15.0647 9.8874 15.106C10.2681 15.1473 10.6532 15.11 11.0189 14.9966C11.3314 14.9349 11.6273 14.8076 11.887 14.6232C12.1467 14.4389 12.3643 14.2015 12.5256 13.9268C12.6869 13.6522 12.7881 13.3465 12.8226 13.0298C12.857 12.7132 12.824 12.3928 12.7256 12.0899C11.9656 9.3299 8.92562 10.2499 8.24562 11.1032ZM10.6589 13.3166C10.3486 13.4275 10.0093 13.4275 9.69895 13.3166C9.57454 13.2167 9.47319 13.0911 9.40185 12.9485C9.33051 12.8058 9.29086 12.6493 9.28562 12.4899C9.20562 12.1566 9.17895 11.9032 9.35228 11.7166C9.52562 11.5299 11.1923 10.4899 11.3789 12.3699C11.3978 12.4798 11.3938 12.5925 11.3673 12.7008C11.3408 12.8092 11.2922 12.9109 11.2247 12.9997C11.1572 13.0885 11.0721 13.1624 10.9748 13.217C10.8774 13.2715 10.7699 13.3054 10.6589 13.3166Z" fill="#7B3F00"/>
<path fill-rule="evenodd" clip-rule="evenodd" d="M14.8056 18.7568C17.6856 18.4634 17.2589 15.3301 16.5389 14.4901C16.3383 14.2829 16.0979 14.1182 15.8321 14.0059C15.5664 13.8937 15.2807 13.8362 14.9923 13.8368C14.6137 13.7853 14.2285 13.8159 13.8627 13.9263C13.4969 14.0367 13.1592 14.2244 12.8723 14.4768C12.631 14.772 12.4532 15.1138 12.3499 15.4809C12.2467 15.848 12.2202 16.2324 12.2723 16.6101C12.2826 16.9227 12.3583 17.2297 12.4944 17.5114C12.6306 17.793 12.8243 18.0429 13.0629 18.2452C13.3016 18.4474 13.5799 18.5974 13.8801 18.6855C14.1802 18.7736 14.4955 18.7979 14.8056 18.7568ZM14.1256 15.5834C14.2419 15.4779 14.3794 15.3984 14.5288 15.3501C14.6782 15.3019 14.8362 15.2859 14.9923 15.3034C15.3389 15.3034 15.5923 15.3034 15.7389 15.5034C15.8856 15.7034 16.6723 17.5034 14.7789 17.3968C14.6663 17.3971 14.5548 17.3741 14.4515 17.3291C14.3482 17.2842 14.2554 17.2182 14.1789 17.1355C14.1024 17.0527 14.044 16.955 14.0073 16.8485C13.9706 16.742 13.9564 16.629 13.9656 16.5168C13.8925 16.1838 13.9498 15.8355 14.1256 15.5434V15.5834Z" fill="#7B3F00"/>
<path fill-rule="evenodd" clip-rule="evenodd" d="M8.8053 22.3566C9.13726 22.548 9.50497 22.6693 9.88569 22.7129C10.2664 22.7564 10.652 22.7214 11.0186 22.6099C11.324 22.5453 11.6128 22.4184 11.8668 22.237C12.1208 22.0556 12.3346 21.8237 12.4949 21.5558C12.6551 21.2879 12.7583 20.9899 12.7979 20.6803C12.8376 20.3707 12.8128 20.0562 12.7253 19.7566C11.9653 16.9566 8.9253 17.8899 8.2453 18.7566C8.07023 18.9856 7.94433 19.2483 7.8755 19.5282C7.80667 19.8081 7.79639 20.0992 7.8453 20.3832C7.85617 20.7615 7.94739 21.133 8.11291 21.4732C8.27843 21.8135 8.51445 22.1146 8.8053 22.3566ZM9.35197 19.3566C9.6053 19.1166 11.192 18.1166 11.3786 20.0099C11.3997 20.1194 11.3972 20.232 11.3714 20.3405C11.3456 20.4489 11.297 20.5506 11.229 20.6388C11.1609 20.7271 11.0748 20.7999 10.9765 20.8523C10.8782 20.9048 10.7698 20.9358 10.6586 20.9432C10.3497 21.0624 10.0075 21.0624 9.69863 20.9432C9.56937 20.8418 9.46494 20.7122 9.39331 20.5644C9.32169 20.4165 9.28475 20.2542 9.2853 20.0899C9.2053 19.7833 9.17863 19.5299 9.35197 19.3566Z" fill="#7B3F00"/>
<path fill-rule="evenodd" clip-rule="evenodd" d="M3.51216 14.5565C3.27087 14.8517 3.09305 15.1936 2.98981 15.5606C2.88658 15.9277 2.86014 16.3121 2.91216 16.6898C2.92449 17.0018 3.00151 17.3078 3.13833 17.5884C3.27516 17.869 3.46881 18.1181 3.70699 18.32C3.94518 18.5218 4.22271 18.6719 4.52198 18.7608C4.82126 18.8498 5.13574 18.8755 5.44549 18.8365C8.33882 18.5431 7.91216 15.4098 7.17882 14.5698C6.98112 14.3623 6.74317 14.1974 6.47952 14.0851C6.21587 13.9727 5.93207 13.9154 5.64549 13.9165C5.26478 13.8631 4.87703 13.8926 4.50881 14.0031C4.14059 14.1136 3.8006 14.3023 3.51216 14.5565ZM5.41882 17.4231C5.30675 17.4216 5.19617 17.3972 5.09381 17.3516C4.99144 17.3059 4.89942 17.24 4.82335 17.1577C4.74727 17.0753 4.68873 16.9784 4.65128 16.8728C4.61383 16.7671 4.59825 16.655 4.60549 16.5431C4.54283 16.2229 4.59976 15.8909 4.76549 15.6098C4.8843 15.504 5.02406 15.4244 5.17568 15.3761C5.3273 15.3279 5.48737 15.3121 5.64549 15.3298C5.97882 15.3298 6.24549 15.3298 6.39216 15.5298C6.53882 15.7298 7.31216 17.5831 5.41882 17.4231Z" fill="#7B3F00"/>
<path fill-rule="evenodd" clip-rule="evenodd" d="M31.4055 20.317C31.3595 20.2698 31.3046 20.2323 31.2439 20.2067C31.1832 20.1811 31.118 20.168 31.0522 20.168C30.9863 20.168 30.9211 20.1811 30.8604 20.2067C30.7997 20.2323 30.7448 20.2698 30.6988 20.317C30.4472 20.5863 30.1753 20.836 29.8855 21.0637C29.6012 21.2648 29.2859 21.4179 28.9522 21.517C28.2935 21.7652 27.5755 21.8102 26.891 21.6462C26.2065 21.4822 25.5869 21.1167 25.1122 20.597C23.967 19.1927 23.0656 17.6062 22.4455 15.9037C21.7153 14.0746 20.7565 12.3453 19.5922 10.757C18.3416 9.32022 16.7169 8.25862 14.8988 7.69034C14.6988 7.69034 14.4988 7.62367 14.3122 7.57034C13.6448 7.31765 12.9518 7.1388 12.2455 7.03701C10.3545 6.8856 8.45531 7.20027 6.71421 7.95342C4.97312 8.70658 3.44331 9.87524 2.25883 11.357C0.941294 12.7706 0.150517 14.5946 0.0193986 16.5225C-0.111719 18.4504 0.424815 20.3647 1.53883 21.9437C2.21248 22.8342 3.07252 23.5668 4.05883 24.0903C5.51129 24.8654 7.07737 25.4054 8.69883 25.6903C8.75575 25.702 8.81442 25.7022 8.87145 25.6911C8.92847 25.6799 8.98272 25.6576 9.03107 25.6254C9.07941 25.5931 9.1209 25.5517 9.15312 25.5033C9.18535 25.455 9.20768 25.4007 9.21883 25.3437C9.2412 25.2362 9.2238 25.1242 9.16985 25.0286C9.1159 24.9329 9.02907 24.8601 8.92549 24.8237C7.4286 24.5159 5.98901 23.976 4.65883 23.2237C3.81678 22.7347 3.08933 22.0709 2.52549 21.277C1.65212 19.9058 1.27136 18.2783 1.44583 16.662C1.6203 15.0457 2.33962 13.5369 3.48549 12.3837C4.52112 11.1272 5.84536 10.1399 7.34521 9.50605C8.84506 8.87221 10.476 8.61065 12.0988 8.74367C16.7922 9.33034 18.8855 13.3303 18.6722 17.1303C18.4588 20.9303 15.8188 24.757 10.8988 24.557C10.8323 24.5534 10.7657 24.563 10.7028 24.5852C10.64 24.6074 10.5821 24.6417 10.5326 24.6863C10.483 24.7309 10.4428 24.7849 10.4141 24.845C10.3854 24.9052 10.3689 24.9704 10.3655 25.037C10.3617 25.1705 10.4094 25.3004 10.4988 25.3997C10.5881 25.499 10.7123 25.5601 10.8455 25.5703C16.5255 25.9703 19.7255 21.7303 20.0988 17.2237C20.1702 16.2729 20.1073 15.3169 19.9122 14.3837C20.2722 15.1303 20.6188 15.8903 20.9788 16.6637C21.7019 18.5224 22.7695 20.2278 24.1255 21.6903C24.7948 22.3507 25.646 22.7962 26.5701 22.9696C27.4942 23.143 28.449 23.0365 29.3122 22.6637C29.7496 22.4957 30.1587 22.2619 30.5255 21.9703C30.8735 21.689 31.1908 21.3717 31.4722 21.0237C31.5171 20.9742 31.5513 20.916 31.5724 20.8526C31.5936 20.7892 31.6012 20.7221 31.595 20.6556C31.5887 20.5891 31.5686 20.5246 31.536 20.4663C31.5033 20.408 31.4589 20.3572 31.4055 20.317Z" fill="#7B3F00"/>
</svg>
