<svg width="32" height="33" viewBox="0 0 32 33" fill="none" xmlns="http://www.w3.org/2000/svg">
<g clip-path="url(#clip0_331_1678)">
<path d="M6.74642 9.03356C7.41309 9.03356 8.07976 8.96689 8.75976 8.91356C9.77309 8.83356 10.7731 8.70023 11.7731 8.64689C11.884 8.64695 11.9905 8.60383 12.0702 8.52668C12.1498 8.44952 12.1963 8.34439 12.1998 8.23356C12.2015 8.17752 12.1923 8.12169 12.1724 8.06924C12.1526 8.01679 12.1227 7.96876 12.0843 7.9279C12.0459 7.88703 11.9998 7.85414 11.9487 7.83109C11.8976 7.80804 11.8425 7.79528 11.7864 7.79356C10.7998 7.68689 9.81309 7.59356 8.79976 7.56689H7.46642C7.03976 7.56689 6.61309 7.56689 6.13309 7.67356C5.13309 7.80689 4.17309 8.00689 3.19976 8.16689C3.10194 8.17699 3.01165 8.22397 2.94725 8.29828C2.88285 8.37259 2.84918 8.46864 2.85309 8.56689C2.85647 8.61597 2.86951 8.66388 2.89147 8.7079C2.91342 8.75191 2.94386 8.79116 2.98103 8.82337C3.0182 8.85558 3.06137 8.88013 3.10806 8.89561C3.15475 8.91109 3.20404 8.91719 3.25309 8.91356C4.46642 8.96689 5.59976 9.06023 6.74642 9.03356Z" fill="#7B3F00"/>
<path d="M19.2133 8.71372C19.215 8.7622 19.2264 8.80984 19.2469 8.85378C19.2675 8.89772 19.2967 8.93706 19.3328 8.96944C19.3689 9.00182 19.4112 9.02656 19.4571 9.04219C19.503 9.05782 19.5516 9.06401 19.6 9.06039C20.8 9.06039 22 9.23372 23.2133 9.24706H25.36C26.44 9.24706 27.5066 9.10039 28.5866 9.10039C28.642 9.10587 28.6979 9.10012 28.751 9.08348C28.8041 9.06684 28.8533 9.03965 28.8956 9.00355C28.9379 8.96744 28.9725 8.92316 28.9974 8.87336C29.0222 8.82356 29.0367 8.76926 29.04 8.71372C29.0441 8.60344 29.0067 8.49562 28.9351 8.41165C28.8634 8.32768 28.7629 8.27369 28.6533 8.26039C27.5866 8.10039 26.5333 7.96706 25.4533 7.90039H24.12H22.7866C21.72 7.99372 20.68 8.19372 19.6266 8.34039C19.574 8.33243 19.5202 8.33627 19.4691 8.35163C19.4181 8.36699 19.3711 8.39348 19.3316 8.4292C19.292 8.46491 19.2609 8.50896 19.2405 8.55817C19.22 8.60737 19.2107 8.6605 19.2133 8.71372Z" fill="#7B3F00"/>
<path d="M9.33332 16.5003C9.33332 16.3871 9.28837 16.2786 9.20835 16.1986C9.12834 16.1186 9.01981 16.0736 8.90665 16.0736C8.30665 15.9803 7.70665 15.8736 7.07999 15.807C6.82238 15.7937 6.56426 15.7937 6.30665 15.807C6.0446 15.7935 5.78204 15.7935 5.51999 15.807C4.89332 15.807 4.29332 15.9936 3.67999 16.0736C3.58324 16.0736 3.49025 16.1111 3.4206 16.1782C3.35096 16.2454 3.31011 16.3369 3.30665 16.4336C3.30298 16.4831 3.30957 16.5328 3.32601 16.5796C3.34245 16.6264 3.36838 16.6693 3.40218 16.7056C3.43598 16.7419 3.47693 16.7708 3.52244 16.7906C3.56795 16.8103 3.61705 16.8204 3.66665 16.8203C4.26665 16.9403 4.86665 17.087 5.49332 17.167C5.75515 17.1873 6.01816 17.1873 6.27999 17.167C6.54204 17.1802 6.8046 17.1802 7.06665 17.167C7.69332 17.167 8.29332 17.0203 8.90665 16.9403C9.02102 16.9368 9.12954 16.8889 9.2092 16.8068C9.28885 16.7247 9.33337 16.6147 9.33332 16.5003Z" fill="#7B3F00"/>
<path d="M28.2798 16.4072C27.7198 16.3272 27.1731 16.2606 26.5998 16.2339H25.8798C25.6424 16.2554 25.4064 16.291 25.1731 16.3406C24.6131 16.4739 24.1065 16.6739 23.5598 16.8606C23.511 16.8669 23.464 16.8832 23.4217 16.9085C23.3794 16.9338 23.3428 16.9674 23.314 17.0074C23.2853 17.0474 23.265 17.0929 23.2546 17.141C23.2441 17.1891 23.2436 17.2389 23.2531 17.2872C23.2597 17.3347 23.2756 17.3804 23.3 17.4217C23.3244 17.463 23.3568 17.4989 23.3953 17.5275C23.4338 17.5561 23.4776 17.5766 23.5242 17.588C23.5708 17.5994 23.6191 17.6014 23.6665 17.5939C24.2265 17.5939 24.7598 17.6872 25.3198 17.6872C25.5507 17.7005 25.7822 17.7005 26.0131 17.6872L26.6665 17.5672C27.2131 17.4739 27.7331 17.3406 28.2798 17.2472C28.3341 17.2455 28.3875 17.2331 28.437 17.2107C28.4865 17.1883 28.5311 17.1564 28.5682 17.1168C28.6054 17.0772 28.6344 17.0306 28.6535 16.9798C28.6727 16.9289 28.6816 16.8748 28.6798 16.8206C28.6799 16.7132 28.6382 16.61 28.5635 16.5329C28.4888 16.4558 28.3871 16.4107 28.2798 16.4072Z" fill="#7B3F00"/>
<path d="M28.4932 25.6601H25.8265L24.7065 25.7534C24.3301 25.7951 23.9562 25.8574 23.5865 25.9401C22.7199 26.1268 21.8932 26.4068 21.0532 26.6734C21.0056 26.6814 20.96 26.6989 20.9193 26.7249C20.8785 26.7508 20.8434 26.7847 20.816 26.8245C20.7887 26.8643 20.7696 26.9093 20.7599 26.9566C20.7503 27.0039 20.7503 27.0528 20.7599 27.1001C20.7762 27.1971 20.8302 27.2838 20.9101 27.3412C20.99 27.3986 21.0894 27.4222 21.1865 27.4068C22.0532 27.3401 22.9065 27.3401 23.8532 27.2868C24.2132 27.2868 24.5865 27.2868 24.9465 27.1668L26.0399 26.9934C26.8932 26.8468 27.7332 26.6601 28.5732 26.5268C28.6852 26.5166 28.789 26.464 28.8634 26.3797C28.9378 26.2954 28.9771 26.1858 28.9732 26.0734C28.9718 26.0137 28.9579 25.955 28.9324 25.901C28.9069 25.8471 28.8703 25.799 28.8251 25.7601C28.7798 25.7211 28.7269 25.6921 28.6698 25.6749C28.6126 25.6577 28.5524 25.6526 28.4932 25.6601Z" fill="#7B3F00"/>
<path d="M21.5999 18.9536C21.7002 18.4435 21.6492 17.9152 21.4532 17.4336C21.1309 16.7623 20.6275 16.1944 19.9999 15.7936C19.1166 15.0998 18.0297 14.7156 16.9065 14.7003C16.5286 14.7031 16.1525 14.7524 15.7865 14.847C15.5029 13.7956 15.2891 12.7266 15.1465 11.647C15.1465 11.287 15.0399 10.9136 14.9999 10.5403C16.2991 9.31159 17.4902 7.97332 18.5599 6.54031C19.2846 5.33552 19.6415 3.9452 19.5865 2.54031C19.5801 2.25592 19.5158 1.97583 19.3976 1.71713C19.2793 1.45842 19.1095 1.22654 18.8987 1.03563C18.6878 0.844718 18.4402 0.698788 18.1711 0.606749C17.9019 0.514709 17.6168 0.478491 17.3332 0.500305C16.6325 0.566493 15.9675 0.84045 15.4235 1.28705C14.8795 1.73366 14.4813 2.33256 14.2799 3.00697C13.6449 4.70989 13.368 6.52551 13.4665 8.34031C13.4665 8.98031 13.5732 9.67364 13.6399 10.287C12.3958 11.4844 11.3873 12.9045 10.6665 14.4736C10.3497 15.2811 10.2176 16.1493 10.2799 17.0144C10.3422 17.8796 10.5973 18.7199 11.0265 19.4736C11.632 20.3882 12.4538 21.1393 13.419 21.6603C14.3842 22.1813 15.463 22.4561 16.5599 22.4603H16.6399C16.7199 22.7936 16.7732 23.1403 16.8265 23.4736C17.1579 25.2319 16.9679 27.0487 16.2799 28.7003C16.0494 29.3078 15.6816 29.8539 15.2051 30.2956C14.7286 30.7374 14.1564 31.063 13.5332 31.247C12.2224 31.5486 10.8461 31.3438 9.67987 30.6736C9.14107 30.3331 8.73249 29.8212 8.51987 29.2203C8.24875 28.6142 8.14294 27.9472 8.21321 27.287C8.28776 26.6631 8.57499 26.0839 9.02654 25.647C9.52297 25.2494 10.1262 25.0081 10.7599 24.9536C11.2478 24.9207 11.7347 25.032 12.1599 25.2736C12.6799 25.5536 13.1065 25.9003 13.1732 26.167C13.2131 26.4727 13.1725 26.7835 13.0556 27.0687C12.9387 27.354 12.7495 27.6038 12.5065 27.7936C12.4048 27.8972 12.2834 27.9795 12.1495 28.0357C12.0155 28.0919 11.8718 28.1208 11.7265 28.1208C11.5813 28.1208 11.4375 28.0919 11.3036 28.0357C11.1697 27.9795 11.0483 27.8972 10.9465 27.7936C10.9113 27.7569 10.869 27.7277 10.8221 27.708C10.7752 27.6882 10.7248 27.6782 10.6739 27.6786C10.623 27.679 10.5727 27.6899 10.5262 27.7104C10.4796 27.731 10.4378 27.7608 10.4032 27.7982C10.3686 27.8355 10.342 27.8795 10.325 27.9275C10.3081 27.9754 10.3011 28.0264 10.3045 28.0772C10.3079 28.1279 10.3217 28.1775 10.345 28.2227C10.3683 28.268 10.4006 28.308 10.4399 28.3403C10.7654 28.6936 11.2178 28.9032 11.6978 28.9232C12.1778 28.9432 12.6461 28.7719 12.9999 28.447C13.3523 28.1599 13.6255 27.7875 13.7935 27.3651C13.9616 26.9427 14.0188 26.4844 13.9599 26.0336C13.7132 25.3711 13.2283 24.8243 12.5999 24.5003C12.0098 24.1763 11.3375 24.0326 10.6665 24.087C9.84724 24.1434 9.06517 24.4506 8.42654 24.967C7.81142 25.5481 7.41977 26.3267 7.31987 27.167C7.20135 28.0062 7.30715 28.8619 7.62654 29.647C7.92625 30.471 8.48842 31.1737 9.22654 31.647C10.618 32.4744 12.2721 32.7414 13.8532 32.3936C14.6481 32.1813 15.383 31.788 16.0006 31.2444C16.6182 30.7009 17.1017 30.0218 17.4132 29.2603C18.2305 27.401 18.4899 25.3443 18.1599 23.3403C18.1599 23.0336 18.0665 22.7136 17.9999 22.407C18.8926 22.2979 19.7259 21.9024 20.3749 21.2798C21.024 20.6572 21.4537 19.841 21.5999 18.9536ZM15.5332 3.56697C15.9065 2.67364 16.4399 1.94031 17.3199 1.91364C17.437 1.89839 17.5561 1.90843 17.6691 1.94309C17.782 1.97775 17.8862 2.03622 17.9747 2.11456C18.0631 2.1929 18.1338 2.28929 18.1818 2.39723C18.2298 2.50517 18.2542 2.62216 18.2532 2.74031C18.3005 3.8263 18.0269 4.90218 17.4665 5.83364C16.7022 6.92665 15.841 7.94856 14.8932 8.88697V8.23364C14.7797 6.6505 14.9977 5.0611 15.5332 3.56697ZM12.0799 18.9403C11.6432 18.1009 11.4516 17.1555 11.5271 16.2123C11.6025 15.2692 11.942 14.3663 12.5065 13.607C12.9095 13.0026 13.355 12.4278 13.8399 11.887C14.0091 13.0605 14.2495 14.2226 14.5599 15.367C14.3372 15.5093 14.1235 15.6652 13.9199 15.8336C13.844 15.9151 13.8017 16.0223 13.8017 16.1336C13.8017 16.245 13.844 16.3522 13.9199 16.4336C13.9991 16.5087 14.1041 16.5505 14.2132 16.5505C14.3223 16.5505 14.4273 16.5087 14.5065 16.4336C14.6255 16.3373 14.7501 16.2482 14.8799 16.167C15.3999 17.847 16.0399 19.5536 16.5065 21.2736C15.6341 21.2764 14.7743 21.0652 14.0026 20.6584C13.2308 20.2515 12.5706 19.6616 12.0799 18.9403ZM17.7732 21.327C17.3199 19.4336 16.6132 17.5403 16.0665 15.687C16.3595 15.6187 16.6591 15.5829 16.9599 15.5803C17.8887 15.6128 18.782 15.9449 19.5065 16.527C19.8854 16.8049 20.2069 17.1535 20.4532 17.5536C20.6625 17.9213 20.7334 18.3516 20.6532 18.767C20.5124 19.4467 20.1561 20.0629 19.6373 20.5241C19.1185 20.9853 18.4648 21.2668 17.7732 21.327Z" fill="#7B3F00"/>
</g>
<defs>
<clipPath id="clip0_331_1678">
<rect width="32" height="32" fill="white" transform="translate(0 0.5)"/>
</clipPath>
</defs>
</svg>
