<svg width="32" height="32" viewBox="0 0 32 32" fill="none" xmlns="http://www.w3.org/2000/svg">
<g clip-path="url(#clip0_503_1849)">
<path fill-rule="evenodd" clip-rule="evenodd" d="M0.32025 8.37261C0.311496 8.43452 0.311496 8.49736 0.32025 8.55927C0.352277 8.63982 0.410437 8.70726 0.485394 8.75079C0.560351 8.79431 0.647758 8.81139 0.733584 8.79927C1.24025 8.71927 1.08025 8.25261 1.09358 7.70594C1.15444 6.33096 1.28795 4.96016 1.49358 3.59928C1.53721 3.08136 1.64469 2.57082 1.81358 2.07927C1.84852 1.99135 1.90251 1.91226 1.97168 1.84771C2.04084 1.78315 2.12346 1.73474 2.21358 1.70594C2.76336 1.59532 3.32033 1.52402 3.88025 1.49261C4.29871 1.41281 4.72176 1.35937 5.14692 1.33261H8.29358C8.41287 1.3328 8.5277 1.28731 8.61449 1.20548C8.70127 1.12365 8.75344 1.0117 8.76025 0.892609C8.76025 0.768841 8.71108 0.650142 8.62357 0.562625C8.53605 0.475108 8.41735 0.425942 8.29358 0.425942C7.24025 0.372608 6.21358 0.172609 5.16025 0.105942C4.68591 0.061429 4.20867 0.0569688 3.73358 0.0926085C3.0686 0.0721559 2.40321 0.116813 1.74692 0.225942C1.4452 0.313889 1.16788 0.470356 0.936602 0.683136C0.70532 0.895916 0.526325 1.15925 0.413584 1.45261C0.16756 2.09687 0.0279602 2.77686 0.000250383 3.46594C-0.0204293 4.89648 0.0597696 6.32669 0.24025 7.74594C0.253609 7.95631 0.28033 8.16563 0.32025 8.37261Z" fill="#522A00"/>
<path fill-rule="evenodd" clip-rule="evenodd" d="M8.38769 30.6669H5.22769C4.81588 30.6391 4.4062 30.5856 4.00102 30.5069C3.4367 30.4755 2.8753 30.4042 2.32102 30.2936C2.23105 30.2635 2.14931 30.2128 2.08221 30.1457C2.01512 30.0787 1.96451 29.9969 1.93436 29.9069C1.75828 29.4213 1.64623 28.9148 1.60102 28.4003C1.4124 27.0385 1.29668 25.6677 1.25436 24.2936C1.29294 24.0105 1.29294 23.7234 1.25436 23.4403C1.25436 23.3203 0.574357 23.0003 0.454357 23.6269L0.374357 24.2536C0.179032 25.6716 0.0898949 27.1023 0.10769 28.5336C0.122574 29.2205 0.248652 29.9004 0.481024 30.5469C0.592871 30.8408 0.771571 31.1047 1.00299 31.3176C1.2344 31.5305 1.51218 31.6866 1.81436 31.7736C2.47022 31.8871 3.1356 31.9362 3.80102 31.9203C4.28045 31.9536 4.7616 31.9536 5.24102 31.9203C6.29436 31.8403 7.32102 31.6536 8.37436 31.6003C8.49812 31.6003 8.61682 31.5511 8.70434 31.4636C8.79186 31.3761 8.84102 31.2574 8.84102 31.1336C8.84102 31.0098 8.79186 30.8911 8.70434 30.8036C8.61682 30.7161 8.49812 30.6669 8.37436 30.6669H8.38769Z" fill="#522A00"/>
<path fill-rule="evenodd" clip-rule="evenodd" d="M23.6141 1.33286C24.6674 1.39953 25.7207 1.33286 26.7741 1.33286C27.194 1.34639 27.6126 1.38647 28.0274 1.45286C28.5917 1.48432 29.1531 1.55561 29.7074 1.66619C29.7955 1.69585 29.8759 1.74473 29.9428 1.8093C30.0097 1.87387 30.0613 1.95251 30.0941 2.03953C30.2698 2.52982 30.3818 3.04067 30.4274 3.55953C30.6457 5.20445 30.7704 6.86045 30.8007 8.51953C30.8007 8.63953 31.4807 8.94619 31.6007 8.33286L31.6807 7.70619C31.8582 6.28235 31.9295 4.84728 31.8941 3.41286C31.8794 2.73031 31.7533 2.05474 31.5207 1.41286C31.4097 1.11703 31.2315 0.851035 31.0001 0.635848C30.7687 0.420662 30.4905 0.262167 30.1874 0.172859C29.5303 0.0708272 28.8656 0.0262142 28.2007 0.0395261C27.7211 0.0128663 27.2404 0.0128663 26.7607 0.0395261C25.7074 0.119526 24.6807 0.306193 23.6274 0.372859C23.5072 0.372859 23.3919 0.420621 23.3068 0.505638C23.2218 0.590654 23.1741 0.705961 23.1741 0.826193C23.1666 0.888939 23.1724 0.952549 23.1909 1.01294C23.2095 1.07333 23.2405 1.12918 23.2819 1.17688C23.3234 1.22459 23.3743 1.26311 23.4315 1.28997C23.4887 1.31683 23.5509 1.33144 23.6141 1.33286Z" fill="#522A00"/>
<path fill-rule="evenodd" clip-rule="evenodd" d="M31.7597 24.2259C31.7597 23.6659 31.6931 23.1059 31.2264 23.1859C30.7597 23.2659 30.8797 23.6526 30.8664 24.2659C30.8199 25.6402 30.6997 27.0111 30.5064 28.3726C30.4642 28.8907 30.3566 29.4014 30.1864 29.8926C30.1532 29.9815 30.0997 30.0615 30.0303 30.1263C29.9609 30.1911 29.8774 30.2389 29.7864 30.2659C29.2377 30.383 28.6802 30.4544 28.1197 30.4792C27.7004 30.5456 27.2774 30.5857 26.8531 30.5992H23.7064C23.6394 30.5878 23.5708 30.5911 23.5052 30.6089C23.4397 30.6268 23.3788 30.6587 23.3269 30.7025C23.275 30.7463 23.2332 30.801 23.2046 30.8626C23.176 30.9242 23.1611 30.9913 23.1611 31.0592C23.1611 31.1272 23.176 31.1943 23.2046 31.2559C23.2332 31.3175 23.275 31.3721 23.3269 31.4159C23.3788 31.4597 23.4397 31.4917 23.5052 31.5095C23.5708 31.5273 23.6394 31.5307 23.7064 31.5192C24.7597 31.5859 25.7864 31.7726 26.8397 31.8526C27.3149 31.8793 27.7912 31.8793 28.2664 31.8526C28.9312 31.8663 29.596 31.8217 30.2531 31.7192C30.5552 31.6281 30.8325 31.4689 31.0636 31.254C31.2948 31.039 31.4736 30.774 31.5864 30.4792C31.819 29.8373 31.9451 29.1618 31.9597 28.4792C31.9917 27.0585 31.9249 25.6373 31.7597 24.2259Z" fill="#522A00"/>
</g>
<defs>
<clipPath id="clip0_503_1849">
<rect width="32" height="32" fill="white"/>
</clipPath>
</defs>
</svg>
