<svg width="32" height="33" viewBox="0 0 32 33" fill="none" xmlns="http://www.w3.org/2000/svg">
<g clip-path="url(#clip0_320_1502)">
<path fill-rule="evenodd" clip-rule="evenodd" d="M15.1471 6.8737C15.9194 6.8148 16.6949 6.8148 17.4671 6.8737C18.0671 6.9537 18.3338 5.92703 17.7471 5.8337C15.6815 5.61989 13.5994 5.61989 11.5338 5.8337C10.8938 5.9937 11.1071 6.36703 11.5338 6.6737C12.6983 7.06421 13.9466 7.1333 15.1471 6.8737Z" fill="#7B3F00"/>
<path fill-rule="evenodd" clip-rule="evenodd" d="M16.6545 12.3665C16.773 12.3453 16.8782 12.2779 16.9469 12.1791C17.0157 12.0803 17.0424 11.9583 17.0212 11.8398C17 11.7214 16.9326 11.6162 16.8338 11.5474C16.735 11.4787 16.613 11.452 16.4945 11.4732C14.8192 11.616 13.1332 11.5712 11.4679 11.3398C11.3658 11.3777 11.2778 11.4459 11.2156 11.5353C11.1534 11.6247 11.1201 11.731 11.1201 11.8398C11.1201 11.9487 11.1534 12.055 11.2156 12.1444C11.2778 12.2337 11.3658 12.302 11.4679 12.3398C13.1639 12.8079 14.9538 12.8171 16.6545 12.3665Z" fill="#7B3F00"/>
<path fill-rule="evenodd" clip-rule="evenodd" d="M16.7081 16.6733C16.8092 16.637 16.8941 16.5661 16.9477 16.4731C17.0014 16.3801 17.0203 16.2711 17.0011 16.1654C16.9819 16.0598 16.9258 15.9644 16.8429 15.8963C16.7599 15.8281 16.6555 15.7916 16.5481 15.7933C15.031 15.6737 13.5051 15.7319 12.0014 15.9666C11.9129 16.0159 11.8412 16.0905 11.7956 16.181C11.7499 16.2714 11.7324 16.3734 11.7453 16.4739C11.7583 16.5744 11.801 16.6687 11.868 16.7446C11.9351 16.8205 12.0233 16.8746 12.1214 16.8999C13.6234 17.4115 15.2639 17.3304 16.7081 16.6733Z" fill="#7B3F00"/>
<path fill-rule="evenodd" clip-rule="evenodd" d="M17.0944 0.500254C16.9742 0.500254 16.8589 0.548015 16.7739 0.633032C16.6888 0.718048 16.6411 0.833355 16.6411 0.953587C16.6411 1.07382 16.6888 1.18913 16.7739 1.27414C16.8589 1.35916 16.9742 1.40692 17.0944 1.40692C22.6677 1.48692 21.7477 9.83359 21.2144 15.4203C20.7211 19.1669 19.7877 20.7536 16.1877 20.3803C14.7711 20.3371 13.4155 19.7939 12.3611 18.8469C12.0682 18.4997 11.8503 18.0957 11.7211 17.6603C11.4738 16.9372 11.2777 16.1976 11.1344 15.4469C10.7925 13.7669 10.636 12.0544 10.6677 10.3403C10.608 8.54196 10.8147 6.74472 11.2811 5.00692C11.5492 4.14259 12.0446 3.36613 12.7154 2.75866C13.3862 2.15119 14.2078 1.73501 15.0944 1.55359C15.1926 1.52951 15.2779 1.46917 15.3334 1.3847C15.3889 1.30024 15.4104 1.1979 15.3935 1.09827C15.3766 0.998631 15.3226 0.90908 15.2424 0.847613C15.1622 0.786145 15.0617 0.757316 14.9611 0.76692C13.7765 0.974625 12.6793 1.52676 11.8067 2.35435C10.934 3.18195 10.3246 4.24831 10.0544 5.42025C8.94774 9.04692 9.16108 17.4203 11.2277 19.8336C12.5122 21.0836 14.2106 21.819 16.0011 21.9003C20.5877 22.3803 22.0811 20.0603 22.5877 15.5936C23.0411 9.14025 23.5744 0.40692 17.0944 0.500254Z" fill="#7B3F00"/>
<path fill-rule="evenodd" clip-rule="evenodd" d="M25.3336 13.313C25.3213 13.1928 25.2616 13.0824 25.1679 13.0062C25.0741 12.9299 24.9539 12.894 24.8336 12.9064C24.7134 12.9188 24.603 12.9784 24.5268 13.0722C24.4505 13.1659 24.4146 13.2861 24.427 13.4064C24.6003 15.553 24.6136 18.7397 23.6136 20.5664C21.987 23.713 17.5203 24.3664 14.1203 23.673C11.0403 23.1664 9.05365 22.0864 8.09365 19.1664C7.38439 17.2971 7.16856 15.2766 7.46698 13.2997C7.60031 12.6597 6.56031 11.8464 6.48031 13.8464C6.34488 15.7366 6.53887 17.6359 7.05365 19.4597C7.3897 21.041 8.26673 22.4556 9.53365 23.4597C11.5586 24.7972 13.9335 25.5069 16.3603 25.4997C16.3603 25.6064 15.987 27.7797 15.9603 28.1664C15.9076 29.5728 16.006 30.9809 16.2536 32.3664C16.2958 32.4324 16.354 32.4868 16.4227 32.5245C16.4915 32.5622 16.5686 32.5819 16.647 32.5819C16.7254 32.5819 16.8025 32.5622 16.8712 32.5245C16.94 32.4868 16.9981 32.4324 17.0403 32.3664C17.2607 30.993 17.4076 29.6088 17.4803 28.2197C17.4803 27.6197 17.387 27.033 17.3336 26.433C17.3336 26.233 17.4403 25.593 17.2403 25.4997C18.5689 25.4632 19.8796 25.183 21.107 24.673C25.587 22.6064 25.9336 18.2064 25.3336 13.313Z" fill="#7B3F00"/>
</g>
<defs>
<clipPath id="clip0_320_1502">
<rect width="32" height="32" fill="white" transform="translate(0 0.5)"/>
</clipPath>
</defs>
</svg>
