<svg width="32" height="33" viewBox="0 0 32 33" fill="none" xmlns="http://www.w3.org/2000/svg">
<path fill-rule="evenodd" clip-rule="evenodd" d="M18.32 21.4735C18.2942 21.5198 18.2779 21.5707 18.272 21.6234C18.2661 21.6761 18.2708 21.7294 18.2856 21.7803C18.3005 21.8311 18.3254 21.8785 18.3587 21.9197C18.3921 21.9609 18.4333 21.995 18.48 22.0201C18.6266 22.1001 21.52 22.2868 21.8 22.3001C24.8603 22.3505 27.9206 22.1946 30.96 21.8335C31.0802 21.8335 31.1955 21.7857 31.2805 21.7007C31.3655 21.6157 31.4133 21.5004 31.4133 21.3801C31.4133 21.2599 31.3655 21.1446 31.2805 21.0596C31.1955 20.9746 31.0802 20.9268 30.96 20.9268C27.8991 20.6352 24.8163 20.6575 21.76 20.9935C20.4533 21.1401 18.4933 21.0868 18.32 21.4735Z" fill="#7B3F00"/>
<path fill-rule="evenodd" clip-rule="evenodd" d="M24.0935 24.22C22.0488 24.3777 20.0146 24.6493 18.0001 25.0334C17.9622 25.0695 17.932 25.1129 17.9114 25.161C17.8908 25.2092 17.8801 25.261 17.8801 25.3134C17.8801 25.3657 17.8908 25.4175 17.9114 25.4657C17.932 25.5138 17.9622 25.5572 18.0001 25.5934C18.1735 25.8467 19.5601 25.7 20.5335 25.7267C23.8426 25.8707 27.1578 25.6741 30.4268 25.14C30.6135 25.14 31.6001 25.14 31.8668 24.9134C31.9376 24.8582 31.991 24.7837 32.0206 24.699C32.0502 24.6142 32.0547 24.5227 32.0336 24.4355C32.0125 24.3482 31.9666 24.2689 31.9016 24.207C31.8365 24.1452 31.755 24.1034 31.6668 24.0867C31.4935 24.06 26.0135 24.0867 24.0935 24.22Z" fill="#7B3F00"/>
<path fill-rule="evenodd" clip-rule="evenodd" d="M27.5468 28.7402C30.9334 28.5135 31.6534 28.6602 31.7068 27.9802C31.7144 27.8712 31.68 27.7634 31.6105 27.6791C31.5411 27.5947 31.4419 27.5403 31.3334 27.5269C31.3334 27.5269 31.8534 27.4602 27.4934 27.3935C25.0366 27.311 22.5769 27.4045 20.1334 27.6735C19.3129 27.7235 18.4973 27.8349 17.6934 28.0069C17.6514 28.0384 17.616 28.0779 17.5893 28.1231C17.5625 28.1683 17.5449 28.2183 17.5375 28.2703C17.53 28.3223 17.5329 28.3753 17.546 28.4261C17.559 28.477 17.5819 28.5248 17.6134 28.5669C17.7734 28.8335 19.2401 28.7269 20.1468 28.7802C22.6095 28.9928 25.0865 28.9794 27.5468 28.7402Z" fill="#7B3F00"/>
<path fill-rule="evenodd" clip-rule="evenodd" d="M27.68 30.8604C25.2231 30.7805 22.7637 30.8741 20.32 31.1404C19.497 31.1634 18.679 31.2752 17.88 31.4737C17.8379 31.5052 17.8025 31.5447 17.7758 31.5899C17.749 31.6351 17.7314 31.6851 17.724 31.7371C17.7166 31.7891 17.7194 31.8421 17.7325 31.893C17.7455 31.9438 17.7685 31.9917 17.8 32.0337C17.9866 32.3004 19.3866 32.1937 20.3333 32.247C23.6398 32.5088 26.9645 32.4239 30.2533 31.9937C30.9866 31.9937 31.8533 32.1003 31.8933 31.447C31.9333 30.7937 31.52 30.9137 27.68 30.8604Z" fill="#7B3F00"/>
<path fill-rule="evenodd" clip-rule="evenodd" d="M14.7869 24.2868C12.5202 24.4335 3.88019 24.2202 1.70686 23.5535C1.64019 22.8335 1.12019 3.23349 1.33353 2.46016C1.33353 2.24683 1.04019 2.36683 2.76019 2.04683C2.86628 2.04683 2.96802 2.00468 3.04304 1.92967C3.11805 1.85465 3.16019 1.75291 3.16019 1.64683C3.16019 1.54074 3.11805 1.439 3.04304 1.36398C2.96802 1.28897 2.86628 1.24683 2.76019 1.24683C2.42983 1.25957 2.10043 1.29073 1.77353 1.34016C1.04019 1.46016 0.613527 1.54016 0.440194 2.67349C0.226861 4.00683 -0.226473 21.0602 0.440194 24.3002C0.482807 24.4732 0.572725 24.6309 0.699884 24.7557C0.827043 24.8805 0.986426 24.9675 1.16019 25.0068C3.01353 25.5935 12.4002 25.5135 14.9735 25.2602C15.1026 25.2354 15.2166 25.1604 15.2903 25.0516C15.3641 24.9429 15.3916 24.8092 15.3669 24.6802C15.3421 24.5511 15.2671 24.4371 15.1583 24.3634C15.0496 24.2896 14.9159 24.2621 14.7869 24.2868Z" fill="#7B3F00"/>
<path fill-rule="evenodd" clip-rule="evenodd" d="M22.2001 2.56673C22.2001 2.86006 22.3601 1.9534 22.6935 4.92673C23.1156 9.21585 23.3203 13.5236 23.3068 17.8334C23.3068 17.9395 23.349 18.0412 23.424 18.1162C23.499 18.1913 23.6007 18.2334 23.7068 18.2334C23.8129 18.2334 23.9146 18.1913 23.9897 18.1162C24.0647 18.0412 24.1068 17.9395 24.1068 17.8334C24.461 12.9494 24.4254 8.04502 24.0001 3.16673C23.9412 2.43988 23.6074 1.76282 23.0668 1.2734C20.9068 0.140062 14.1601 0.780062 10.9068 0.846729C5.45348 1.0734 2.77348 0.953395 3.37348 1.48673C2.20015 2.52673 19.5335 1.4334 22.2001 2.56673Z" fill="#7B3F00"/>
<path fill-rule="evenodd" clip-rule="evenodd" d="M18.3468 8.00664C18.0935 6.7933 17.9335 5.33997 16.6135 5.21997C16.5068 5.21997 14.1468 5.32664 13.0268 5.4733C11.6608 5.67919 10.3201 6.02777 9.02683 6.5133C8.00017 6.9533 7.20017 7.52664 7.12017 8.60664C7.12017 9.21997 7.82683 15.8466 7.8135 15.74C7.37264 15.6707 6.92615 15.6439 6.48017 15.66C3.98683 16.1 3.14683 19.66 5.96017 20.5133C6.21082 20.6335 6.48352 20.7008 6.76131 20.7111C7.03909 20.7214 7.31603 20.6745 7.57489 20.5732C7.83375 20.4719 8.06901 20.3184 8.26604 20.1223C8.46306 19.9262 8.61764 19.6917 8.72017 19.4333C9.68017 17.4466 8.72017 13.26 8.6135 9.04664C8.6135 8.73997 8.38683 8.44664 9.60017 7.92664C10.7704 7.49561 11.9809 7.18293 13.2135 6.9933C14.2776 6.73641 15.3758 6.65089 16.4668 6.73997C16.9358 8.1841 17.2837 9.66477 17.5068 11.1666C15.4402 11.1666 13.9468 11.66 13.5068 13.6733C13.0668 15.6866 15.7202 17.38 17.5068 16.42C19.7468 15.1666 18.8668 10.5533 18.3468 8.00664ZM6.26683 19.4733C5.9393 19.4055 5.64921 19.2171 5.4541 18.9454C5.25899 18.6737 5.17311 18.3387 5.2135 18.0066C5.56017 15.9 7.56017 16.7666 7.88017 16.6733C8.00017 18.38 7.8135 19.8866 6.26683 19.4733ZM16.9335 15.34C16.0135 15.8733 14.3468 15.0866 14.5868 13.82C14.6179 13.5183 14.7229 13.229 14.8928 12.9778C15.0626 12.7266 15.2918 12.5212 15.5602 12.38C16.2275 12.1223 16.9382 11.9956 17.6535 12.0066C17.7068 13.0466 17.7868 14.8066 16.8935 15.34H16.9335Z" fill="#7B3F00"/>
</svg>
