<svg width="48" height="48" viewBox="0 0 48 48" fill="none" xmlns="http://www.w3.org/2000/svg">
<g clip-path="url(#clip0_521_203)">
<path fill-rule="evenodd" clip-rule="evenodd" d="M15.5638 0.136245C8.87117 2.78392 4.92317 10.7769 7.71581 22.1874C7.95629 23.1988 9.78605 24.6431 9.93053 25.606C10.0265 26.5694 8.38973 27.0508 8.34173 27.9172C8.34173 29.6505 8.05277 31.1913 7.71581 32.5876L4.29725 31.7692C3.09341 33.1655 1.98605 34.4654 1.40813 35.8617C1.02317 36.8726 0.782206 38.0764 1.31213 39.2322C10.6049 45.058 26.3489 47.8986 35.6897 47.9951C37.0856 48.0431 37.567 47.7542 38.0489 46.7433C38.1929 46.4058 38.3859 45.9244 38.5784 45.3465C39.0118 44.1911 39.4448 42.6023 39.8302 40.6281C40.1672 38.7023 40.4081 36.3911 40.3116 33.9839C40.3116 32.7321 37.182 31.8172 37.278 30.5174C37.3265 29.5545 39.8782 28.2062 38.9633 26.3284C36.7971 21.899 37.4225 18.5284 38.7228 15.8322C39.9747 13.0876 42.5264 10.7284 46.3299 8.17673C47.4377 7.40633 47.1003 5.67304 45.7524 5.43256L16.3822 0.0397645C16.0932 -0.0562355 15.8043 0.0397645 15.5638 0.135765M16.3822 3.12088L41.9484 7.79129C39.3968 9.81353 37.182 11.9318 35.9782 14.5319C34.3414 18.0465 34.3414 21.6575 36.1227 26.7134C36.5081 27.8687 33.33 29.7465 33.523 30.8538C33.715 32.0092 37.134 33.55 37.182 34.6574C37.23 36.8241 37.182 38.3169 36.8451 40.0982C36.5561 41.8794 36.2192 43.3722 35.7377 44.3831C35.3043 45.1055 34.1009 44.4796 33.6675 42.9388C33.1856 41.061 33.4265 40.0502 34.4859 38.6058C26.5414 37.9314 18.5969 36.2946 10.6529 33.3095C11.0859 31.8167 11.3748 30.9503 11.4228 28.9761C11.4228 28.0132 13.0596 27.9167 12.9156 26.8094C12.8196 25.654 10.9414 22.7169 10.6529 21.465C8.10077 11.2094 11.4228 5.2876 16.3822 3.12088ZM19.4638 4.13176L17.1526 6.058C16.1897 6.058 15.2748 6.53944 14.6489 7.26136L12.5787 7.74281L13.8785 9.09113C13.7345 10.1505 14.071 11.2578 14.8899 11.9798L14.6489 14.8689L16.7192 12.7986C17.7785 12.8466 18.8379 12.4132 19.5118 11.5948L21.2936 11.3538L20.3302 9.76505C20.4267 8.70569 20.0897 7.59832 19.3193 6.8764L19.4638 4.13176ZM17.2971 8.07977C17.3931 8.07977 17.538 8.07977 17.634 8.12777C18.3564 8.46521 18.5489 9.42857 18.164 10.054C17.8265 10.7279 16.9121 11.0654 16.3342 10.5834C15.6118 10.054 15.7083 8.94664 16.3342 8.4172C16.5747 8.17624 16.9601 8.03176 17.2971 8.07977ZM26.4934 12.2687L24.8081 13.3281L26.2529 15.6873L24.0857 16.7946L25.0006 18.5764L27.2638 17.4206L29.0931 20.3577L30.7784 19.2983L29.0936 16.5057L31.8377 15.1094L30.9228 13.3281L28.0342 14.7729L26.4934 12.2687ZM21.871 16.3132L20.9081 16.5057C19.8008 16.8426 18.6934 17.4206 17.8265 18.239L19.1748 19.7318C20.0417 18.9134 21.1491 18.4319 22.3044 18.239L21.871 16.3132ZM16.4302 20.0692L15.9972 20.8396C15.7438 21.5038 15.5187 22.1785 15.3228 22.8618L15.1788 24.2582L17.2006 24.4506C17.2486 23.6802 17.3451 22.9098 17.634 22.1879C17.73 21.7545 17.971 21.4175 18.164 21.0806L16.4302 20.0692ZM17.2971 26.0879L15.3713 26.6174C15.6118 27.4358 15.8043 28.3022 16.2862 29.0246C16.5267 29.6025 16.8636 30.0839 17.2006 30.5654L18.8374 29.3615C18.3564 28.6876 17.923 27.9657 17.634 27.1468L17.2971 26.0879ZM20.0417 30.5654L18.8379 32.2022C19.9452 33.069 21.2936 33.695 22.5934 34.1764L23.3638 32.3471C22.16 31.8652 21.0046 31.3838 20.0417 30.5654ZM25.2416 33.117L24.4232 34.9468C25.434 35.4282 26.4449 36.0542 27.0708 37.0655L28.7561 35.9582C28.3712 35.3322 27.8897 34.8508 27.3118 34.3694C26.6686 33.8789 25.9746 33.4591 25.2416 33.117Z" fill="#522A00"/>
</g>
<defs>
<clipPath id="clip0_521_203">
<rect width="48" height="48" fill="white"/>
</clipPath>
</defs>
</svg>
