<svg width="32" height="33" viewBox="0 0 32 33" fill="none" xmlns="http://www.w3.org/2000/svg">
<path d="M27.5734 7.73986C27.5734 5.84652 26.4134 5.52652 25.0667 4.37986C23.72 3.23319 22.7734 2.12652 21.52 1.15319C20.7867 0.579856 20 2.48652 19.9067 2.72652C19.3334 3.92652 17.8667 5.73986 18.3867 7.28652C18.9067 8.83319 22.92 8.84652 24.72 8.75319C25.3867 8.78543 26.0521 8.66693 26.6667 8.40652C26.6667 9.09986 26.4934 9.80652 26.48 10.2599C26.5903 14.1976 26.3987 18.1381 25.9067 22.0465C25.6924 23.497 25.3806 24.9313 24.9734 26.3399C24.7734 26.7799 24.48 27.1532 23.44 27.3532C19.4988 27.6957 15.5417 27.8203 11.5867 27.7265C8.72003 27.7265 4.9867 28.2332 2.41336 26.8465C4.00003 24.2465 4.00003 19.8599 5.33336 2.79319C5.92003 2.29986 15.3867 1.27319 16 1.25986C16.7138 1.20478 17.4316 1.27701 18.12 1.47319C18.2032 1.48722 18.2887 1.47156 18.3616 1.42897C18.4344 1.38637 18.49 1.31953 18.5186 1.24014C18.5472 1.16074 18.547 1.07382 18.518 0.994565C18.489 0.91531 18.4331 0.848755 18.36 0.806522C17.5972 0.567719 16.7985 0.463939 16 0.499856C14.9867 0.499856 6.6667 1.36652 5.49336 1.69986C4.80003 1.89986 4.57336 2.17986 4.44003 2.52652C4.2267 3.08652 2.9467 17.6865 2.57336 20.8999C1.9867 26.0065 0.84003 26.2332 0.84003 27.0199C0.836946 27.1664 0.872242 27.3111 0.942412 27.4398C1.01258 27.5684 1.11518 27.6765 1.24003 27.7532C4.20003 29.6999 8.2667 29.0865 11.5334 29.0865C22.6534 29.0865 25.1334 29.0065 26.0534 26.8065C26.4938 25.2963 26.8148 23.7537 27.0134 22.1932C27.444 18.2086 27.5777 14.1976 27.4134 10.1932C27.4134 9.67319 27.6 8.63319 27.5734 7.73986ZM25.8934 7.73986C25.0934 7.87319 19.8934 7.43319 19.6534 6.80652C19.4134 6.17986 20.2534 4.49986 21.08 2.00652L21.16 1.91319C22.4934 2.96652 23.3067 4.01986 24.4934 5.04652C25.68 6.07319 26.5334 6.35319 26.6667 7.43319C26.4267 7.49986 26.44 7.65986 25.8934 7.73986Z" fill="#7B3F00"/>
<path fill-rule="evenodd" clip-rule="evenodd" d="M19.3645 10.376C19.2433 10.1241 19.0544 9.91085 18.8189 9.76015C18.5834 9.60945 18.3107 9.52723 18.0311 9.52271C17.4383 9.57091 16.8662 9.76314 16.3645 10.0827C15.3122 10.5067 14.2918 11.0058 13.3111 11.576C12.8101 11.9403 12.4108 12.4269 12.1511 12.9894C12.0284 13.3402 11.9741 13.7114 11.9911 14.0827C11.9911 14.7227 12.1645 15.4827 12.2045 15.9494C12.2845 16.816 12.3378 17.6827 12.3378 18.616V19.056C12.2808 19.0084 12.2181 18.9681 12.1511 18.936C12.0483 18.8959 11.934 18.8959 11.8311 18.936H11.6578C10.9941 18.9145 10.3408 19.1043 9.79198 19.4782C9.24319 19.852 8.82736 20.3905 8.60448 21.016C8.33782 21.9494 8.72448 22.9494 10.3645 23.376C10.945 23.4629 11.538 23.3559 12.0515 23.0714C12.565 22.7869 12.9703 22.341 13.2045 21.8027C13.3359 21.5185 13.404 21.2091 13.404 20.896C13.404 20.5829 13.3359 20.2736 13.2045 19.9894C13.2045 19.5627 13.3645 19.1494 13.4045 18.7227C13.4845 17.816 13.5245 16.9094 13.5378 16.056C13.5378 15.656 13.4711 15.0427 13.5378 14.4694C13.5171 14.2386 13.5491 14.0061 13.6311 13.7894C13.8589 13.3863 14.2027 13.0611 14.6178 12.856C15.4578 12.3627 16.4711 12.056 17.1645 11.6694C17.3838 11.5241 17.6159 11.3992 17.8578 11.296C17.9245 11.296 17.9645 11.176 18.0311 11.216C18.0667 11.2321 18.0951 11.2605 18.1111 11.296C18.4896 11.9802 18.674 12.7547 18.6445 13.536C18.6845 14.3044 18.6845 15.0743 18.6445 15.8427C18.5553 15.7679 18.4567 15.7052 18.3511 15.656C18.2434 15.6174 18.1256 15.6174 18.0178 15.656H17.9378C17.2748 15.6368 16.6224 15.8258 16.0723 16.1965C15.5223 16.5672 15.1022 17.1009 14.8711 17.7227C14.6178 18.6694 15.0045 19.6694 16.6445 20.096C17.225 20.1829 17.818 20.0759 18.3315 19.7914C18.845 19.5069 19.2503 19.061 19.4845 18.5227C19.6581 18.1011 19.7134 17.6401 19.6445 17.1894C19.8194 15.6757 19.904 14.1531 19.8978 12.6294C19.8907 11.8478 19.7085 11.0778 19.3645 10.376ZM10.6978 21.6294C10.1245 21.536 9.96448 21.256 10.1112 20.9227C10.2379 20.627 10.4315 20.3647 10.6767 20.1565C10.922 19.9483 11.2121 19.7998 11.5245 19.7227H11.6178C11.8043 19.8075 11.954 19.9565 12.0397 20.1425C12.1254 20.3286 12.1413 20.5392 12.0845 20.736C12.0113 21.034 11.8269 21.2926 11.569 21.4587C11.3111 21.6249 10.9993 21.6859 10.6978 21.6294ZM16.8845 18.256C16.3111 18.1627 16.1378 17.8827 16.2978 17.5494C16.4246 17.2523 16.618 16.9884 16.8631 16.778C17.1082 16.5676 17.3983 16.4164 17.7111 16.336L17.8045 16.4027C17.9875 16.4873 18.1339 16.6348 18.2171 16.8184C18.3004 17.002 18.3148 17.2094 18.2578 17.4027C18.1794 17.6868 17.998 17.9315 17.7491 18.0892C17.5002 18.2469 17.2015 18.3064 16.9111 18.256H16.8845Z" fill="#7B3F00"/>
<path fill-rule="evenodd" clip-rule="evenodd" d="M30.0536 9.47324C30.0536 11.3132 29.6402 18.8066 29.4669 19.9932C29.2936 21.1799 29.0936 22.1799 28.9602 23.2866C28.9602 23.7132 28.7602 28.8199 27.4536 29.5666C25.6269 30.6332 23.4536 30.1932 21.4936 30.5132C20.2669 30.7132 17.6402 31.1132 16.0536 31.1799C9.89355 31.4199 9.92022 31.6732 8.37356 31.0732C7.48022 30.7932 7.32022 31.6599 7.89355 31.9799C8.53058 32.3044 9.2322 32.4821 9.94689 32.4999C13.8722 32.5878 17.7977 32.338 21.6802 31.7532C23.6802 31.4332 25.9602 31.8866 28.0802 30.6599C30.2002 29.4332 30.0669 24.2066 30.1469 23.4466C30.2669 22.3532 30.4669 21.2732 30.6002 20.1799C30.7336 19.0866 31.2136 11.6466 31.1469 9.57991C31.1202 8.49991 30.1069 8.39324 30.0536 9.47324Z" fill="#7B3F00"/>
</svg>
