<svg width="100" height="100" viewBox="0 0 100 100" fill="none" xmlns="http://www.w3.org/2000/svg">
<rect width="100" height="100" rx="50" fill="#B69F7C"/>
<path d="M69.7604 44.4799C69.5459 44.2873 69.3203 44.1074 69.0847 43.941C68.3873 43.4464 67.6861 42.9276 67.008 42.4268C65.4799 41.2556 63.8934 40.1624 62.2543 39.1516C55.1545 34.9397 47.1381 31.0777 37.7466 27.3455C36.3004 26.7707 34.8327 26.2204 33.2779 25.638C32.5269 25.3565 31.7509 25.0653 30.9387 24.7574C30.8763 24.7337 30.8074 24.7332 30.7447 24.756C30.682 24.7788 30.6295 24.8233 30.5969 24.8815C30.5156 25.0259 30.4182 25.1721 30.3239 25.3141C30.0783 25.6306 29.9012 25.9947 29.8042 26.3832C29.5292 27.8475 29.3493 29.328 29.2655 30.8154C29.2238 31.8166 29.1815 32.8177 29.1385 33.8187C28.9137 39.0997 28.681 44.5602 28.5968 49.9339C28.5156 55.079 28.5361 60.3102 28.5559 65.3692C28.564 67.4326 28.57 69.4959 28.5738 71.5593V71.6317C28.558 72.1782 28.5907 72.7252 28.6713 73.266C28.7204 73.6275 28.8523 73.973 29.0567 74.2756C29.2611 74.5779 29.5325 74.8296 29.8499 75.0105C30.1649 75.1771 30.5163 75.2628 30.8726 75.2606C31.2544 75.2566 31.6311 75.1738 31.9792 75.0173C32.3371 74.8477 32.6781 74.6449 32.9976 74.4113C33.1397 74.314 33.282 74.2166 33.4268 74.1258C34.3 73.5774 35.1723 73.0275 36.0436 72.4764C37.9541 71.271 39.9293 70.0248 41.8847 68.821C44.6643 67.1094 47.4471 65.4033 50.2329 63.7023C53.7014 61.58 57.2883 59.3852 60.8067 57.211C64.1044 55.1731 67.0629 52.6276 69.8105 50.1954C70.9331 49.2017 71.4577 48.3113 71.4626 47.3925C71.4664 46.4548 70.9256 45.5298 69.7604 44.4799ZM32.6753 28.9408L32.7443 28.9679C32.9906 29.0514 33.2253 29.166 33.4426 29.3088C36.282 31.4098 39.3004 33.1329 42.9588 35.0738C48.3484 37.9337 52.8553 40.3556 57.3341 42.8811C58.9228 43.7769 60.4635 44.8317 61.9537 45.8518C62.4953 46.2234 63.0397 46.5951 63.586 46.9604C63.9465 47.2133 64.2926 47.486 64.6227 47.7773C64.7682 47.9 64.9234 48.0309 65.0932 48.1715C63.8817 49.5368 62.5143 50.7557 61.0188 51.8032C58.5542 53.5175 56.1348 55.1831 53.6405 56.704C48.2953 59.9647 42.8304 63.2318 37.5454 66.3916L33.4333 68.8521C33.2385 68.9562 33.0324 69.0379 32.8191 69.0955L32.792 69.1033C32.372 64.8355 32.2799 34.7807 32.6753 28.9408Z" fill="#522A00"/>
</svg>
