<svg width="32" height="33" viewBox="0 0 32 33" fill="none" xmlns="http://www.w3.org/2000/svg">
<g clip-path="url(#clip0_331_1687)">
<path fill-rule="evenodd" clip-rule="evenodd" d="M30.9609 0.5C28.9334 0.747244 26.9276 1.1484 24.9609 1.7C23.5209 2.14 22.1076 2.71333 20.6676 3.18C18.3076 3.94 18.8409 3.40667 15.6676 9.12667C15.437 7.94568 14.9846 6.81912 14.3343 5.80667C13.0009 4.47333 11.6676 6.48667 10.7209 8.02C7.90761 12.62 5.33428 16.7533 4.80095 23.6733C4.79211 23.7794 4.82577 23.8847 4.89454 23.9659C4.9633 24.0472 5.06153 24.0978 5.16761 24.1067C5.2737 24.1155 5.37895 24.0818 5.46022 24.0131C5.54149 23.9443 5.59211 23.8461 5.60095 23.74C6.18761 17.1533 8.80095 13.0733 11.6676 8.63333C12.076 7.85668 12.644 7.17511 13.3343 6.63333C13.4143 6.76667 13.4943 6.63333 13.8409 7.54C14.1876 8.44667 14.4543 10.34 14.9743 10.74C15.4943 11.14 16.1476 10.74 16.5609 10.1667C16.9743 9.59333 19.1743 5.32667 20.0009 4.95333C20.3842 4.79613 20.7816 4.67559 21.1876 4.59333C24.1436 3.45375 27.2151 2.64005 30.3476 2.16667C30.3797 3.29144 30.2449 4.41476 29.9476 5.5C29.2077 8.73537 28.1584 11.8921 26.8143 14.9267C26.4143 15.82 25.7743 17.86 24.8676 18.5133C24.7743 18.38 24.4943 18.2733 24.4143 18.1933C23.3052 17.2004 22.0149 16.4308 20.6143 15.9267C18.9076 15.7 19.7743 19.5 19.6943 20.4067C18.7076 19.7267 16.2676 18.4867 15.8276 19.5267C15.5343 20.22 15.9609 21.1133 16.0943 21.66C16.4009 22.82 17.1476 25.06 16.2543 25.8867C14.4009 27.2004 12.1203 27.767 9.86762 27.4733C6.66761 27.1667 7.66761 25.8333 6.97428 26.34C6.70761 26.4467 6.41428 26.6867 6.70762 27.0333C7.09583 27.6004 7.6799 28.004 8.34762 28.1667C10.8676 28.9 14.8676 28.4867 16.9076 26.6867C18.4009 25.3533 17.4943 22.46 16.9076 20.4067C17.9979 20.7286 18.9797 21.3417 19.7476 22.18C19.8863 22.2949 20.0608 22.3578 20.2409 22.3578C20.4211 22.3578 20.5956 22.2949 20.7343 22.18C21.2409 21.6067 20.7343 19.14 20.841 17.5267H21.0943C21.8852 18.0164 22.6384 18.5646 23.3476 19.1667C23.6127 19.4827 23.9281 19.753 24.2809 19.9667C25.0943 20.3 26.0143 19.4467 26.5076 18.78C28.1743 16.58 34.1609 0.846667 30.9609 0.5Z" fill="#522A00"/>
<path fill-rule="evenodd" clip-rule="evenodd" d="M9.41394 22.1399C18.6673 11.7399 23.1873 8.64661 26.0673 6.51328C26.1163 6.47826 26.158 6.43392 26.1898 6.38281C26.2217 6.33169 26.2433 6.2748 26.2532 6.21537C26.2631 6.15594 26.2612 6.09514 26.2476 6.03644C26.234 5.97775 26.209 5.9223 26.1739 5.87328C26.1389 5.82425 26.0946 5.7826 26.0435 5.75071C25.9924 5.71881 25.9355 5.6973 25.876 5.68739C25.8166 5.67749 25.7558 5.67939 25.6971 5.69298C25.6384 5.70657 25.583 5.73159 25.5339 5.76661C23.6673 7.09994 21.8406 8.23328 20.1206 9.61994C10.3873 17.6199 6.85394 22.9533 1.21395 30.3399L0.187278 31.8599C0.145445 31.9495 0.137092 32.0511 0.163734 32.1463C0.190376 32.2415 0.250249 32.324 0.332495 32.3788C0.414741 32.4336 0.513913 32.4572 0.612027 32.4451C0.710141 32.4331 0.800699 32.3863 0.867278 32.3133C3.56061 28.7933 7.89394 23.8466 9.41394 22.1399Z" fill="#522A00"/>
</g>
<defs>
<clipPath id="clip0_331_1687">
<rect width="32" height="32" fill="white" transform="translate(0 0.5)"/>
</clipPath>
</defs>
</svg>
