<svg width="20" height="12" viewBox="0 0 20 12" fill="none" xmlns="http://www.w3.org/2000/svg">
<path d="M8.97638 5.91323C6.57689 5.8938 4.17741 5.87823 1.77793 5.85198C1.29968 5.84664 0.820727 5.80909 0.3444 5.76227C0.265597 5.75371 0.19121 5.72155 0.130973 5.67003C0.0707361 5.61851 0.027451 5.55 0.00677728 5.47348C-0.0323405 5.35096 0.103654 5.17717 0.266076 5.15161C0.423597 5.12685 0.580322 5.08843 0.73863 5.07889C1.74965 5.01763 2.76059 4.93091 3.77258 4.91262C5.85168 4.87526 7.9314 4.8658 10.0109 4.86344C11.9839 4.86117 13.9569 4.88584 15.9299 4.89039C16.2467 4.89118 16.5636 4.85127 16.8799 4.82301C16.9009 4.81783 16.9202 4.80746 16.9362 4.79286C16.9521 4.77826 16.9641 4.75989 16.9711 4.73944C16.9768 4.69061 16.9623 4.60816 16.9299 4.59066C16.3236 4.26109 15.7248 3.91437 15.1013 3.62025C13.651 2.93599 12.2904 2.09693 10.9309 1.25507C10.7074 1.11671 10.4733 0.97617 10.3831 0.701646C10.3668 0.651677 10.3412 0.566091 10.362 0.549377C10.4366 0.479822 10.5273 0.429815 10.6259 0.403837C10.7309 0.391441 10.8373 0.408469 10.9332 0.45302C11.2729 0.606865 11.6102 0.767455 11.9407 0.940028C14.3031 2.17342 16.6647 3.40818 19.0256 4.64431C19.9174 5.10812 20.3411 5.55785 19.2706 6.57762C18.9623 6.87157 18.6503 7.16508 18.3149 7.42648C16.7597 8.63998 15.1987 9.84606 13.6321 11.0447C13.4167 11.1993 13.1895 11.3369 12.9527 11.456C12.7983 11.5399 12.6436 11.4902 12.5103 11.3896C12.3635 11.2789 12.2724 10.9571 12.323 10.8156C12.4354 10.5015 12.6595 10.271 12.9001 10.0622C13.8264 9.25871 14.7577 8.46096 15.6939 7.66898C16.3022 7.15143 16.917 6.6415 17.5244 6.12291C17.5544 6.09735 17.5559 6.0179 17.5438 5.97011C17.5358 5.94944 17.5229 5.931 17.5062 5.9164C17.4896 5.9018 17.4696 5.89146 17.448 5.88628C17.1305 5.86545 16.8125 5.83894 16.4948 5.8406C13.9885 5.85384 11.4823 5.87035 8.97611 5.89012L8.97638 5.91323Z" fill="#E1DDD4"/>
</svg>
