<svg width="35" height="35" viewBox="0 0 35 35" fill="none" xmlns="http://www.w3.org/2000/svg">
<path d="M1.05078 17.1221C1.05078 8.28551 8.21423 1.12207 17.0508 1.12207C25.8873 1.12207 33.0508 8.28551 33.0508 17.1221C33.0508 25.9586 25.8873 33.1221 17.0508 33.1221C8.21423 33.1221 1.05078 25.9586 1.05078 17.1221Z" fill="#7B3F00"/>
<path d="M2.65995 17.9865C2.72934 18.492 2.76192 19.1524 2.79268 19.6647C2.80219 19.8247 2.70439 19.7607 2.70813 19.8724C2.7162 20.0907 2.79934 20.281 2.81015 20.498C2.81351 20.5704 2.66223 20.515 2.66898 20.5906C2.708 21.0061 2.84819 21.3747 2.95243 21.7821C3.46874 23.7915 4.48299 25.6458 5.86742 27.2634C6.32084 27.7971 6.86256 28.4815 7.46591 28.901C7.53601 28.9497 7.57081 28.8261 7.58947 28.8287C7.8786 28.8699 7.66482 29.0035 7.77643 29.1308C8.22001 29.6338 8.83489 30.0585 9.40912 30.3369C9.65398 30.4545 9.5339 30.117 9.70539 30.3643C9.71765 30.3813 9.59662 30.4573 9.65523 30.5051C9.78843 30.6142 10.0825 30.7431 10.1955 30.81C10.4131 30.9402 10.4515 30.9571 10.6676 31.0588C10.9628 31.198 11.2984 31.4064 11.6385 31.5037C11.711 31.524 11.6634 31.3692 11.7823 31.3901C11.9007 31.4116 12.1919 31.5245 12.2836 31.5857C12.3749 31.6475 12.301 31.7293 12.3118 31.7572C12.4021 31.993 12.8335 31.8387 12.8791 31.8436C13.7298 31.9639 14.4167 32.2536 15.2196 32.3507C15.8237 32.4227 16.4716 32.409 17.0508 32.4142C17.0556 32.4142 17.0604 32.4143 17.0652 32.4143C17.7587 32.4209 18.3489 32.452 19.0195 32.3558C19.0899 32.3456 18.9882 32.2066 19.0733 32.1938C19.9783 32.0556 20.8635 31.8726 21.7662 31.6878C21.8571 31.6692 21.7848 31.8321 21.8786 31.8207C22.4474 31.7565 23.4109 31.641 23.4694 30.9712C23.8238 30.8326 24.2434 30.6421 24.5993 30.5743C24.829 30.5298 24.7137 30.7627 24.9204 30.5716C24.9668 30.5284 24.8337 30.4601 24.9073 30.4038C25.2165 30.1672 25.594 29.9718 25.8695 29.698C25.9252 29.6421 25.8423 29.5619 25.8483 29.5326C25.9009 29.2938 26.3056 29.3316 26.372 29.3049C26.8676 29.1099 27.1208 28.8198 27.4754 28.5013C27.5575 28.4269 27.3584 28.4035 27.4331 28.3283C27.8207 27.9397 28.2229 27.5426 28.6271 27.1801C28.7173 27.0995 28.743 27.2679 28.7913 27.2334C29.0036 27.0778 28.8513 26.8777 29.0442 26.723C29.0846 26.6899 29.1533 26.7816 29.1687 26.7819C29.4109 26.7851 29.2759 26.5159 29.2935 26.483C29.515 26.0567 29.9219 25.9694 30.1435 25.5554C30.1692 25.506 29.9839 25.5348 30.0628 25.4012C30.5862 24.5109 31.1076 23.5582 31.5766 22.6356C31.6493 22.4917 31.7077 22.6357 31.7234 22.631C31.9724 22.5456 31.7523 22.3511 31.7598 22.2992C31.8264 21.8889 32.157 21.581 31.9186 21.2244C32.376 19.9019 32.4616 18.5066 32.5683 17.1221C32.5947 16.7773 32.6227 16.4382 32.6575 16.089C32.6594 16.0666 32.7958 16.0977 32.799 16.0528C32.8339 15.5113 32.6322 15.6306 32.3416 15.3128C32.2687 15.2347 32.5387 14.9306 32.5569 14.9026C32.6269 14.8047 32.8371 14.8659 32.8489 14.8346C32.9378 14.5733 32.293 14.7112 32.2385 14.3976C32.2378 14.3874 32.3647 14.4079 32.3719 14.3791C32.3944 14.2893 32.3317 14.216 32.357 14.1273C32.4155 13.9254 32.7155 13.7876 32.4682 13.5418C32.4359 13.5116 32.0857 13.649 32.0349 13.3681C32.0167 13.2557 31.8764 12.7688 31.8564 12.6275C31.8383 12.4852 31.9819 12.5425 31.984 12.5314C32.0204 12.1148 32.1266 12.2343 32.2884 11.9719C32.4465 11.7068 31.934 11.9426 31.849 11.8891C31.7647 11.8358 31.7897 11.5243 31.8062 11.4417C31.8235 11.3595 31.9267 11.414 31.9281 11.3459C31.9311 10.8939 31.6021 11.2794 31.4691 11.1878C31.1545 10.9786 31.4349 10.5872 31.3437 10.3009C31.3191 10.2243 31.262 10.3239 31.2232 10.264C31.0703 10.028 31.1086 9.81704 30.8518 9.59363C30.8094 9.55574 30.4684 9.45715 30.5432 9.22328C30.5541 9.18958 30.6777 9.19497 30.6368 9.08023C30.5766 8.90892 30.4244 8.62132 30.2895 8.47977C30.1901 8.37541 30.137 8.60457 30.0832 8.42772C30.0589 8.34897 30.2238 8.41522 30.1706 8.27129C30.1182 8.12706 29.8943 7.81826 29.8045 7.70472C29.7154 7.59078 29.6589 7.73195 29.6449 7.72772C29.5632 7.70075 29.347 7.52214 29.3319 7.50357C28.5714 6.56224 27.9241 5.59766 26.9461 4.8951C26.8698 4.84044 26.8327 4.98608 26.8201 4.97884C26.5355 4.82521 26.9591 4.69742 26.855 4.46144C26.7106 4.70065 26.6371 4.57827 26.437 4.4673C26.3404 4.41432 26.3245 4.53616 26.31 4.53904C26.085 4.57574 26.1176 4.34114 26.1183 4.2888C26.122 4.09717 25.9188 4.18447 25.9184 4.05617C25.9164 3.92792 26.1452 3.8942 25.9607 3.77234C25.8547 3.82089 25.8445 4.1258 25.6847 4.0698C25.091 3.85386 24.1897 3.12379 23.7374 2.89825C23.2948 2.66899 23.1369 2.62662 22.8815 2.48434C22.4147 2.23314 22.5245 2.48266 22.1928 2.45666C21.86 2.43494 22.1588 2.03774 22.147 1.926C22.1345 1.81455 22.0527 1.89777 22.0143 1.82653C21.9756 1.75528 22.1184 1.72858 21.9926 1.66608C21.8654 1.60203 21.4521 1.6689 21.3774 1.75951C21.2186 1.94977 21.3157 2.22001 20.9963 2.04879C20.9778 2.03886 21.0735 1.93516 21.0007 1.90322C20.4226 1.65421 19.7821 1.52287 19.1719 1.35654C19.0877 1.33348 19.1825 1.20627 19.1334 1.19132C18.6178 1.03949 18.7757 1.29481 18.4704 1.52531C18.5655 1.18827 18.4273 0.959056 18.0197 0.931933C17.7748 0.917006 17.8108 1.07039 17.6515 1.17022C17.6042 1.20027 17.4372 1.09195 17.4046 1.16238C17.2987 1.39267 17.4524 1.65184 17.0508 1.54656C17.0506 1.54651 17.0504 1.54647 17.0503 1.54643C17.044 1.5447 17.047 1.52781 17.0508 1.50633C17.0558 1.47808 17.0622 1.44189 17.0508 1.42179C17.0462 1.41382 17.0389 1.40839 17.0275 1.40699C16.627 1.3598 16.5858 1.60287 16.1659 1.65329C15.8361 1.69256 15.2343 1.60096 14.8518 1.63294C14.8076 1.24648 14.4519 1.38916 14.354 1.67905C14.1073 1.71058 13.8491 1.77742 13.606 1.79405C13.5225 1.79991 13.5507 1.6784 13.5378 1.66884C13.3372 1.51905 13.2907 1.79877 13.2418 1.82135C12.7038 2.05817 12.1881 2.01023 11.7289 2.37968C11.7124 2.39314 11.7761 2.65619 11.5697 2.52323C11.5557 2.5141 11.6848 2.33429 11.4366 2.41786C11.19 2.50026 10.6734 2.55799 10.3955 2.82725C10.3274 2.89194 10.225 3.18325 9.99047 3.11053C9.95882 3.10052 9.94719 3.01974 9.89698 2.99695C9.73454 2.92583 9.8066 3.19524 9.5826 3.05203C9.35933 2.90873 9.02307 2.89234 8.78036 3.22293C8.77218 3.23325 8.80746 3.46348 8.70649 3.52156C8.54463 3.61403 8.29719 3.71945 8.13612 3.82984C8.05909 3.88266 8.18378 3.96034 8.17173 3.97142C7.70059 4.3842 7.27748 4.55228 6.72889 4.94587C6.62701 5.01852 6.48439 5.38589 6.2135 5.44146C5.91493 5.5063 5.65744 4.83508 5.31988 5.38634C5.18116 5.61446 5.5762 6.40499 4.96651 6.44056C4.48602 7.14699 3.83008 7.64778 3.49315 8.45486C3.47781 8.49124 3.61018 8.71769 3.56102 8.79132C3.48721 8.90099 3.35658 8.90699 3.30175 8.98518C3.07001 9.31208 2.97751 9.67736 2.7936 10.0125C2.72425 10.1405 2.64534 10.0451 2.56371 10.1998C2.48284 10.3553 2.56872 10.5216 2.40832 10.7079C2.28718 10.8484 1.93735 10.8967 1.81493 11.11C2.08995 11.2287 2.02231 11.3785 1.99784 11.6774C1.99346 11.7347 2.1115 11.7142 2.11452 11.7431C2.12928 11.8604 2.01558 11.9245 2.03856 12.0387C2.04401 12.0664 2.14045 12.1001 2.15049 12.1243C2.2393 12.3303 1.93865 12.525 1.88666 12.5606C1.68827 12.6939 1.79243 12.8147 1.69738 12.9352C1.60256 13.0571 1.5858 12.8314 1.50742 12.9836C1.34501 13.2992 1.2609 13.7422 1.19141 14.0873C1.16415 14.2255 1.31596 14.156 1.31516 14.1763C1.29622 14.4649 1.10852 14.7364 1.35607 14.9309C0.634044 15.0358 1.39766 15.1113 1.21477 15.502C1.20033 15.5324 0.865367 15.5428 0.829894 15.4107C0.794656 15.2778 0.919934 15.0981 0.868374 14.9135C0.855693 14.8706 0.582519 14.5869 0.569699 14.5495C0.465383 14.2649 0.962496 14.3127 0.99123 14.3044C1.30636 14.205 1.03226 13.8605 1.0264 13.7776C0.995306 13.4065 1.13452 13.1305 1.13884 12.8227C1.14277 12.6218 0.835802 12.5142 0.889185 12.3663C1.07163 11.8732 1.55612 11.8565 1.35325 11.2674C1.3119 11.1406 0.941004 11.1093 1.34019 10.8576C1.36558 10.8404 1.70587 10.6816 1.62163 10.4706C1.61096 10.4439 1.51569 10.4034 1.51846 10.3752C1.53933 10.1868 1.66403 10.1108 1.71149 9.9165C1.75895 9.72253 1.81177 9.48159 1.94691 9.29775C2.02824 9.18619 2.28019 9.12545 2.35233 9.09233C2.55772 9.00008 2.46014 8.72191 2.65929 8.70815C2.85844 8.69652 2.96583 9.008 3.20399 8.81706C2.97884 8.66949 2.75518 8.50571 2.53304 8.35029C2.88257 7.79168 3.31932 7.30998 3.71123 6.78529C3.75985 6.71997 3.59441 6.69693 3.64414 6.62424C3.85596 6.31755 4.14228 6.13526 4.36606 5.82191C4.53897 5.57912 4.65201 5.23509 4.84735 4.98419C5.19985 5.06463 5.45571 4.6717 5.72619 4.46913C5.82018 4.39824 5.86889 4.46513 5.94879 4.43063C6.24938 4.3011 5.96195 4.19087 5.99984 4.10189C6.16947 3.721 6.5837 4.17625 6.90998 3.90337C6.92621 3.88941 6.95242 3.45874 6.97314 3.41887C7.09467 3.16496 7.07354 3.48658 7.21246 3.41596C7.4671 3.28826 7.66949 3.24354 7.89183 2.98379C7.95565 2.9081 8.04369 2.60958 8.28714 2.64735C8.31891 2.65233 8.36348 2.75215 8.38357 2.74742C8.7419 2.65639 8.57915 2.35916 8.70399 2.15594C8.83032 1.95218 9.22536 2.01047 9.31279 2.04241C9.54248 2.12178 9.23262 2.16785 9.2327 2.18787C9.23418 2.4187 9.41915 2.28064 9.58257 2.21839C9.7551 2.50523 9.95978 2.38255 9.75149 2.15326C9.72813 2.12836 9.62049 2.21626 9.58257 2.21839C9.57101 1.85711 9.80546 1.69563 10.2021 1.85364C10.3874 1.929 10.3346 2.13195 10.6922 1.91331C10.8552 1.81573 10.7004 1.63053 10.834 1.50915C11.1435 1.23066 11.6917 1.26355 12.0606 1.11446C12.1948 1.06011 12.0231 0.981193 12.1143 0.939928C12.3575 0.830279 12.6076 0.858349 12.8525 0.7456C12.8747 0.735256 12.7849 0.622018 12.8649 0.599976C13.4733 0.431797 14.0297 0.407617 14.6779 0.317979C14.9903 0.273154 15.548 0.141691 15.8782 0.136025C16.2491 0.126307 16.6678 0.196852 17.0508 0.243379C17.2623 0.268894 17.4603 0.286553 17.6321 0.275809C17.9468 0.257929 17.8836 0.12446 18.0256 0.0417409C18.3035 -0.118936 18.7442 0.234383 18.7981 0.289728C18.7994 0.291018 18.5277 0.296439 18.6647 0.377404C18.7339 0.525736 18.7947 0.290017 18.7981 0.289728C18.8368 0.322966 19.3712 0.417347 19.4802 0.410051C19.5399 0.404787 19.5256 0.276457 19.5566 0.27613C20.2975 0.272367 21.0328 0.396824 21.735 0.657018C21.7469 0.663027 21.6898 0.792088 21.7181 0.804504C22.11 0.982049 22.4214 0.904366 22.7927 0.927305C23.1628 0.95095 23.421 1.09017 23.5225 1.3914C23.7812 1.46425 24.0895 1.71804 24.2578 1.86987C24.4263 2.02128 24.5734 1.79177 24.5935 1.79538C25.2153 1.91348 25.4557 2.22307 25.9784 2.5692C26.2283 2.73406 26.7441 3.02846 27.0246 3.1961C27.2473 3.32692 27.3327 3.47065 27.5446 3.58296C27.5732 3.59831 27.622 3.48278 27.6325 3.48511C27.932 3.53541 27.6475 3.68914 27.6574 3.76423C27.6914 4.03785 27.7177 4.18939 28.0292 4.3366C28.0999 4.36967 28.5517 4.19836 28.6761 4.27787C28.8357 4.38055 28.6804 4.44518 28.848 4.55085C28.8621 4.5601 28.9244 4.48874 29.0092 4.57511C29.4036 4.97543 29.7843 5.45511 30.1687 5.88988C30.221 5.94971 30.2684 5.77473 30.3463 5.86034C30.7112 6.26224 31.0714 6.74076 31.3145 7.21405C31.3739 7.3308 31.2413 7.32341 31.2317 7.36415C31.1738 7.61072 31.5336 7.66016 31.5605 7.69242C32.1954 8.43543 32.3344 9.20279 32.8444 10.0407C32.8726 10.0839 33.3085 10.3515 33.1437 10.6183C33.1333 10.6371 32.9613 10.8981 33.1819 10.9841C33.1957 10.9897 33.2793 10.836 33.3368 11.0265C33.394 11.2164 33.5845 11.4891 33.5296 11.7938C33.5129 11.8913 33.3285 12.1561 33.5949 12.3422C33.6132 12.3506 34.1668 12.6162 33.8918 12.8351C33.8462 12.8707 33.5148 12.9284 33.7531 13.1813C33.7989 13.2302 33.8484 13.1099 33.9288 13.2492C34.0526 13.4645 34.0274 13.7875 34.226 14.0473C34.2611 14.0916 34.5246 14.271 34.3789 14.4716C34.356 14.5026 34.237 14.4686 34.238 14.5606C34.2415 14.9968 34.3662 15.4432 34.3192 15.8878C34.3024 16.0453 34.1156 15.9779 34.0764 16.141C34.0375 16.305 34.0027 16.6234 34.0885 16.7895C34.1744 16.9563 34.4626 16.7664 34.4883 17.023C34.4914 17.056 34.4942 17.089 34.4968 17.1221C34.5794 18.2078 34.32 19.273 34.0995 20.3215C34.0651 20.482 34.1935 20.3678 34.148 20.6065C33.9947 21.4889 33.6213 23.0188 33.1086 23.6505C32.7084 24.1517 32.8825 23.3874 32.6353 23.7889C32.5167 23.9797 32.7221 24.3405 32.7079 24.396C32.5767 24.9302 32.2698 25.1946 32.0729 25.637C32.0316 25.7285 32.1992 25.711 32.1623 25.7886C32.0369 26.0548 31.8243 26.286 31.6825 26.5265C31.619 26.6346 31.719 26.6724 31.6484 26.7648C31.4803 26.9859 31.3033 27.1633 31.0664 27.3223C31.0449 27.3365 31.0361 27.128 30.9132 27.2881C30.7136 27.548 30.3904 27.8057 30.2261 28.1564C30.1775 28.2605 30.3563 28.4204 30.0732 28.4948C30.0134 28.5102 29.8425 28.2725 29.8416 28.6451C29.8436 28.7062 29.7637 29.2856 29.4436 29.3011C29.3598 29.3057 29.0848 29.2496 29.0155 29.3687C29.0066 29.3856 29.1486 29.4263 29.0774 29.5131C28.8241 29.8175 28.509 30.0849 28.2251 30.3769C28.1491 30.4551 28.3588 30.4525 28.2418 30.5663C27.9198 30.8798 27.4525 31.1946 27.0707 31.4105C26.9297 31.4901 26.9582 31.336 26.9417 31.333C26.6779 31.2795 26.7347 31.5572 26.6907 31.6051C26.4175 31.8967 26.0989 31.9492 25.8083 32.1573C25.7273 32.2144 25.8507 32.2876 25.8393 32.3071C25.7155 32.5044 25.7361 32.2331 25.6116 32.2755C25.2621 32.393 24.9138 32.587 24.5911 32.7603C24.4729 32.8238 24.6719 32.8895 24.5644 32.945C23.9277 33.2764 23.2218 33.5435 22.5345 33.6859C22.4048 33.7124 22.4487 33.5802 22.4148 33.5644C22.1824 33.4528 21.9943 33.764 21.9385 33.8041C21.6906 33.9863 21.5538 33.9204 21.3121 34.001C20.1255 34.4046 18.5683 34.5366 17.397 34.5094C17.2799 34.5077 17.1645 34.5045 17.0508 34.4999C15.6831 34.4385 14.5886 34.2276 13.2772 33.9678C13.1868 33.9492 13.2451 34.1149 13.1662 34.1004C12.1477 33.9046 11.1927 33.5343 10.2231 33.1682C10.1433 33.1376 10.2014 33.3161 10.0707 33.2707C9.80176 33.1782 9.47983 33.0203 9.2438 32.8521C9.12909 32.7705 9.34958 32.7455 9.23386 32.6658C8.96546 32.4799 8.66742 32.3077 8.36916 32.1611C8.24203 32.0987 8.35423 32.331 8.19391 32.2394C7.10298 31.6155 6.07606 30.8848 5.27303 29.8901C5.21786 29.8216 5.36308 29.5568 5.19392 29.4726C5.1277 29.5218 5.06186 29.5913 4.99721 29.6498C3.65131 28.4188 2.62684 26.9012 1.78351 25.2954C1.74788 25.2275 1.6735 25.4182 1.60365 25.286C1.2013 24.5204 0.819527 23.7581 0.671891 22.8733C0.657576 22.7858 0.929182 22.7387 0.809463 22.5116C0.787251 22.472 0.636555 22.1178 0.552577 22.0393C0.540153 22.0287 0.437884 22.133 0.398971 22.0143C0.174931 21.3215 0.0359679 20.5691 0.000528748 19.8435C-0.00486852 19.7263 0.14848 19.8278 0.145995 19.7446C0.128329 19.162 -0.0369477 18.5408 0.0593992 17.9778C0.126011 17.6061 0.367107 17.7332 0.59235 17.5358C0.623896 17.5081 0.62547 17.2859 0.760204 17.2734C1.09808 17.2422 1.46943 17.3414 1.82942 17.2952C1.90645 17.2857 1.82224 17.0109 2.01018 17.1732C2.02248 17.1847 2.08668 17.3817 2.15165 17.4282C2.19634 17.4607 2.3318 17.3981 2.38959 17.4643C2.44742 17.53 2.33478 17.6074 2.4053 17.7163C2.47712 17.8247 2.62934 17.7678 2.65995 17.9865ZM24.9957 2.56869C25.1059 2.7786 25.3665 2.37612 25.1194 2.37032C25.1072 2.37056 24.9898 2.55813 24.9957 2.56869ZM3.62035 7.53108C3.94101 7.44597 3.79905 7.12037 3.55818 7.17053C3.31599 7.22428 3.52211 7.55887 3.62035 7.53108ZM2.38167 9.89749C2.66329 9.70606 2.08276 9.35133 2.05712 9.70782C2.0555 9.72855 2.36523 9.90899 2.38167 9.89749ZM0.703131 18.4126C0.709075 18.4095 0.703699 18.2505 0.697339 18.2471C0.539537 18.1722 0.550444 18.4932 0.703131 18.4126ZM1.57183 12.3953C1.68564 12.3346 1.66663 12.0484 1.52265 12.1231C1.40573 12.1846 1.42879 12.473 1.57183 12.3953ZM31.551 10.1929C31.5459 10.1986 31.5879 10.302 31.6233 10.2829C31.7378 10.2208 31.6372 10.0951 31.551 10.1929ZM0.882225 16.7607C0.926053 16.1022 1.51807 15.7601 1.4155 16.4448C1.3983 16.5697 1.24971 16.1666 1.19153 16.3238C1.08557 16.6158 1.43242 16.818 1.24311 17.1165C1.20785 17.1727 0.877551 16.7996 0.881469 16.7595C0.881721 16.7599 0.881973 16.7603 0.882225 16.7607ZM24.8167 3.12638C24.8171 3.13364 24.9483 3.21436 24.9545 3.21088C25.103 3.12018 24.8361 2.9558 24.8167 3.12638ZM32.8093 16.4861C32.7971 16.4948 32.7944 16.8465 32.8061 16.858C33.0596 17.0403 33.0662 16.3172 32.8093 16.4861ZM14.8444 1.62352C14.7039 1.79751 14.5168 1.84565 14.3548 1.67912C14.5177 1.66122 14.6814 1.63701 14.8444 1.62352Z" fill="#7B3F00"/>
<g clip-path="url(#clip0_1114_3113)">
<path d="M7.84051 21.7433C8.00944 21.7901 8.18398 21.814 8.35937 21.8143C9.13028 21.8107 10.0364 21.7675 10.927 21.4789C10.9978 21.526 11.0664 21.5724 11.1336 21.6179C11.2993 21.7299 11.4558 21.8357 11.6187 21.9346C13.5722 23.1191 15.662 24.0226 17.9952 24.9978C18.061 25.0277 18.132 25.0445 18.2042 25.0471C18.2531 25.048 18.3013 25.0352 18.3432 25.0102C18.4309 24.9567 18.4792 24.8527 18.4911 24.6904C18.4943 24.6038 18.5067 24.5178 18.5281 24.4339C18.9649 22.9917 19.2175 21.7989 19.3228 20.6799C19.363 20.251 19.4122 19.8152 19.4598 19.3937C19.5441 18.6476 19.6314 17.8761 19.6723 17.1137C19.785 15.0173 19.6396 12.8932 19.4991 10.8392C19.4817 10.5841 19.4645 10.3289 19.4473 10.0737C19.4365 9.88694 19.404 9.70201 19.3506 9.52259C19.3339 9.45702 19.3035 9.3957 19.2611 9.34271C19.2189 9.28971 19.1658 9.24624 19.1054 9.21518C19.0372 9.18737 18.964 9.17421 18.8903 9.17653C18.8168 9.17885 18.7444 9.19662 18.6782 9.22866C18.5604 9.27739 18.4383 9.32264 18.3202 9.36674C18.2064 9.40922 18.0927 9.45168 17.9803 9.49733C17.8295 9.55857 17.6779 9.61851 17.5265 9.67829C17.126 9.8365 16.7124 10.0001 16.3173 10.189C15.7114 10.4787 15.0878 10.8088 14.4639 11.1701C13.509 11.7231 12.577 12.2761 11.5901 12.8617C11.1962 13.0955 10.7981 13.3314 10.3959 13.5695C10.326 13.5672 10.2739 13.5691 10.2414 13.5711C10.0452 13.5833 9.84831 13.594 9.65166 13.6047C9.15807 13.6315 8.64769 13.6592 8.14773 13.7116C7.68561 13.7598 7.4498 13.9999 7.38311 14.4898C7.36409 14.6446 7.35393 14.8003 7.3527 14.9562C7.32747 16.2607 7.30276 17.5651 7.27851 18.8695L7.24008 20.9096C7.22758 21.0961 7.2806 21.2812 7.39009 21.4332C7.49959 21.5853 7.65879 21.6949 7.84051 21.7433ZM17.8153 23.7723C17.8234 23.8467 17.828 23.9215 17.8336 24.0088C16.9795 23.3487 16.0201 22.6209 14.9713 22.0737C14.239 21.692 13.5064 21.3022 12.798 20.9262C12.5065 20.7714 12.2184 20.6185 11.9337 20.4676C11.9395 20.1398 11.9474 19.8168 11.9552 19.497C11.9741 18.7282 11.9919 18.002 11.9797 17.2635C11.968 16.523 11.927 15.797 11.8837 15.0285C11.8657 14.7079 11.8475 14.3844 11.8312 14.0566C11.8775 14.0231 11.9255 13.992 11.9749 13.9633C12.4965 13.6698 13.0183 13.3768 13.5404 13.0843C14.7489 12.4064 15.9986 11.7056 17.2219 11.0058C17.5115 10.8328 17.7912 10.644 18.0597 10.4402C18.152 10.3729 18.2464 10.304 18.3431 10.2352C18.3471 10.2811 18.3486 10.3272 18.3476 10.3733C18.3252 10.9496 18.3038 11.5261 18.2832 12.1026C18.2306 13.5406 18.1764 15.0276 18.1017 16.4884C18.0266 17.9584 17.9182 19.5552 17.7607 21.5136C17.7078 22.2665 17.726 23.0227 17.8153 23.7723V23.7723ZM10.8597 20.2475L10.8502 20.2532C10.8198 20.276 10.7848 20.292 10.7477 20.2999C10.1485 20.3057 9.53869 20.3042 8.94882 20.3025L8.61502 20.3016C8.60141 20.3 8.58795 20.2973 8.57479 20.2935L8.57012 20.2924C8.56824 20.2814 8.5663 20.2703 8.56434 20.2591C8.55117 20.1935 8.54299 20.1272 8.53983 20.0604C8.52893 19.548 8.51882 19.0356 8.5095 18.523C8.49594 17.8005 8.48119 17.078 8.46528 16.3554C8.45891 16.083 8.44305 15.8068 8.42785 15.5397C8.41878 15.3818 8.40978 15.2238 8.40259 15.0657C8.39891 14.9858 8.39989 14.904 8.40087 14.8177C8.40087 14.8 8.40126 14.7822 8.40143 14.7641L10.7298 14.626C10.6358 16.3072 10.5827 18.2778 10.8596 20.2475L10.8597 20.2475Z" fill="#B69F7C"/>
<path d="M26.6728 18.8438C26.2936 18.3997 25.9012 17.9544 25.5217 17.5237L25.2458 17.2104C25.1876 17.1443 25.1259 17.0804 25.0764 17.0298L25.2453 16.8469C25.3988 16.6807 25.5458 16.5214 25.6921 16.3613C25.7715 16.2747 25.8515 16.1882 25.9319 16.102C26.1332 15.8854 26.3416 15.6614 26.534 15.4293C26.8419 15.0581 26.8861 14.718 26.6553 14.4965C26.5223 14.3687 26.2253 14.2222 25.7326 14.6784C25.6477 14.757 25.5651 14.838 25.4825 14.9189C25.4354 14.9651 25.3884 15.0112 25.3409 15.057L24.1295 16.2205C24.1132 16.2079 24.0968 16.1955 24.0805 16.1836C24.0139 16.1332 23.9564 16.0895 23.9025 16.0428C23.6827 15.8521 23.4632 15.661 23.2441 15.4695C22.9069 15.1755 22.5691 14.8822 22.2306 14.5895C22.083 14.4548 21.9231 14.334 21.7529 14.2288C21.6359 14.154 21.4965 14.1213 21.3582 14.1364C21.2198 14.1515 21.0908 14.2133 20.9928 14.3115C20.8218 14.4977 20.8098 14.7654 20.9607 15.0279C21.0374 15.168 21.1309 15.2983 21.2393 15.4158C21.5784 15.7695 22.0281 16.2346 22.4993 16.6951C22.64 16.8327 22.7928 16.9579 22.9544 17.0906C23.0061 17.1328 23.0588 17.1761 23.1126 17.2206L23.0922 17.2358C23.0315 17.2776 22.9752 17.3253 22.924 17.3782C22.3119 18.0551 21.6925 18.746 21.0932 19.4142L20.9718 19.5494C20.933 19.5839 20.903 19.6272 20.8844 19.6756C20.8657 19.7239 20.859 19.7761 20.8648 19.8275C20.8832 19.9176 20.9554 19.9913 21.0855 20.0529C21.0968 20.0582 21.1091 20.061 21.1216 20.061C21.1351 20.061 21.1484 20.0578 21.1604 20.0517C22.2017 19.5127 23.0798 18.7618 24.032 17.907L24.1826 18.0134C24.9023 18.5222 25.6079 19.0206 26.3132 19.5199C26.3262 19.5298 26.3385 19.5407 26.35 19.5523C26.3842 19.5907 26.4289 19.6184 26.4788 19.6318L26.491 19.6343C26.5977 19.6547 26.7306 19.6804 26.8159 19.6162C26.8607 19.5714 26.8928 19.5157 26.909 19.4546C26.9252 19.3935 26.9247 19.3293 26.9079 19.2684C26.8569 19.1135 26.7772 18.9695 26.6728 18.8438Z" fill="#B69F7C"/>
</g>
<defs>
<clipPath id="clip0_1114_3113">
<rect width="19.7795" height="16" fill="white" transform="translate(7.16016 9.12207)"/>
</clipPath>
</defs>
</svg>
