<svg width="42" height="57" viewBox="0 0 42 57" fill="none" xmlns="http://www.w3.org/2000/svg">
<path d="M20.708 2.36093C10.5918 2.36093 2.36084 10.233 2.36084 19.9056C2.36084 24.5117 4.46042 30.6375 8.60106 38.1128C11.9265 44.1147 15.7738 49.542 17.7748 52.2425C18.113 52.7039 18.555 53.0791 19.0651 53.3378C19.5754 53.5965 20.1394 53.7312 20.7114 53.7312C21.2835 53.7312 21.8475 53.5965 22.3578 53.3378C22.868 53.0791 23.31 52.7039 23.6481 52.2425C25.6456 49.542 29.4963 44.1147 32.8217 38.1128C36.9557 30.6398 39.0552 24.514 39.0552 19.9056C39.0552 10.233 30.8241 2.36093 20.708 2.36093ZM20.708 28.047C19.2566 28.047 17.8375 27.6167 16.6308 26.8102C15.4239 26.0039 14.4833 24.8577 13.9278 23.5167C13.3724 22.1756 13.227 20.7 13.5102 19.2764C13.7933 17.8528 14.4924 16.5451 15.5186 15.5188C16.5451 14.4925 17.8526 13.7935 19.2763 13.5104C20.6999 13.2271 22.1754 13.3724 23.5166 13.928C24.8575 14.4834 26.0037 15.4241 26.8101 16.631C27.6165 17.8377 28.0468 19.2567 28.0468 20.7082C28.0448 22.6538 27.2709 24.5193 25.8951 25.8951C24.5193 27.271 22.6538 28.0449 20.708 28.047Z" fill="#CF0606"/>
<path d="M20.7085 1.18027C31.4261 1.18052 40.2358 9.53236 40.2358 19.9059C40.2357 24.8208 38.0157 31.1627 33.855 38.6842L33.854 38.6852C30.4929 44.7514 26.6083 50.2259 24.5972 52.9449L24.5962 52.9439C24.149 53.5528 23.5658 54.0485 22.8921 54.3902L22.8911 54.3912C22.2154 54.7337 21.4686 54.9117 20.7114 54.9117C19.9543 54.9117 19.2075 54.7337 18.5317 54.3912L18.5308 54.3902C17.8556 54.0477 17.2704 53.5508 16.8228 52.94V52.9391C14.8061 50.217 10.9275 44.7469 7.56885 38.6852C3.40124 31.1611 1.18027 24.8188 1.18018 19.9059C1.18018 9.5322 9.99056 1.18027 20.7085 1.18027ZM23.0649 15.0182C21.9395 14.552 20.7009 14.4309 19.5063 14.6685C18.3118 14.9062 17.2144 15.492 16.353 16.3531C15.4919 17.2143 14.9051 18.3119 14.6675 19.5064C14.4299 20.701 14.552 21.9397 15.0181 23.065C15.4843 24.1904 16.2739 25.1522 17.2866 25.8287L17.479 25.9518C18.4481 26.5487 19.5652 26.8655 20.7065 26.8658C22.3398 26.864 23.9054 26.2149 25.0601 25.0602C26.2145 23.9057 26.8645 22.341 26.8667 20.7086L26.8618 20.4801C26.8196 19.3419 26.4629 18.2359 25.8286 17.2867C25.152 16.2739 24.1901 15.4842 23.0649 15.0182Z" stroke="#D2AF88" stroke-opacity="0.3" stroke-width="2.36092"/>
</svg>
