<svg width="41" height="40" viewBox="0 0 41 40" fill="none" xmlns="http://www.w3.org/2000/svg">
<path fill-rule="evenodd" clip-rule="evenodd" d="M10.4186 15.2844C10.4186 15.1385 10.3607 14.9986 10.2575 14.8955C10.1544 14.7923 10.0145 14.7344 9.86864 14.7344C9.72719 14.7344 9.59153 14.7906 9.49151 14.8906C9.3915 14.9906 9.33531 15.1263 9.33531 15.2677C9.18531 16.2177 8.96864 17.1344 8.85197 18.101C8.82669 18.5062 8.82669 18.9125 8.85197 19.3177V20.5344C8.95197 21.5177 9.11864 22.451 9.28531 23.401C9.28956 23.4799 9.30934 23.5571 9.34349 23.6283C9.37765 23.6994 9.42552 23.7632 9.48436 23.8158C9.54319 23.8685 9.61184 23.909 9.68636 23.935C9.76088 23.9611 9.83982 23.9722 9.91864 23.9677C9.99823 23.9657 10.0766 23.9475 10.1488 23.9141C10.2211 23.8807 10.2858 23.8328 10.3389 23.7735C10.3919 23.7142 10.4323 23.6446 10.4575 23.5691C10.4827 23.4936 10.4922 23.4137 10.4853 23.3344C10.4853 22.401 10.6853 21.4844 10.7686 20.5344V19.3344V18.1177C10.7353 17.151 10.5353 16.2344 10.4186 15.2844Z" fill="#E1DDD4"/>
<path fill-rule="evenodd" clip-rule="evenodd" d="M15.0179 17.7344C14.9179 15.7344 14.7679 13.7844 14.7845 11.8344C14.7938 11.6912 14.7467 11.55 14.6533 11.441C14.5599 11.332 14.4275 11.2639 14.2845 11.2511C14.2145 11.2466 14.1442 11.256 14.0778 11.2787C14.0113 11.3014 13.95 11.337 13.8974 11.3834C13.8447 11.4299 13.8018 11.4863 13.771 11.5494C13.7402 11.6125 13.7221 11.681 13.7179 11.7511C13.3907 13.732 13.1737 15.7295 13.0679 17.7344V20.3011C13.0679 21.2011 13.0679 21.9678 13.2179 22.8678C13.4012 24.8844 13.6679 26.8511 13.8845 28.8011C13.8973 28.9618 13.9725 29.111 14.094 29.2169C14.2155 29.3229 14.3736 29.377 14.5345 29.3678C14.6134 29.3635 14.6906 29.3437 14.7618 29.3096C14.8329 29.2754 14.8967 29.2276 14.9493 29.1687C15.002 29.1099 15.0425 29.0412 15.0685 28.9667C15.0946 28.8922 15.1057 28.8133 15.1012 28.7344V22.7844V20.2511C15.1012 19.3844 15.0512 18.5678 15.0179 17.7344Z" fill="#E1DDD4"/>
<path fill-rule="evenodd" clip-rule="evenodd" d="M18.9014 5.0011C18.8314 4.99659 18.7611 5.00595 18.6947 5.02866C18.6282 5.05136 18.5669 5.08696 18.5143 5.13342C18.4616 5.17987 18.4187 5.23627 18.3879 5.29936C18.3571 5.36246 18.339 5.43102 18.3348 5.5011C17.9348 8.66777 17.6514 11.8678 17.4514 15.1011C17.3681 16.4678 17.3348 17.8511 17.3014 19.2178C17.2681 20.5844 17.3014 21.9844 17.3014 23.3511C17.3014 26.5844 17.5514 29.8011 17.7514 32.9844C17.7536 33.0632 17.7713 33.1408 17.8034 33.2128C17.8356 33.2848 17.8816 33.3497 17.9389 33.4039C17.9962 33.4581 18.0635 33.5004 18.1372 33.5285C18.2108 33.5567 18.2893 33.57 18.3681 33.5678C18.5258 33.5592 18.6742 33.4905 18.7828 33.3758C18.8913 33.261 18.9517 33.109 18.9514 32.9511C18.9514 29.6178 19.1348 26.4011 19.2348 23.1011C19.2348 20.9011 19.3681 18.7178 19.3848 16.5344V5.56777C19.3941 5.42893 19.3487 5.29196 19.2584 5.18609C19.1681 5.08023 19.04 5.01384 18.9014 5.0011Z" fill="#E1DDD4"/>
<path fill-rule="evenodd" clip-rule="evenodd" d="M21.8336 22.0012C21.8314 22.08 21.8447 22.1584 21.8728 22.2321C21.9009 22.3057 21.9433 22.3731 21.9975 22.4304C22.0516 22.4877 22.1166 22.5337 22.1885 22.5658C22.2605 22.598 22.3381 22.6157 22.4169 22.6178C22.5793 22.6181 22.7355 22.5559 22.8534 22.4443C22.9712 22.3326 23.0417 22.18 23.0503 22.0178C23.1669 21.1345 23.3003 20.3512 23.3836 19.3845V18.2678V17.1512C23.2669 16.2678 23.0669 15.4845 22.9336 14.5678C22.9339 14.4276 22.8805 14.2925 22.7845 14.1903C22.6884 14.088 22.5569 14.0263 22.4169 14.0178C22.3455 14.0156 22.2744 14.0278 22.2077 14.0536C22.1411 14.0794 22.0803 14.1183 22.029 14.168C21.9777 14.2178 21.9369 14.2773 21.9091 14.3431C21.8812 14.409 21.8669 14.4797 21.8669 14.5512C21.6726 15.42 21.5279 16.2992 21.4336 17.1845V18.3178V19.4178C21.5669 20.3012 21.7336 21.1345 21.8336 22.0012Z" fill="#E1DDD4"/>
<path fill-rule="evenodd" clip-rule="evenodd" d="M30.7347 22.0012C30.7324 22.08 30.7458 22.1584 30.7739 22.2321C30.802 22.3057 30.8444 22.3731 30.8985 22.4304C30.9527 22.4877 31.0177 22.5337 31.0896 22.5658C31.1616 22.598 31.2392 22.6157 31.318 22.6178C31.4804 22.6181 31.6366 22.5559 31.7545 22.4443C31.8723 22.3326 31.9428 22.18 31.9513 22.0178C32.068 21.1345 32.2013 20.3512 32.2847 19.3845V18.2678V17.1512C32.168 16.2678 31.968 15.4845 31.8347 14.5678C31.8347 14.4942 31.8199 14.4213 31.7913 14.3534C31.7626 14.2856 31.7206 14.2242 31.6677 14.1729C31.6149 14.1216 31.5523 14.0815 31.4836 14.0548C31.4149 14.0282 31.3416 14.0156 31.268 14.0178C31.1966 14.0156 31.1254 14.0278 31.0588 14.0536C30.9921 14.0794 30.9314 14.1183 30.8801 14.168C30.8288 14.2178 30.788 14.2773 30.7601 14.3431C30.7323 14.409 30.718 14.4797 30.718 14.5512C30.5237 15.42 30.379 16.2992 30.2847 17.1845V18.3178C30.2847 18.7012 30.2847 19.0512 30.368 19.4178C30.468 20.3012 30.6347 21.1345 30.7347 22.0012Z" fill="#E1DDD4"/>
<path fill-rule="evenodd" clip-rule="evenodd" d="M26.034 26.8345C26.0361 26.9155 26.0542 26.9953 26.0872 27.0693C26.1202 27.1433 26.1675 27.21 26.2263 27.2657C26.2851 27.3215 26.3544 27.365 26.43 27.394C26.5057 27.423 26.5863 27.4367 26.6673 27.4345C26.7454 27.4324 26.8223 27.4146 26.8933 27.3823C26.9644 27.3499 27.0283 27.3036 27.0811 27.2461C27.134 27.1886 27.1748 27.121 27.201 27.0475C27.2273 26.9739 27.2385 26.8958 27.234 26.8178C27.334 25.1512 27.4507 23.4845 27.5173 21.8178V19.6512V17.5012C27.434 15.8345 27.234 14.1678 27.1507 12.5012C27.1507 12.3581 27.0951 12.2207 26.9955 12.118C26.8959 12.0154 26.7603 11.9555 26.6173 11.9512C26.4799 11.9551 26.349 12.0103 26.2503 12.1059C26.1516 12.2015 26.0923 12.3307 26.084 12.4678C25.884 14.1345 25.6673 15.8012 25.584 17.4678V19.6345V21.8012C25.7007 23.4845 25.9007 25.1512 26.034 26.8345Z" fill="#E1DDD4"/>
</svg>
