<svg width="42" height="40" viewBox="0 0 42 40" fill="none" xmlns="http://www.w3.org/2000/svg">
<g clip-path="url(#clip0_522_2142)">
<path d="M30.7437 2.23645C30.7177 1.80315 30.6448 1.3739 30.5266 0.956051C30.489 0.776667 30.4124 0.607589 30.3022 0.460693C30.192 0.3138 30.0509 0.192614 29.8888 0.105619C29.7129 0.0345591 29.5236 0.00195246 29.3339 0.00998081C29.1443 0.0180091 28.9585 0.0664903 28.7893 0.152155C28.4954 0.276644 28.1895 0.392355 27.8937 0.504191C27.641 0.60011 27.3883 0.695638 27.1383 0.797883C26.7419 0.960128 26.3441 1.1191 25.9461 1.27849C24.8982 1.69788 23.8148 2.13155 22.773 2.61502C21.5658 3.17522 20.3133 3.83296 18.944 4.62622C15.5487 6.59275 12.2332 8.52257 8.99564 10.5111C8.45992 10.8672 7.83135 11.0601 7.18698 11.0662C5.86974 11.0891 4.55577 11.1793 3.28513 11.2667C0.826788 11.436 0.412989 12.3134 0.371524 14.3473C0.364955 14.6807 0.367207 15.014 0.36967 15.3473C0.371928 15.6769 0.374595 16.0064 0.367616 16.3358C0.285506 20.3562 0.194546 24.9123 0.0906779 29.411C0.0652241 30.5108 0.623363 31.3059 1.6216 31.5921C2.04568 31.709 2.48399 31.767 2.92406 31.7641C4.70993 31.7592 7.04534 31.6596 9.32264 30.9368C9.59893 31.1098 9.87357 31.2833 10.1466 31.4572C10.7842 31.8614 11.4433 32.2796 12.1039 32.6688C16.5942 35.3129 21.4527 37.3761 26.1514 39.3717L27.0501 39.7535C27.1118 39.7819 27.1755 39.8059 27.2408 39.8255C27.3526 39.8594 27.469 39.8774 27.586 39.8788C27.7396 39.8825 27.8907 39.8398 28.0192 39.7563C28.1263 39.6761 28.2135 39.5729 28.2745 39.4541C28.3355 39.3355 28.3683 39.2045 28.3708 39.0712C28.3796 38.9806 28.3833 38.8888 28.387 38.7968C28.386 38.6363 28.4049 38.4763 28.4432 38.3204C29.3984 35.2445 30.0698 32.0886 30.449 28.8917L30.5888 27.6696C30.9667 24.3872 31.3569 20.9935 31.3961 17.6154C31.447 13.2216 31.1617 8.77441 30.8856 4.4738C30.838 3.72835 30.7905 2.98257 30.7437 2.23645ZM26.6297 36.5729C26.6502 36.799 26.6707 37.0249 26.6978 37.3206V37.3259C22.9631 34.1257 18.728 31.9451 14.6277 29.8341C13.7202 29.3668 12.7831 28.8845 11.8729 28.4012C11.8875 27.5696 11.9074 26.7517 11.9275 25.9429C11.9748 24.011 12.0197 22.1866 11.9903 20.3338C11.9606 18.4728 11.8578 16.6477 11.7492 14.7154C11.7036 13.9097 11.6578 13.0962 11.617 12.2718C11.7316 12.1879 11.8506 12.1101 11.9735 12.0387C13.2872 11.299 14.6015 10.5606 15.9164 9.82359C18.9479 8.12237 22.0827 6.36339 25.1513 4.60747C25.8819 4.17022 26.5876 3.69331 27.2656 3.1789C27.4986 3.00951 27.7377 2.83604 27.983 2.66033C27.9672 2.90522 27.9512 3.14482 27.9352 3.3791C27.8826 4.15461 27.8326 4.88663 27.8048 5.61786C27.7808 6.24304 27.7564 6.86841 27.7314 7.49398C27.6322 9.99888 27.5298 12.5895 27.4768 15.1391C27.3762 20.002 27.056 25.2584 26.4975 31.2088C26.3269 33.0437 26.4691 34.8649 26.6297 36.5729ZM8.68136 20.7141C8.68732 20.9874 8.69202 21.2608 8.69694 21.5347C8.73348 23.57 8.77086 25.6719 9.22862 27.8749H3.41404C3.4122 27.8633 3.41037 27.8517 3.40832 27.84C3.37674 27.6741 3.3571 27.5061 3.34959 27.3374C3.32085 25.9031 3.29394 24.4684 3.26875 23.0335C3.23494 21.1559 3.199 19.2783 3.16094 17.4007C3.15047 16.9183 3.11783 16.4303 3.08622 15.9587C3.0657 15.6375 3.04353 15.3162 3.02854 14.9948C3.01725 14.746 3.01996 14.4956 3.02304 14.2307C3.02304 14.1695 3.02444 14.1083 3.02485 14.0471L8.80204 13.7028C8.78747 14.3528 8.76737 15.005 8.74767 15.6591C8.69717 17.3136 8.64503 19.025 8.68136 20.7141Z" fill="#7B3F00"/>
<path d="M36.4142 9.73115C35.8682 9.2834 35.1288 9.21013 34.694 9.56197C34.275 9.90136 34.179 10.5438 34.4557 11.1616C34.5875 11.4557 34.7457 11.7389 34.8984 12.0128C34.966 12.1336 35.0333 12.2544 35.0988 12.3767C36.7102 15.3826 37.4254 17.971 37.3494 20.523V20.5318C37.3677 22.7073 36.8108 24.8493 35.7345 26.7436C35.2037 27.7169 34.6944 28.7207 34.2018 29.6918C33.9932 30.1028 33.7842 30.5134 33.5744 30.9236C33.4285 31.2075 33.1571 31.7358 33.649 32.0399C33.8238 32.1387 34.0225 32.1881 34.2237 32.1828C34.3912 32.1848 34.5575 32.1542 34.7135 32.093C35.7902 31.6569 36.7451 30.9691 37.4974 30.0879C38.8842 28.4236 39.8566 26.7948 40.4691 25.1083C40.9335 23.8373 41.1582 22.4922 41.132 21.1401C41.0583 17.3746 39.7414 13.8748 37.106 10.4393C36.9031 10.1778 36.6712 9.94019 36.4142 9.73115Z" fill="#7B3F00"/>
</g>
<defs>
<clipPath id="clip0_522_2142">
<rect width="41.2598" height="40" fill="white"/>
</clipPath>
</defs>
</svg>
