<svg width="25" height="24" viewBox="0 0 25 24" fill="none" xmlns="http://www.w3.org/2000/svg">
<g clip-path="url(#clip0_503_1835)">
<path fill-rule="evenodd" clip-rule="evenodd" d="M19.3304 9.13008L19.0204 8.72008C18.6904 8.42008 18.2204 8.60008 18.2404 8.88008C18.2404 8.96008 18.2404 9.07008 18.3404 9.14008C18.6504 9.44008 18.4604 9.32008 18.5604 9.50008C18.8304 10.4001 18.9004 12.5001 18.0404 13.2201C17.9677 13.2812 17.9198 13.3668 17.9057 13.4607C17.8916 13.5546 17.9122 13.6505 17.9638 13.7303C18.0154 13.8101 18.0943 13.8683 18.1857 13.894C18.2771 13.9198 18.3748 13.9113 18.4604 13.8701C18.8527 13.6367 19.1905 13.3221 19.4512 12.9474C19.7119 12.5727 19.8894 12.1466 19.9718 11.6976C20.0542 11.2487 20.0396 10.7873 19.929 10.3444C19.8184 9.9016 19.6143 9.48755 19.3304 9.13008Z" fill="#522A00"/>
<path fill-rule="evenodd" clip-rule="evenodd" d="M22.62 5.60985C22.5 5.43985 20.97 3.90985 20.74 4.55985C20.25 4.94985 21.43 5.23985 21.89 6.06985C22.4741 7.17222 22.8663 8.36591 23.05 9.59985C23.69 13.3098 22.18 16.2098 19.77 17.4698C19.7241 17.4928 19.6831 17.5246 19.6494 17.5635C19.6157 17.6023 19.59 17.6474 19.5738 17.6961C19.5575 17.7449 19.5511 17.7963 19.5547 17.8476C19.5583 17.8988 19.572 17.9489 19.595 17.9948C19.618 18.0408 19.6498 18.0818 19.6886 18.1155C19.7275 18.1491 19.7725 18.1748 19.8213 18.1911C19.87 18.2073 19.9215 18.2138 19.9728 18.2102C20.024 18.2065 20.0741 18.1928 20.12 18.1698C25.01 15.8598 25.75 10.0598 22.62 5.60985Z" fill="#522A00"/>
<path fill-rule="evenodd" clip-rule="evenodd" d="M14.3004 3.40008C12.4004 1.00008 6.93039 5.91009 5.58039 8.76009C5.52166 8.7196 5.4517 8.69861 5.38039 8.70008C2.50039 8.65008 -0.269613 10.9301 0.700387 13.8301C0.892849 14.421 1.2418 14.9487 1.71016 15.3572C2.17852 15.7657 2.74879 16.0397 3.36039 16.1501C3.85931 16.2647 4.36859 16.3284 4.88039 16.3401C7.09039 16.2301 6.88039 16.1301 6.14039 9.90008C6.08039 9.56008 5.39039 9.49009 5.49039 10.3001C5.63482 11.8935 5.63482 13.4967 5.49039 15.0901C5.13039 15.0401 5.41039 15.0901 4.24039 15.0001L3.24039 14.7301C1.75039 14.1801 0.810387 11.5601 3.42039 10.0701C5.16039 9.07008 5.67039 10.0001 6.42039 8.73008C7.63859 6.91236 9.27861 5.41646 11.2004 4.37008C11.7904 4.06008 12.9804 3.55008 13.3704 4.10008C14.3704 5.48008 14.6204 16.5101 13.4304 19.1701C13.0904 19.9301 12.6204 20.3801 11.8204 20.1701C10.6004 19.8501 8.18039 18.0101 6.82039 16.4801C6.75143 16.3979 6.65264 16.3464 6.54574 16.337C6.43885 16.3277 6.3326 16.3611 6.25039 16.4301C6.16817 16.499 6.11671 16.5978 6.10734 16.7047C6.09796 16.8116 6.13143 16.9179 6.20039 17.0001C7.34374 18.3185 8.66667 19.4698 10.1304 20.4201C10.4932 20.727 10.9171 20.9534 11.3739 21.0844C11.8307 21.2154 12.3101 21.248 12.7804 21.1801C14.4604 20.7501 14.9504 18.4801 15.1904 16.7601C15.5004 14.1201 15.9104 5.51008 14.3004 3.40008Z" fill="#522A00"/>
</g>
<defs>
<clipPath id="clip0_503_1835">
<rect width="24" height="24" fill="white" transform="translate(0.5)"/>
</clipPath>
</defs>
</svg>
