<svg width="32" height="33" viewBox="0 0 32 33" fill="none" xmlns="http://www.w3.org/2000/svg">
<g clip-path="url(#clip0_266_1377)">
<path fill-rule="evenodd" clip-rule="evenodd" d="M25.3335 8.02051H19.7868C17.2135 8.02051 14.6402 8.14051 12.0802 8.28717C8.8535 8.47384 5.6135 8.75384 2.3735 8.98051C1.60017 9.19384 1.70684 9.90051 2.3735 10.0072H12.1602C14.7202 10.0072 17.2668 9.78051 19.8268 9.70051C21.6668 9.60717 23.4935 9.51384 25.3335 9.46051H29.4002C30.1602 9.31384 30.0935 8.35384 29.2002 8.35384C27.8935 8.11384 26.6668 8.04717 25.3335 8.02051Z" fill="#E1DDD4"/>
<path fill-rule="evenodd" clip-rule="evenodd" d="M32 11.6201C32.0627 10.1278 31.9508 8.63319 31.6666 7.1668C31.4335 6.08954 30.9075 5.09754 30.1467 4.30013C29.4246 3.58003 28.4893 3.11238 27.48 2.9668C26.1993 2.82715 24.9073 2.82715 23.6266 2.9668L1.33332 4.30013C1.22695 4.30325 1.12558 4.34601 1.04911 4.42001C0.972645 4.49401 0.926589 4.59392 0.919984 4.70013C0.81502 4.71292 0.718173 4.76308 0.647167 4.84143C0.576161 4.91978 0.535745 5.02109 0.533317 5.1268C0.533317 7.58013 0.159984 12.9268 0.0666504 16.7268V21.7535C0.133317 22.8735 0.0666504 24.4201 0.199984 25.6601C0.290714 26.3099 0.49852 26.9378 0.813317 27.5135C1.38939 28.382 2.25345 29.0194 3.25332 29.3135C5.23582 29.8382 7.2833 30.0762 9.33332 30.0201C12.9591 30.0907 16.5861 29.975 20.2 29.6735C23.8133 29.3801 27.4133 28.9268 30.96 28.3401C31.085 28.3125 31.1949 28.2385 31.2676 28.1331C31.3403 28.0276 31.3704 27.8986 31.3518 27.7719C31.3332 27.6452 31.2674 27.5302 31.1675 27.4501C31.0676 27.37 30.941 27.3307 30.8133 27.3401C27.28 27.7935 23.7066 28.1268 20.1466 28.3001C16.5933 28.4783 13.0333 28.4783 9.47998 28.3001C7.86536 28.3032 6.25396 28.1559 4.66665 27.8601C3.77292 27.7441 2.9573 27.291 2.38665 26.5935C2.10425 26.052 1.94061 25.4565 1.90665 24.8468C1.78665 23.7268 1.83998 22.5268 1.75998 21.5801C1.59998 19.9535 1.53332 18.3135 1.49332 16.6735C1.42665 13.3268 1.49332 7.87346 1.49332 5.14013C4.05332 5.14013 11.3866 5.03346 17.1466 4.90013C20.1066 4.90013 22.64 4.74013 23.8133 4.70013C24.9702 4.58014 26.1364 4.58014 27.2933 4.70013C27.9443 4.78866 28.5532 5.07221 29.04 5.51346C29.5876 6.08343 29.9661 6.7943 30.1333 7.5668C30.28 8.10013 30.5466 11.4468 30.56 11.5668L30.6666 17.6335V22.8335C30.6666 24.0068 30.6666 25.1668 30.7866 26.3268C30.7901 26.3934 30.8066 26.4586 30.8352 26.5188C30.8639 26.579 30.9042 26.6329 30.9537 26.6775C31.0033 26.7221 31.0611 26.7564 31.124 26.7786C31.1868 26.8008 31.2534 26.8104 31.32 26.8068C31.3859 26.8051 31.4509 26.7902 31.511 26.763C31.5711 26.7357 31.6251 26.6967 31.6699 26.6482C31.7146 26.5998 31.7492 26.5428 31.7716 26.4807C31.7939 26.4186 31.8036 26.3527 31.8 26.2868V22.8468C31.8 21.1135 31.9066 19.3801 31.9733 17.6468L32 11.6201Z" fill="#E1DDD4"/>
<path fill-rule="evenodd" clip-rule="evenodd" d="M16.0936 20.5007C17.107 19.954 18.0403 19.1673 18.907 18.554C19.2136 18.354 19.707 18.114 20.067 17.8473C20.3134 17.6851 20.5261 17.4769 20.6936 17.234C20.7969 17.0877 20.8524 16.9131 20.8524 16.734C20.8524 16.5549 20.7969 16.3803 20.6936 16.234C20.3079 15.8013 19.8839 15.4041 19.427 15.0473C18.7563 14.5617 18.0573 14.1165 17.3336 13.714C16.6077 13.3037 15.8549 12.9429 15.0803 12.634C14.9665 12.5817 14.837 12.5746 14.7181 12.6142C14.5993 12.6538 14.4999 12.7372 14.4403 12.8473C14.3526 12.7907 14.2513 12.7585 14.147 12.754C14.0874 12.7574 14.0291 12.7725 13.9754 12.7985C13.9217 12.8245 13.8736 12.8608 13.834 12.9054C13.7943 12.95 13.7639 13.002 13.7444 13.0584C13.7249 13.1148 13.7167 13.1745 13.7203 13.234V18.0607V19.6607C13.7203 19.834 13.5603 20.154 13.5603 20.314C13.562 20.5331 13.6479 20.7432 13.8003 20.9007C13.9063 21.0161 14.0417 21.1007 14.192 21.1453C14.3422 21.1899 14.5018 21.1929 14.6536 21.154C15.1634 21.009 15.6488 20.7888 16.0936 20.5007ZM14.667 13.5807C15.3691 13.916 16.0425 14.3084 16.6803 14.754C17.3215 15.1973 17.9359 15.6781 18.5203 16.194L19.067 16.6073L18.027 17.194C17.2803 17.674 16.4803 18.314 15.6403 18.8473L15.107 19.1807L15.027 18.0207L14.667 13.5673V13.5807Z" fill="#E1DDD4"/>
<path fill-rule="evenodd" clip-rule="evenodd" d="M4.84018 24.6335C4.72447 24.6532 4.6209 24.717 4.55127 24.8115C4.48164 24.906 4.45138 25.0238 4.46685 25.1402C4.47497 25.1982 4.49461 25.2541 4.52462 25.3045C4.55463 25.3548 4.5944 25.3987 4.6416 25.4335C4.68881 25.4683 4.74248 25.4932 4.79948 25.507C4.85648 25.5207 4.91565 25.5229 4.97351 25.5135C5.73351 25.4468 6.49351 25.4068 7.24018 25.3935H8.66685C9.01351 26.9135 9.09351 27.1935 9.53351 27.1668C9.97352 27.1402 10.0002 26.8068 10.1602 25.4068H12.6535C14.6935 25.3002 16.7335 25.2335 18.7602 25.0868C21.8135 24.8868 24.8402 24.5668 27.9068 24.3535C27.9734 24.3518 28.0389 24.3369 28.0998 24.3099C28.1606 24.2828 28.2154 24.244 28.2613 24.1957C28.3071 24.1474 28.3429 24.0906 28.3668 24.0284C28.3906 23.9663 28.402 23.9 28.4002 23.8335C28.3933 23.7003 28.3355 23.5747 28.2388 23.4829C28.142 23.3911 28.0136 23.34 27.8802 23.3402C24.7868 23.3402 21.7335 23.3402 18.6668 23.4335C16.6268 23.5135 14.6668 23.6868 12.5602 23.8202L10.1602 24.0202C10.1667 23.9225 10.1667 23.8245 10.1602 23.7268C9.68018 21.8335 9.33351 21.8335 9.16018 21.8335C8.98685 21.8335 8.65352 21.8335 8.50685 23.8602C8.5002 23.9623 8.5002 24.0647 8.50685 24.1668L7.17352 24.2868C6.40018 24.3935 5.62685 24.5002 4.84018 24.6335Z" fill="#E1DDD4"/>
</g>
<defs>
<clipPath id="clip0_266_1377">
<rect width="32" height="32" fill="white" transform="translate(0 0.5)"/>
</clipPath>
</defs>
</svg>
